<svg id="Capa_1" data-name="Capa 1" xmlns="http://www.w3.org/2000/svg" xmlns:xlink="http://www.w3.org/1999/xlink" viewBox="0 0 1157.71 814.54"><defs><style>.cls-1{fill:#00a5b8;}.cls-2{fill:#67e2f7;}.cls-3{fill:#67e3f8;}.cls-4{fill:#fff;}.cls-5{fill:url(#Degradado_sin_nombre_15);}</style><linearGradient id="Degradado_sin_nombre_15" x1="303.83" y1="194.04" x2="303.83" y2="194.04" gradientUnits="userSpaceOnUse"><stop offset="0" stop-color="#345f83"/><stop offset="1" stop-color="#00a5b8"/></linearGradient></defs><title>form1</title><path class="cls-1" d="M633.36,40.81c271,71.24,618,619.12,501,752-71.12,80.79-228.06-89.18-669-96-219.46-3.39-430.42,34.84-462-43-17.71-43.64,40.56-77.85,36-187-3.62-86.53-40.81-107-24-162,19.42-63.54,74-52.36,124-132,47.43-75.47,22-123,69-156,35-24.56,76.75-17.24,131-9C543.59,38.86,575.29,25.55,633.36,40.81Z"/><circle cx="256.51" cy="361.51" r="108.91"/><circle class="cls-1" cx="256.51" cy="361.51" r="83.78"/><polygon points="214.02 274.87 247.43 265.44 229.03 233.68 213.09 238.18 214.02 274.87"/><polygon points="160.44 370.59 169.87 404 133.18 404.93 128.68 388.98 160.44 370.59"/><polygon points="298.96 448.01 265.55 457.44 283.94 489.21 299.89 484.71 298.96 448.01"/><polygon points="352.44 352.47 343.01 319.06 379.7 318.13 384.21 334.07 352.44 352.47"/><polygon points="164.92 330.14 181.88 299.84 147.05 290.75 138.96 305.2 164.92 330.14"/><polygon points="194.84 436.14 225.14 453.1 200.2 479.06 185.75 470.97 194.84 436.14"/><polygon points="348.1 392.88 331.14 423.18 365.97 432.27 374.06 417.81 348.1 392.88"/><polygon points="318.18 286.88 287.88 269.92 312.81 243.96 327.27 252.05 318.18 286.88"/><polygon points="183.48 297.95 210.6 276.27 181.77 254.73 168.82 265.07 183.48 297.95"/><polygon points="171.27 407.41 192.95 434.54 160.07 449.19 149.72 436.25 171.27 407.41"/><polygon points="329.53 425.07 302.41 446.75 331.25 468.29 344.19 457.95 329.53 425.07"/><polygon points="341.75 315.61 320.07 288.49 352.95 273.83 363.29 286.77 341.75 315.61"/><polygon points="159.93 368.2 163.78 333.7 128.15 338.85 126.31 355.32 159.93 368.2"/><polygon points="228.69 454.24 263.2 458.09 250.32 491.7 233.85 489.87 228.69 454.24"/><polygon points="353.09 354.82 349.24 389.32 384.87 384.17 386.7 367.7 353.09 354.82"/><polygon points="284.32 268.78 249.82 264.93 262.7 231.31 279.17 233.15 284.32 268.78"/><circle cx="437.44" cy="241.73" r="79.04" transform="translate(-42.81 380.12) rotate(-45)"/><circle class="cls-1" cx="437.44" cy="241.73" r="56.18" transform="translate(-42.81 380.12) rotate(-45)"/><polygon points="406.6 178.86 430.85 172.01 417.5 148.96 405.93 152.22 406.6 178.86"/><polygon points="367.72 248.32 374.56 272.57 347.93 273.25 344.66 261.67 367.72 248.32"/><polygon points="468.25 304.51 444 311.36 457.35 334.41 468.92 331.14 468.25 304.51"/><polygon points="507.06 235.17 500.22 210.92 526.85 210.25 530.12 221.82 507.06 235.17"/><polygon points="370.97 218.97 383.27 196.98 358 190.38 352.12 200.87 370.97 218.97"/><polygon points="392.68 295.9 414.67 308.2 396.57 327.05 386.08 321.18 392.68 295.9"/><polygon points="503.91 264.5 491.6 286.49 516.88 293.09 522.75 282.6 503.91 264.5"/><polygon points="482.19 187.57 460.21 175.26 478.3 156.42 488.8 162.29 482.19 187.57"/><polygon points="384.44 195.6 404.12 179.87 383.19 164.24 373.8 171.74 384.44 195.6"/><polygon points="375.58 275.05 391.31 294.73 367.45 305.37 359.94 295.98 375.58 275.05"/><polygon points="490.44 287.86 470.75 303.6 491.68 319.23 501.08 311.73 490.44 287.86"/><polygon points="499.3 208.42 483.57 188.74 507.43 178.1 514.94 187.49 499.3 208.42"/><polygon points="367.34 246.59 370.14 221.55 344.28 225.29 342.95 237.24 367.34 246.59"/><polygon points="417.25 309.03 442.3 311.83 432.94 336.22 421 334.89 417.25 309.03"/><polygon points="507.53 236.88 504.74 261.92 530.59 258.18 531.93 246.23 507.53 236.88"/><polygon points="457.63 174.43 432.58 171.64 441.93 147.25 453.88 148.58 457.63 174.43"/><circle cx="558.84" cy="309.2" r="39.86" transform="translate(-59.09 147.73) rotate(-14.31)"/><path class="cls-1" d="M558.85,328.82h0a19.88,19.88,0,0,1-4.79-.59,19.62,19.62,0,0,1,4.77-38.65,19.63,19.63,0,0,1,19,24.4A19.59,19.59,0,0,1,558.85,328.82Zm0-33a13.44,13.44,0,1,0,3.27.41A13.37,13.37,0,0,0,558.83,295.82Z"/><polygon points="527.48 319.53 529.88 293.57 507.74 298.37 506.59 310.76 527.48 319.53"/><polygon points="542.94 338.24 568.9 340.63 560.13 361.52 547.74 360.38 542.94 338.24"/><polygon points="590.13 298.87 587.74 324.83 609.88 320.03 611.02 307.64 590.13 298.87"/><polygon points="574.72 280.42 548.75 278.03 557.53 257.14 569.92 258.29 574.72 280.42"/><polygon points="543.87 338.69 527.2 318.63 514.94 337.68 522.89 347.25 543.87 338.69"/><polygon points="568.02 340.98 588.08 324.32 596.64 345.29 587.07 353.24 568.02 340.98"/><polygon points="573.56 279.77 590.23 299.83 602.49 280.78 594.53 271.21 573.56 279.77"/><polygon points="549.62 277.63 529.56 294.3 521 273.32 530.57 265.37 549.62 277.63"/><path class="cls-2" d="M284.32,403.48a33.44,33.44,0,0,1-25.62-13.23c-2.7-3.53-2.91-6,1.72-7.76a18.86,18.86,0,0,0,4.44-2.67c3.41-2.56,6-3.07,8.91,1.18,3.85,5.62,9.86,7.07,16.45,6.28,4-.47,7.21-2.23,8.28-6.29s-1-7.24-4.64-9.1c-5.94-3-12.09-5.63-18-8.76-11.09-5.92-15.76-15-14.16-26.88a21.64,21.64,0,0,1,17.12-18.34c11.4-2.41,22.12-1.45,30.35,8.4,2.79,3.35,3.33,5.72-1.25,7.8a39.17,39.17,0,0,0-6.26,3.95c-2.19,1.57-3.85,1.69-5.35-1a9.21,9.21,0,0,0-6.64-4.34c-4.26-.8-8.13.13-9.86,4.51-1.56,4,0,7.54,3.62,9.51,5.84,3.19,12.06,5.67,17.92,8.83,8.67,4.69,15.06,11.09,15.4,21.83C317.31,393.76,306.62,403.51,284.32,403.48Z"/><path class="cls-2" d="M246.83,337.24c0,14.31.27,28.63-.08,42.93C246.43,392.91,240,401,229,403.46c-13.29,3-26.86-2-32.68-11.87-1.59-2.69-1.65-4.37,1.24-5.93a54,54,0,0,0,6.89-4.34c2.87-2.2,4.61-1.53,6.51,1.38,2.94,4.49,7,7,12.63,5s5.5-6.94,5.59-11.69c.34-17,.88-34,.91-51.08,0-4.88,1.42-6.74,6.25-6.13a34.56,34.56,0,0,0,6.67,0c3.79-.28,5.34,1,4.9,5.08-.46,4.4-.1,8.88-.1,13.32Z"/><path class="cls-1" d="M447.68,278.11c-9.63-5-10.33-11.8-1.06-17.61,3.68-2.32,9-2.16,13.55-3.09,1-.19,1.31.65,1.47,1.32,1.58,6.41,3,13,.32,19.22-2.19,5-6.74,3.48-10.75,2A34.55,34.55,0,0,1,447.68,278.11Z"/><path class="cls-3" d="M447.8,282.07c-4.21-1.68-7-6.73-10.46-6.63s-6.75,4.28-10.27,6.43a22.86,22.86,0,0,1-6,2.46c-6.53,1.74-11.06-.92-13-7.43a26.6,26.6,0,0,1-.24-13.83c.84-3.49.41-5.4-3.49-6.5a27.57,27.57,0,0,1-12.27-7.41c-4.89-5.06-4.81-10.4.22-15.3a28.47,28.47,0,0,1,12.44-7.11c3.32-.9,4.05-2.61,3.28-5.76a28.55,28.55,0,0,1-.12-13.84c1.85-7.37,6.55-10.16,13.83-8a32.09,32.09,0,0,1,12.77,7.59c2.06,1.95,3.33,1.73,5.29-.11a31.59,31.59,0,0,1,11.8-7.27c8-2.61,12.92.33,14.7,8.46a34.92,34.92,0,0,1-.36,14.37c-.51,2.6.17,3.51,2.53,4.2a35.89,35.89,0,0,1,10.69,5.27c8.43,6,8.58,13.17.47,19.47a24.52,24.52,0,0,1-9.18,4.91c-4.4,1-5,3.47-4,7.24.29,1.16,1.64,3.12-.94,3.53-2.18.35-3.48-.59-3.35-3,.25-4.36-2.16-4.35-5.68-4a16.75,16.75,0,0,0-13.33,7.82c-2.4,3.47-2,4.9,1.06,7C446.69,276.24,450.22,277.63,447.8,282.07Z"/><path class="cls-1" d="M436.93,257c-3.11-.8-7.07,1.56-9.33-1.67-3-4.3-7.38-8.73-7.2-13.88s4-9.84,7.48-13.74c2.78-3.09,7.26-1.13,11-1.32,2.53-.13,5.66-1.18,7.53,1.21,3.25,4.18,7.34,8.78,7.48,13.76.14,5.22-4.13,10-7.48,14.26C444.08,258.57,440.09,256.28,436.93,257Z"/><path class="cls-1" d="M414.53,241.64c-1.44,3.76-2.84,7.47-4.27,11.16-.44,1.12-1.28.75-2.06.48-4.9-1.68-9.55-3.78-13.18-7.63-2.64-2.8-2.56-5.63.12-8.31,3.62-3.6,8.21-5.49,12.92-7.14.79-.27,1.75-.66,2.15.33C411.71,234.19,413.09,237.9,414.53,241.64Z"/><path class="cls-1" d="M462.37,214.62c-.14,9.31-5,12.32-13.33,7.43-3.36-2-5.43-6.1-8-9.3-.18-.22,0-.85.17-1.22,1.5-3.21,12.9-9.46,16.22-8.63,4.53,1.14,4.52,5.14,4.95,8.74A26.91,26.91,0,0,1,462.37,214.62Z"/><path class="cls-1" d="M411.89,269.25c0-9.53,5.1-12.82,13.52-7.95,3.35,1.93,5.41,6.12,8,9.31.55.68,0,1.28-.44,1.68-4.44,3.81-9.08,7.61-15.11,8-4.88.33-5.52-3.84-6-7.57A31.06,31.06,0,0,1,411.89,269.25Z"/><path class="cls-1" d="M465.32,230c5.77,2.15,11.11,4.1,14.8,8.77a4.32,4.32,0,0,1-.17,5.93c-3.64,4.42-8.65,6.61-13.9,8.4a1.48,1.48,0,0,1-2-.57c-3.92-5-4.1-16.23-.26-21.46C464.3,230.3,464.74,229.62,465.32,230Z"/><path class="cls-1" d="M411.8,212.79c0-.39.06-1.72.23-3,.81-6.31,3.76-8.13,9.57-5.89a13.54,13.54,0,0,1,3.14,1.5c3.09,2.22,7.91,3.21,8.28,7.58.26,3.13-8.52,9.42-12.33,9.89C412,223.91,411.83,223.7,411.8,212.79Z"/><path class="cls-1" d="M417.05,246.63c2.27,3.94,3.72,6.44,5.49,9.52-3-.45-6.21.5-7.45-1.61S416.25,250.22,417.05,246.63Z"/><path class="cls-1" d="M422.45,227.27l-4.75,8.23C413,228.86,413.28,228.34,422.45,227.27Z"/><path class="cls-1" d="M451.91,255.71l4.76-8.17c2.05,2.08,3.61,4.92,2.63,6.8S455,255.92,451.91,255.71Z"/><path class="cls-1" d="M442.93,221.72h-10.4c1-2.49,2.39-5.24,4.4-5.47C439.45,216,440,219.5,442.93,221.72Z"/><path class="cls-1" d="M451.91,227.52c2.93.14,5.88-.59,7.15,1.56,1.17,2-1.13,4.12-1.82,7.59C455.15,233.08,453.68,230.58,451.91,227.52Z"/><path class="cls-1" d="M432.06,263.25H443.6c-1.1,3.09-2.61,6.37-5.07,6.57S435.24,266.05,432.06,263.25Z"/><path class="cls-2" d="M463.42,294.6a12.72,12.72,0,0,1-12.62-12.69,12.78,12.78,0,1,1,25.55-.13A12.61,12.61,0,0,1,463.42,294.6Z"/><path class="cls-1" d="M466.35,279.52c1.47.94,2.63,1.57,3.66,2.36a3.05,3.05,0,0,1,1.05,3.55,3.34,3.34,0,0,1-3.39,2.36c-1.56.08-3.1-.13-4-1.4-.8-1.08-.06-1.85,1.15-1.9,1.05,0,1.9,1.37,3.17.62.26-2.28-1.86-2-2.82-2.9-1.82-1.62-2.06-3.41-.47-5.15a3.21,3.21,0,0,1,4.08-.63c.77.41,1.64.89,1.26,1.8C469.37,279.77,467.58,278.16,466.35,279.52Z"/><path class="cls-1" d="M462.17,280.93c-.08,3.43.57,7.24-4.71,6.79-1-.08-2.06-.61-2.13-1.69-.09-1.32.88-1.37,2-1.25,3.47.38,1.38-2.38,1.95-3.65.68-1.53-.72-4.59,1.52-4.57C463.25,276.58,461.64,279.52,462.17,280.93Z"/><path class="cls-2" d="M436.79,250.32a8.77,8.77,0,0,1,.39-17.54,8.78,8.78,0,1,1-.39,17.54Z"/><circle cx="487.03" cy="495.06" r="125.14"/><circle class="cls-1" cx="487.03" cy="495.06" r="96.26" transform="translate(-207.41 489.38) rotate(-45)"/><polygon points="421.06 405.79 456.87 388.23 429.66 356.4 412.56 364.78 421.06 405.79"/><polygon points="380.2 525.22 397.76 561.04 356.75 569.53 348.37 552.44 380.2 525.22"/><polygon points="553.01 584.33 517.2 601.89 544.41 633.72 561.5 625.34 553.01 584.33"/><polygon points="593.87 464.9 576.31 429.08 617.32 420.59 625.7 437.68 593.87 464.9"/><polygon points="377.04 478.51 389.95 440.77 348.7 437.68 342.54 455.69 377.04 478.51"/><polygon points="432.75 592.14 470.49 605.05 447.67 639.55 429.66 633.39 432.75 592.14"/><polygon points="597.03 511.6 584.12 549.35 625.36 552.44 631.52 534.42 597.03 511.6"/><polygon points="541.32 397.97 503.58 385.06 526.4 350.57 544.41 356.73 541.32 397.97"/><polygon points="391.37 438.3 417.55 408.2 380.51 389.8 368.02 404.17 391.37 438.3"/><polygon points="400.17 564.54 430.27 590.72 396.14 614.08 381.78 601.59 400.17 564.54"/><polygon points="582.7 551.82 556.52 581.92 593.56 600.32 606.05 585.95 582.7 551.82"/><polygon points="573.89 425.58 543.79 399.4 577.93 376.04 592.29 388.53 573.89 425.58"/><polygon points="379.25 522.57 376.48 482.77 337.28 495.95 338.6 514.95 379.25 522.57"/><polygon points="474.75 605.61 514.54 602.84 506.92 643.49 487.93 644.81 474.75 605.61"/><polygon points="594.81 467.55 597.59 507.35 636.79 494.16 635.46 475.17 594.81 467.55"/><polygon points="499.32 384.51 459.53 387.28 467.15 346.63 486.14 345.31 499.32 384.51"/><path class="cls-2" d="M495.06,499.23c4.12,0,8.24,0,12.36,0,10.34-.08,16.58-5.65,17.53-16a84.44,84.44,0,0,0,.13-12.32c-.19-3.47,1.2-4.3,4.51-4.42,13.69-.5,20,4,23,17.38a60.26,60.26,0,0,1-.17,28.26c-2.68,10.72-9.5,15.86-20.53,15.88-12.15,0-24.29,0-36.43.05-2,0-5.09-.81-4.9,2.47.15,2.56,3,1.89,4.81,1.91,6.94.07,13.89.23,20.82-.05,4.09-.16,5,1.41,5.11,5.26.31,16.61-3.31,20.54-20,22.8a71.52,71.52,0,0,1-28.93-1.76c-9.21-2.54-12.72-7.44-12.73-16.93,0-9.08-.1-18.17.22-27.24.29-8.08,5.13-13,13.16-14.42C480.34,498.81,487.71,499.41,495.06,499.23Z"/><path class="cls-2" d="M461.21,462.32c6.29,0,12.58.07,18.87,0,2,0,5.28.88,5.32-2,0-3.55-3.51-2.29-5.61-2.34-6.71-.16-13.44-.21-20.16,0-3.62.12-4.82-1.05-4.92-4.77-.44-15.59-1-21.06,25.35-23.94a61.34,61.34,0,0,1,23.77,2.46c9.11,2.64,12.54,7.49,12.55,17.08,0,8.87.11,17.74-.18,26.6-.28,8.54-5,13.53-13.38,14.87-11.21,1.78-22.5.64-33.75.87C458,491.32,451.8,497,451,507.94c-.12,1.51.11,3.05-.13,4.53-.59,3.68,2.15,9.59-1.49,10.65-5.7,1.65-12.47,2.14-18-2.4a22.26,22.26,0,0,1-7.45-11.9,61.71,61.71,0,0,1-.31-30.78c2.67-10.67,9.53-15.69,20.67-15.72Z"/><path class="cls-4" d="M514.29,545.46c-.37,3.4-1.86,5.8-5.65,5.79-3.62,0-5.72-2-5.82-5.58-.1-3.39,2.07-5.19,5.25-5.43C511.66,540,513.72,541.91,514.29,545.46Z"/><path class="cls-4" d="M474.56,444.19c0,3.89-2,6-5.48,6.05s-5.9-1.85-6-5.36,1.89-5.66,5.53-5.76S474.13,440.94,474.56,444.19Z"/><path class="cls-5" d="M303.83,194"/></svg>