<svg id="Capa_1" data-name="Capa 1" xmlns="http://www.w3.org/2000/svg" xmlns:xlink="http://www.w3.org/1999/xlink" viewBox="0 0 1157.71 814.54"><defs><style>.cls-1{fill:url(#Degradado_sin_nombre_14);}.cls-2{fill:#67e2f7;}.cls-3{fill:url(#Degradado_sin_nombre_35);}.cls-4{fill:url(#Degradado_sin_nombre_35-2);}.cls-5{fill:#67e3f8;}.cls-6{fill:url(#Degradado_sin_nombre_35-3);}.cls-7{fill:#fff;}</style><linearGradient id="Degradado_sin_nombre_14" x1="17.66" y1="148.28" x2="476.64" y2="445.27" gradientUnits="userSpaceOnUse"><stop offset="0" stop-color="#00a5b8"/><stop offset="1" stop-color="#345f83"/></linearGradient><linearGradient id="Degradado_sin_nombre_35" x1="472.75" y1="266.43" x2="558.9" y2="322.17" gradientUnits="userSpaceOnUse"><stop offset="0" stop-color="#345f83"/><stop offset="0.04" stop-color="#375e83"/><stop offset="0.32" stop-color="#485b82"/><stop offset="0.62" stop-color="#525982"/><stop offset="1" stop-color="#555882"/></linearGradient><linearGradient id="Degradado_sin_nombre_35-2" x1="312.58" y1="174.61" x2="471.42" y2="277.39" xlink:href="#Degradado_sin_nombre_35"/><linearGradient id="Degradado_sin_nombre_35-3" x1="109.2" y1="264.7" x2="567.38" y2="561.17" xlink:href="#Degradado_sin_nombre_35"/></defs><title>form1</title><path class="cls-1" d="M633.36,40.81c-58.07-15.26-89.77-2-294-33-54.25-8.24-96-15.56-131,9-47,33-21.57,80.53-69,156-50,79.64-104.58,68.46-124,132-16.81,55,20.38,75.47,24,162,4.56,109.15-53.71,143.36-36,187,31.58,77.84,242.54,39.61,462,43,440.94,6.82,597.88,176.79,669,96C1251.34,659.93,904.41,112.05,633.36,40.81Z"/><path class="cls-2" d="M512.58,307.18a13.49,13.49,0,0,0,3.27.4,13.38,13.38,0,0,0,3.25-26.35,13.38,13.38,0,1,0-6.52,25.95Z"/><path class="cls-3" d="M478,258.32l5.27,12.91a39.39,39.39,0,0,0-4.82,9.16l-13.71,3-1.15,12.39,13,5.46a40,40,0,0,0,3,9.56l-7.66,11.9,7.95,9.57L493,326.89a40.08,40.08,0,0,0,8.7,4.59l3,13.9,12.39,1.14,5.47-13a40.31,40.31,0,0,0,9.55-2.92l11.92,7.67,9.57-7.95-5.31-13a39.49,39.49,0,0,0,4.91-9.3l13.64-3L568,292.64l-12.94-5.43a40,40,0,0,0-3.09-9.79l7.49-11.64-8-9.57-12.92,5.28a39.3,39.3,0,0,0-8.74-4.59l-3-13.61-12.39-1.15-5.36,12.76a39.79,39.79,0,0,0-9.85,3l-11.75-7.57Zm18.81,31.11a19.6,19.6,0,0,1,19-14.85,19.63,19.63,0,0,1,19,24.4,19.59,19.59,0,0,1-19,14.84,19.88,19.88,0,0,1-4.79-.59A19.64,19.64,0,0,1,496.81,289.43Z"/><path class="cls-2" d="M256.39,340.6c-5.86-3.16-12.08-5.64-17.92-8.83-3.61-2-5.18-5.53-3.62-9.51,1.73-4.38,5.6-5.31,9.86-4.51a9.21,9.21,0,0,1,6.64,4.34c1.5,2.66,3.16,2.54,5.35,1a39.17,39.17,0,0,1,6.26-3.95c4.58-2.08,4-4.45,1.25-7.8-8.23-9.85-18.95-10.81-30.35-8.4a21.64,21.64,0,0,0-17.12,18.34c-1.6,11.86,3.07,21,14.16,26.88,5.87,3.13,12,5.76,18,8.76,3.67,1.86,5.73,4.91,4.64,9.1s-4.28,5.82-8.28,6.29c-6.59.79-12.6-.66-16.45-6.28-2.9-4.25-5.5-3.74-8.91-1.18a18.86,18.86,0,0,1-4.44,2.67c-4.62,1.78-4.42,4.23-1.72,7.76a33.44,33.44,0,0,0,25.62,13.23c22.3,0,33-9.72,32.47-26.05C271.45,351.69,265.06,345.29,256.39,340.6Z"/><path class="cls-2" d="M198,303.83a34.56,34.56,0,0,1-6.67,0c-4.83-.61-6.25,1.25-6.25,6.13,0,17-.57,34.06-.91,51.08-.09,4.75.08,9.7-5.59,11.69s-9.69-.52-12.63-5c-1.9-2.91-3.64-3.58-6.51-1.38a54,54,0,0,1-6.89,4.34c-2.89,1.56-2.83,3.24-1.24,5.93,5.82,9.82,19.39,14.87,32.68,11.87,10.95-2.47,17.43-10.55,17.75-23.29.35-14.3.08-28.62.08-42.93h1c0-4.44-.36-8.92.1-13.32C203.35,304.79,201.8,303.55,198,303.83Z"/><path class="cls-4" d="M313.81,237.49l-14.59,8.45,3.27,11.57,16.85-.42a78.66,78.66,0,0,0,5.07,9.89l-9.91,13.26,7.51,9.4,15.13-6.75a79.34,79.34,0,0,0,7.69,6.52l-4.19,16,10.5,5.87,11.47-11.95a77.48,77.48,0,0,0,10.57,3.4l2.38,16.4,11.95,1.33L393.43,305a76.9,76.9,0,0,0,10.09-.86l8.39,14.5,11.57-3.27-.42-16.74a79.11,79.11,0,0,0,9.92-5.08l13.26,9.91,9.4-7.51-6.75-15.13a79.34,79.34,0,0,0,6.52-7.69l16,4.19,5.87-10.5-11.95-11.47a77.48,77.48,0,0,0,3.4-10.57l16.4-2.38,1.33-11.95L471,224.57a76.9,76.9,0,0,0-.86-10.09l14.5-8.39-3.27-11.57-16.74.42a79.11,79.11,0,0,0-5.08-9.92l9.91-13.26-7.51-9.4-15.13,6.75a79.34,79.34,0,0,0-7.69-6.52l4.19-16-10.5-5.87-11.47,11.95a77.48,77.48,0,0,0-10.57-3.4l-2.38-16.4-11.95-1.33L390.57,147a78.17,78.17,0,0,0-10.06.85l-8.45-14.59-11.57,3.27.42,16.85a78.66,78.66,0,0,0-9.89,5.07l-13.26-9.91-9.4,7.51,6.75,15.13a79.34,79.34,0,0,0-6.52,7.69l-16-4.19-5.87,10.5,11.95,11.47a77.48,77.48,0,0,0-3.4,10.57l-16.4,2.38-1.33,11.95L313,227.43A78.17,78.17,0,0,0,313.81,237.49Zm62.93-65.56a56.18,56.18,0,0,1,54.15,94.62A12.58,12.58,0,0,1,418,278.86a12.74,12.74,0,0,1-4.6-.92,56.18,56.18,0,1,1-36.64-106Z"/><path class="cls-5" d="M359,239.83c3.89,1.11,4.32,3,3.49,6.51a26.6,26.6,0,0,0,.23,13.83c1.92,6.51,6.45,9.17,13,7.43a22.75,22.75,0,0,0,6-2.47c3.52-2.14,6.8-6.33,10.27-6.43s6.26,5,10.46,6.64c2.42-4.45-1.1-5.84-3.56-7.5-3.06-2.07-3.46-3.49-1.06-7a16.79,16.79,0,0,1,13.34-7.83c3.51-.32,5.92-.32,5.68,4-.14,2.44,1.16,3.39,3.34,3,2.58-.42,1.23-2.37.94-3.54-.94-3.77-.38-6.2,4-7.23a24.54,24.54,0,0,0,9.18-4.92c8.11-6.3,8-13.46-.47-19.46a35.66,35.66,0,0,0-10.69-5.27c-2.36-.69-3-1.61-2.52-4.2.93-4.72,1.41-9.51.35-14.37-1.77-8.14-6.73-11.08-14.7-8.47a31.74,31.74,0,0,0-11.8,7.28c-2,1.84-3.23,2.06-5.29.11a31.91,31.91,0,0,0-12.77-7.59c-7.28-2.2-12,.58-13.82,7.95a28.47,28.47,0,0,0,.11,13.85c.77,3.14,0,4.85-3.28,5.76a28.35,28.35,0,0,0-12.44,7.1c-5,4.91-5.11,10.24-.22,15.3A27.42,27.42,0,0,0,359,239.83Zm28.58,15.73c-4.44,3.81-9.07,7.61-15.11,8-4.88.32-5.52-3.84-6-7.58a28.83,28.83,0,0,1,0-3.48c0-9.52,5.1-12.81,13.52-7.95,3.36,1.94,5.41,6.13,8,9.32C388.55,254.55,388,255.16,387.56,255.56Zm-10.55-45-4.75,8.22C367.58,212.12,367.84,211.61,377,210.54Zm.09,28.87c-3-.44-6.21.5-7.45-1.61s1.16-4.31,2-7.91C373.88,233.84,375.33,236.34,377.1,239.41Zm16,13.68c-2.46.2-3.29-3.78-6.47-6.57h11.54C397.06,249.6,395.55,252.89,393.09,253.09Zm-1.6-12.79c-3.11-.8-7.07,1.57-9.33-1.66-3-4.3-7.38-8.73-7.2-13.89s4-9.84,7.49-13.74c2.77-3.08,7.25-1.12,10.95-1.31,2.53-.13,5.66-1.18,7.53,1.21,3.25,4.18,7.35,8.78,7.48,13.75.14,5.23-4.13,10-7.48,14.26C398.64,241.84,394.65,239.55,391.49,240.3Zm15-29.51c2.94.14,5.88-.6,7.15,1.56,1.18,2-1.13,4.12-1.82,7.59Zm7.39,26.81c-1,2-4.32,1.59-7.39,1.38l4.76-8.17C413.28,232.88,414.84,235.73,413.86,237.6Zm4.48-23.31c.53-.72,1-1.4,1.54-1.07,5.77,2.15,11.11,4.1,14.8,8.77a4.32,4.32,0,0,1-.17,5.93c-3.64,4.42-8.65,6.6-13.9,8.39a1.47,1.47,0,0,1-2-.57C414.68,230.73,414.5,219.52,418.34,214.29Zm-22.6-19.49c1.49-3.21,12.89-9.47,16.21-8.63,4.53,1.14,4.53,5.14,4.95,8.74a26.91,26.91,0,0,1,0,3c-.13,9.31-5,12.31-13.33,7.43-3.35-2-5.43-6.11-8-9.3C395.39,195.8,395.57,195.17,395.74,194.8Zm-4.25,4.72c2.52-.28,3.06,3.24,6,5.46h-10.4C388.06,202.5,389.48,199.74,391.49,199.52Zm-24.9-6.5c.81-6.31,3.76-8.13,9.57-5.9a13.79,13.79,0,0,1,3.14,1.51c3.09,2.21,7.91,3.21,8.28,7.57.26,3.14-8.52,9.42-12.33,9.9-8.66,1.08-8.86.87-8.89-10C366.39,195.67,366.43,194.33,366.59,193Zm-16.88,27.59c3.61-3.6,8.2-5.5,12.91-7.14.79-.28,1.75-.66,2.15.33,1.5,3.65,2.88,7.37,4.32,11.11-1.44,3.76-2.84,7.46-4.27,11.16-.44,1.12-1.28.74-2.06.48-4.9-1.68-9.55-3.79-13.18-7.64C346.94,226.12,347,223.29,349.71,220.61Z"/><path class="cls-2" d="M417.34,255.2a13,13,0,0,0-13,13,12.77,12.77,0,0,0,25.53.38c0-.17,0-.33,0-.51A12.91,12.91,0,0,0,417.34,255.2Zm-1.61,12c-.08,3.43.57,7.23-4.71,6.79-1-.09-2.06-.61-2.13-1.69-.09-1.32.88-1.38,2-1.25,3.47.37,1.38-2.39,1.95-3.65.68-1.54-.72-4.59,1.52-4.58C416.81,262.85,415.2,265.78,415.73,267.2Zm8.89,4.5a3.36,3.36,0,0,1-3.39,2.36c-1.56.08-3.1-.13-4-1.4-.8-1.08-.06-1.86,1.16-1.9,1,0,1.9,1.36,3.16.62.27-2.29-1.86-2-2.82-2.9-1.82-1.62-2.06-3.41-.47-5.15a3.21,3.21,0,0,1,4.08-.64c.77.41,1.64.89,1.27,1.8-.64,1.55-2.43-.06-3.66,1.29,1.48.94,2.63,1.58,3.67,2.37A3,3,0,0,1,424.62,271.7Z"/><path class="cls-2" d="M391.74,216.05a8.77,8.77,0,0,0-.39,17.53,8.77,8.77,0,1,0,.39-17.53Z"/><path class="cls-6" d="M567,487.51l24.83-8.35-1.33-19-25.73-4.82a123.91,123.91,0,0,0-4.17-15.45l20.14-17.22-8.38-17.09L546.38,411a125.57,125.57,0,0,0-10.73-14l11.64-23.45L532.93,361l-21.62,14.79a124.5,124.5,0,0,0-13.86-8l2-26.14-18-6.16-14.46,21.86a125.88,125.88,0,0,0-17.45-2.3l-8.35-24.82-19,1.32-4.83,25.73a124.85,124.85,0,0,0-15.45,4.17L384.66,341.4l-17.1,8.38,5.37,25.94a123.36,123.36,0,0,0-14,10.73L335.51,374.8,323,389.17l14.79,21.61a126.42,126.42,0,0,0-8,13.86l-26.13-2-5.89,17.2-7.91-17.75a109.25,109.25,0,0,0,9-10.62L321,417.27l8.09-14.46L312.61,387a109.63,109.63,0,0,0,4.7-14.58l22.56-3.26,1.83-16.47-21.27-8.15a109.64,109.64,0,0,0-1.16-13.93l19.94-11.55-4.51-15.94-23,.58a107.56,107.56,0,0,0-7-13.69l13.64-18.25L308,258.83l-20.82,9.28a109.25,109.25,0,0,0-10.62-9l5.76-22.07L267.81,229,252,245.41a109.63,109.63,0,0,0-14.58-4.7l-3.26-22.56-16.47-1.84-8.16,21.28a108.87,108.87,0,0,0-13.88,1.16L184,218.68l-15.94,4.5.58,23.18a109.59,109.59,0,0,0-13.65,7l-18.25-13.63-13,10.34,9.29,20.82a108.07,108.07,0,0,0-9,10.62l-22.07-5.76L94,290.2,110.41,306a109.63,109.63,0,0,0-4.7,14.58l-22.56,3.26-1.84,16.47,21.28,8.15a110.7,110.7,0,0,0,1.15,13.89L83.67,374l4.51,15.95,23.18-.59a109,109,0,0,0,7,13.66l-13.64,18.25,10.35,12.94,20.82-9.28a108.07,108.07,0,0,0,10.62,9L140.75,456l14.45,8.09L171,447.61a110.24,110.24,0,0,0,14.59,4.7l3.26,22.56,16.47,1.83,8.15-21.27a109.64,109.64,0,0,0,13.93-1.16l11.54,19.94,15.95-4.5-.58-23a106.77,106.77,0,0,0,13.68-7l18.26,13.64L299.19,443l-.73-1.65,20.94,13.86a124.37,124.37,0,0,0-2.29,17.45L292.28,481l1.32,19,25.74,4.82a123.12,123.12,0,0,0,4.17,15.45l-20.14,17.22,8.38,17.09,25.94-5.37a125.57,125.57,0,0,0,10.73,14l-11.64,23.44,14.36,12.5,21.62-14.8a123.79,123.79,0,0,0,13.85,8l-1.95,26.14,18,6.16,14.46-21.86a125.88,125.88,0,0,0,17.45,2.3l8.35,24.82,19-1.32,4.82-25.73a125.67,125.67,0,0,0,15.45-4.17l17.22,20.13,17.1-8.38-5.38-25.94a125.57,125.57,0,0,0,14-10.73l23.45,11.65L561.05,571l-14.79-21.61a128.06,128.06,0,0,0,8-13.86l26.13,2,6.16-18L564.66,505A124.38,124.38,0,0,0,567,487.51ZM234.27,427.14a83.78,83.78,0,1,1,57.87-103.39A83.78,83.78,0,0,1,234.27,427.14ZM484.41,566.49a96.26,96.26,0,1,1,44.05-128.8A96.26,96.26,0,0,1,484.41,566.49Z"/><path class="cls-2" d="M484.59,451.52c-3.31.12-4.7,1-4.51,4.42a84.44,84.44,0,0,1-.13,12.32c-.95,10.32-7.19,15.89-17.53,16-4.12,0-8.24,0-12.36,0-7.35.18-14.72-.42-22,.9-8,1.45-12.87,6.33-13.16,14.42-.32,9.07-.23,18.16-.22,27.24,0,9.49,3.52,14.39,12.73,16.93a71.52,71.52,0,0,0,28.93,1.76c16.71-2.26,20.33-6.19,20-22.8-.07-3.85-1-5.42-5.11-5.26-6.93.28-13.88.12-20.82.05-1.82,0-4.66.65-4.81-1.91-.19-3.28,2.95-2.46,4.9-2.47,12.14-.08,24.28,0,36.43-.05,11,0,17.85-5.16,20.53-15.88a60.26,60.26,0,0,0,.17-28.26C504.55,455.51,498.28,451,484.59,451.52Zm-21.52,73.72c3.59-.27,5.65,1.67,6.22,5.22-.37,3.4-1.86,5.8-5.65,5.79-3.62,0-5.72-2-5.82-5.58C457.72,527.28,459.89,525.48,463.07,525.24Z"/><path class="cls-2" d="M424.07,476.1c11.25-.23,22.54.91,33.75-.87,8.39-1.34,13.1-6.33,13.38-14.87.29-8.86.19-17.73.18-26.6,0-9.59-3.44-14.44-12.55-17.08a61.34,61.34,0,0,0-23.77-2.46c-26.32,2.88-25.79,8.35-25.35,23.94.1,3.72,1.3,4.89,4.92,4.77,6.72-.21,13.45-.16,20.16,0,2.1.05,5.65-1.21,5.61,2.34,0,2.89-3.33,2-5.32,2-6.29.11-12.58,0-18.87,0H399.3c-11.14,0-18,5.05-20.67,15.72a61.71,61.71,0,0,0,.31,30.78,22.26,22.26,0,0,0,7.45,11.9c5.5,4.54,12.27,4,18,2.4,3.64-1.06.9-7,1.49-10.65.24-1.48,0-3,.13-4.53C406.8,482,413,476.32,424.07,476.1Zm0-40.86c-3.41.09-5.9-1.85-6-5.36s1.89-5.66,5.53-5.76,5.52,1.82,5.95,5.07C429.53,433.08,427.55,435.16,424.08,435.24Z"/><path class="cls-7" d="M463.64,536.25c3.79,0,5.28-2.39,5.65-5.79-.57-3.55-2.63-5.49-6.22-5.22-3.18.24-5.35,2-5.25,5.43C457.92,534.25,460,536.23,463.64,536.25Z"/><path class="cls-7" d="M423.61,424.12c-3.64.1-5.63,2.35-5.53,5.76s2.59,5.45,6,5.36,5.45-2.16,5.48-6.05C429.13,425.94,427.18,424,423.61,424.12Z"/></svg>