<svg id="Layer_1" data-name="Layer 1" xmlns="http://www.w3.org/2000/svg" viewBox="0 0 841.14 694.86"><title>lang</title><path d="M645.12,439.31l64,80a18.29,18.29,0,1,1-27.45,24.17q-.57-.65-1.08-1.35l-58.88-73.58-58.88,73.58a18.28,18.28,0,1,1-29.6-21.47q.51-.69,1.08-1.35l64-80-18.84-23.52A18.29,18.29,0,0,1,608,392.93l13.67,17.12,35.11-43.89H530.29a18.29,18.29,0,1,1,0-36.57h73.18V311.31a18.29,18.29,0,1,1,36.57,0v18.32h73.14a18.29,18.29,0,1,1,0,36.57h-9.51l-58.51,73.15ZM180.19,306.73,144.9,391.47a18.3,18.3,0,0,1-33.8-14L202.53,158a18.29,18.29,0,0,1,33.76,0l91.43,218.84A18.29,18.29,0,0,1,294,391l-35.18-84.23Zm15.25-36.57h48.09l-24.06-57.63ZM36.57,439.31H237.71a18.29,18.29,0,1,1,0,36.57H18.29A18.29,18.29,0,0,1,0,457.59V91.88A18.29,18.29,0,0,1,18.29,73.59H475.43a18.29,18.29,0,0,1,0,36.57H36.57V439.31Zm768-182.86H603.43a18.29,18.29,0,1,1,0-36.57H822.86a18.27,18.27,0,0,1,18.28,18.28V603.88a18.27,18.27,0,0,1-18.28,18.28H365.71a18.29,18.29,0,1,1,0-36.57H804.57ZM624.79,8.6a18.29,18.29,0,0,1,31,19.37c-.19.31-.39.6-.6.89L216.36,687.15a18.29,18.29,0,0,1-30.43-20.26Z"/></svg>