<?xml version="1.0" encoding="utf-8"?>
<!-- Generator: Adobe Illustrator 22.0.1, SVG Export Plug-In . SVG Version: 6.00 Build 0)  -->
<svg version="1.1" id="Capa_1" xmlns="http://www.w3.org/2000/svg" xmlns:xlink="http://www.w3.org/1999/xlink" x="0px" y="0px"
	 viewBox="0 0 761.2 768" enable-background="new 0 0 761.2 768" xml:space="preserve">
<g>
	<path fill="#FFFFFF" d="M379.4,759.8C171.2,759.8,2.5,591,2.5,382.9H1.2c0,0.2,0,0.4,0,0.6C1.2,592,170.2,761,378.7,761
		s377.5-169,377.5-377.5c0-0.1,0-0.2,0-0.3C756.1,591.2,587.4,759.8,379.4,759.8z"/>
</g>
<g>
	<path fill="#00DBE7" d="M379.4,759.8c208,0,376.7-168.6,376.9-376.6C756.1,175.1,587.5,6.3,379.4,6v152.2
		c124.1,0,224.7,100.6,224.7,224.7S503.4,607.5,379.4,607.5S154.7,507,154.7,382.9H2.5C2.5,591,171.2,759.8,379.4,759.8z"/>
</g>
<g>
	<path fill="#2C3E50" d="M154.7,382.9c0,124.1,100.6,224.7,224.7,224.7S604,507,604,382.9S503.4,158.2,379.4,158.2v224.7H154.7z"/>
</g>
<g>
	<path fill="#97ECC5" d="M379.4,6L379.4,6C171.2,6,2.5,174.7,2.5,382.9h152.2h224.7V158.2V6z"/>
</g>
</svg>
