<svg id="Capa_1" data-name="Capa 1" xmlns="http://www.w3.org/2000/svg" viewBox="0 0 280 280"><defs><style>.cls-1{fill:#32dbfe;}.cls-2{fill:#005cfe;}.cls-3{fill:#0041cb;}.cls-4{fill:#1c9cf1;}</style></defs><title>Mesa de trabajo 12 copia 2</title><path class="cls-1" d="M264.6,142.68c0,69.62-55.16,124.83-124.73,124.83C70,267.5,14.25,211.92,14.32,142.35A125.25,125.25,0,0,1,140.15,17.23C209.22,17.39,264.59,73.21,264.6,142.68Z"/><path class="cls-2" d="M139.57,252.77c-57.3-.32-110-43.76-110.12-110.13-.14-61,45.26-109.78,109.8-110.27,64.78-.49,110.45,51,110.58,110.43C250,203.5,200.41,252.77,139.57,252.77Z"/><path class="cls-3" d="M139.88,83.41V57C156.7,76.36,172.63,95,177.75,120.57c6.95,34.74-3.36,63.49-29,86.66-5.58,5-5,11.29-8.3,16.42-3.21-7.11-2.35-14.77-2.41-22.15-.29-35.74-.16-71.49-.1-107.24C137.91,90.56,137.26,86.67,139.88,83.41Z"/><path class="cls-1" d="M137.2,216.93c.94-6.24-3.24-9.8-7-13.61-13.42-13.42-25.61-27.81-28.83-47.22-5.44-32.69,1.24-62.3,24.62-86.89,3.82-4,8.65-7.06,12.74-10.34V83.21c1,2,.62,4.22.62,6.34,0,40.29.06,80.57-.1,120.86C139.2,212.52,141.5,215.93,137.2,216.93Z"/><path class="cls-4" d="M137.2,216.93c2.51-2.76,1.35-6.14,1.36-9.22q.16-62.25.13-124.5a9.85,9.85,0,0,0,1.19.2q.18,62.86.36,125.74c0,4.83.12,9.67.18,14.5-.15,1-.3,2-.44,3l-.93.25Z"/></svg>