<svg id="Capa_1" data-name="Capa 1" xmlns="http://www.w3.org/2000/svg" viewBox="0 0 280 280"><defs><style>.cls-1{fill:#233547;}.cls-2{fill:#606d7a;}</style></defs><title>Mesa de trabajo 1_1</title><path class="cls-1" d="M139.24,11A129.4,129.4,0,0,1,269,140.82C269,213.66,210.75,271,136.78,271,66.36,271,9,212.13,9,140S66.61,11,139.24,11Z"/><path class="cls-2" d="M124.2,196.41c-7.61,3.94-5.86,12.49-13.4,14.39-10.54,2.66-18.4.08-25-9.91C81.77,194.67,77,190.08,69,190.51c-1.33.07-3-.16-3.52,1.53s.74,2.64,1.88,3.35c6.56,4.08,9.55,10.6,12.4,17.37,4.41,10.49,13,14.2,23.71,13.2,7.38-.69,10.23,1.12,10,9.28-.58,19.14-.14,19.15-18.14,11.81C23.31,217.68.85,124.85,52,66.49c31.44-35.9,71.35-48.19,117-36s73,43.9,82.68,89.77c11.16,53-21,108.84-71.67,127.76-6.32,2.36-7.62-.49-7.79-5.37-.25-7.54-.08-15.09-.09-22.63,0-13,0-13-4.72-23.33,4.66-2.83,10.14-2.6,15.18-4,18.41-5.09,30-18.13,32.83-37,2.62-17.65,1.71-34.51-9.91-49.22a6.92,6.92,0,0,1-1.2-7.06c2.35-6.53-.18-12.69-1.39-18.9-.69-3.55-2.67-6.11-7.19-4.44-3.11,1.14-7,.86-9.53,2.69-12.66,9.36-26.68,6.55-40.67,5.65-6.6-.43-13.56-.53-19.87,1.1-7.49,1.93-13.48.49-19.76-3.31A48.47,48.47,0,0,0,89.54,76c-5.37-1-7.21,1.12-8.18,5.53a11.5,11.5,0,0,0-.56,4.13c3,16.69-8,30.35-9.92,45.74-3.91,32.26,8.63,55,42,62.59C115.89,194.66,118.87,195.27,124.2,196.41Z"/></svg>