<svg id="Capa_1" data-name="Capa 1" xmlns="http://www.w3.org/2000/svg" viewBox="0 0 280 280"><defs><style>.cls-1{fill:#459400;}.cls-2{fill:#cdfe9e;}.cls-3{fill:#ccfd9d;}.cls-4{fill:#f6faf3;}.cls-5{fill:#489705;}.cls-6{fill:#f1f7ec;}.cls-7{fill:#f1f6ec;}</style></defs><title>Mesa de trabajo 12 copia</title><circle class="cls-1" cx="140" cy="140" r="130"/><path class="cls-1" d="M267,122.13v38.21c-2.08,15.1-4.23,30-12.25,43.64-16.09,27.47-38.39,47.41-68,58.93-7.85,3-16.57,2.22-24.75,4.09H119.05a99,99,0,0,1-54.16-19.7c-22.74-16.91-39.2-38.35-48-65.43-2.48-7.61-2.83-15.63-3.28-23.49-1.86-32.92-.46-65,20.77-93.08,18-23.82,40.49-41.08,69.31-49,14-3.85,28.81-3,43.35-3.3,35.64-.65,64.76,13.78,88.72,39C254.23,71.56,265.79,94.66,267,122.13Z"/><path class="cls-2" d="M218.6,221.6c-1.9-18.94-4-35.95-1.88-53.13a138.47,138.47,0,0,0,.64-30.17c-.56-6.05,1.17-9.42,6.27-12.1,4.64-2.45,8.19-5.93,7.13-12-1.25-7.16-6.7-11.1-14.86-9-6.52,1.68-10.73-.1-15.55-4.36-31.45-27.82-87.2-27.58-118.66.49-4.38,3.9-8.25,5.69-14.13,4-6.43-1.9-12.31-.53-15,6.58-2.59,6.78.69,11.44,6.49,14.29S65.8,132.93,65.2,139c-1.78,18,2.63,35.94,1.35,54-.53,7.4-1,14.8-1.69,22.19-.15,1.76.48,4.12-1.5,5.05-2.63,1.22-3.6-1.45-4.92-2.9C37,193.75,27,165.86,29.4,134.21,33.88,75.75,78.8,32.82,137.34,30.07c64.63-3,120.34,55.51,114.44,120C249.3,177.21,239,200.56,218.6,221.6Z"/><path class="cls-2" d="M133.36,143c.13,16-12.37,29.37-27.39,29.24-12.26-.11-22.88-11-23.23-23.75-.38-14.48,12.7-29.21,26-29.26C122.73,119.17,133.24,129.32,133.36,143Z"/><path class="cls-2" d="M199.91,148.34c-.18,13-11.3,24.18-23.86,23.89-14.78-.34-26.88-13.48-26.77-29.08.1-13.73,10.48-23.87,24.48-23.92C187.09,119.18,200.1,133.67,199.91,148.34Z"/><path class="cls-3" d="M131.69,185.92c-4.34-.94-8.23-2.58-8.75-7.67-.4-3.88,2-6.41,5.21-8.09,1.57-.83,2.73-1.49,3.88,1.45,2.55,6.57,14.58,8.63,17.93,2.86,2.33-4,3.2-5.58,6.62-1.74,2.77,3.12,5.7,7.89,1.08,9.9-6.21,2.69-6.35,7.79-8.3,12.42-3.24-2.39-6.28-5-10.79-4.77C135.48,190.44,133.63,188,131.69,185.92Z"/><path class="cls-4" d="M131.69,185.92c3.35.42,6.86,1.69,10,1.08,7.4-1.44,8.64,2,7.65,8.05-4.23,3.33-9.23,2-13.62,1.31C129.61,195.42,132.4,189.71,131.69,185.92Z"/><path class="cls-5" d="M118.76,146.49a10.57,10.57,0,0,1-10.71,10.37,10,10,0,0,1-9.9-10.93c.35-6.27,3.82-9.57,10.09-9.71A9.93,9.93,0,0,1,118.76,146.49Z"/><path class="cls-5" d="M174.3,136.2c6.22,0,10.33,4.17,10.23,10.4-.11,6.44-3.88,9.59-9.8,10.18-5.61.57-10.7-4.48-10.85-10.18C163.72,140.68,168.22,136.2,174.3,136.2Z"/><path class="cls-6" d="M114.28,142c-.1,2.2-1.36,3.49-3.45,3.33a3.12,3.12,0,0,1-3.08-3.71,3,3,0,0,1,3-2.94A3.09,3.09,0,0,1,114.28,142Z"/><path class="cls-7" d="M174.89,142.58a3.06,3.06,0,0,1-3.8,2.72,3.12,3.12,0,0,1-2.65-4,3,3,0,0,1,3.38-2.54C173.87,138.86,175.05,140.18,174.89,142.58Z"/></svg>