<svg id="Capa_1" data-name="Capa 1" xmlns="http://www.w3.org/2000/svg" viewBox="0 0 280 280"><defs><style>.cls-1{fill:#472c09;}.cls-2{fill:#fad607;}.cls-3{fill:#f6de77;}.cls-4{fill:#cdc6bd;}.cls-5{fill:#d5cfc7;}.cls-6{fill:#cbc4bb;}.cls-7{fill:#482d0a;}.cls-8{fill:#4e330e;}</style></defs><title>Mesa de trabajo 12 copia 9</title><circle class="cls-1" cx="140" cy="140" r="130"/><path class="cls-2" d="M139.8,254.19A113.88,113.88,0,0,1,26,139.87c.06-63,51.31-114.21,114.16-114.06a114.19,114.19,0,0,1-.4,228.38Z"/><path class="cls-1" d="M139.08,193.41c-18.3,0-36.6,0-54.9,0-10.11,0-13.61-3.47-13.62-13.48q-.06-41.65,0-83.32c0-9.58,3.58-13.22,13-13.23q55.7-.08,111.41,0c9,0,12.77,3.69,12.8,12.65q.1,42.48,0,84.94c0,8.49-3.8,12.36-12.24,12.41C176.75,193.48,157.91,193.41,139.08,193.41Z"/><path class="cls-3" d="M140.6,185.58c-16.95,0-33.9-.24-50.85.12-7.13.14-9.44-2.68-9.34-9.55.27-19.68.24-39.36,0-59-.08-6.57,2.48-9.29,9-9.27q51.26.16,102.5,0c7,0,9.57,3,9.51,9.77-.17,19.67-.14,39.35,0,59,0,6.44-2.5,9.17-9.17,9.06C175,185.39,157.81,185.58,140.6,185.58Z"/><path class="cls-4" d="M95.88,91.73c2.27.54,3.82,1.74,3.71,4.33a3.87,3.87,0,0,1-4.06,4c-2.66,0-4.52-1.67-4.12-4.66C91.73,93,93.45,91.88,95.88,91.73Z"/><path class="cls-5" d="M83.82,100.05c-2.64-.14-4.29-1.32-4.29-3.9,0-2.41,1.29-4.2,3.81-4.29s3.94,1.55,4.08,4A3.63,3.63,0,0,1,83.82,100.05Z"/><path class="cls-6" d="M111.39,96.41c-.33,2.49-1.78,3.81-4.26,3.61s-4-1.74-3.89-4.11c.17-2.61,1.81-4.5,4.72-4C110.29,92.26,111.49,94,111.39,96.41Z"/><path class="cls-7" d="M128.33,142.44c-9.42-3.4-17.3-6.61-25.42-9-4.93-1.47-6.1-4.24-5.84-8.88.2-3.63,1.25-4.93,4.87-3.58,12.84,4.79,25.66,9.61,38.57,14.19,4.31,1.52,3.34,4.83,3.61,7.94.33,3.79-1.09,5.77-4.85,7.06-11.69,4-23.18,8.58-34.84,12.64-2.18.76-5.78,4.59-7-.58-.79-3.46-2.1-8.12,3.64-10C109.76,149.34,118.26,146.07,128.33,142.44Z"/><path class="cls-8" d="M169.51,165.67c-4,0-8.08-.27-12.08.07-5,.41-7.24-.87-7.21-6.5,0-5.85,3.26-5.68,7.27-5.63,8.33.11,16.66.24,25,0,4.68-.15,5.88,1.72,5.9,6.16s-1.34,6.36-6,6C178.12,165.42,173.8,165.67,169.51,165.67Z"/></svg>