<svg xmlns="http://www.w3.org/2000/svg" viewBox="0 0 1366 404"><path d="M263.6 209.6c4.5-4.5 6-11.1 4.1-17.2-1.9-6.1-7-10.5-13.1-11.5l-54.9-8.3c-2.3-.4-4.4-1.9-5.4-4.1L169.8 117c-2.8-5.8-8.3-9.4-14.6-9.4-6.2 0-11.8 3.6-14.6 9.4l-24.5 51.5c-1 2.2-3.1 3.7-5.4 4.1l-54.9 8.3c-6.2.9-11.2 5.3-13.1 11.5-1.9 6.1-.3 12.7 4.1 17.2l39.7 40.1c1.7 1.7 2.5 4.2 2.1 6.6l-9.4 56.6c-.8 5 .4 9.8 3.5 13.6 4.8 6 13.3 7.8 20 4.1l49.1-26.7c2.1-1.1 4.6-1.1 6.7 0l49.1 26.7c2.4 1.3 4.9 2 7.6 2 4.8 0 9.3-2.2 12.5-6 3.1-3.8 4.4-8.7 3.5-13.6l-9.4-56.6c-.4-2.4.4-4.9 2.1-6.6l39.7-40.2zm264.1 0c4.5-4.5 6-11.1 4.1-17.2-1.9-6.1-7-10.5-13.1-11.5l-54.9-8.3c-2.3-.4-4.4-1.9-5.4-4.1L433.9 117c-2.8-5.8-8.3-9.4-14.6-9.4-6.2 0-11.8 3.6-14.6 9.4l-24.5 51.5c-1 2.2-3.1 3.7-5.4 4.1l-54.9 8.3c-6.2.9-11.2 5.3-13.1 11.5-1.9 6.1-.3 12.7 4.1 17.2l39.7 40.1c1.7 1.7 2.5 4.2 2.1 6.6l-9.4 56.6c-.8 5 .4 9.8 3.5 13.6 4.8 6 13.3 7.8 20 4.1l49.1-26.7c2.1-1.1 4.6-1.1 6.7 0l49.1 26.7c2.4 1.3 4.9 2 7.6 2 4.8 0 9.3-2.2 12.5-6 3.1-3.8 4.4-8.7 3.5-13.6l-9.4-56.6c-.4-2.4.4-4.9 2.1-6.6l39.7-40.2zm264.2 0c4.5-4.5 6-11.1 4.1-17.2-1.9-6.1-7-10.5-13.1-11.5l-54.9-8.3c-2.3-.4-4.4-1.9-5.4-4.1L698 117.1c-2.8-5.8-8.3-9.4-14.6-9.4-6.2 0-11.8 3.6-14.6 9.4l-24.5 51.5c-1 2.2-3.1 3.7-5.4 4.1L584 181c-6.2.9-11.2 5.3-13.1 11.5-1.9 6.1-.3 12.7 4.1 17.2l39.7 40.1c1.7 1.7 2.5 4.2 2.1 6.6l-9.4 56.6c-.8 5 .4 9.8 3.5 13.6 4.8 6 13.3 7.8 20 4.1L680 304c2.1-1.1 4.6-1.1 6.7 0l49.1 26.7c2.4 1.3 4.9 2 7.6 2 4.8 0 9.3-2.2 12.5-6 3.1-3.8 4.4-8.7 3.5-13.6l-9.4-56.6c-.4-2.4.4-4.9 2.1-6.6l39.8-40.3zm264.1 0c4.5-4.5 6-11.1 4.1-17.2-1.9-6.1-7-10.5-13.1-11.5l-54.9-8.3c-2.3-.4-4.4-1.9-5.4-4.1L962.2 117c-2.8-5.8-8.3-9.4-14.6-9.4-6.2 0-11.8 3.6-14.6 9.4l-24.5 51.5c-1 2.2-3.1 3.7-5.4 4.1l-54.9 8.3c-6.2.9-11.2 5.3-13.1 11.5-1.9 6.1-.3 12.7 4.1 17.2l39.7 40.1c1.7 1.7 2.5 4.2 2.1 6.6l-9.4 56.6c-.8 5 .4 9.8 3.5 13.6 4.8 6 13.3 7.8 20 4.1l49.1-26.7c2.1-1.1 4.6-1.1 6.7 0l49.1 26.7c2.4 1.3 4.9 2 7.6 2 4.8 0 9.3-2.2 12.5-6 3.1-3.8 4.4-8.7 3.5-13.6l-9.4-56.6c-.4-2.4.4-4.9 2.1-6.6l39.7-40.2zm264.1 0c4.5-4.5 6-11.1 4.1-17.2-1.9-6.1-7-10.5-13.1-11.5l-54.9-8.3c-2.3-.4-4.4-1.9-5.4-4.1l-24.5-51.5c-2.8-5.8-8.3-9.4-14.6-9.4-6.2 0-11.8 3.6-14.6 9.4l-24.5 51.5c-1 2.2-3.1 3.7-5.4 4.1l-54.9 8.3c-6.2.9-11.2 5.3-13.1 11.5-1.9 6.1-.3 12.7 4.1 17.2l39.7 40.1c1.7 1.7 2.5 4.2 2.1 6.6l-9.4 56.6c-.8 5 .4 9.8 3.5 13.6 4.8 6 13.3 7.8 20 4.1l49.1-26.7c2.1-1.1 4.6-1.1 6.7 0l49.1 26.7c2.4 1.3 4.9 2 7.6 2 4.8 0 9.3-2.2 12.5-6 3.1-3.8 4.4-8.7 3.5-13.6l-9.4-56.6c-.4-2.4.4-4.9 2.1-6.6l39.7-40.2z"/></svg>