<svg data-name="Capa 1" xmlns="http://www.w3.org/2000/svg" viewBox="0 0 755 755"><path d="M378.11 753.77C170 753.77 1.23 585 1.23 376.89H0v.61C0 586 169 755 377.5 755S755 586 755 377.5v-.31c-.17 208.01-168.84 376.58-376.89 376.58z" fill="#fff"/><path d="M378.11 753.77c208 0 376.72-168.57 376.89-376.58C754.83 169.05 586.22.34 378.11 0v152.23c124.08 0 224.66 100.58 224.66 224.66S502.19 601.54 378.11 601.54 153.46 501 153.46 376.89H1.23C1.23 585 170 753.77 378.11 753.77z" fill="#78e3fd"/><path d="M153.46 376.89C153.46 501 254 601.54 378.11 601.54S602.77 501 602.77 376.89 502.19 152.23 378.11 152.23v224.66z" fill="#4252b2"/><path d="M378.11 0C170 0 1.23 168.74 1.23 376.89h376.88V0z" fill="#eef8ff"/></svg>