<svg xmlns="http://www.w3.org/2000/svg" viewBox="0 0 761.2 768"><path fill="#FFF" d="M379.4 759.8C171.2 759.8 2.5 591 2.5 382.9H1.2v.6C1.2 592 170.2 761 378.7 761s377.5-169 377.5-377.5v-.3c-.1 208-168.8 376.6-376.8 376.6z"/><path fill="#00DBE7" d="M379.4 759.8c208 0 376.7-168.6 376.9-376.6C756.1 175.1 587.5 6.3 379.4 6v152.2c124.1 0 224.7 100.6 224.7 224.7S503.4 607.5 379.4 607.5 154.7 507 154.7 382.9H2.5c0 208.1 168.7 376.9 376.9 376.9z"/><path fill="#2C3E50" d="M154.7 382.9c0 124.1 100.6 224.7 224.7 224.7S604 507 604 382.9 503.4 158.2 379.4 158.2v224.7H154.7z"/><path fill="#97ECC5" d="M379.4 6C171.2 6 2.5 174.7 2.5 382.9h376.9V6z"/></svg>