<svg xmlns="http://www.w3.org/2000/svg" viewBox="0 0 800 429.46"><defs><style>.cls-1{fill:#4cdbff}.cls-3{fill:#00667f}.cls-4{fill:#00a3cc}.cls-5{fill:#266e7f}.cls-6{fill:#0cf}</style></defs><g id="Objects"><path class="cls-1" d="M47.09 171.13h139.56v35.81H47.09z"/><path d="M0 171.13h47.09v35.81H0zm745.99 0H800v35.81h-54.01z" fill="#ccc"/><path class="cls-3" d="M186.65 171.13h139.74v35.81H186.65z"/><path class="cls-4" d="M326.39 171.13h140.2v35.81h-140.2z"/><path class="cls-5" d="M466.58 171.13h139.84v35.81H466.58z"/><path class="cls-6" d="M606.43 171.13h139.56v35.81H606.43z"/><path d="M123.48 189a6.62 6.62 0 1 1-6.61-6.61 6.61 6.61 0 0 1 6.61 6.61zM263 189a6.62 6.62 0 1 1-6.61-6.61A6.61 6.61 0 0 1 263 189zm139.79 0a6.62 6.62 0 1 1-6.62-6.61 6.62 6.62 0 0 1 6.62 6.61zm139.56 0a6.62 6.62 0 1 1-6.62-6.61 6.62 6.62 0 0 1 6.62 6.61zm140.48 0a6.62 6.62 0 1 1-6.62-6.61 6.62 6.62 0 0 1 6.62 6.61z" fill="#fff"/><path stroke="#4cdbff" fill="none" stroke-miterlimit="10" stroke-width="6" d="M116.87 206.94v87.94"/><path stroke="#266e7f" fill="none" stroke-miterlimit="10" stroke-width="6" d="M536.37 173.88V82.91"/><path stroke="#00dbe7" fill="none" stroke-miterlimit="10" stroke-width="6" d="M676.21 206.94v95.97"/><path stroke="#00a3cc" fill="none" stroke-miterlimit="10" stroke-width="6" d="M396.5 206.94v155.55"/><path stroke="#00667f" fill="none" stroke-miterlimit="10" stroke-width="6" d="M256.43 171.13V62.66"/><path class="cls-1" d="M70.56 161.33v-4.2L80.91 146a25 25 0 0 0 3.18-4.34 7 7 0 0 0 1-3.28A4.93 4.93 0 0 0 84 135.1a3.8 3.8 0 0 0-3.09-1.28 4 4 0 0 0-3.37 1.5 6.41 6.41 0 0 0-1.15 4H70.1v-.13a9.69 9.69 0 0 1 2.85-7.33 10.66 10.66 0 0 1 8-3 11.16 11.16 0 0 1 7.78 2.57 8.82 8.82 0 0 1 2.84 6.86 9.62 9.62 0 0 1-1.6 5.36 50.56 50.56 0 0 1-5.28 6.42L79 156.28v.11h8.31l.26-3.16h4.83v8.09zm47.04-12.46q0 6.34-2.91 9.63a11.14 11.14 0 0 1-15.81 0Q96 155.22 96 148.87v-7.06c0-4.21 1-7.43 2.91-9.63a11.08 11.08 0 0 1 15.8 0c2 2.2 2.93 5.42 2.93 9.63zm-6.39-7.72a10.56 10.56 0 0 0-1.14-5.57 3.71 3.71 0 0 0-3.3-1.76 3.67 3.67 0 0 0-3.3 1.75 10.8 10.8 0 0 0-1.12 5.58v8.33q0 3.87 1.13 5.63a3.72 3.72 0 0 0 3.33 1.75 3.65 3.65 0 0 0 3.28-1.75 10.88 10.88 0 0 0 1.12-5.63zm9.79 16.33l5.41-.66v-21.66h-5.51v-3.67l11.86-2.16v27.49l5.41.66v3.85H121zm39-8.06h3.62v4.26H160v3.14l3.4.66v3.85h-13.26v-3.85l3.43-.66v-3.14h-13l-.31-3.14 13.3-21.21H160zm-13.76 0h7.36v-11.54h-.13l-.53.92z"/><path class="cls-3" d="M210.8 262.62v-4.2l10.35-11.1a24.48 24.48 0 0 0 3.18-4.34 7 7 0 0 0 .95-3.28 4.93 4.93 0 0 0-1.09-3.31 3.83 3.83 0 0 0-3.09-1.28 4 4 0 0 0-3.37 1.5 6.43 6.43 0 0 0-1.15 4h-6.24l-.05-.13a9.7 9.7 0 0 1 2.85-7.33 10.68 10.68 0 0 1 8-3 11.16 11.16 0 0 1 7.78 2.57 8.82 8.82 0 0 1 2.84 6.86 9.62 9.62 0 0 1-1.6 5.36 50.56 50.56 0 0 1-5.28 6.42l-5.69 6.22v.11h8.31l.26-3.17h4.88v8.09zm47.04-12.46q0 6.34-2.91 9.63a11.14 11.14 0 0 1-15.81 0q-2.93-3.29-2.92-9.63v-7q0-6.33 2.91-9.64a11.08 11.08 0 0 1 15.8 0q2.94 3.32 2.93 9.64zm-6.39-7.71a10.54 10.54 0 0 0-1.14-5.57 3.7 3.7 0 0 0-3.3-1.77 3.66 3.66 0 0 0-3.3 1.76 10.75 10.75 0 0 0-1.12 5.58v8.32q0 3.87 1.14 5.63a3.7 3.7 0 0 0 3.32 1.76 3.66 3.66 0 0 0 3.28-1.76q1.13-1.75 1.12-5.63zm9.76 16.32l5.4-.66v-21.66h-5.47v-3.67l11.86-2.15v27.48l5.41.66v3.85h-17.2zM298 237.92l-.57-2.15h-8.63l-.9 7.38a8.09 8.09 0 0 1 2.16-1.09 9.17 9.17 0 0 1 2.76-.45 8.86 8.86 0 0 1 7.18 2.79q2.54 2.86 2.53 8a11 11 0 0 1-2.78 7.66q-2.77 3.06-8 3.06a12 12 0 0 1-7.53-2.41 7.6 7.6 0 0 1-3-6.62l.05-.11 6.15-.31a4.47 4.47 0 0 0 1.21 3.33 4.28 4.28 0 0 0 3.16 1.2 3.72 3.72 0 0 0 3.32-1.61 7.29 7.29 0 0 0 1.08-4.15A7.75 7.75 0 0 0 295 248a3.88 3.88 0 0 0-3.41-1.67 4.88 4.88 0 0 0-2.8.68 3.77 3.77 0 0 0-1.4 1.85l-5.67-.37 1.85-17.82h18.41v7.29z"/><path class="cls-4" d="M350 155.33v-4.2L360.32 140a25.15 25.15 0 0 0 3.19-4.34 7 7 0 0 0 .94-3.28 4.93 4.93 0 0 0-1.09-3.31 3.79 3.79 0 0 0-3.08-1.28 4 4 0 0 0-3.38 1.5 6.47 6.47 0 0 0-1.15 4h-6.24v-.13a9.64 9.64 0 0 1 2.84-7.33 10.68 10.68 0 0 1 8-3 11.18 11.18 0 0 1 7.78 2.57 8.85 8.85 0 0 1 2.83 6.86 9.69 9.69 0 0 1-1.59 5.36 51.71 51.71 0 0 1-5.29 6.42l-5.69 6.21.05.11h8.3l.26-3.16h4.88v8.09zm47-12.46q0 6.34-2.92 9.63a10 10 0 0 1-7.87 3.29 10.1 10.1 0 0 1-7.94-3.29q-2.91-3.28-2.92-9.63v-7.06c0-4.21 1-7.43 2.91-9.63a11.08 11.08 0 0 1 15.8 0c2 2.2 2.94 5.42 2.94 9.63zm-6.4-7.72a10.56 10.56 0 0 0-1.14-5.57 3.7 3.7 0 0 0-3.3-1.76 3.64 3.64 0 0 0-3.29 1.75 10.7 10.7 0 0 0-1.12 5.58v8.33c0 2.58.37 4.46 1.13 5.63a3.7 3.7 0 0 0 3.33 1.75 3.64 3.64 0 0 0 3.27-1.75q1.13-1.76 1.12-5.63zm9.78 16.33l5.4-.66v-21.66h-5.47v-3.67l11.87-2.16v27.49l5.4.66v3.85h-17.2zm33.29-28.61a15.61 15.61 0 0 1 3.32.34 17.71 17.71 0 0 1 3.07 1l-1.12 4.68a22.16 22.16 0 0 0-2.55-.73 12.62 12.62 0 0 0-2.68-.26 5.64 5.64 0 0 0-4.58 2.09q-1.72 2.08-1.75 6.15l.07.11a7.47 7.47 0 0 1 2.73-1.75 10.15 10.15 0 0 1 3.7-.64 8.15 8.15 0 0 1 6.73 3 12.07 12.07 0 0 1 2.44 7.77 11.11 11.11 0 0 1-3 8 10.31 10.31 0 0 1-7.78 3.14 10.72 10.72 0 0 1-8.24-3.44q-3.18-3.43-3.19-9.53v-5.6q0-6.8 3.6-10.56a12.19 12.19 0 0 1 9.23-3.77zm-1.48 15.84a7.15 7.15 0 0 0-3 .58 4.58 4.58 0 0 0-1.93 1.56V143a10.48 10.48 0 0 0 1.37 5.84 4.23 4.23 0 0 0 3.66 2 3.63 3.63 0 0 0 3.17-1.81 7.76 7.76 0 0 0 1.2-4.38 7.1 7.1 0 0 0-1.21-4.31 3.8 3.8 0 0 0-3.26-1.63z"/><path class="cls-5" d="M489.94 262.62v-4.2l10.35-11.1a25 25 0 0 0 3.18-4.34 7 7 0 0 0 .95-3.28 4.93 4.93 0 0 0-1.09-3.31 3.83 3.83 0 0 0-3.09-1.28 4 4 0 0 0-3.37 1.5 6.43 6.43 0 0 0-1.15 4h-6.24l-.05-.13a9.7 9.7 0 0 1 2.85-7.33 10.66 10.66 0 0 1 8-3 11.16 11.16 0 0 1 7.78 2.57 8.82 8.82 0 0 1 2.84 6.86 9.62 9.62 0 0 1-1.6 5.36 50.56 50.56 0 0 1-5.28 6.42l-5.69 6.22v.11h8.31l.26-3.17h4.88v8.09zM537 250.16q0 6.34-2.91 9.63a11.14 11.14 0 0 1-15.81 0q-2.93-3.29-2.92-9.63v-7q0-6.33 2.91-9.64a11.08 11.08 0 0 1 15.8 0q2.93 3.32 2.93 9.64zm-6.39-7.71a10.54 10.54 0 0 0-1.14-5.57 3.7 3.7 0 0 0-3.3-1.77 3.66 3.66 0 0 0-3.3 1.76 10.75 10.75 0 0 0-1.12 5.58v8.32q0 3.87 1.14 5.63a3.7 3.7 0 0 0 3.32 1.76 3.66 3.66 0 0 0 3.28-1.76 10.88 10.88 0 0 0 1.12-5.63zm9.73 16.32l5.41-.66v-21.66h-5.47v-3.67l11.86-2.15v27.48l5.41.66v3.85h-17.21zm42.15-23.2a37.41 37.41 0 0 0-7 11.23 54.68 54.68 0 0 0-2.69 12.57l-.31 3.25h-6.42l.31-3.25a46.21 46.21 0 0 1 3.21-13 40.18 40.18 0 0 1 6.74-10.84H565l-.24 3.16h-4.92v-8.1h22.61z"/><path class="cls-6" d="M601.52 134.12h-4.76l-.66-4.26a6.77 6.77 0 0 0-2.39-1.5 9.65 9.65 0 0 0-3.39-.54 7.52 7.52 0 0 0-6.43 3 12.94 12.94 0 0 0-2.25 7.91v1.12a13 13 0 0 0 2.24 7.93 7.37 7.37 0 0 0 6.33 3.05 10.6 10.6 0 0 0 3.46-.54 5.87 5.87 0 0 0 2.43-1.5l.66-4.26h4.76v6.33a13.84 13.84 0 0 1-4.93 3.57 16.5 16.5 0 0 1-6.71 1.33 13.72 13.72 0 0 1-10.55-4.46 16.24 16.24 0 0 1-4.11-11.45v-1.05a16.33 16.33 0 0 1 4.09-11.45 13.67 13.67 0 0 1 10.57-4.48 16.1 16.1 0 0 1 6.7 1.35 14.32 14.32 0 0 1 4.94 3.57zm19.73 18.2a7.71 7.71 0 0 1-6.65 3.47 7.47 7.47 0 0 1-5.89-2.41c-1.42-1.6-2.13-4.1-2.13-7.48v-9.82l-2.62-.66v-3.87h9v14.39a6.22 6.22 0 0 0 .87 3.73 3.06 3.06 0 0 0 2.58 1.13 6.43 6.43 0 0 0 2.63-.5 4.61 4.61 0 0 0 1.81-1.41v-12.81l-2.81-.66v-3.87h9.23v19.27l2.88.66v3.85h-8.51zm11.94-.84l3.07-.66v-14.74l-3.4-.66v-3.87h9.38l.28 3.47a7.54 7.54 0 0 1 2.16-2.88 4.84 4.84 0 0 1 3.05-1 8.19 8.19 0 0 1 1.07.08 5.59 5.59 0 0 1 .93.19l-.68 5.84-2.64-.07a4.59 4.59 0 0 0-2.33.55 3.6 3.6 0 0 0-1.4 1.56v11.56l3.07.66v3.85h-12.56zM671 139.72h-4.3l-.68-3a5.65 5.65 0 0 0-1.66-.88 6.74 6.74 0 0 0-2.21-.35 4.27 4.27 0 0 0-2.68.76 2.29 2.29 0 0 0-1 1.9 2.2 2.2 0 0 0 .94 1.79 10.46 10.46 0 0 0 3.78 1.26 15.48 15.48 0 0 1 6.55 2.58 5.68 5.68 0 0 1 2.13 4.69 6.24 6.24 0 0 1-2.75 5.24 11.93 11.93 0 0 1-7.27 2 15.05 15.05 0 0 1-5-.81 12.8 12.8 0 0 1-4.07-2.29l-.07-5.34h4.48l.88 3.1a3.65 3.65 0 0 0 1.56.71 8.76 8.76 0 0 0 2.07.23 5.21 5.21 0 0 0 3-.7 2.2 2.2 0 0 0 1-1.91 2.25 2.25 0 0 0-1-1.83 10.66 10.66 0 0 0-3.8-1.36 15.23 15.23 0 0 1-6.34-2.54 5.49 5.49 0 0 1-2.14-4.58 6.64 6.64 0 0 1 2.46-5.15q2.46-2.16 7-2.16a17.94 17.94 0 0 1 5.24.74 11.23 11.23 0 0 1 3.88 1.91zm18.94 15.61c-.17-.4-.33-.81-.46-1.22a11.19 11.19 0 0 1-.31-1.27 8.77 8.77 0 0 1-2.78 2.13 8.2 8.2 0 0 1-3.74.82 7.88 7.88 0 0 1-5.55-1.9 6.73 6.73 0 0 1-2.06-5.18 5.89 5.89 0 0 1 2.68-5.16q2.68-1.83 7.87-1.83h3.28v-2.32a3.49 3.49 0 0 0-1-2.66 4.1 4.1 0 0 0-2.93-1 7.21 7.21 0 0 0-2 .25 5 5 0 0 0-1.39.61l-.41 2.55h-4.84v-5.28a18.56 18.56 0 0 1 4-2 14.6 14.6 0 0 1 5-.81 11.2 11.2 0 0 1 7.17 2.17 7.36 7.36 0 0 1 2.76 6.16v10.82a9 9 0 0 0 .08.93l2 .26v3.85zm-5.56-4.33a5.53 5.53 0 0 0 2.64-.63 5 5 0 0 0 1.85-1.57v-3.62h-3.28a4.53 4.53 0 0 0-3.1.95 3 3 0 0 0-1 2.3 2.37 2.37 0 0 0 .78 1.89 3.2 3.2 0 0 0 2.11.68zm14.79.48l3.08-.66v-14.74l-3.41-.66v-3.87h9.38l.29 3.41a8.69 8.69 0 0 1 2.92-2.84 7.62 7.62 0 0 1 3.89-1 7.2 7.2 0 0 1 5.63 2.26c1.34 1.51 2 3.88 2 7.1v10.35l3.07.66v3.85h-12.24v-3.85l2.75-.66v-10.34a4.79 4.79 0 0 0-1-3.39 3.87 3.87 0 0 0-2.92-1 4.92 4.92 0 0 0-2.29.52 4.73 4.73 0 0 0-1.69 1.46v12.74l2.59.66v3.85h-12.05zm44.16.94a7.77 7.77 0 0 1-2.64 2.51 7 7 0 0 1-3.48.86 8.07 8.07 0 0 1-6.83-3.21 13.7 13.7 0 0 1-2.38-8.48v-.46a15.46 15.46 0 0 1 2.44-9.08 7.92 7.92 0 0 1 6.86-3.45 6.6 6.6 0 0 1 3.21.78 7.91 7.91 0 0 1 2.5 2.21v-8.53l-3.43-.65v-3.87h9.85v29.77l3.07.66v3.85h-8.63zm-9-8.32a9.85 9.85 0 0 0 1 4.91 3.66 3.66 0 0 0 3.42 1.79 5 5 0 0 0 2.44-.57 4.53 4.53 0 0 0 1.69-1.65v-10.09a4.83 4.83 0 0 0-1.68-1.76 4.47 4.47 0 0 0-2.4-.63 3.58 3.58 0 0 0-3.43 2.09 11.84 11.84 0 0 0-1.08 5.45zm20.17-.88a12.73 12.73 0 0 1 3-8.71 11.7 11.7 0 0 1 16.48 0 12.68 12.68 0 0 1 3 8.72v.46a12.67 12.67 0 0 1-3 8.73 10.37 10.37 0 0 1-8.2 3.38 10.48 10.48 0 0 1-8.28-3.38 12.71 12.71 0 0 1-3-8.73zm6.41.46a10.25 10.25 0 0 0 1.15 5.22 3.94 3.94 0 0 0 3.69 2 3.88 3.88 0 0 0 3.63-2 10.28 10.28 0 0 0 1.16-5.21v-.46a10.17 10.17 0 0 0-1.17-5.17 3.93 3.93 0 0 0-3.67-2 3.88 3.88 0 0 0-3.64 2 10.28 10.28 0 0 0-1.15 5.17z"/><path class="cls-4" d="M396.17 343.76A42.85 42.85 0 1 0 439 386.61a42.86 42.86 0 0 0-42.83-42.85zm28.19 49.93a2.62 2.62 0 0 1-2.51 2.73H402v8.87a3.37 3.37 0 0 1-.09.71h6.82a1.94 1.94 0 0 1 1.94 1.94v.84a1.94 1.94 0 0 1-1.94 2h-25.1a1.94 1.94 0 0 1-1.94-2v-.84a1.94 1.94 0 0 1 1.94-1.94h6.82a3.37 3.37 0 0 1-.09-.71v-8.87h-19.87a2.62 2.62 0 0 1-2.51-2.73v-24.22a2.62 2.62 0 0 1 2.51-2.72h51.36a2.62 2.62 0 0 1 2.51 2.72z"/><path class="cls-4" d="M393.42 390.2h5.5a3.05 3.05 0 0 1 2.47 1.27h15.36a2 2 0 0 0 2-1.94v-15.9a2 2 0 0 0-2-1.93h-41.16a2 2 0 0 0-2 1.93v15.9a2 2 0 0 0 2 1.94H391a3 3 0 0 1 2.42-1.27z"/><path class="cls-3" d="M256.43 0a35 35 0 1 0 35 35 35 35 0 0 0-35-35zm13.14 51.67a2.23 2.23 0 0 1-2.23 2.23h-21.82a2.23 2.23 0 0 1-2.23-2.23V17.92a2.23 2.23 0 0 1 2.23-2.23h21.82a2.23 2.23 0 0 1 2.23 2.23z"/><rect class="cls-3" x="246.87" y="19.27" width="19.11" height="25.72" rx="1.62" ry="1.62"/><path class="cls-3" d="M256.43 46.71a2.52 2.52 0 1 0 2.51 2.52 2.52 2.52 0 0 0-2.51-2.52z"/><path class="cls-1" d="M87.79 42.32h3.13A5.34 5.34 0 0 1 94 43a2.5 2.5 0 0 1 1 2.17 2.36 2.36 0 0 1-.6 1.65 3 3 0 0 1-1.77.85 3.41 3.41 0 0 1 2 .86 2.51 2.51 0 0 1 .64 1.84 3 3 0 0 1-1 2.43 4.54 4.54 0 0 1-3 .85h-3.5zm.79 5.09h2.52a4 4 0 0 0 2.34-.54 1.92 1.92 0 0 0 .73-1.67 1.81 1.81 0 0 0-.83-1.66 4.7 4.7 0 0 0-2.45-.54h-2.31zm0 .7V53h2.69c2.11 0 3.17-.86 3.17-2.58s-1.11-2.35-3.34-2.35zm14.2 5.63l-.2-1.34h-.06a4.08 4.08 0 0 1-1.32 1.16 3.45 3.45 0 0 1-1.59.34 2.75 2.75 0 0 1-2-.64 2.31 2.31 0 0 1-.61-1.78 2.2 2.2 0 0 1 1-1.93 5.66 5.66 0 0 1 3-.72h1.61v-.56a2.87 2.87 0 0 0-.49-1.83 1.9 1.9 0 0 0-1.58-.62 5.28 5.28 0 0 0-2.45.66l-.29-.67a6.46 6.46 0 0 1 2.77-.66 2.74 2.74 0 0 1 2.09.73 3.18 3.18 0 0 1 .69 2.26v5.65zm-3.13-.54a2.7 2.7 0 0 0 2.93-2.94v-.84l-1.48.06a5.72 5.72 0 0 0-2.55.56 1.62 1.62 0 0 0-.76 1.48 1.58 1.58 0 0 0 .48 1.23 2 2 0 0 0 1.38.45zm9.84.7a3.63 3.63 0 0 1-2.85-1.15 4.61 4.61 0 0 1-1-3.2 4.69 4.69 0 0 1 1.07-3.29 3.77 3.77 0 0 1 2.93-1.17 5.84 5.84 0 0 1 2.11.38l-.22.69a6 6 0 0 0-1.91-.37 2.93 2.93 0 0 0-2.37 1 4.28 4.28 0 0 0-.8 2.78 4.13 4.13 0 0 0 .8 2.69 2.77 2.77 0 0 0 2.25 1 5.46 5.46 0 0 0 2.15-.42v.72a4.79 4.79 0 0 1-2.16.34zm10.13-.16v-5.51a2.68 2.68 0 0 0-.54-1.86 2.16 2.16 0 0 0-1.67-.58 2.91 2.91 0 0 0-2.23.77 3.61 3.61 0 0 0-.71 2.49v4.69h-.77V41.59h.77v4.95h.06a2.89 2.89 0 0 1 1.2-1.11 4.24 4.24 0 0 1 1.81-.34c1.92 0 2.89 1 2.89 3.1v5.55zM123 42.89c0-.5.16-.75.49-.75a.44.44 0 0 1 .38.2 1 1 0 0 1 .14.55 1 1 0 0 1-.14.56.44.44 0 0 1-.38.2c-.3 0-.49-.25-.49-.76zm.88 10.85h-.77v-8.49h.77zm3.65 0h-.78V41.59h.78zm3.62 0h-.78V41.59h.78zm6.27.16a3.7 3.7 0 0 1-2.89-1.14 4.59 4.59 0 0 1-1-3.2 5 5 0 0 1 1-3.25 3.27 3.27 0 0 1 2.69-1.22 2.94 2.94 0 0 1 2.37 1 4.33 4.33 0 0 1 .87 2.85v.62h-6.12a4 4 0 0 0 .82 2.67 2.84 2.84 0 0 0 2.29.93 6.94 6.94 0 0 0 1.28-.11 7.43 7.43 0 0 0 1.39-.43v.7a6.37 6.37 0 0 1-1.33.43 7.81 7.81 0 0 1-1.37.15zm-.23-8.13a2.55 2.55 0 0 0-2 .81 3.83 3.83 0 0 0-.86 2.33h5.25a3.72 3.72 0 0 0-.64-2.3 2.12 2.12 0 0 0-1.75-.84zm8.92-.68a6 6 0 0 1 1.16.11l-.15.74a4.42 4.42 0 0 0-1.1-.14 2.13 2.13 0 0 0-1.78.93 3.76 3.76 0 0 0-.7 2.32v4.69h-.77v-8.49h.66l.07 1.53h.06a3.7 3.7 0 0 1 1.12-1.32 2.6 2.6 0 0 1 1.43-.37zM51.34 89.74h-.8V79.07h-3.71v-.75h8.22v.75h-3.71zm8.66.16a3.71 3.71 0 0 1-2.89-1.14 4.59 4.59 0 0 1-1-3.2 5 5 0 0 1 1-3.25 3.28 3.28 0 0 1 2.69-1.22 2.94 2.94 0 0 1 2.37 1A4.33 4.33 0 0 1 63 85v.62h-6.13a4 4 0 0 0 .82 2.67 2.86 2.86 0 0 0 2.31.91 6.86 6.86 0 0 0 1.28-.11 7.21 7.21 0 0 0 1.39-.43v.7a6.49 6.49 0 0 1-1.32.43 8 8 0 0 1-1.35.11zm-.23-8.13a2.53 2.53 0 0 0-2 .81 3.77 3.77 0 0 0-.87 2.33h5.25a3.66 3.66 0 0 0-.64-2.3 2.12 2.12 0 0 0-1.76-.84zm8.95 8.13a3.63 3.63 0 0 1-2.85-1.15 4.61 4.61 0 0 1-1-3.2 4.74 4.74 0 0 1 1.07-3.29 3.77 3.77 0 0 1 2.93-1.17 5.76 5.76 0 0 1 2.11.38l-.21.69a6.07 6.07 0 0 0-1.91-.37 2.9 2.9 0 0 0-2.37 1 4.23 4.23 0 0 0-.81 2.78 4.07 4.07 0 0 0 .81 2.69 2.74 2.74 0 0 0 2.25 1 5.5 5.5 0 0 0 2.15-.42v.72a4.86 4.86 0 0 1-2.17.34zm10.14-.16v-5.51a2.68 2.68 0 0 0-.54-1.86 2.17 2.17 0 0 0-1.67-.58 2.9 2.9 0 0 0-2.23.77 3.56 3.56 0 0 0-.71 2.49v4.69h-.78v-8.49h.66l.15 1.16h.05a3.19 3.19 0 0 1 2.94-1.32q2.89 0 2.89 3.1v5.55zm3.4-10.85c0-.5.17-.75.49-.75a.43.43 0 0 1 .38.2 1 1 0 0 1 .14.55 1 1 0 0 1-.14.56.43.43 0 0 1-.38.2c-.32 0-.49-.25-.49-.76zm.89 10.85h-.78v-8.49h.78zm6.23.16a3.63 3.63 0 0 1-2.85-1.15 4.61 4.61 0 0 1-1-3.2 4.69 4.69 0 0 1 1.07-3.29 3.77 3.77 0 0 1 2.93-1.17 5.84 5.84 0 0 1 2.11.38l-.21.69a6.12 6.12 0 0 0-1.92-.37 2.93 2.93 0 0 0-2.37 1 4.28 4.28 0 0 0-.8 2.78 4.13 4.13 0 0 0 .8 2.69 2.77 2.77 0 0 0 2.25 1 5.46 5.46 0 0 0 2.15-.42v.72a4.79 4.79 0 0 1-2.16.34zm11.23-4.42a4.82 4.82 0 0 1-1 3.25 3.49 3.49 0 0 1-2.78 1.17 3.57 3.57 0 0 1-2-.54 3.45 3.45 0 0 1-1.31-1.55 5.66 5.66 0 0 1-.45-2.33 4.72 4.72 0 0 1 1-3.23 3.84 3.84 0 0 1 5.51 0 4.86 4.86 0 0 1 1.03 3.23zm-6.7 0a4.33 4.33 0 0 0 .77 2.73 2.88 2.88 0 0 0 4.35 0 4.33 4.33 0 0 0 .77-2.73 4.22 4.22 0 0 0-.8-2.72 2.93 2.93 0 0 0-4.35 0 4.39 4.39 0 0 0-.74 2.72zm16.64 4.42a3.68 3.68 0 0 1-2.88-1.14 4.55 4.55 0 0 1-1-3.2 5 5 0 0 1 1-3.25 3.29 3.29 0 0 1 2.7-1.22 2.92 2.92 0 0 1 2.36 1 4.33 4.33 0 0 1 .87 2.85v.62h-6.12a4 4 0 0 0 .82 2.67 2.86 2.86 0 0 0 2.29.93 6.86 6.86 0 0 0 1.28-.11 7.21 7.21 0 0 0 1.39-.43v.7a6.49 6.49 0 0 1-1.32.43 8 8 0 0 1-1.39.15zm-.22-8.13a2.53 2.53 0 0 0-2 .81 3.77 3.77 0 0 0-.87 2.33h5.25a3.66 3.66 0 0 0-.64-2.3 2.11 2.11 0 0 0-1.74-.84zm11.5 7.97v-5.51a2.68 2.68 0 0 0-.54-1.86 2.18 2.18 0 0 0-1.68-.58 2.91 2.91 0 0 0-2.23.77 3.61 3.61 0 0 0-.7 2.49v4.69h-.78v-8.49h.66l.15 1.16a3.22 3.22 0 0 1 3-1.32q2.89 0 2.89 3.1v5.55zm12.74-10.86a4.32 4.32 0 0 0-3.39 1.37A5.45 5.45 0 0 0 130 84a5.65 5.65 0 0 0 1.16 3.79 4.17 4.17 0 0 0 3.33 1.35 9.16 9.16 0 0 0 2.64-.36v.7a8.49 8.49 0 0 1-2.83.4 4.79 4.79 0 0 1-3.78-1.56 6.25 6.25 0 0 1-1.44-4.32 6.83 6.83 0 0 1 .66-3.07 4.78 4.78 0 0 1 1.9-2.05 5.65 5.65 0 0 1 2.88-.72 6.87 6.87 0 0 1 3 .62l-.32.72a5.74 5.74 0 0 0-2.63-.62zm4.76.01c0-.5.16-.75.49-.75a.46.46 0 0 1 .38.2 1 1 0 0 1 .13.55 1 1 0 0 1-.13.56.46.46 0 0 1-.38.2c-.33 0-.49-.25-.49-.76zm.88 10.85h-.78v-8.49h.78zm6.27.16a3.71 3.71 0 0 1-2.89-1.14 4.59 4.59 0 0 1-1-3.2 5 5 0 0 1 1-3.25 3.28 3.28 0 0 1 2.69-1.22 2.94 2.94 0 0 1 2.37 1 4.33 4.33 0 0 1 .87 2.85v.62h-6.12a4 4 0 0 0 .82 2.67 2.86 2.86 0 0 0 2.29.93 6.86 6.86 0 0 0 1.28-.11 7.21 7.21 0 0 0 1.39-.43v.7a6.49 6.49 0 0 1-1.32.43 8 8 0 0 1-1.38.15zm-.23-8.13a2.53 2.53 0 0 0-2 .81 3.77 3.77 0 0 0-.87 2.33h5.25a3.66 3.66 0 0 0-.64-2.3 2.12 2.12 0 0 0-1.74-.84zm11.5 7.97v-5.51a2.68 2.68 0 0 0-.53-1.86 2.18 2.18 0 0 0-1.68-.58 2.91 2.91 0 0 0-2.23.77 3.61 3.61 0 0 0-.7 2.49v4.69h-.78v-8.49h.66l.15 1.16a3.22 3.22 0 0 1 2.95-1.32q2.9 0 2.89 3.1v5.55zm6.91.16a3.63 3.63 0 0 1-2.85-1.15 4.61 4.61 0 0 1-1-3.2 4.69 4.69 0 0 1 1.07-3.29 3.77 3.77 0 0 1 2.93-1.17 5.8 5.8 0 0 1 2.11.38l-.21.69a6.12 6.12 0 0 0-1.92-.37 2.89 2.89 0 0 0-2.36 1 4.23 4.23 0 0 0-.81 2.78 4.07 4.07 0 0 0 .81 2.69 2.74 2.74 0 0 0 2.25 1 5.41 5.41 0 0 0 2.14-.42v.72a4.79 4.79 0 0 1-2.16.34zm4.1-11.01c0-.5.17-.75.49-.75a.43.43 0 0 1 .38.2 1 1 0 0 1 .14.55 1 1 0 0 1-.14.56.43.43 0 0 1-.38.2c-.32 0-.49-.25-.49-.76zm.89 10.85h-.78v-8.49h.78zm8 0l-.2-1.34h-.06a4.08 4.08 0 0 1-1.32 1.16 3.47 3.47 0 0 1-1.6.34 2.74 2.74 0 0 1-1.94-.64 2.28 2.28 0 0 1-.7-1.78 2.2 2.2 0 0 1 1-1.93 5.65 5.65 0 0 1 3-.72h1.62v-.56a2.87 2.87 0 0 0-.49-1.83 1.92 1.92 0 0 0-1.59-.62 5.27 5.27 0 0 0-2.44.66l-.29-.67a6.41 6.41 0 0 1 2.76-.66 2.72 2.72 0 0 1 2.09.73 3.14 3.14 0 0 1 .7 2.26v5.65zm-3.13-.54a2.7 2.7 0 0 0 2.93-2.94v-.84l-1.48.06a5.65 5.65 0 0 0-2.55.56 1.62 1.62 0 0 0-.77 1.48 1.58 1.58 0 0 0 .49 1.23 2 2 0 0 0 1.38.45zm11.71-1.67a2 2 0 0 1-.87 1.76 4.25 4.25 0 0 1-2.46.61 6 6 0 0 1-2.7-.52v-.84a5.93 5.93 0 0 0 2.7.64 3.54 3.54 0 0 0 1.91-.42 1.27 1.27 0 0 0 .66-1.11 1.37 1.37 0 0 0-.52-1.08 5.81 5.81 0 0 0-1.71-.86 10 10 0 0 1-1.79-.79 2.55 2.55 0 0 1-.78-.75 1.93 1.93 0 0 1-.26-1 1.75 1.75 0 0 1 .8-1.51 3.91 3.91 0 0 1 2.24-.55 6.75 6.75 0 0 1 2.61.51l-.29.7a6.18 6.18 0 0 0-2.32-.51 3.38 3.38 0 0 0-1.65.34 1.07 1.07 0 0 0-.61 1 1.32 1.32 0 0 0 .48 1.06 6.76 6.76 0 0 0 1.84.89 8.34 8.34 0 0 1 1.67.75 2.49 2.49 0 0 1 .79.75 1.87 1.87 0 0 1 .26.93zm-90.86 18a2 2 0 0 1-.87 1.76 4.25 4.25 0 0 1-2.46.61 6 6 0 0 1-2.7-.52v-.84a5.93 5.93 0 0 0 2.7.64 3.54 3.54 0 0 0 1.91-.42 1.27 1.27 0 0 0 .66-1.11 1.37 1.37 0 0 0-.52-1.08 5.81 5.81 0 0 0-1.71-.86 10 10 0 0 1-1.79-.79 2.55 2.55 0 0 1-.78-.75 1.93 1.93 0 0 1-.26-1 1.75 1.75 0 0 1 .8-1.51 3.91 3.91 0 0 1 2.24-.55 6.75 6.75 0 0 1 2.61.51l-.29.7a6.18 6.18 0 0 0-2.32-.51 3.38 3.38 0 0 0-1.65.34 1.07 1.07 0 0 0-.61 1 1.32 1.32 0 0 0 .48 1.06 6.76 6.76 0 0 0 1.84.89 8.77 8.77 0 0 1 1.68.75 2.45 2.45 0 0 1 .78.75 1.87 1.87 0 0 1 .26.93zm9.21-2.05a4.82 4.82 0 0 1-1 3.25 3.5 3.5 0 0 1-2.79 1.17 3.56 3.56 0 0 1-2-.54 3.45 3.45 0 0 1-1.31-1.55 5.66 5.66 0 0 1-.45-2.33 4.72 4.72 0 0 1 1-3.23 3.84 3.84 0 0 1 5.51 0 4.86 4.86 0 0 1 1.04 3.23zm-6.7 0a4.33 4.33 0 0 0 .77 2.73 2.88 2.88 0 0 0 4.35 0 4.33 4.33 0 0 0 .77-2.73 4.22 4.22 0 0 0-.78-2.72 2.93 2.93 0 0 0-4.35 0 4.32 4.32 0 0 0-.76 2.72zm12.45 4.42a3.64 3.64 0 0 1-2.86-1.15 4.66 4.66 0 0 1-1-3.2 4.74 4.74 0 0 1 1.07-3.29 3.78 3.78 0 0 1 2.93-1.17 5.76 5.76 0 0 1 2.11.38l-.21.69a6 6 0 0 0-1.91-.37 2.91 2.91 0 0 0-2.37 1 4.23 4.23 0 0 0-.81 2.78 4.07 4.07 0 0 0 .81 2.69 2.77 2.77 0 0 0 2.25 1 5.46 5.46 0 0 0 2.15-.42v.72a4.79 4.79 0 0 1-2.16.34zm4.1-11.01c0-.5.16-.75.49-.75a.44.44 0 0 1 .38.2 1 1 0 0 1 .13.55 1 1 0 0 1-.13.56.44.44 0 0 1-.38.2c-.33 0-.49-.25-.49-.76zm.88 10.85h-.77v-8.49h.77zm8 0l-.2-1.34h-.06a4.06 4.06 0 0 1-1.31 1.16 3.52 3.52 0 0 1-1.6.34 2.76 2.76 0 0 1-2-.64 2.31 2.31 0 0 1-.69-1.78 2.2 2.2 0 0 1 1-1.93 5.66 5.66 0 0 1 3-.72h1.62v-.56a2.87 2.87 0 0 0-.5-1.83 1.89 1.89 0 0 0-1.58-.62 5.31 5.31 0 0 0-2.45.66l-.29-.67a6.49 6.49 0 0 1 2.77-.66 2.74 2.74 0 0 1 2.09.73 3.18 3.18 0 0 1 .69 2.26v5.65zm-3.13-.54a2.7 2.7 0 0 0 2.93-2.94v-.84l-1.48.06a5.72 5.72 0 0 0-2.55.56 1.62 1.62 0 0 0-.76 1.48 1.55 1.55 0 0 0 .49 1.23 1.93 1.93 0 0 0 1.37.45zm7.22.54h-.77V95.59h.77zm6.28.16a3.7 3.7 0 0 1-2.89-1.14 4.6 4.6 0 0 1-1-3.2 5 5 0 0 1 1-3.25 3.3 3.3 0 0 1 2.7-1.22 2.94 2.94 0 0 1 2.37 1 4.33 4.33 0 0 1 .86 2.85v.62h-6.11a4 4 0 0 0 .81 2.67 2.88 2.88 0 0 0 2.3.93 6.75 6.75 0 0 0 1.27-.11 7.28 7.28 0 0 0 1.4-.43v.7a6.37 6.37 0 0 1-1.33.43 7.9 7.9 0 0 1-1.38.15zm-.23-8.13a2.55 2.55 0 0 0-2 .81 3.9 3.9 0 0 0-.87 2.33h5.25a3.66 3.66 0 0 0-.64-2.3 2.08 2.08 0 0 0-1.74-.84zm10.84 5.76a2 2 0 0 1-.86 1.76 4.3 4.3 0 0 1-2.46.61 6 6 0 0 1-2.71-.52v-.84a6 6 0 0 0 2.71.64 3.58 3.58 0 0 0 1.91-.42 1.28 1.28 0 0 0 .65-1.11 1.37 1.37 0 0 0-.52-1.08 5.81 5.81 0 0 0-1.71-.86 10.32 10.32 0 0 1-1.79-.79 2.41 2.41 0 0 1-.77-.75 1.85 1.85 0 0 1-.27-1 1.75 1.75 0 0 1 .8-1.51 3.91 3.91 0 0 1 2.24-.55 6.75 6.75 0 0 1 2.61.51l-.29.7a6.14 6.14 0 0 0-2.32-.51 3.38 3.38 0 0 0-1.65.34 1.07 1.07 0 0 0-.61 1 1.32 1.32 0 0 0 .48 1.06 6.7 6.7 0 0 0 1.85.89 8.92 8.92 0 0 1 1.67.75 2.35 2.35 0 0 1 .78.75 1.79 1.79 0 0 1 .26.93z"/><path class="cls-4" d="M317.48 18.78a4.32 4.32 0 0 0-3.39 1.38 5.42 5.42 0 0 0-1.23 3.76 5.68 5.68 0 0 0 1.16 3.8 4.17 4.17 0 0 0 3.33 1.35 8.82 8.82 0 0 0 2.65-.37v.71a8.76 8.76 0 0 1-2.83.4 4.82 4.82 0 0 1-3.79-1.56 6.3 6.3 0 0 1-1.38-4.34 6.8 6.8 0 0 1 .66-3.07 4.72 4.72 0 0 1 1.9-2.05 5.65 5.65 0 0 1 2.88-.73 6.87 6.87 0 0 1 3 .63l-.32.72a5.75 5.75 0 0 0-2.64-.63zm4.75.02c0-.5.17-.75.5-.75a.42.42 0 0 1 .37.19.91.91 0 0 1 .14.56.9.9 0 0 1-.14.55.42.42 0 0 1-.37.21c-.33 0-.5-.26-.5-.76zm.89 10.85h-.78v-8.49h.78zm8.11-2.21a2 2 0 0 1-.87 1.75 4.22 4.22 0 0 1-2.46.62 5.88 5.88 0 0 1-2.71-.53v-.83a6.1 6.1 0 0 0 2.71.64 3.56 3.56 0 0 0 1.91-.42 1.28 1.28 0 0 0 .65-1.11 1.34 1.34 0 0 0-.52-1.08 5.69 5.69 0 0 0-1.71-.86 10.32 10.32 0 0 1-1.79-.79 2.63 2.63 0 0 1-.77-.75 1.84 1.84 0 0 1-.26-1 1.73 1.73 0 0 1 .8-1.51 3.87 3.87 0 0 1 2.23-.56 6.75 6.75 0 0 1 2.61.52l-.28.7a6.22 6.22 0 0 0-2.33-.51 3.31 3.31 0 0 0-1.64.34 1.05 1.05 0 0 0-.61.95 1.31 1.31 0 0 0 .47 1.07 6.7 6.7 0 0 0 1.85.89 9 9 0 0 1 1.67.74 2.37 2.37 0 0 1 .78.76 1.79 1.79 0 0 1 .27.97zm5.57 2.37a3.66 3.66 0 0 1-2.8-1.15 4.69 4.69 0 0 1-1-3.21 4.71 4.71 0 0 1 1-3.28 3.79 3.79 0 0 1 2.92-1.17 5.77 5.77 0 0 1 2.11.39l-.21.68a6.26 6.26 0 0 0-1.91-.36 2.9 2.9 0 0 0-2.37 1 4.23 4.23 0 0 0-.81 2.78 4.09 4.09 0 0 0 .81 2.69 2.74 2.74 0 0 0 2.25 1 5.45 5.45 0 0 0 2.15-.41v.72a5 5 0 0 1-2.14.32zm11.2-4.42a4.83 4.83 0 0 1-1 3.25 3.47 3.47 0 0 1-2.78 1.17 3.59 3.59 0 0 1-2-.54 3.43 3.43 0 0 1-1.3-1.55 5.51 5.51 0 0 1-.46-2.33 4.82 4.82 0 0 1 1-3.24A3.48 3.48 0 0 1 344.3 21a3.41 3.41 0 0 1 2.7 1.17 4.79 4.79 0 0 1 1 3.22zm-6.7 0a4.32 4.32 0 0 0 .76 2.73 2.91 2.91 0 0 0 4.36 0 4.33 4.33 0 0 0 .77-2.73 4.22 4.22 0 0 0-.78-2.72 2.64 2.64 0 0 0-2.18-1 2.6 2.6 0 0 0-2.17 1 4.32 4.32 0 0 0-.72 2.72zm18.32-6.61a4.32 4.32 0 0 0-3.39 1.38 5.42 5.42 0 0 0-1.23 3.76 5.68 5.68 0 0 0 1.16 3.8 4.17 4.17 0 0 0 3.33 1.35 8.82 8.82 0 0 0 2.64-.37v.71a8.76 8.76 0 0 1-2.83.4 4.79 4.79 0 0 1-3.78-1.56 6.25 6.25 0 0 1-1.39-4.34 6.8 6.8 0 0 1 .66-3.07 4.78 4.78 0 0 1 1.9-2.05 5.65 5.65 0 0 1 2.88-.73 6.87 6.87 0 0 1 3 .63l-.32.72a5.75 5.75 0 0 0-2.63-.63zm8.29 11.03a3.69 3.69 0 0 1-2.91-1.14 4.6 4.6 0 0 1-1-3.2 5 5 0 0 1 1-3.25 3.31 3.31 0 0 1 2.7-1.23 2.88 2.88 0 0 1 2.35 1.01 4.32 4.32 0 0 1 .87 2.84v.63h-6.12a4 4 0 0 0 .82 2.67 2.85 2.85 0 0 0 2.29.92 6.93 6.93 0 0 0 1.28-.1 7.65 7.65 0 0 0 1.4-.44v.71a5.92 5.92 0 0 1-1.33.42 7.06 7.06 0 0 1-1.35.16zm-.22-8.13a2.53 2.53 0 0 0-2 .81 3.77 3.77 0 0 0-.87 2.33h5.25a3.71 3.71 0 0 0-.64-2.31 2.13 2.13 0 0 0-1.74-.83zm8.92-.68a7.07 7.07 0 0 1 1.16.11l-.15.75a4.48 4.48 0 0 0-1.1-.14 2.16 2.16 0 0 0-1.79.92A3.79 3.79 0 0 0 374 25v4.69h-.77v-8.53h.65l.08 1.53h.05a3.71 3.71 0 0 1 1.12-1.32 2.66 2.66 0 0 1 1.48-.37zm5.12 8.12A5.51 5.51 0 0 0 383 29v.63a4.29 4.29 0 0 1-1.3.19 2.07 2.07 0 0 1-1.66-.61 2.77 2.77 0 0 1-.54-1.89v-5.49h-1.25v-.45l1.25-.36.39-1.92h.4v2.06h2.49v.67h-2.49v5.37a2.44 2.44 0 0 0 .35 1.45 1.23 1.23 0 0 0 1.09.47zm3.01-10.32c0-.5.17-.75.49-.75a.42.42 0 0 1 .38.19 1 1 0 0 1 .14.56 1 1 0 0 1-.14.55.42.42 0 0 1-.38.21c-.32 0-.49-.26-.49-.76zm.88 10.85h-.77v-8.49h.77zm6-7.82h-2v7.82h-.77v-7.82h-1.58v-.45l1.58-.29v-.66a3.66 3.66 0 0 1 .58-2.29 2.22 2.22 0 0 1 1.87-.73 4.92 4.92 0 0 1 1.41.21l-.18.67a4.15 4.15 0 0 0-1.24-.19 1.47 1.47 0 0 0-1.29.53 3.12 3.12 0 0 0-.38 1.74v.79h2zm1.54-3c0-.5.16-.75.49-.75a.44.44 0 0 1 .38.19 1 1 0 0 1 .13.56 1 1 0 0 1-.13.55.43.43 0 0 1-.38.21c-.33-.03-.49-.29-.49-.79zm.84 10.82h-.77v-8.49h.77zm6.31.16a3.69 3.69 0 0 1-2.88-1.14 4.55 4.55 0 0 1-1-3.2 5 5 0 0 1 1-3.25 3.31 3.31 0 0 1 2.7-1.23 2.88 2.88 0 0 1 2.32 1.01 4.32 4.32 0 0 1 .87 2.84v.63h-6.12a4 4 0 0 0 .82 2.67 2.85 2.85 0 0 0 2.29.92 6.93 6.93 0 0 0 1.28-.1 7.36 7.36 0 0 0 1.39-.44v.71a5.86 5.86 0 0 1-1.32.42 7.06 7.06 0 0 1-1.35.16zm-.22-8.13a2.53 2.53 0 0 0-2 .81 3.77 3.77 0 0 0-.87 2.33h5.25a3.71 3.71 0 0 0-.64-2.31 2.13 2.13 0 0 0-1.74-.83zm8.68-.68a3.6 3.6 0 0 1 1.6.34 3.25 3.25 0 0 1 1.2 1.15h.05c0-.66-.05-1.3-.05-1.93v-3.07h.77v12.16h-.51l-.2-1.3h-.06a3.15 3.15 0 0 1-2.78 1.46 3.34 3.34 0 0 1-2.69-1.1 4.8 4.8 0 0 1-.93-3.19 5.34 5.34 0 0 1 .92-3.36 3.22 3.22 0 0 1 2.68-1.16zm0 .71a2.41 2.41 0 0 0-2.09 1 4.9 4.9 0 0 0-.7 2.84q0 3.61 2.81 3.61a2.54 2.54 0 0 0 2.11-.84 4.4 4.4 0 0 0 .67-2.76v-.13a4.74 4.74 0 0 0-.66-2.83 2.51 2.51 0 0 0-2.14-.9zm19.07 7.94H427l-6.77-10.14h-.06q.09 1.81.09 2.73v7.41h-.76V18.23h.8l6.75 10.12h.05c-.05-.93-.07-1.83-.07-2.67v-7.45h.77zm6.47.16a3.69 3.69 0 0 1-2.88-1.14 4.55 4.55 0 0 1-1-3.2 5 5 0 0 1 1-3.25 3.31 3.31 0 0 1 2.7-1.23 2.88 2.88 0 0 1 2.32 1.01 4.32 4.32 0 0 1 .87 2.84v.63h-6.12a4 4 0 0 0 .82 2.67 2.85 2.85 0 0 0 2.29.92 6.93 6.93 0 0 0 1.28-.1 7.36 7.36 0 0 0 1.39-.44v.71a5.86 5.86 0 0 1-1.32.42 7.06 7.06 0 0 1-1.35.16zm-.22-8.13a2.53 2.53 0 0 0-2 .81 3.77 3.77 0 0 0-.87 2.33h5.25a3.71 3.71 0 0 0-.64-2.31 2.13 2.13 0 0 0-1.74-.83zm7.82 7.44a5.48 5.48 0 0 0 1.28-.13v.63a4.29 4.29 0 0 1-1.3.19 2.09 2.09 0 0 1-1.66-.61 2.77 2.77 0 0 1-.53-1.89v-5.48h-1.26v-.45l1.26-.38.39-1.92h.39v2.06H443v.67h-2.5v5.39a2.44 2.44 0 0 0 .35 1.45 1.26 1.26 0 0 0 1.06.47zm9.9.53L450 24c-.12-.39-.27-.95-.46-1.7l-.17.58-.44 1.12-1.93 5.65h-.77l-2.43-8.49h.83l1.37 4.92c.32 1.22.53 2.11.63 2.69.31-1.22.53-2 .68-2.43l1.75-5.18h.7l1.66 5.16q.57 1.84.69 2.43h.05c0-.34.25-1.24.62-2.72l1.3-4.87h.78l-2.3 8.49zm11.81-4.26a4.83 4.83 0 0 1-1 3.25 3.47 3.47 0 0 1-2.78 1.17 3.59 3.59 0 0 1-2-.54 3.52 3.52 0 0 1-1.31-1.55 5.66 5.66 0 0 1-.45-2.33 4.82 4.82 0 0 1 1-3.24 3.48 3.48 0 0 1 2.8-1.15 3.41 3.41 0 0 1 2.74 1.18 4.79 4.79 0 0 1 1 3.21zm-6.71 0a4.33 4.33 0 0 0 .77 2.73 2.91 2.91 0 0 0 4.36 0 4.32 4.32 0 0 0 .76-2.73 4.28 4.28 0 0 0-.77-2.72 2.64 2.64 0 0 0-2.19-1 2.59 2.59 0 0 0-2.16 1 4.33 4.33 0 0 0-.77 2.72zm12.4-4.39a7 7 0 0 1 1.16.11l-.15.75a4.48 4.48 0 0 0-1.1-.14 2.13 2.13 0 0 0-1.78.92 3.73 3.73 0 0 0-.7 2.33v4.69H466v-8.5h.66l.07 1.53h.06a3.61 3.61 0 0 1 1.12-1.32 2.61 2.61 0 0 1 1.4-.37zm3.69 4.92l4.34-4.76h.94l-3.35 3.62 3.64 4.87h-.93l-3.23-4.29-1.41 1.27v3h-.77V17.49h.77v6.1l-.06 2.33zm-143.14 17.7h-4.64l-1.6 4h-.88l4.6-11.47h.5l4.5 11.47h-.9zm-4.35-.72h4.08L328 38.78c-.13-.32-.29-.77-.47-1.34a12 12 0 0 1-.46 1.36zM339 45.44a2 2 0 0 1-.87 1.75 4.17 4.17 0 0 1-2.46.62 5.86 5.86 0 0 1-2.7-.53v-.83a6 6 0 0 0 2.7.64 3.54 3.54 0 0 0 1.91-.42 1.27 1.27 0 0 0 .66-1.11 1.37 1.37 0 0 0-.52-1.08 5.81 5.81 0 0 0-1.71-.86 10 10 0 0 1-1.79-.79 2.81 2.81 0 0 1-.78-.75 1.93 1.93 0 0 1-.26-1 1.75 1.75 0 0 1 .8-1.51 3.88 3.88 0 0 1 2.24-.56 6.75 6.75 0 0 1 2.61.52l-.29.7a6.18 6.18 0 0 0-2.32-.51 3.38 3.38 0 0 0-1.65.34 1.05 1.05 0 0 0-.61 1 1.34 1.34 0 0 0 .47 1.07 7 7 0 0 0 1.85.89 8.72 8.72 0 0 1 1.67.74 2.51 2.51 0 0 1 .79.76 1.87 1.87 0 0 1 .26.92zm7.48 0a2 2 0 0 1-.86 1.75 4.22 4.22 0 0 1-2.46.62 5.88 5.88 0 0 1-2.71-.53v-.83a6.1 6.1 0 0 0 2.71.64 3.58 3.58 0 0 0 1.91-.42 1.28 1.28 0 0 0 .65-1.11 1.37 1.37 0 0 0-.52-1.08 5.81 5.81 0 0 0-1.71-.86 10.32 10.32 0 0 1-1.79-.79 2.63 2.63 0 0 1-.77-.75 1.85 1.85 0 0 1-.27-1 1.75 1.75 0 0 1 .8-1.51 3.9 3.9 0 0 1 2.24-.57 6.75 6.75 0 0 1 2.61.52l-.29.7a6.14 6.14 0 0 0-2.32-.51 3.38 3.38 0 0 0-1.65.34 1.07 1.07 0 0 0-.61 1 1.32 1.32 0 0 0 .48 1.07 6.7 6.7 0 0 0 1.85.89 9 9 0 0 1 1.67.74 2.37 2.37 0 0 1 .78.76 1.79 1.79 0 0 1 .26.93zm9.21-2.05a4.82 4.82 0 0 1-1 3.25 3.47 3.47 0 0 1-2.78 1.17 3.57 3.57 0 0 1-2-.54 3.45 3.45 0 0 1-1.31-1.55 5.66 5.66 0 0 1-.45-2.33 4.82 4.82 0 0 1 1-3.24A3.47 3.47 0 0 1 352 39a3.43 3.43 0 0 1 2.75 1.18 4.84 4.84 0 0 1 .94 3.21zm-6.7 0a4.33 4.33 0 0 0 .77 2.73 2.9 2.9 0 0 0 4.35 0 4.26 4.26 0 0 0 .77-2.73 4.22 4.22 0 0 0-.78-2.72 2.93 2.93 0 0 0-4.35 0 4.39 4.39 0 0 0-.75 2.72zm12.45 4.42a3.63 3.63 0 0 1-2.85-1.15 4.64 4.64 0 0 1-1-3.21 4.71 4.71 0 0 1 1.07-3.28 3.79 3.79 0 0 1 2.89-1.17 5.77 5.77 0 0 1 2.11.39l-.21.68a6.26 6.26 0 0 0-1.91-.36 2.93 2.93 0 0 0-2.37 1 4.23 4.23 0 0 0-.8 2.78 4.09 4.09 0 0 0 .8 2.69 2.76 2.76 0 0 0 2.25 1 5.45 5.45 0 0 0 2.15-.41v.72a4.93 4.93 0 0 1-2.13.32zm4.1-11.01c0-.5.16-.75.49-.75a.44.44 0 0 1 .38.19 1 1 0 0 1 .14.56 1 1 0 0 1-.14.55.43.43 0 0 1-.38.21c-.33 0-.49-.26-.49-.76zm.88 10.85h-.77v-8.49h.77zm8 0l-.19-1.34h-.07a4.07 4.07 0 0 1-1.31 1.16 3.63 3.63 0 0 1-1.6.34 2.83 2.83 0 0 1-1.95-.64 2.31 2.31 0 0 1-.69-1.78 2.18 2.18 0 0 1 1-1.93 5.57 5.57 0 0 1 3-.72l1.62-.05v-.56a2.94 2.94 0 0 0-.49-1.83 1.92 1.92 0 0 0-1.59-.62 5.31 5.31 0 0 0-2.45.66l-.29-.67a6.49 6.49 0 0 1 2.77-.66 2.74 2.74 0 0 1 2.09.73A3.18 3.18 0 0 1 375 42v5.65zm-3.12-.55a2.7 2.7 0 0 0 2.93-2.93v-.84l-1.49.06a5.72 5.72 0 0 0-2.55.56 1.61 1.61 0 0 0-.76 1.47 1.57 1.57 0 0 0 .49 1.24 1.94 1.94 0 0 0 1.38.44zm8.7.02a5.51 5.51 0 0 0 1.29-.13v.63a4.29 4.29 0 0 1-1.3.19 2.07 2.07 0 0 1-1.66-.61 2.77 2.77 0 0 1-.54-1.89v-5.48h-1.25v-.45l1.25-.36.39-1.92h.4v2.06h2.49v.67h-2.49v5.37a2.44 2.44 0 0 0 .35 1.45 1.23 1.23 0 0 0 1.07.47zm6.53.69a3.71 3.71 0 0 1-2.89-1.14 4.59 4.59 0 0 1-1-3.2 5 5 0 0 1 1-3.25A3.29 3.29 0 0 1 386.3 39a2.91 2.91 0 0 1 2.37 1 4.32 4.32 0 0 1 .87 2.84v.63h-6.12a4 4 0 0 0 .82 2.67 2.85 2.85 0 0 0 2.29.92 6.93 6.93 0 0 0 1.28-.1 7.36 7.36 0 0 0 1.39-.44v.71a5.77 5.77 0 0 1-1.33.42 6.88 6.88 0 0 1-1.34.16zm-.23-8.13a2.53 2.53 0 0 0-2 .81 3.77 3.77 0 0 0-.87 2.33h5.25a3.77 3.77 0 0 0-.64-2.31 2.13 2.13 0 0 0-1.74-.83zm16.35 7.97h-7.15V47l3-3.17a23.3 23.3 0 0 0 1.8-2 5.93 5.93 0 0 0 .75-1.34 3.85 3.85 0 0 0 .25-1.35 2.18 2.18 0 0 0-.68-1.66 2.4 2.4 0 0 0-1.74-.64 4.29 4.29 0 0 0-2.73 1l-.42-.54a4.82 4.82 0 0 1 3.17-1.21 3.35 3.35 0 0 1 2.35.8 2.85 2.85 0 0 1 .85 2.2 4.59 4.59 0 0 1-.57 2.19 13.61 13.61 0 0 1-2.1 2.61l-2.93 3h6.11zm5.9-4.38a12.27 12.27 0 0 1 .6-3.88 9.53 9.53 0 0 1 1.75-3.16h.88a10.41 10.41 0 0 0-1.78 3.22 11.69 11.69 0 0 0-.62 3.8 11.22 11.22 0 0 0 2.38 6.93h-.87a9.08 9.08 0 0 1-1.75-3.1 11.79 11.79 0 0 1-.59-3.81zm10.2-6.49a4.3 4.3 0 0 0-3.38 1.38 5.38 5.38 0 0 0-1.24 3.76 5.63 5.63 0 0 0 1.17 3.8 4.14 4.14 0 0 0 3.33 1.35 8.91 8.91 0 0 0 2.64-.37v.71a8.8 8.8 0 0 1-2.83.4 4.79 4.79 0 0 1-3.79-1.56 6.3 6.3 0 0 1-1.38-4.34 6.67 6.67 0 0 1 .66-3.07 4.75 4.75 0 0 1 1.89-2.05 5.65 5.65 0 0 1 2.88-.73 6.91 6.91 0 0 1 3 .63l-.32.72a5.79 5.79 0 0 0-2.63-.63zm9.94 0a4.32 4.32 0 0 0-3.39 1.38 5.42 5.42 0 0 0-1.23 3.76 5.68 5.68 0 0 0 1.16 3.8 4.17 4.17 0 0 0 3.33 1.35 8.82 8.82 0 0 0 2.64-.37v.71a8.73 8.73 0 0 1-2.82.4 4.79 4.79 0 0 1-3.79-1.56 6.25 6.25 0 0 1-1.39-4.34 6.8 6.8 0 0 1 .66-3.07 4.78 4.78 0 0 1 1.9-2.05 5.65 5.65 0 0 1 2.88-.73 6.87 6.87 0 0 1 3 .63l-.32.72a5.75 5.75 0 0 0-2.63-.63zm13.36 10.87h-.8l-6.77-10.14h-.06c.06 1.21.1 2.12.1 2.73v7.41h-.77V36.23h.8l6.75 10.12h.05c-.05-.93-.07-1.83-.07-2.67v-7.45h.77zm8.74-4.03h-4.64l-1.6 4h-.88l4.6-11.47h.5l4.5 11.47h-.89zm-4.35-.72h4.08L449 38.78c-.13-.32-.29-.77-.47-1.34a12 12 0 0 1-.53 1.36zm14.86 4.75h-7.14V47l3-3.17a21.25 21.25 0 0 0 1.79-2 5.63 5.63 0 0 0 .76-1.34 3.84 3.84 0 0 0 .24-1.35 2.17 2.17 0 0 0-.67-1.66 2.41 2.41 0 0 0-1.74-.64 4.31 4.31 0 0 0-2.74 1l-.42-.54a4.84 4.84 0 0 1 3.17-1.21 3.31 3.31 0 0 1 2.35.8 2.85 2.85 0 0 1 .86 2.2 4.49 4.49 0 0 1-.58 2.19 13.11 13.11 0 0 1-2.09 2.61l-2.93 3h6.1zm4.82-4.38a11.92 11.92 0 0 1-.61 3.83 9 9 0 0 1-1.74 3.08h-.87a11.27 11.27 0 0 0 2.37-6.93 11.7 11.7 0 0 0-.61-3.81 10.47 10.47 0 0 0-1.78-3.21h.89a9.87 9.87 0 0 1 1.75 3.17 12.25 12.25 0 0 1 .6 3.87zM306.93 83.65V72.23h.79v11.42zm9.75 0v-5.51a2.68 2.68 0 0 0-.54-1.86 2.16 2.16 0 0 0-1.67-.58 2.87 2.87 0 0 0-2.23.77 3.61 3.61 0 0 0-.71 2.49v4.69h-.77v-8.49h.66l.15 1.16a3.21 3.21 0 0 1 2.99-1.32c1.92 0 2.89 1 2.89 3.11v5.55zm6.67-7.82h-2v7.82h-.77v-7.82H319v-.45l1.58-.29v-.66a3.66 3.66 0 0 1 .58-2.29 2.22 2.22 0 0 1 1.87-.73 4.92 4.92 0 0 1 1.41.21l-.18.67a4.15 4.15 0 0 0-1.26-.19 1.47 1.47 0 0 0-1.29.53 3.12 3.12 0 0 0-.38 1.74v.79h2zm8.65 3.56a4.83 4.83 0 0 1-1 3.25 3.47 3.47 0 0 1-2.78 1.17 3.59 3.59 0 0 1-2-.54 3.43 3.43 0 0 1-1.3-1.55 5.51 5.51 0 0 1-.46-2.33 4.82 4.82 0 0 1 1-3.24 3.48 3.48 0 0 1 2.82-1.15 3.41 3.41 0 0 1 2.72 1.17 4.79 4.79 0 0 1 1 3.22zm-6.7 0a4.26 4.26 0 0 0 .77 2.73 2.57 2.57 0 0 0 2.17 1 2.6 2.6 0 0 0 2.18-1 4.33 4.33 0 0 0 .77-2.73 4.22 4.22 0 0 0-.78-2.72 2.93 2.93 0 0 0-4.35 0 4.32 4.32 0 0 0-.74 2.72zM337.71 75a7 7 0 0 1 1.16.11l-.15.75a4.42 4.42 0 0 0-1.1-.14 2.15 2.15 0 0 0-1.78.92 3.79 3.79 0 0 0-.7 2.33v4.69h-.77v-8.5h.63l.07 1.53h.06a3.61 3.61 0 0 1 1.12-1.32 2.61 2.61 0 0 1 1.46-.37zm13.5 8.65v-5.57a2.78 2.78 0 0 0-.49-1.81 1.84 1.84 0 0 0-1.48-.57 2.41 2.41 0 0 0-1.93.72 3.36 3.36 0 0 0-.63 2.25v5h-.79v-5.8c0-1.44-.65-2.15-2-2.15a2.34 2.34 0 0 0-1.95.77 4 4 0 0 0-.61 2.49v4.69h-.77v-8.51h.64l.16 1.16h.05a2.42 2.42 0 0 1 1-1 3 3 0 0 1 1.43-.35 2.45 2.45 0 0 1 2.58 1.51 2.91 2.91 0 0 1 1.11-1.12 3.23 3.23 0 0 1 1.59-.39 2.72 2.72 0 0 1 2.09.75 3.38 3.38 0 0 1 .79 2.38v5.55zm8.67 0l-.2-1.34h-.06a4.2 4.2 0 0 1-1.32 1.16 3.58 3.58 0 0 1-1.59.34 2.79 2.79 0 0 1-1.95-.64 2.31 2.31 0 0 1-.69-1.78 2.18 2.18 0 0 1 1-1.93 5.57 5.57 0 0 1 3-.72h1.61v-.56a2.87 2.87 0 0 0-.49-1.83 1.9 1.9 0 0 0-1.58-.62 5.28 5.28 0 0 0-2.45.66l-.29-.67a6.46 6.46 0 0 1 2.77-.66 2.74 2.74 0 0 1 2.09.73 3.18 3.18 0 0 1 .69 2.26v5.65zm-3.13-.55a3 3 0 0 0 2.15-.77 2.92 2.92 0 0 0 .78-2.16v-.84l-1.48.06a5.72 5.72 0 0 0-2.55.56 1.82 1.82 0 0 0-.28 2.71 2 2 0 0 0 1.38.44zm8.69.02a5.37 5.37 0 0 0 1.28-.13v.63a4.22 4.22 0 0 1-1.29.19 2.07 2.07 0 0 1-1.66-.61 2.77 2.77 0 0 1-.54-1.89v-5.48H362v-.45l1.26-.36.39-1.92h.4v2.06h2.49v.67H364v5.37a2.44 2.44 0 0 0 .34 1.45 1.26 1.26 0 0 0 1.1.47zm3.01-10.32c0-.5.16-.75.49-.75a.44.44 0 0 1 .38.19 1 1 0 0 1 .14.56 1 1 0 0 1-.14.55.43.43 0 0 1-.38.21c-.33 0-.49-.26-.49-.76zm.88 10.85h-.77v-8.49h.77zm6.24.16a3.67 3.67 0 0 1-2.86-1.15 5.54 5.54 0 0 1 0-6.49 3.79 3.79 0 0 1 2.97-1.17 5.77 5.77 0 0 1 2.11.39l-.21.68a6.26 6.26 0 0 0-1.91-.36 2.93 2.93 0 0 0-2.37 1 4.23 4.23 0 0 0-.8 2.78 4.09 4.09 0 0 0 .8 2.69 2.76 2.76 0 0 0 2.25 1 5.45 5.45 0 0 0 2.15-.41v.72a4.93 4.93 0 0 1-2.13.32zm9.43-2.37a2 2 0 0 1-.86 1.75 4.23 4.23 0 0 1-2.47.62 5.86 5.86 0 0 1-2.7-.53v-.83a6.09 6.09 0 0 0 2.7.64 3.54 3.54 0 0 0 1.91-.42 1.27 1.27 0 0 0 .66-1.11 1.37 1.37 0 0 0-.52-1.08 5.81 5.81 0 0 0-1.71-.86 10 10 0 0 1-1.79-.79 2.81 2.81 0 0 1-.78-.75 1.93 1.93 0 0 1-.26-1 1.75 1.75 0 0 1 .8-1.51 3.9 3.9 0 0 1 2.24-.56 6.75 6.75 0 0 1 2.61.52l-.29.7a6.18 6.18 0 0 0-2.32-.51 3.38 3.38 0 0 0-1.65.34 1.07 1.07 0 0 0-.57.94 1.32 1.32 0 0 0 .48 1.07 6.76 6.76 0 0 0 1.84.89 8.87 8.87 0 0 1 1.68.74 2.47 2.47 0 0 1 .78.76 1.79 1.79 0 0 1 .22.98zm9.56 2.21h-.81V73H390v-.75h8.23V73h-3.71zm8.64.16a3.7 3.7 0 0 1-2.89-1.14 4.59 4.59 0 0 1-1-3.2 5 5 0 0 1 1-3.25A3.27 3.27 0 0 1 403 75a2.91 2.91 0 0 1 2.34 1 4.32 4.32 0 0 1 .87 2.84v.63h-6.12a4 4 0 0 0 .82 2.67 2.84 2.84 0 0 0 2.29.92 7 7 0 0 0 1.28-.1 7.59 7.59 0 0 0 1.39-.44v.71a5.77 5.77 0 0 1-1.33.42 6.88 6.88 0 0 1-1.34.16zm-.2-8.13a2.55 2.55 0 0 0-2 .81 3.83 3.83 0 0 0-.86 2.33h5.25a3.77 3.77 0 0 0-.64-2.31 2.13 2.13 0 0 0-1.75-.83zm8.94 8.13a3.66 3.66 0 0 1-2.85-1.15 5.54 5.54 0 0 1 0-6.49 3.77 3.77 0 0 1 2.97-1.17 5.81 5.81 0 0 1 2.11.39l-.21.68a6.37 6.37 0 0 0-1.96-.37 2.89 2.89 0 0 0-2.36 1 4.23 4.23 0 0 0-.81 2.78 4.09 4.09 0 0 0 .81 2.69 2.74 2.74 0 0 0 2.25 1 5.41 5.41 0 0 0 2.14-.41v.72a4.93 4.93 0 0 1-2.09.33zm10.13-.16v-5.51a2.74 2.74 0 0 0-.53-1.86 2.18 2.18 0 0 0-1.68-.58 2.87 2.87 0 0 0-2.23.77 3.61 3.61 0 0 0-.7 2.49v4.69h-.78V71.49h.78v4.96h.05a2.89 2.89 0 0 1 1.2-1.11A4.23 4.23 0 0 1 420 75c1.93 0 2.89 1 2.89 3.11v5.55zm9.44 0v-5.51a2.68 2.68 0 0 0-.54-1.86 2.17 2.17 0 0 0-1.67-.58 2.87 2.87 0 0 0-2.23.77 3.61 3.61 0 0 0-.71 2.49v4.69h-.77v-8.49h.66l.14 1.16h.05a3.2 3.2 0 0 1 2.95-1.32c1.92 0 2.89 1 2.89 3.11v5.55zm10.54-4.26a4.83 4.83 0 0 1-1 3.25 3.47 3.47 0 0 1-2.78 1.17 3.62 3.62 0 0 1-2-.54 3.43 3.43 0 0 1-1.3-1.55 5.66 5.66 0 0 1-.45-2.33 4.81 4.81 0 0 1 1-3.24 3.49 3.49 0 0 1 2.79-1.15 3.41 3.41 0 0 1 2.74 1.18 4.79 4.79 0 0 1 1 3.21zm-6.7 0a4.26 4.26 0 0 0 .77 2.73 2.9 2.9 0 0 0 4.35 0 4.33 4.33 0 0 0 .77-2.73 4.22 4.22 0 0 0-.78-2.72 2.93 2.93 0 0 0-4.35 0 4.32 4.32 0 0 0-.76 2.72zm9.83 4.26h-.78V71.49h.78zm9.82-4.26a4.82 4.82 0 0 1-1 3.25 3.5 3.5 0 0 1-2.79 1.17 3.56 3.56 0 0 1-2-.54 3.45 3.45 0 0 1-1.21-1.55 5.66 5.66 0 0 1-.45-2.33 4.76 4.76 0 0 1 1-3.24A3.47 3.47 0 0 1 451.3 75a3.43 3.43 0 0 1 2.75 1.18 4.84 4.84 0 0 1 .95 3.21zm-6.7 0a4.33 4.33 0 0 0 .77 2.73 2.9 2.9 0 0 0 4.35 0 4.33 4.33 0 0 0 .77-2.73 4.22 4.22 0 0 0-.78-2.72 2.93 2.93 0 0 0-4.35 0 4.32 4.32 0 0 0-.72 2.72zm15.7-4.23v.54l-1.76.11a3 3 0 0 1 .7 1.92 2.61 2.61 0 0 1-.81 2 3.14 3.14 0 0 1-2.19.76 4.91 4.91 0 0 1-.82 0 2 2 0 0 0-.7.57 1.16 1.16 0 0 0-.24.7.63.63 0 0 0 .31.59 2 2 0 0 0 1 .19H461a3.38 3.38 0 0 1 2.11.56 1.94 1.94 0 0 1 .74 1.65 2.34 2.34 0 0 1-1.09 2.07 5.54 5.54 0 0 1-3.11.73 4.31 4.31 0 0 1-2.48-.61 2.16 2.16 0 0 1-.33-3.18 2.82 2.82 0 0 1 1.47-.78 1.45 1.45 0 0 1-.61-.47 1.06 1.06 0 0 1-.23-.69 1.81 1.81 0 0 1 1.08-1.5 2.36 2.36 0 0 1-1.15-1 2.68 2.68 0 0 1-.42-1.49 2.71 2.71 0 0 1 .81-2A3.05 3.05 0 0 1 460 75a4 4 0 0 1 1.3.17zm-6.88 9.93c0 1.16.87 1.75 2.61 1.75 2.22 0 3.34-.71 3.34-2.14a1.22 1.22 0 0 0-.52-1.1 3.2 3.2 0 0 0-1.7-.35h-1.39c-1.54 0-2.32.61-2.32 1.84zm.65-7.28a1.94 1.94 0 0 0 .6 1.52 2.67 2.67 0 0 0 3.23 0 2.52 2.52 0 0 0 0-3.19 2.27 2.27 0 0 0-1.6-.54 2.12 2.12 0 0 0-1.59.59 2.16 2.16 0 0 0-.62 1.62zm7.88-5.01c0-.5.17-.75.49-.75a.44.44 0 0 1 .38.19 1 1 0 0 1 .14.56 1 1 0 0 1-.14.55.43.43 0 0 1-.38.21c-.32 0-.49-.26-.49-.76zm.89 10.85h-.78v-8.49h.78zm6.27.16a3.7 3.7 0 0 1-2.89-1.14 4.59 4.59 0 0 1-1-3.2 5 5 0 0 1 1-3.25 3.27 3.27 0 0 1 2.66-1.22 2.91 2.91 0 0 1 2.42 1 4.32 4.32 0 0 1 .87 2.84v.63h-6.17a4 4 0 0 0 .82 2.67 2.84 2.84 0 0 0 2.29.92 7 7 0 0 0 1.28-.1 7.59 7.59 0 0 0 1.39-.44v.71a5.77 5.77 0 0 1-1.33.42 6.88 6.88 0 0 1-1.34.16zm-.23-8.13a2.55 2.55 0 0 0-2 .81 3.83 3.83 0 0 0-.86 2.33H475a3.77 3.77 0 0 0-.64-2.31 2.13 2.13 0 0 0-1.78-.83zm10.85 5.76a2 2 0 0 1-.87 1.75 4.22 4.22 0 0 1-2.46.62 5.88 5.88 0 0 1-2.71-.53v-.83a6.1 6.1 0 0 0 2.71.64 3.56 3.56 0 0 0 1.91-.42 1.28 1.28 0 0 0 .65-1.11 1.34 1.34 0 0 0-.52-1.08 5.81 5.81 0 0 0-1.71-.86 10.32 10.32 0 0 1-1.79-.79 2.63 2.63 0 0 1-.77-.75 1.84 1.84 0 0 1-.26-1 1.73 1.73 0 0 1 .8-1.51 3.87 3.87 0 0 1 2.23-.56 6.75 6.75 0 0 1 2.61.52l-.29.7a6.14 6.14 0 0 0-2.32-.51A3.31 3.31 0 0 0 479 76a1.05 1.05 0 0 0-.61.95 1.31 1.31 0 0 0 .47 1.07 6.7 6.7 0 0 0 1.85.89 9 9 0 0 1 1.67.74 2.37 2.37 0 0 1 .78.76 1.79 1.79 0 0 1 .27 1.03zm-133.11 20.21h-6.24V90.23h6.24V91h-5.45v4.32H350V96h-5.15v4.9h5.45zm7.68-2.21a2 2 0 0 1-.87 1.75 4.22 4.22 0 0 1-2.46.62 5.88 5.88 0 0 1-2.71-.53v-.83a6.1 6.1 0 0 0 2.71.64 3.56 3.56 0 0 0 1.91-.42 1.28 1.28 0 0 0 .65-1.11 1.34 1.34 0 0 0-.52-1.08 5.69 5.69 0 0 0-1.71-.86 10.32 10.32 0 0 1-1.79-.79 2.63 2.63 0 0 1-.77-.75 1.84 1.84 0 0 1-.26-1 1.73 1.73 0 0 1 .8-1.51 3.87 3.87 0 0 1 2.23-.56 6.75 6.75 0 0 1 2.61.52l-.28.7a6.22 6.22 0 0 0-2.33-.51 3.31 3.31 0 0 0-1.64.34 1.05 1.05 0 0 0-.61.95 1.31 1.31 0 0 0 .47 1.07 6.7 6.7 0 0 0 1.85.89 9 9 0 0 1 1.67.74 2.37 2.37 0 0 1 .78.76 1.79 1.79 0 0 1 .27.97zm7.43 0a2 2 0 0 1-.87 1.75 4.22 4.22 0 0 1-2.46.62 5.83 5.83 0 0 1-2.7-.53v-.83a6 6 0 0 0 2.7.64 3.54 3.54 0 0 0 1.91-.42 1.26 1.26 0 0 0 .65-1.11 1.34 1.34 0 0 0-.52-1.08 5.61 5.61 0 0 0-1.7-.86 10 10 0 0 1-1.79-.79 2.56 2.56 0 0 1-.78-.75 1.93 1.93 0 0 1-.26-1 1.75 1.75 0 0 1 .8-1.51 3.88 3.88 0 0 1 2.24-.56 6.83 6.83 0 0 1 2.61.52l-.29.7a6.22 6.22 0 0 0-2.32-.51A3.38 3.38 0 0 0 361 94a1.05 1.05 0 0 0-.61.95 1.34 1.34 0 0 0 .47 1.07 6.86 6.86 0 0 0 1.85.89 8.72 8.72 0 0 1 1.67.74 2.51 2.51 0 0 1 .79.76 1.87 1.87 0 0 1 .26 1.03zm5.62 2.37a3.7 3.7 0 0 1-2.89-1.14 4.6 4.6 0 0 1-1-3.2 5 5 0 0 1 1-3.25 3.31 3.31 0 0 1 2.7-1.23 2.91 2.91 0 0 1 2.33 1.01 4.32 4.32 0 0 1 .86 2.84v.63h-6.11a4 4 0 0 0 .81 2.67 2.87 2.87 0 0 0 2.3.92 6.81 6.81 0 0 0 1.27-.1 7.42 7.42 0 0 0 1.4-.44v.71a5.77 5.77 0 0 1-1.33.42 7 7 0 0 1-1.34.16zm-.23-8.13a2.55 2.55 0 0 0-2 .81 3.9 3.9 0 0 0-.87 2.33h5.25a3.71 3.71 0 0 0-.64-2.31 2.12 2.12 0 0 0-1.74-.83zm11.5 7.97v-5.51a2.68 2.68 0 0 0-.54-1.86 2.17 2.17 0 0 0-1.67-.58 2.86 2.86 0 0 0-2.23.77 3.61 3.61 0 0 0-.71 2.49v4.69h-.77v-8.49h.65l.15 1.16h.05a3.19 3.19 0 0 1 2.94-1.32c1.93 0 2.9 1 2.9 3.11v5.55zm5.76-.53a5.42 5.42 0 0 0 1.28-.13v.63a4.29 4.29 0 0 1-1.3.19 2.09 2.09 0 0 1-1.66-.61 2.77 2.77 0 0 1-.53-1.89v-5.48h-1.26v-.45l1.26-.36.39-1.92h.4v2.06h2.49v.67h-2.49v5.37a2.44 2.44 0 0 0 .34 1.45 1.26 1.26 0 0 0 1.08.47zm3.01-10.32c0-.5.16-.75.49-.75a.44.44 0 0 1 .38.19 1 1 0 0 1 .13.56 1 1 0 0 1-.13.55.43.43 0 0 1-.38.21c-.33 0-.49-.26-.49-.76zm.88 10.85h-.78v-8.49h.81zm8.03 0l-.2-1.34h-.06a4.2 4.2 0 0 1-1.32 1.16 3.58 3.58 0 0 1-1.59.34 2.79 2.79 0 0 1-1.95-.64 2.31 2.31 0 0 1-.69-1.78 2.18 2.18 0 0 1 1-1.93 5.57 5.57 0 0 1 3-.72h1.61v-.56a2.87 2.87 0 0 0-.49-1.83 1.9 1.9 0 0 0-1.58-.62 5.28 5.28 0 0 0-2.45.66l-.29-.67a6.46 6.46 0 0 1 2.77-.66 2.74 2.74 0 0 1 2.09.73 3.18 3.18 0 0 1 .69 2.26v5.65zm-3.13-.55a3 3 0 0 0 2.15-.77 2.92 2.92 0 0 0 .78-2.16v-.84l-1.48.06a5.72 5.72 0 0 0-2.55.56 1.82 1.82 0 0 0-.28 2.71 2 2 0 0 0 1.35.44zm7.19.55h-.77V89.49h.77zm8.11-2.21a2 2 0 0 1-.87 1.75 4.17 4.17 0 0 1-2.46.62 5.86 5.86 0 0 1-2.7-.53v-.83a6 6 0 0 0 2.7.64 3.54 3.54 0 0 0 1.91-.42 1.27 1.27 0 0 0 .66-1.11 1.37 1.37 0 0 0-.52-1.08 5.81 5.81 0 0 0-1.71-.86 10 10 0 0 1-1.79-.79 2.81 2.81 0 0 1-.78-.75 1.93 1.93 0 0 1-.26-1 1.75 1.75 0 0 1 .8-1.51 3.9 3.9 0 0 1 2.24-.56 6.75 6.75 0 0 1 2.61.52l-.29.7a6.18 6.18 0 0 0-2.32-.51 3.38 3.38 0 0 0-1.65.34 1.07 1.07 0 0 0-.61.95 1.32 1.32 0 0 0 .48 1.07 6.76 6.76 0 0 0 1.84.89 8.87 8.87 0 0 1 1.68.74 2.58 2.58 0 0 1 .78.76 1.87 1.87 0 0 1 .26.97zm5.56-2.17a12.27 12.27 0 0 1 .61-3.88 9.36 9.36 0 0 1 1.75-3.16h.91a10.41 10.41 0 0 0-1.77 3.22 11.43 11.43 0 0 0-.62 3.8 11.27 11.27 0 0 0 2.37 6.93h-.86a9.08 9.08 0 0 1-1.75-3.1 11.53 11.53 0 0 1-.64-3.81zm5.33 4.38V90.23h.8v11.42zm7.01 0h-.8V91h-3.72v-.75h8.23V91h-3.71zm11.65 0h-6.24V90.23h6.24V91h-5.45v4.32h5.14V96h-5.14v4.9h5.45zm4.68-4.38a11.65 11.65 0 0 1-.61 3.83 9 9 0 0 1-1.74 3.08h-.87a11.27 11.27 0 0 0 2.37-6.93 11.7 11.7 0 0 0-.61-3.81 10.27 10.27 0 0 0-1.78-3.21h.89a9.87 9.87 0 0 1 1.75 3.17 12.25 12.25 0 0 1 .6 3.87z"/><path class="cls-5" d="M471.37 295.63h-.81V285h-3.71v-.75h8.23v.75h-3.71zm8.63.16a3.67 3.67 0 0 1-2.89-1.15 4.57 4.57 0 0 1-1-3.19 5 5 0 0 1 1-3.25 3.31 3.31 0 0 1 2.7-1.23 2.91 2.91 0 0 1 2.37 1 4.37 4.37 0 0 1 .86 2.84v.63h-6.14a4 4 0 0 0 .81 2.67 2.87 2.87 0 0 0 2.3.92 6.81 6.81 0 0 0 1.27-.1 7.42 7.42 0 0 0 1.4-.44v.71a5.77 5.77 0 0 1-1.33.42 7 7 0 0 1-1.35.17zm-.23-8.13a2.55 2.55 0 0 0-2 .81 3.9 3.9 0 0 0-.87 2.33h5.25a3.71 3.71 0 0 0-.64-2.31 2.12 2.12 0 0 0-1.73-.83zm-1.09-1.85c.38-.41.75-.86 1.12-1.34a9 9 0 0 0 .77-1.1h1.1v.13a8.36 8.36 0 0 1-1 1.08c-.45.45-1 .9-1.49 1.35h-.54zm10.07 9.98a3.63 3.63 0 0 1-2.85-1.15 5.54 5.54 0 0 1 0-6.49 3.77 3.77 0 0 1 2.93-1.18 5.75 5.75 0 0 1 2.1.39l-.21.68a6.26 6.26 0 0 0-1.91-.36 2.93 2.93 0 0 0-2.37 1 4.26 4.26 0 0 0-.8 2.78 4.15 4.15 0 0 0 .8 2.69 2.76 2.76 0 0 0 2.25 1 5.64 5.64 0 0 0 2.15-.41v.72a4.93 4.93 0 0 1-2.09.33zm10.13-.16v-5.51a2.68 2.68 0 0 0-.54-1.86 2.17 2.17 0 0 0-1.67-.58 2.86 2.86 0 0 0-2.23.77 3.61 3.61 0 0 0-.71 2.49v4.69H493v-8.49h.66l.14 1.16h.05a3.2 3.2 0 0 1 2.95-1.33c1.92 0 2.89 1 2.89 3.1v5.56zm3.41-10.85c0-.5.16-.75.49-.75a.44.44 0 0 1 .38.19 1 1 0 0 1 .13.56 1 1 0 0 1-.13.55.43.43 0 0 1-.38.21c-.33 0-.49-.26-.49-.76zm.88 10.85h-.77v-8.49h.77zm6.23.16a3.66 3.66 0 0 1-2.85-1.15 5.54 5.54 0 0 1 0-6.49 3.79 3.79 0 0 1 2.93-1.18 5.77 5.77 0 0 1 2.11.39l-.21.68a6.26 6.26 0 0 0-1.91-.36 2.9 2.9 0 0 0-2.37 1 4.21 4.21 0 0 0-.81 2.78 4.09 4.09 0 0 0 .81 2.69 2.74 2.74 0 0 0 2.25 1 5.64 5.64 0 0 0 2.15-.41v.72a5 5 0 0 1-2.1.33zm11.24-4.42a4.83 4.83 0 0 1-1 3.25 3.47 3.47 0 0 1-2.78 1.17 3.59 3.59 0 0 1-2-.54 3.43 3.43 0 0 1-1.3-1.55 5.51 5.51 0 0 1-.46-2.33 4.82 4.82 0 0 1 1-3.24 3.48 3.48 0 0 1 2.8-1.13 3.41 3.41 0 0 1 2.74 1.18 4.79 4.79 0 0 1 1 3.19zm-6.7 0a4.26 4.26 0 0 0 .77 2.73 2.57 2.57 0 0 0 2.17 1 2.6 2.6 0 0 0 2.18-1 4.33 4.33 0 0 0 .77-2.73 4.27 4.27 0 0 0-.78-2.73 2.66 2.66 0 0 0-2.18-1 2.61 2.61 0 0 0-2.17 1 4.29 4.29 0 0 0-.76 2.73zm20.28-3.88a3 3 0 0 1-1.13 2.54 5 5 0 0 1-3.19.88h-1.76v4.72h-.8v-11.42h2.8q4.08 0 4.08 3.28zm-6.08 2.73h1.57a4.81 4.81 0 0 0 2.79-.63 2.43 2.43 0 0 0 .86-2.07 2.33 2.33 0 0 0-.82-2 4.06 4.06 0 0 0-2.51-.63h-1.89zm11.71-3.22a7.07 7.07 0 0 1 1.16.11l-.15.74a5 5 0 0 0-1.1-.13 2.16 2.16 0 0 0-1.79.92 3.79 3.79 0 0 0-.69 2.33v4.69h-.77v-8.49h.65l.08 1.53a3.62 3.62 0 0 1 1.12-1.32 2.66 2.66 0 0 1 1.49-.38zm9.91 4.37a4.83 4.83 0 0 1-1 3.25 3.47 3.47 0 0 1-2.78 1.17 3.59 3.59 0 0 1-2-.54 3.52 3.52 0 0 1-1.31-1.55 5.66 5.66 0 0 1-.45-2.33 4.82 4.82 0 0 1 1-3.24A3.47 3.47 0 0 1 546 287a3.42 3.42 0 0 1 2.75 1.18 4.85 4.85 0 0 1 1.01 3.19zm-6.71 0a4.33 4.33 0 0 0 .77 2.73 2.9 2.9 0 0 0 4.35 0 4.26 4.26 0 0 0 .77-2.73 4.33 4.33 0 0 0-.77-2.73 2.66 2.66 0 0 0-2.19-1 2.61 2.61 0 0 0-2.17 1 4.35 4.35 0 0 0-.76 2.73zm12.21-3.56h-2v7.82h-.77v-7.82h-1.58v-.45l1.58-.29v-.66a3.71 3.71 0 0 1 .57-2.29 2.25 2.25 0 0 1 1.88-.73 4.92 4.92 0 0 1 1.41.21l-.18.67a4.17 4.17 0 0 0-1.24-.2 1.47 1.47 0 0 0-1.29.54 3.12 3.12 0 0 0-.38 1.74v.79h2zm5.07 7.98a3.67 3.67 0 0 1-2.88-1.15 4.57 4.57 0 0 1-1-3.19 5 5 0 0 1 1-3.25 3.31 3.31 0 0 1 2.7-1.23 2.88 2.88 0 0 1 2.36 1 4.32 4.32 0 0 1 .87 2.84v.63h-6.12a4.07 4.07 0 0 0 .82 2.67 2.86 2.86 0 0 0 2.29.92 6.93 6.93 0 0 0 1.28-.1 7.65 7.65 0 0 0 1.4-.44v.71a5.92 5.92 0 0 1-1.33.42 7.06 7.06 0 0 1-1.39.17zm-.22-8.13a2.53 2.53 0 0 0-2 .81 3.77 3.77 0 0 0-.87 2.33h5.25a3.71 3.71 0 0 0-.64-2.31 2.13 2.13 0 0 0-1.74-.83zm10.89 5.76a2 2 0 0 1-.87 1.75 4.17 4.17 0 0 1-2.46.62 5.86 5.86 0 0 1-2.7-.53v-.83a6 6 0 0 0 2.7.64 3.54 3.54 0 0 0 1.91-.42 1.27 1.27 0 0 0 .66-1.11 1.37 1.37 0 0 0-.52-1.08 5.81 5.81 0 0 0-1.71-.86 9.17 9.17 0 0 1-1.79-.8 2.55 2.55 0 0 1-.78-.75 1.87 1.87 0 0 1-.26-1 1.75 1.75 0 0 1 .8-1.51 3.9 3.9 0 0 1 2.24-.56 6.57 6.57 0 0 1 2.61.52l-.29.7a6.18 6.18 0 0 0-2.32-.51 3.38 3.38 0 0 0-1.65.34 1.07 1.07 0 0 0-.61 1 1.34 1.34 0 0 0 .47 1.07 7 7 0 0 0 1.85.89 8.43 8.43 0 0 1 1.67.74 2.41 2.41 0 0 1 .79.76 1.87 1.87 0 0 1 .26.93zm2-8.64c0-.5.16-.75.49-.75a.44.44 0 0 1 .38.19 1 1 0 0 1 .14.56 1 1 0 0 1-.14.55.43.43 0 0 1-.38.21c-.3 0-.49-.26-.49-.76zm.88 10.85h-.77v-8.49h.77zm9.9-4.26a4.83 4.83 0 0 1-1 3.25 3.47 3.47 0 0 1-2.78 1.17 3.62 3.62 0 0 1-2-.54 3.43 3.43 0 0 1-1.3-1.55 5.66 5.66 0 0 1-.46-2.33 4.82 4.82 0 0 1 1-3.24A3.49 3.49 0 0 1 580 287a3.41 3.41 0 0 1 2.74 1.18 4.79 4.79 0 0 1 1.04 3.19zm-6.7 0a4.26 4.26 0 0 0 .77 2.73 2.57 2.57 0 0 0 2.17 1 2.6 2.6 0 0 0 2.18-1 4.33 4.33 0 0 0 .77-2.73 4.27 4.27 0 0 0-.78-2.73 2.66 2.66 0 0 0-2.18-1 2.61 2.61 0 0 0-2.17 1 4.29 4.29 0 0 0-.76 2.73zm14.97 4.26v-5.51a2.68 2.68 0 0 0-.54-1.86 2.16 2.16 0 0 0-1.67-.58 2.87 2.87 0 0 0-2.23.77 3.61 3.61 0 0 0-.71 2.49v4.69h-.77v-8.49h.66l.15 1.16a3.21 3.21 0 0 1 2.95-1.33c1.92 0 2.89 1 2.89 3.1v5.56zm8.67 0l-.19-1.34h-.06a4.2 4.2 0 0 1-1.32 1.16 3.6 3.6 0 0 1-1.6.34 2.74 2.74 0 0 1-1.94-.65 2.25 2.25 0 0 1-.7-1.77 2.19 2.19 0 0 1 1-1.93 5.64 5.64 0 0 1 3-.73h1.62v-.56a2.87 2.87 0 0 0-.49-1.83 1.92 1.92 0 0 0-1.59-.62 5.27 5.27 0 0 0-2.44.66l-.29-.68a6.55 6.55 0 0 1 2.76-.65 2.76 2.76 0 0 1 2.09.72 3.23 3.23 0 0 1 .69 2.27v5.65zm-3.12-.55a2.89 2.89 0 0 0 2.14-.78 2.85 2.85 0 0 0 .79-2.16v-.83l-1.49.06a5.72 5.72 0 0 0-2.55.56 1.63 1.63 0 0 0-.76 1.47 1.6 1.6 0 0 0 .49 1.24 2 2 0 0 0 1.38.44zm7.22.55H604v-12.16h.78zM486 313.79a3.67 3.67 0 0 1-2.89-1.15 4.57 4.57 0 0 1-1-3.19 5 5 0 0 1 1-3.25 3.27 3.27 0 0 1 2.69-1.23 2.91 2.91 0 0 1 2.37 1 4.32 4.32 0 0 1 .87 2.84v.63h-6.12a4 4 0 0 0 .82 2.67 2.84 2.84 0 0 0 2.29.92 7 7 0 0 0 1.28-.1 7.59 7.59 0 0 0 1.39-.44v.71a5.77 5.77 0 0 1-1.33.42 6.88 6.88 0 0 1-1.37.17zm-.23-8.13a2.55 2.55 0 0 0-2 .81 3.83 3.83 0 0 0-.86 2.33h5.25a3.77 3.77 0 0 0-.64-2.31 2.13 2.13 0 0 0-1.77-.83zm11.48 7.97v-5.51a2.68 2.68 0 0 0-.54-1.86 2.16 2.16 0 0 0-1.67-.58 2.87 2.87 0 0 0-2.23.77 3.61 3.61 0 0 0-.71 2.49v4.69h-.77v-8.49h.67l.14 1.16h.05a3.21 3.21 0 0 1 2.95-1.33c1.92 0 2.89 1 2.89 3.1v5.56zm7.87 0v-11.42h.8v11.42zm9.76 0v-5.51a2.68 2.68 0 0 0-.54-1.86 2.17 2.17 0 0 0-1.67-.58 2.86 2.86 0 0 0-2.23.77 3.56 3.56 0 0 0-.71 2.49v4.69H509v-8.49h.65l.15 1.16h.05a3.19 3.19 0 0 1 2.94-1.33c1.93 0 2.89 1 2.89 3.1v5.56zm8.78-2.21a2 2 0 0 1-.87 1.75 4.22 4.22 0 0 1-2.46.62 5.8 5.8 0 0 1-2.7-.53v-.83a6 6 0 0 0 2.7.64 3.54 3.54 0 0 0 1.91-.42 1.28 1.28 0 0 0 .65-1.11 1.34 1.34 0 0 0-.52-1.08 5.61 5.61 0 0 0-1.7-.86 9.17 9.17 0 0 1-1.79-.8 2.35 2.35 0 0 1-.78-.75 1.79 1.79 0 0 1-.26-1 1.73 1.73 0 0 1 .8-1.51 3.88 3.88 0 0 1 2.24-.56 6.65 6.65 0 0 1 2.61.52l-.29.7a6.22 6.22 0 0 0-2.32-.51 3.32 3.32 0 0 0-1.65.34 1.05 1.05 0 0 0-.61 1 1.34 1.34 0 0 0 .47 1.07 6.86 6.86 0 0 0 1.85.89 8.72 8.72 0 0 1 1.67.74 2.41 2.41 0 0 1 .79.76 1.87 1.87 0 0 1 .26.93zm4.43 1.68a5.42 5.42 0 0 0 1.28-.13v.63a4.29 4.29 0 0 1-1.3.19 2.12 2.12 0 0 1-1.66-.61 2.82 2.82 0 0 1-.53-1.89v-5.48h-1.26v-.45l1.26-.36.39-1.92h.4v2.06h2.49v.67h-2.49v5.37a2.46 2.46 0 0 0 .34 1.45 1.26 1.26 0 0 0 1.08.47zm8.27.53l-.19-1.34h-.07a4.07 4.07 0 0 1-1.31 1.16 3.63 3.63 0 0 1-1.6.34 2.78 2.78 0 0 1-2-.65 2.28 2.28 0 0 1-.69-1.77 2.18 2.18 0 0 1 1-1.93 5.66 5.66 0 0 1 3-.73h1.62v-.56a2.94 2.94 0 0 0-.49-1.83 1.92 1.92 0 0 0-1.59-.62 5.31 5.31 0 0 0-2.45.66l-.29-.68a6.62 6.62 0 0 1 2.77-.65 2.77 2.77 0 0 1 2.09.72 3.23 3.23 0 0 1 .69 2.27v5.65zm-3.12-.55a2.71 2.71 0 0 0 2.93-2.94v-.83l-1.49.06a5.72 5.72 0 0 0-2.55.56 1.61 1.61 0 0 0-.76 1.47 1.57 1.57 0 0 0 .49 1.24 1.94 1.94 0 0 0 1.38.44zm7.22.55h-.78v-12.16h.78zm8 0l-.2-1.34h-.06a4.2 4.2 0 0 1-1.32 1.16 3.6 3.6 0 0 1-1.6.34 2.74 2.74 0 0 1-1.94-.65 2.25 2.25 0 0 1-.7-1.77 2.19 2.19 0 0 1 1-1.93 5.64 5.64 0 0 1 3-.73h1.62v-.56a2.87 2.87 0 0 0-.49-1.83 1.92 1.92 0 0 0-1.59-.62 5.27 5.27 0 0 0-2.44.66l-.29-.68a6.55 6.55 0 0 1 2.76-.65 2.76 2.76 0 0 1 2.09.72 3.23 3.23 0 0 1 .7 2.25v5.65zm-3.13-.55a2.89 2.89 0 0 0 2.14-.78 2.85 2.85 0 0 0 .79-2.16v-.83l-1.48.06a5.74 5.74 0 0 0-2.56.56 1.63 1.63 0 0 0-.76 1.47 1.6 1.6 0 0 0 .49 1.24 2 2 0 0 0 1.38.44zm9.84.71a3.67 3.67 0 0 1-2.86-1.15 5.54 5.54 0 0 1 0-6.49 3.79 3.79 0 0 1 2.93-1.18 5.77 5.77 0 0 1 2.11.39l-.21.68a6.26 6.26 0 0 0-1.91-.36 2.93 2.93 0 0 0-2.37 1 4.21 4.21 0 0 0-.8 2.78 4.09 4.09 0 0 0 .8 2.69 2.76 2.76 0 0 0 2.25 1 5.64 5.64 0 0 0 2.15-.41v.72a4.93 4.93 0 0 1-2.09.33zm4.1-11.01c0-.5.16-.75.49-.75a.44.44 0 0 1 .38.19 1 1 0 0 1 .14.56 1 1 0 0 1-.14.55.43.43 0 0 1-.38.21c-.33 0-.49-.26-.49-.76zm.88 10.85h-.77v-8.49h.77zm9.85-4.26a4.83 4.83 0 0 1-1 3.25 3.47 3.47 0 0 1-2.78 1.17 3.59 3.59 0 0 1-2-.54 3.43 3.43 0 0 1-1.3-1.55 5.51 5.51 0 0 1-.46-2.33 4.82 4.82 0 0 1 1-3.24 3.48 3.48 0 0 1 2.77-1.16 3.41 3.41 0 0 1 2.74 1.18 4.79 4.79 0 0 1 1.03 3.22zm-6.71 0a4.33 4.33 0 0 0 .77 2.73 2.91 2.91 0 0 0 4.36 0 4.33 4.33 0 0 0 .77-2.73 4.27 4.27 0 0 0-.78-2.73 2.66 2.66 0 0 0-2.19-1 2.59 2.59 0 0 0-2.16 1 4.29 4.29 0 0 0-.75 2.73zm2.16-5.56c.38-.41.76-.86 1.13-1.34a8.65 8.65 0 0 0 .76-1.1h1.1v.13a7.45 7.45 0 0 1-1 1.08c-.45.45-1 .9-1.49 1.35h-.55zm12.84 9.82v-5.51a2.68 2.68 0 0 0-.54-1.86 2.17 2.17 0 0 0-1.67-.58 2.86 2.86 0 0 0-2.23.77 3.61 3.61 0 0 0-.71 2.49v4.69h-.77v-8.49h.63l.14 1.16h.05a3.2 3.2 0 0 1 2.95-1.33c1.92 0 2.89 1 2.89 3.1v5.56zm6.25-8.49h.8l1.79 4.76c.55 1.47.9 2.45 1 3h.05c.22-.67.58-1.67 1.07-3l1.8-4.72h.79l-3.8 9.86a8.15 8.15 0 0 1-.77 1.63 2.16 2.16 0 0 1-.73.63 2.26 2.26 0 0 1-1 .21 3.5 3.5 0 0 1-1-.16v-.67a3.81 3.81 0 0 0 1 .12 1.27 1.27 0 0 0 .7-.19 1.62 1.62 0 0 0 .55-.58 6.66 6.66 0 0 0 .57-1.25q.33-.86.42-1.11zm-107.39 26.49l-4.25-10.55h-.07c.05.65.07 1.31.07 2v8.56h-.77v-11.43h1.24l4 10 4.05-10h1.2v11.42h-.81V323c0-.6 0-1.23.1-1.87h-.06l-4.28 10.53zm13.75 0l-.2-1.34h-.06a4.2 4.2 0 0 1-1.32 1.16 3.6 3.6 0 0 1-1.6.34 2.74 2.74 0 0 1-1.94-.65 2.28 2.28 0 0 1-.7-1.77 2.19 2.19 0 0 1 1-1.93 5.66 5.66 0 0 1 3-.73h1.61v-.56a2.87 2.87 0 0 0-.49-1.83 1.92 1.92 0 0 0-1.59-.62 5.27 5.27 0 0 0-2.44.66l-.29-.68a6.55 6.55 0 0 1 2.77-.65 2.79 2.79 0 0 1 2.09.72 3.23 3.23 0 0 1 .69 2.27v5.65zm-3.13-.55a2.93 2.93 0 0 0 2.15-.78 2.89 2.89 0 0 0 .78-2.16v-.83l-1.48.06a5.65 5.65 0 0 0-2.55.56 1.8 1.8 0 0 0-.28 2.71 2 2 0 0 0 1.38.44zm12.37.55v-5.51a2.68 2.68 0 0 0-.54-1.86 2.17 2.17 0 0 0-1.67-.58 2.86 2.86 0 0 0-2.23.77 3.61 3.61 0 0 0-.71 2.49v4.69h-.77v-8.49h.65l.15 1.16h.05A3.19 3.19 0 0 1 498 323c1.93 0 2.89 1 2.89 3.1v5.56zm5.76-.53a5.42 5.42 0 0 0 1.28-.13v.63a4.29 4.29 0 0 1-1.3.19 2.12 2.12 0 0 1-1.66-.61 2.77 2.77 0 0 1-.53-1.89v-5.48h-1.26v-.45l1.26-.36.39-1.92h.39v2.06H507v.67h-2.5v5.37a2.46 2.46 0 0 0 .35 1.45 1.26 1.26 0 0 0 1.05.47zm6.54.69a3.67 3.67 0 0 1-2.88-1.15 4.57 4.57 0 0 1-1-3.19 5 5 0 0 1 1-3.25 3.31 3.31 0 0 1 2.7-1.23 2.88 2.88 0 0 1 2.36 1 4.32 4.32 0 0 1 .87 2.84v.63h-6.12a4 4 0 0 0 .82 2.67 2.85 2.85 0 0 0 2.29.92 6.93 6.93 0 0 0 1.28-.1 7.65 7.65 0 0 0 1.4-.44v.71a5.92 5.92 0 0 1-1.33.42 7.06 7.06 0 0 1-1.39.17zm-.22-8.13a2.53 2.53 0 0 0-2 .81 3.77 3.77 0 0 0-.87 2.33h5.25a3.71 3.71 0 0 0-.64-2.31 2.13 2.13 0 0 0-1.74-.83zm11.5 7.97v-5.51a2.68 2.68 0 0 0-.54-1.86 2.17 2.17 0 0 0-1.67-.58 2.86 2.86 0 0 0-2.23.77 3.56 3.56 0 0 0-.71 2.49v4.69h-.78v-8.49h.66l.15 1.16a3.19 3.19 0 0 1 2.94-1.33c1.93 0 2.89 1 2.89 3.1v5.56zm3.4-10.85c0-.5.17-.75.5-.75a.42.42 0 0 1 .37.19 1 1 0 0 1 .14.56 1 1 0 0 1-.14.55.42.42 0 0 1-.37.21c-.33 0-.5-.26-.5-.76zm.89 10.85h-.78v-8.49h.77zm13.45 0v-5.57a2.72 2.72 0 0 0-.49-1.81 1.82 1.82 0 0 0-1.48-.57 2.46 2.46 0 0 0-1.93.71 3.39 3.39 0 0 0-.62 2.26v5h-.79v-5.81c0-1.43-.66-2.14-2-2.14a2.36 2.36 0 0 0-1.95.77 4.1 4.1 0 0 0-.61 2.49v4.69h-.77v-8.49h.64l.16 1.16h.05a2.48 2.48 0 0 1 1-1 3 3 0 0 1 1.43-.35 2.45 2.45 0 0 1 2.58 1.51 3 3 0 0 1 1.11-1.12 3.23 3.23 0 0 1 1.59-.39 2.74 2.74 0 0 1 2.09.74 3.41 3.41 0 0 1 .69 2.36v5.56zm3.41-10.85c0-.5.16-.75.49-.75a.44.44 0 0 1 .38.19 1 1 0 0 1 .13.56 1 1 0 0 1-.13.55.43.43 0 0 1-.38.21c-.36 0-.49-.26-.49-.76zm.88 10.85H545v-8.49h.78zm6.25.16a3.7 3.7 0 0 1-2.89-1.15 4.57 4.57 0 0 1-1-3.19 5 5 0 0 1 1-3.25 3.3 3.3 0 0 1 2.69-1.23 2.91 2.91 0 0 1 2.37 1 4.32 4.32 0 0 1 .87 2.84v.63h-6.12a4 4 0 0 0 .82 2.67 2.85 2.85 0 0 0 2.29.92 6.93 6.93 0 0 0 1.28-.1 7.36 7.36 0 0 0 1.39-.44v.71a5.86 5.86 0 0 1-1.32.42 7.06 7.06 0 0 1-1.38.17zm-.23-8.13a2.53 2.53 0 0 0-2 .81 3.77 3.77 0 0 0-.87 2.33h5.25a3.71 3.71 0 0 0-.64-2.31 2.13 2.13 0 0 0-1.72-.83zm11.52 7.97v-5.51a2.68 2.68 0 0 0-.53-1.86 2.18 2.18 0 0 0-1.68-.58 2.89 2.89 0 0 0-2.23.77 3.61 3.61 0 0 0-.7 2.49v4.69h-.78v-8.49h.63l.15 1.16a3.22 3.22 0 0 1 2.95-1.33c1.93 0 2.89 1 2.89 3.1v5.56zm5.76-.53a5.37 5.37 0 0 0 1.28-.13v.63a4.17 4.17 0 0 1-1.29.19 2.11 2.11 0 0 1-1.66-.61 2.77 2.77 0 0 1-.54-1.89v-5.48h-1.26v-.45l1.26-.36.39-1.92h.4v2.06h2.49v.67h-2.49v5.37a2.54 2.54 0 0 0 .34 1.45 1.26 1.26 0 0 0 1.08.47zm10.14-3.73a4.82 4.82 0 0 1-1 3.25 3.5 3.5 0 0 1-2.79 1.17 3.56 3.56 0 0 1-2-.54 3.45 3.45 0 0 1-1.31-1.55 5.66 5.66 0 0 1-.45-2.33 4.76 4.76 0 0 1 1-3.24 3.47 3.47 0 0 1 2.76-1.16 3.43 3.43 0 0 1 2.75 1.18 4.84 4.84 0 0 1 1.04 3.22zm-6.7 0a4.33 4.33 0 0 0 .77 2.73 2.9 2.9 0 0 0 4.35 0 4.33 4.33 0 0 0 .77-2.73 4.27 4.27 0 0 0-.78-2.73 2.64 2.64 0 0 0-2.18-1 2.61 2.61 0 0 0-2.17 1 4.29 4.29 0 0 0-.76 2.73zm16.64 4.42a3.69 3.69 0 0 1-2.89-1.15 4.57 4.57 0 0 1-1-3.19 5 5 0 0 1 1-3.25 3.29 3.29 0 0 1 2.66-1.2 2.91 2.91 0 0 1 2.37 1 4.32 4.32 0 0 1 .87 2.84v.63H586a4 4 0 0 0 .82 2.67 2.85 2.85 0 0 0 2.29.92 6.93 6.93 0 0 0 1.28-.1 7.36 7.36 0 0 0 1.39-.44v.71a5.77 5.77 0 0 1-1.33.42 6.88 6.88 0 0 1-1.32.14zm-.23-8.13a2.53 2.53 0 0 0-2 .81 3.77 3.77 0 0 0-.87 2.33h5.25a3.77 3.77 0 0 0-.64-2.31 2.13 2.13 0 0 0-1.74-.83zm11.5 7.97v-5.51a2.74 2.74 0 0 0-.53-1.86 2.18 2.18 0 0 0-1.68-.58 2.87 2.87 0 0 0-2.23.77 3.61 3.61 0 0 0-.7 2.49v4.69h-.78v-8.49h.66l.15 1.16a3.22 3.22 0 0 1 2.95-1.33c1.93 0 2.89 1 2.89 3.1v5.56zM466 344.65v5h-.79v-11.44h2.71a5.18 5.18 0 0 1 3.08.79 2.83 2.83 0 0 1 1 2.37 3.08 3.08 0 0 1-.6 1.93 3.39 3.39 0 0 1-1.84 1.14l3.1 5.2h-1l-2.94-5zm0-.69h2.18a3.46 3.46 0 0 0 2.24-.64 2.27 2.27 0 0 0 .8-1.9 2.24 2.24 0 0 0-.78-1.9 4.24 4.24 0 0 0-2.55-.59H466zm11.91 5.83a3.67 3.67 0 0 1-2.89-1.15 4.57 4.57 0 0 1-1-3.19 5 5 0 0 1 1-3.25 3.27 3.27 0 0 1 2.69-1.23 2.91 2.91 0 0 1 2.37 1 4.32 4.32 0 0 1 .87 2.84v.63h-6.15a4 4 0 0 0 .82 2.67 2.84 2.84 0 0 0 2.29.92 7 7 0 0 0 1.28-.1 7.59 7.59 0 0 0 1.39-.44v.71a5.77 5.77 0 0 1-1.33.42 6.88 6.88 0 0 1-1.34.17zm-.23-8.13a2.55 2.55 0 0 0-2 .81 3.83 3.83 0 0 0-.86 2.33h5.25a3.77 3.77 0 0 0-.64-2.31 2.13 2.13 0 0 0-1.75-.83zm8.69-.66a3.45 3.45 0 0 1 1.59.34 3.2 3.2 0 0 1 1.21 1.15v-4.99h.76v12.16h-.51l-.19-1.3h-.06a3.16 3.16 0 0 1-2.79 1.46 3.32 3.32 0 0 1-2.68-1.1 4.8 4.8 0 0 1-.93-3.19 5.34 5.34 0 0 1 .92-3.36 3.2 3.2 0 0 1 2.68-1.17zm0 .71a2.4 2.4 0 0 0-2.09 1 4.82 4.82 0 0 0-.7 2.84c0 2.4.93 3.61 2.8 3.61a2.53 2.53 0 0 0 2.11-.84 4.39 4.39 0 0 0 .68-2.76v-.13a4.74 4.74 0 0 0-.66-2.83 2.52 2.52 0 0 0-2.14-.92zm9.84 8.08a3.67 3.67 0 0 1-2.88-1.15 4.57 4.57 0 0 1-1-3.19 5 5 0 0 1 1-3.25A3.31 3.31 0 0 1 496 341a2.88 2.88 0 0 1 2.36 1 4.32 4.32 0 0 1 .87 2.84v.63h-6.13a4 4 0 0 0 .82 2.67 2.85 2.85 0 0 0 2.29.92 6.93 6.93 0 0 0 1.28-.1 7.36 7.36 0 0 0 1.39-.44v.71a5.7 5.7 0 0 1-1.32.42 7.06 7.06 0 0 1-1.35.14zm-.22-8.13a2.53 2.53 0 0 0-2 .81 3.77 3.77 0 0 0-.87 2.33h5.25a3.71 3.71 0 0 0-.64-2.31 2.13 2.13 0 0 0-1.73-.83zm10.84 5.76a2 2 0 0 1-.87 1.75 4.22 4.22 0 0 1-2.46.62 5.86 5.86 0 0 1-2.7-.53v-.83a6 6 0 0 0 2.7.64 3.54 3.54 0 0 0 1.91-.42 1.26 1.26 0 0 0 .65-1.11 1.34 1.34 0 0 0-.52-1.08 5.61 5.61 0 0 0-1.7-.86 9.17 9.17 0 0 1-1.79-.8 2.55 2.55 0 0 1-.78-.75 1.87 1.87 0 0 1-.26-1 1.75 1.75 0 0 1 .8-1.51 3.88 3.88 0 0 1 2.24-.56 6.61 6.61 0 0 1 2.61.52l-.29.7a6.18 6.18 0 0 0-2.32-.51 3.38 3.38 0 0 0-1.65.34 1.05 1.05 0 0 0-.61 1 1.34 1.34 0 0 0 .47 1.07 6.86 6.86 0 0 0 1.85.89 8.72 8.72 0 0 1 1.67.74 2.41 2.41 0 0 1 .79.76 1.87 1.87 0 0 1 .26.93zm9.45-6.42a3.47 3.47 0 0 1 1.6.34 3.11 3.11 0 0 1 1.2 1.15v-4.99h.77v12.16h-.51l-.2-1.3h-.06a3.15 3.15 0 0 1-2.78 1.46 3.34 3.34 0 0 1-2.69-1.1 4.8 4.8 0 0 1-.93-3.19 5.34 5.34 0 0 1 .92-3.36 3.22 3.22 0 0 1 2.68-1.17zm0 .71a2.41 2.41 0 0 0-2.09 1 4.9 4.9 0 0 0-.7 2.84c0 2.4.94 3.61 2.81 3.61a2.54 2.54 0 0 0 2.11-.84 4.4 4.4 0 0 0 .67-2.76v-.13a4.74 4.74 0 0 0-.66-2.83 2.51 2.51 0 0 0-2.14-.92zm9.85 8.08a3.67 3.67 0 0 1-2.89-1.15 4.57 4.57 0 0 1-1-3.19 5 5 0 0 1 1-3.25 3.27 3.27 0 0 1 2.66-1.2 2.91 2.91 0 0 1 2.37 1 4.32 4.32 0 0 1 .86 2.84v.63H523a4 4 0 0 0 .81 2.67 2.87 2.87 0 0 0 2.3.92 6.81 6.81 0 0 0 1.27-.1 7.42 7.42 0 0 0 1.4-.44v.71a5.77 5.77 0 0 1-1.33.42 7 7 0 0 1-1.32.14zm-.23-8.13a2.55 2.55 0 0 0-2 .81 3.9 3.9 0 0 0-.87 2.33h5.25a3.71 3.71 0 0 0-.64-2.31 2.1 2.1 0 0 0-1.74-.83zm12.91 7.97H538V339h-3.71v-.75h8.23v.75h-3.71zm8.64.16a3.67 3.67 0 0 1-2.89-1.15 4.57 4.57 0 0 1-1-3.19 5 5 0 0 1 1-3.25 3.27 3.27 0 0 1 2.69-1.23 2.91 2.91 0 0 1 2.37 1 4.32 4.32 0 0 1 .87 2.84v.63h-6.12a4 4 0 0 0 .81 2.67 2.87 2.87 0 0 0 2.3.92 6.81 6.81 0 0 0 1.27-.1 7.42 7.42 0 0 0 1.4-.44v.71a5.77 5.77 0 0 1-1.33.42 7 7 0 0 1-1.37.17zm-.23-8.13a2.55 2.55 0 0 0-2 .81 3.9 3.9 0 0 0-.87 2.33h5.25a3.71 3.71 0 0 0-.64-2.31 2.1 2.1 0 0 0-1.74-.83zm6.35 7.97h-.77v-12.16h.77zm6.28.16a3.67 3.67 0 0 1-2.89-1.15 4.57 4.57 0 0 1-1-3.19 5 5 0 0 1 1-3.25 3.31 3.31 0 0 1 2.7-1.23 2.91 2.91 0 0 1 2.37 1 4.37 4.37 0 0 1 .86 2.84v.63h-6.11a4 4 0 0 0 .81 2.67 2.87 2.87 0 0 0 2.3.92 6.81 6.81 0 0 0 1.27-.1 7.42 7.42 0 0 0 1.4-.44v.71a5.77 5.77 0 0 1-1.33.42 7 7 0 0 1-1.38.17zm-.23-8.13a2.55 2.55 0 0 0-2 .81 3.9 3.9 0 0 0-.87 2.33H562a3.71 3.71 0 0 0-.64-2.31 2.12 2.12 0 0 0-1.74-.83zm8.97 8.13a3.63 3.63 0 0 1-2.85-1.15 5.54 5.54 0 0 1 0-6.49 3.77 3.77 0 0 1 2.93-1.18 5.75 5.75 0 0 1 2.1.39l-.21.68a6.26 6.26 0 0 0-1.91-.36 2.93 2.93 0 0 0-2.37 1 4.26 4.26 0 0 0-.8 2.78 4.15 4.15 0 0 0 .8 2.69 2.76 2.76 0 0 0 2.25 1 5.64 5.64 0 0 0 2.15-.41v.72a4.93 4.93 0 0 1-2.09.33zm11.23-4.42a4.77 4.77 0 0 1-1 3.25 3.46 3.46 0 0 1-2.78 1.17 3.62 3.62 0 0 1-2-.54 3.5 3.5 0 0 1-1.3-1.55 5.66 5.66 0 0 1-.45-2.33 4.81 4.81 0 0 1 1-3.24 3.51 3.51 0 0 1 2.77-1.16 3.43 3.43 0 0 1 2.75 1.18 4.84 4.84 0 0 1 1.01 3.22zm-6.7 0a4.33 4.33 0 0 0 .77 2.73 2.9 2.9 0 0 0 4.35 0 4.33 4.33 0 0 0 .77-2.73 4.27 4.27 0 0 0-.78-2.73 2.64 2.64 0 0 0-2.18-1 2.61 2.61 0 0 0-2.17 1 4.29 4.29 0 0 0-.76 2.73zm19.66 4.26v-5.57a2.78 2.78 0 0 0-.48-1.81 1.84 1.84 0 0 0-1.49-.57 2.46 2.46 0 0 0-1.93.71 3.45 3.45 0 0 0-.62 2.26v5h-.79v-5.81c0-1.43-.66-2.14-2-2.14a2.32 2.32 0 0 0-1.94.77 4 4 0 0 0-.61 2.49v4.69h-.78v-8.49h.64l.17 1.16a2.36 2.36 0 0 1 1-1 3 3 0 0 1 1.43-.35 2.45 2.45 0 0 1 2.57 1.51 2.94 2.94 0 0 1 1.12-1.12 3.18 3.18 0 0 1 1.59-.39 2.73 2.73 0 0 1 2.08.74 3.36 3.36 0 0 1 .7 2.36v5.56zm4.22-8.49v5.5a2.68 2.68 0 0 0 .54 1.86 2.17 2.17 0 0 0 1.67.58 2.91 2.91 0 0 0 2.23-.76 3.57 3.57 0 0 0 .72-2.5v-4.68h.76v8.49h-.65l-.14-1.17h-.05a3.21 3.21 0 0 1-2.95 1.33c-1.93 0-2.89-1-2.89-3.11v-5.54zm8 4.49V345h3.71v.64zm-98.85 22v-5.51a2.68 2.68 0 0 0-.54-1.86 2.17 2.17 0 0 0-1.67-.58 2.86 2.86 0 0 0-2.23.77 3.61 3.61 0 0 0-.71 2.49v4.69h-.77v-8.49h.65l.15 1.16h.05A3.2 3.2 0 0 1 504 359c1.92 0 2.89 1 2.89 3.1v5.56zm3.41-10.85c0-.5.16-.75.49-.75a.44.44 0 0 1 .38.19 1 1 0 0 1 .13.56 1 1 0 0 1-.13.55.43.43 0 0 1-.38.21c-.33 0-.49-.26-.49-.76zm.88 10.85h-.77v-8.49h.77zm6.23.16a3.66 3.66 0 0 1-2.85-1.15 4.64 4.64 0 0 1-1-3.21 4.71 4.71 0 0 1 1.07-3.28 3.79 3.79 0 0 1 2.93-1.18 5.77 5.77 0 0 1 2.11.39l-.21.68a6.26 6.26 0 0 0-1.91-.36 2.9 2.9 0 0 0-2.37 1 4.21 4.21 0 0 0-.81 2.78 4.09 4.09 0 0 0 .81 2.69 2.74 2.74 0 0 0 2.25 1 5.64 5.64 0 0 0 2.15-.41v.72a5 5 0 0 1-2.17.33zm9.33-.16l-.19-1.34h-.07a4.07 4.07 0 0 1-1.31 1.16 3.63 3.63 0 0 1-1.6.34 2.78 2.78 0 0 1-2-.65 2.28 2.28 0 0 1-.69-1.77 2.18 2.18 0 0 1 1-1.93 5.66 5.66 0 0 1 3-.73h1.62v-.56a2.87 2.87 0 0 0-.5-1.83 1.89 1.89 0 0 0-1.58-.62 5.31 5.31 0 0 0-2.45.66l-.29-.68a6.62 6.62 0 0 1 2.77-.65 2.77 2.77 0 0 1 2.09.72 3.23 3.23 0 0 1 .69 2.27v5.65zm-3.12-.55a2.71 2.71 0 0 0 2.93-2.94v-.83l-1.49.06a5.72 5.72 0 0 0-2.55.56 1.61 1.61 0 0 0-.76 1.47 1.57 1.57 0 0 0 .49 1.24 1.94 1.94 0 0 0 1.42.44zm9.87.71a3.66 3.66 0 0 1-2.85-1.15 4.64 4.64 0 0 1-1-3.21 4.71 4.71 0 0 1 1.07-3.28 3.77 3.77 0 0 1 2.93-1.18 5.81 5.81 0 0 1 2.11.39l-.21.68a6.32 6.32 0 0 0-1.92-.36 2.89 2.89 0 0 0-2.36 1 4.21 4.21 0 0 0-.81 2.78 4.09 4.09 0 0 0 .81 2.69 2.74 2.74 0 0 0 2.25 1 5.59 5.59 0 0 0 2.14-.41v.72a4.93 4.93 0 0 1-2.16.33zm4.1-11.01c0-.5.17-.75.5-.75a.42.42 0 0 1 .37.19.91.91 0 0 1 .14.56.9.9 0 0 1-.14.55.42.42 0 0 1-.37.21c-.35 0-.5-.26-.5-.76zm.89 10.85H537v-8.49h.78zm9.86-4.26a4.82 4.82 0 0 1-1 3.25 3.5 3.5 0 0 1-2.79 1.17 3.56 3.56 0 0 1-2-.54 3.45 3.45 0 0 1-1.31-1.55 5.66 5.66 0 0 1-.45-2.33 4.76 4.76 0 0 1 1-3.24 3.47 3.47 0 0 1 2.76-1.16 3.43 3.43 0 0 1 2.75 1.18 4.84 4.84 0 0 1 1.04 3.22zm-6.7 0a4.33 4.33 0 0 0 .77 2.73 2.9 2.9 0 0 0 4.35 0 4.33 4.33 0 0 0 .77-2.73 4.27 4.27 0 0 0-.78-2.73 2.94 2.94 0 0 0-4.35 0 4.29 4.29 0 0 0-.76 2.73zm14.98 4.26v-5.51a2.68 2.68 0 0 0-.54-1.86 2.17 2.17 0 0 0-1.67-.58 2.86 2.86 0 0 0-2.23.77 3.56 3.56 0 0 0-.71 2.49v4.69H550v-8.49h.65l.15 1.16a3.19 3.19 0 0 1 2.94-1.33c1.93 0 2.89 1 2.89 3.1v5.56zm6.94.16a3.67 3.67 0 0 1-2.88-1.15 4.57 4.57 0 0 1-1-3.19 5 5 0 0 1 1-3.25 3.31 3.31 0 0 1 2.7-1.23 2.89 2.89 0 0 1 2.36 1 4.32 4.32 0 0 1 .87 2.84v.63h-6.12a4 4 0 0 0 .82 2.67 2.85 2.85 0 0 0 2.29.92 6.93 6.93 0 0 0 1.28-.1 7.36 7.36 0 0 0 1.39-.44v.71a5.86 5.86 0 0 1-1.32.42 7.06 7.06 0 0 1-1.39.17zm-.22-8.13a2.53 2.53 0 0 0-2 .81 3.77 3.77 0 0 0-.87 2.33H565a3.71 3.71 0 0 0-.64-2.31 2.13 2.13 0 0 0-1.76-.83zm10.84 5.76a2 2 0 0 1-.87 1.75 4.22 4.22 0 0 1-2.46.62 5.86 5.86 0 0 1-2.7-.53v-.83a6 6 0 0 0 2.7.64 3.54 3.54 0 0 0 1.91-.42 1.26 1.26 0 0 0 .65-1.11 1.34 1.34 0 0 0-.52-1.08 5.61 5.61 0 0 0-1.7-.86 9.17 9.17 0 0 1-1.79-.8 2.45 2.45 0 0 1-.78-.75 1.87 1.87 0 0 1-.26-1 1.75 1.75 0 0 1 .8-1.51 3.88 3.88 0 0 1 2.24-.56 6.61 6.61 0 0 1 2.61.52l-.29.7a6.18 6.18 0 0 0-2.32-.51 3.38 3.38 0 0 0-1.66.31 1.05 1.05 0 0 0-.61 1 1.34 1.34 0 0 0 .47 1.07 6.86 6.86 0 0 0 1.85.89 8.72 8.72 0 0 1 1.67.74 2.41 2.41 0 0 1 .79.76 1.87 1.87 0 0 1 .27.96z"/><path class="cls-3" d="M214 279.18a4.33 4.33 0 0 0-3.38 1.37 5.41 5.41 0 0 0-1.24 3.77 5.65 5.65 0 0 0 1.17 3.8 4.14 4.14 0 0 0 3.33 1.35 9.25 9.25 0 0 0 2.64-.37v.7a8.53 8.53 0 0 1-2.83.4 4.82 4.82 0 0 1-3.79-1.55 6.34 6.34 0 0 1-1.38-4.35 6.83 6.83 0 0 1 .66-3.07 4.77 4.77 0 0 1 1.9-2.05 5.59 5.59 0 0 1 2.87-.72 7 7 0 0 1 3 .62l-.32.72a5.91 5.91 0 0 0-2.63-.62zm4.8.01c0-.5.16-.75.49-.75a.44.44 0 0 1 .38.2 1 1 0 0 1 .14.55 1 1 0 0 1-.14.56.44.44 0 0 1-.38.2c-.29.05-.49-.25-.49-.76zm.88 10.85h-.77v-8.49h.77zm8.11-2.21a2 2 0 0 1-.87 1.76 4.18 4.18 0 0 1-2.46.61 5.87 5.87 0 0 1-2.7-.52v-.84a5.9 5.9 0 0 0 2.7.64 3.54 3.54 0 0 0 1.91-.42A1.25 1.25 0 0 0 227 288a1.39 1.39 0 0 0-.52-1.08 5.81 5.81 0 0 0-1.71-.86 9.29 9.29 0 0 1-1.79-.79 2.55 2.55 0 0 1-.78-.75 1.93 1.93 0 0 1-.26-1 1.76 1.76 0 0 1 .8-1.51 3.91 3.91 0 0 1 2.24-.55 6.75 6.75 0 0 1 2.61.51l-.29.71a6 6 0 0 0-2.32-.52 3.37 3.37 0 0 0-1.65.35 1.06 1.06 0 0 0-.61.95 1.32 1.32 0 0 0 .47 1.06 6.72 6.72 0 0 0 1.85.89 9 9 0 0 1 1.67.75 2.49 2.49 0 0 1 .79.75 1.87 1.87 0 0 1 .29.92zm5.58 2.37a3.63 3.63 0 0 1-2.85-1.15 4.59 4.59 0 0 1-1-3.2 4.69 4.69 0 0 1 1.07-3.29 3.77 3.77 0 0 1 2.93-1.17 6.06 6.06 0 0 1 2.11.38l-.22.69a6 6 0 0 0-1.91-.37 2.9 2.9 0 0 0-2.37 1 4.25 4.25 0 0 0-.8 2.77 4.16 4.16 0 0 0 .8 2.7 2.79 2.79 0 0 0 2.25 1 5.46 5.46 0 0 0 2.15-.42v.72a4.79 4.79 0 0 1-2.16.34zm11.23-4.41a4.81 4.81 0 0 1-1 3.24 3.5 3.5 0 0 1-2.79 1.17 3.56 3.56 0 0 1-2-.54 3.43 3.43 0 0 1-1.31-1.54 5.7 5.7 0 0 1-.45-2.33 4.73 4.73 0 0 1 1-3.24 3.47 3.47 0 0 1 2.76-1.16 3.43 3.43 0 0 1 2.75 1.17 4.87 4.87 0 0 1 1.04 3.23zm-6.7 0a4.36 4.36 0 0 0 .77 2.73 2.9 2.9 0 0 0 4.35 0 4.36 4.36 0 0 0 .77-2.73 4.27 4.27 0 0 0-.78-2.73 2.64 2.64 0 0 0-2.18-1 2.59 2.59 0 0 0-2.17 1 4.29 4.29 0 0 0-.76 2.73zm18.28-6.61a4.33 4.33 0 0 0-3.38 1.37 5.45 5.45 0 0 0-1.24 3.77 5.65 5.65 0 0 0 1.17 3.8 4.14 4.14 0 0 0 3.33 1.35 9.2 9.2 0 0 0 2.64-.37v.7a8.53 8.53 0 0 1-2.83.4 4.82 4.82 0 0 1-3.79-1.55 6.34 6.34 0 0 1-1.38-4.35 6.83 6.83 0 0 1 .66-3.07 4.77 4.77 0 0 1 1.9-2.05 5.59 5.59 0 0 1 2.87-.72 7 7 0 0 1 3 .62l-.32.72a5.91 5.91 0 0 0-2.63-.62zm8.3 11.02a3.7 3.7 0 0 1-2.89-1.14 4.57 4.57 0 0 1-1-3.19 5 5 0 0 1 1-3.26 3.29 3.29 0 0 1 2.69-1.22 2.91 2.91 0 0 1 2.37 1.05 4.28 4.28 0 0 1 .87 2.84v.62h-6.12a4 4 0 0 0 .82 2.68 2.87 2.87 0 0 0 2.29.92 8 8 0 0 0 1.28-.1 8.46 8.46 0 0 0 1.39-.44v.7a6.37 6.37 0 0 1-1.33.43 7.81 7.81 0 0 1-1.37.11zm-.23-8.12a2.58 2.58 0 0 0-2 .8 3.84 3.84 0 0 0-.86 2.34h5.25a3.73 3.73 0 0 0-.64-2.31 2.11 2.11 0 0 0-1.75-.83zm8.92-.69a7 7 0 0 1 1.16.11l-.15.74a4.42 4.42 0 0 0-1.1-.13 2.15 2.15 0 0 0-1.78.92 3.71 3.71 0 0 0-.7 2.33V290h-.77v-8.49h.66l.07 1.53h.06a3.57 3.57 0 0 1 1.12-1.31 2.61 2.61 0 0 1 1.43-.34zm5.13 8.12a6 6 0 0 0 1.28-.12v.61a4 4 0 0 1-1.3.19 2.12 2.12 0 0 1-1.66-.6 2.82 2.82 0 0 1-.53-1.89v-5.49h-1.26v-.45l1.26-.35.39-1.92h.4v2.05h2.49v.67h-2.49v5.38a2.43 2.43 0 0 0 .34 1.44 1.23 1.23 0 0 0 1.08.48zm3.01-10.32c0-.5.16-.75.49-.75a.44.44 0 0 1 .38.2 1 1 0 0 1 .13.55 1 1 0 0 1-.13.56.44.44 0 0 1-.38.2c-.33.05-.49-.25-.49-.76zm.88 10.85h-.77v-8.49h.77zm6-7.82h-2V290h-.77v-7.82h-1.58v-.45l1.58-.29v-.65a3.76 3.76 0 0 1 .57-2.3 2.27 2.27 0 0 1 1.88-.73 4.92 4.92 0 0 1 1.41.21l-.18.68a4.24 4.24 0 0 0-1.25-.2 1.45 1.45 0 0 0-1.28.54 3.05 3.05 0 0 0-.38 1.73v.79h2zm1.53-3c0-.5.16-.75.49-.75a.44.44 0 0 1 .38.2 1 1 0 0 1 .14.55 1 1 0 0 1-.14.56.44.44 0 0 1-.38.2c-.33.02-.49-.28-.49-.79zm.88 10.78h-.77v-8.49h.77zm6.28.2a3.7 3.7 0 0 1-2.89-1.14 4.57 4.57 0 0 1-1-3.19 5 5 0 0 1 1-3.26 3.29 3.29 0 0 1 2.69-1.22 2.91 2.91 0 0 1 2.37 1.05 4.28 4.28 0 0 1 .86 2.84v.62h-6.11a4.06 4.06 0 0 0 .81 2.68 2.9 2.9 0 0 0 2.3.92 7.79 7.79 0 0 0 1.27-.1 8.24 8.24 0 0 0 1.4-.44v.7a6.37 6.37 0 0 1-1.33.43 7.9 7.9 0 0 1-1.37.11zm-.23-8.12a2.58 2.58 0 0 0-2 .8 3.9 3.9 0 0 0-.87 2.34h5.25a3.67 3.67 0 0 0-.64-2.31 2.08 2.08 0 0 0-1.74-.83zm8.69-.69a3.58 3.58 0 0 1 1.59.33 3.19 3.19 0 0 1 1.2 1.15h.05c0-.65-.05-1.3-.05-1.93v-3.05h.77V290h-.51l-.19-1.29h-.07a3.13 3.13 0 0 1-2.78 1.45 3.31 3.31 0 0 1-2.68-1.09 4.8 4.8 0 0 1-.93-3.19 5.31 5.31 0 0 1 .92-3.37 3.23 3.23 0 0 1 2.68-1.12zm0 .7a2.4 2.4 0 0 0-2.09 1 4.81 4.81 0 0 0-.7 2.83q0 3.62 2.8 3.61a2.54 2.54 0 0 0 2.11-.83 4.44 4.44 0 0 0 .67-2.76v-.13a4.69 4.69 0 0 0-.66-2.83 2.5 2.5 0 0 0-2.13-.89zM202.63 308h-.81l-6.76-10.14H195c.07 1.21.1 2.12.1 2.74v7.4h-.77v-11.38h.8l6.76 10.13c0-.94-.07-1.83-.07-2.67v-7.46h.78zm6.47.2a3.7 3.7 0 0 1-2.89-1.14 4.57 4.57 0 0 1-1-3.19 5 5 0 0 1 1-3.26 3.33 3.33 0 0 1 2.7-1.22 2.91 2.91 0 0 1 2.37 1.05 4.34 4.34 0 0 1 .86 2.84v.62H206a4.06 4.06 0 0 0 .81 2.68 2.9 2.9 0 0 0 2.3.92 7.79 7.79 0 0 0 1.27-.1 8.24 8.24 0 0 0 1.4-.44v.7a6.37 6.37 0 0 1-1.33.43 8 8 0 0 1-1.35.11zm-.23-8.12a2.58 2.58 0 0 0-2 .8 3.9 3.9 0 0 0-.87 2.34h5.25a3.67 3.67 0 0 0-.64-2.31 2.09 2.09 0 0 0-1.74-.83zm7.82 7.43a6 6 0 0 0 1.28-.12v.61a4 4 0 0 1-1.3.19 2.12 2.12 0 0 1-1.66-.6 2.82 2.82 0 0 1-.53-1.89v-5.49h-1.26v-.45l1.26-.35.39-1.92h.4v2.05h2.49v.67h-2.49v5.38a2.43 2.43 0 0 0 .34 1.44 1.23 1.23 0 0 0 1.08.48zm9.91.49l-1.86-5.67c-.12-.39-.28-.95-.46-1.7h-.05l-.17.58-.35 1.13-1.89 5.66h-.76l-2.43-8.49h.83l1.35 4.92c.32 1.22.53 2.12.63 2.69h.05c.3-1.22.53-2 .67-2.43l1.75-5.18h.7l1.67 5.17c.37 1.22.6 2 .68 2.43 0-.34.25-1.25.62-2.72l1.3-4.88h.78l-2.3 8.49zm11.8-4.21a4.82 4.82 0 0 1-1 3.24 3.47 3.47 0 0 1-2.78 1.17 3.62 3.62 0 0 1-2-.54 3.41 3.41 0 0 1-1.3-1.54 5.7 5.7 0 0 1-.46-2.33 4.78 4.78 0 0 1 1-3.24 3.49 3.49 0 0 1 2.77-1.16 3.41 3.41 0 0 1 2.74 1.17 4.82 4.82 0 0 1 1.03 3.23zm-6.7 0a4.3 4.3 0 0 0 .77 2.73 2.9 2.9 0 0 0 4.35 0 4.36 4.36 0 0 0 .77-2.73 4.27 4.27 0 0 0-.78-2.73 2.66 2.66 0 0 0-2.18-1 2.59 2.59 0 0 0-2.17 1 4.29 4.29 0 0 0-.76 2.73zm12.4-4.4a6.86 6.86 0 0 1 1.15.11l-.15.74a4.42 4.42 0 0 0-1.1-.13 2.15 2.15 0 0 0-1.78.92 3.77 3.77 0 0 0-.69 2.33V308h-.78v-8.49h.66l.08 1.53a3.57 3.57 0 0 1 1.12-1.31 2.62 2.62 0 0 1 1.49-.34zm3.64 4.93l4.33-4.77h.93l-3.34 3.63 3.64 4.82h-.93l-3.23-4.28-1.39 1.28v3H247v-12.11h.77V302l-.05 2.34zm16.83-.32h-4.64l-1.59 4h-.88l4.59-11.46h.51l4.5 11.46h-.9zm-4.35-.72h4.09l-1.56-4.11c-.13-.32-.28-.77-.47-1.35a11.35 11.35 0 0 1-.46 1.36zm13.52 2.55a2 2 0 0 1-.86 1.76 4.22 4.22 0 0 1-2.46.61 5.89 5.89 0 0 1-2.71-.52v-.84a6 6 0 0 0 2.71.64 3.58 3.58 0 0 0 1.91-.42A1.26 1.26 0 0 0 273 306a1.36 1.36 0 0 0-.52-1.08 5.81 5.81 0 0 0-1.71-.86 9.59 9.59 0 0 1-1.79-.79 2.41 2.41 0 0 1-.77-.75 1.85 1.85 0 0 1-.27-1 1.76 1.76 0 0 1 .8-1.51 3.91 3.91 0 0 1 2.24-.55 6.75 6.75 0 0 1 2.61.51l-.29.71a6 6 0 0 0-2.32-.52 3.37 3.37 0 0 0-1.65.35 1 1 0 0 0-.6.95 1.29 1.29 0 0 0 .47 1.06 6.43 6.43 0 0 0 1.85.89 9.62 9.62 0 0 1 1.67.75 2.35 2.35 0 0 1 .78.75 1.79 1.79 0 0 1 .24.92zm7.46 0a2 2 0 0 1-.87 1.76 4.22 4.22 0 0 1-2.46.61 5.81 5.81 0 0 1-2.7-.52v-.84a5.9 5.9 0 0 0 2.7.64 3.56 3.56 0 0 0 1.91-.42 1.26 1.26 0 0 0 .65-1.11 1.36 1.36 0 0 0-.52-1.08 5.61 5.61 0 0 0-1.7-.86 9.29 9.29 0 0 1-1.79-.79 2.35 2.35 0 0 1-.78-.75 1.84 1.84 0 0 1-.26-1 1.74 1.74 0 0 1 .8-1.51 3.88 3.88 0 0 1 2.24-.55 6.82 6.82 0 0 1 2.61.51l-.29.71a6.05 6.05 0 0 0-2.32-.52 3.32 3.32 0 0 0-1.65.35 1 1 0 0 0-.61.95 1.32 1.32 0 0 0 .47 1.06 6.57 6.57 0 0 0 1.85.89 9.62 9.62 0 0 1 1.67.75 2.49 2.49 0 0 1 .79.75 1.87 1.87 0 0 1 .26.97zm9.21-2.04a4.82 4.82 0 0 1-1 3.24 3.47 3.47 0 0 1-2.78 1.17 3.59 3.59 0 0 1-2-.54 3.41 3.41 0 0 1-1.3-1.54 5.54 5.54 0 0 1-.46-2.33 4.78 4.78 0 0 1 1-3.24 3.48 3.48 0 0 1 2.77-1.16 3.41 3.41 0 0 1 2.74 1.17 4.82 4.82 0 0 1 1.03 3.23zm-6.7 0a4.36 4.36 0 0 0 .76 2.73 2.91 2.91 0 0 0 4.36 0 4.36 4.36 0 0 0 .77-2.73 4.27 4.27 0 0 0-.78-2.73 2.67 2.67 0 0 0-2.19-1 2.57 2.57 0 0 0-2.16 1 4.29 4.29 0 0 0-.76 2.73zm12.44 4.41a3.63 3.63 0 0 1-2.85-1.15 4.59 4.59 0 0 1-1-3.2 4.69 4.69 0 0 1 1.07-3.29 3.77 3.77 0 0 1 2.93-1.17 6 6 0 0 1 2.11.38l-.21.69a6.12 6.12 0 0 0-1.92-.37 2.9 2.9 0 0 0-2.37 1 4.25 4.25 0 0 0-.8 2.77 4.16 4.16 0 0 0 .8 2.7 2.79 2.79 0 0 0 2.25 1 5.42 5.42 0 0 0 2.15-.42v.72a4.79 4.79 0 0 1-2.16.34zm4.1-11.01c0-.5.17-.75.49-.75a.43.43 0 0 1 .38.2 1 1 0 0 1 .14.55 1 1 0 0 1-.14.56.43.43 0 0 1-.38.2c-.32.05-.49-.25-.49-.76zm.88 10.85h-.77v-8.49h.77zm8-.04l-.19-1.34h-.06a4.08 4.08 0 0 1-1.32 1.16 3.47 3.47 0 0 1-1.6.34 2.74 2.74 0 0 1-1.94-.64 2.28 2.28 0 0 1-.7-1.77 2.19 2.19 0 0 1 1-1.93 5.64 5.64 0 0 1 3-.73l1.62-.05v-.56a2.89 2.89 0 0 0-.49-1.83 1.92 1.92 0 0 0-1.59-.61 5.25 5.25 0 0 0-2.44.65l-.29-.67a6.41 6.41 0 0 1 2.76-.66 2.76 2.76 0 0 1 2.09.73 3.21 3.21 0 0 1 .7 2.27V308zm-3.13-.5a2.71 2.71 0 0 0 2.93-2.94v-.84l-1.48.07a5.48 5.48 0 0 0-2.56.56 1.81 1.81 0 0 0-.27 2.71 2 2 0 0 0 1.38.44zm8.7.01a6.06 6.06 0 0 0 1.28-.12v.61a4 4 0 0 1-1.3.19 2.12 2.12 0 0 1-1.66-.6 2.77 2.77 0 0 1-.53-1.89v-5.49h-1.26v-.45l1.26-.35.39-1.92h.4v2.05h2.49v.67h-2.49v5.38a2.43 2.43 0 0 0 .34 1.44 1.23 1.23 0 0 0 1.08.48zm6.54.69a3.69 3.69 0 0 1-2.88-1.14 4.57 4.57 0 0 1-1-3.19 5 5 0 0 1 1-3.26 3.33 3.33 0 0 1 2.7-1.22 2.88 2.88 0 0 1 2.36 1.05 4.28 4.28 0 0 1 .87 2.84v.62h-6.12a4.12 4.12 0 0 0 .82 2.68 2.88 2.88 0 0 0 2.29.92 7.92 7.92 0 0 0 1.28-.1 8.53 8.53 0 0 0 1.4-.44v.7a6.57 6.57 0 0 1-1.33.43 8 8 0 0 1-1.39.11zm-.22-8.12a2.56 2.56 0 0 0-2 .8 3.78 3.78 0 0 0-.87 2.34h5.25a3.67 3.67 0 0 0-.64-2.31 2.1 2.1 0 0 0-1.76-.83zM228.74 326H228v-8.32c0-.75 0-1.53.09-2.35l-.24.23c-.09.07-.89.71-2.42 1.9l-.44-.56 3.1-2.32h.67zm8.6-4.34a11.89 11.89 0 0 1 .61-3.87 9.56 9.56 0 0 1 1.74-3.17h.89a10.48 10.48 0 0 0-1.78 3.23 11.64 11.64 0 0 0-.61 3.8 11.31 11.31 0 0 0 2.37 6.93h-.87a9.47 9.47 0 0 1-1.75-3.11 11.79 11.79 0 0 1-.6-3.81zm10.21-6.48a4.35 4.35 0 0 0-3.39 1.37 5.45 5.45 0 0 0-1.23 3.77 5.7 5.7 0 0 0 1.16 3.8 4.17 4.17 0 0 0 3.33 1.35 9.15 9.15 0 0 0 2.64-.37v.7a8.49 8.49 0 0 1-2.83.4 4.85 4.85 0 0 1-3.79-1.55 6.34 6.34 0 0 1-1.38-4.35 6.83 6.83 0 0 1 .66-3.07 4.77 4.77 0 0 1 1.9-2.05 5.65 5.65 0 0 1 2.88-.72 7 7 0 0 1 3 .62l-.32.72a5.87 5.87 0 0 0-2.63-.62zm9.93 0a4.33 4.33 0 0 0-3.38 1.37 5.45 5.45 0 0 0-1.23 3.77 5.64 5.64 0 0 0 1.16 3.8 4.17 4.17 0 0 0 3.33 1.35 9.15 9.15 0 0 0 2.64-.37v.7a8.53 8.53 0 0 1-2.83.4 4.83 4.83 0 0 1-3.79-1.55 6.34 6.34 0 0 1-1.38-4.35 6.83 6.83 0 0 1 .66-3.07 4.77 4.77 0 0 1 1.9-2.05 5.6 5.6 0 0 1 2.88-.72 7 7 0 0 1 3 .62l-.32.72a5.91 5.91 0 0 0-2.64-.62zM270.85 326h-.8l-6.77-10.14h-.06c.06 1.21.09 2.12.09 2.74v7.4h-.76v-11.38h.79l6.76 10.13c0-.94-.07-1.83-.07-2.67v-7.46h.77zm8.73-4h-4.64l-1.59 4h-.88l4.59-11.46h.51l4.5 11.46h-.9zm-4.35-.72h4.09l-1.56-4.11c-.13-.32-.28-.77-.46-1.35a11.3 11.3 0 0 1-.47 1.36zM287.4 326h-.77v-8.32c0-.75 0-1.53.1-2.35a2.73 2.73 0 0 1-.25.23c-.08.07-.88.71-2.41 1.9l-.45-.56 3.11-2.32h.67zm6.6-3.24a8.9 8.9 0 0 1-.46 2.87 6.72 6.72 0 0 1-1.31 2.31h-.65a8.41 8.41 0 0 0 1.78-5.19 8.7 8.7 0 0 0-.46-2.86 7.76 7.76 0 0 0-1.33-2.41h.66a7.07 7.07 0 0 1 1.31 2.38 9.13 9.13 0 0 1 .46 2.9z"/><path class="cls-6" d="M592.44 61.17V48.32h.9v12.85zm10.98 0V55a3 3 0 0 0-.6-2.09 2.47 2.47 0 0 0-1.89-.66 3.23 3.23 0 0 0-2.5.87 4.05 4.05 0 0 0-.8 2.8v5.28h-.87v-9.59h.74l.17 1.31h.05a3.59 3.59 0 0 1 3.28-1.49q3.26 0 3.25 3.49v6.25zm11.41-9.56v.61l-2 .12a3.38 3.38 0 0 1 .79 2.17 2.9 2.9 0 0 1-.91 2.23 3.5 3.5 0 0 1-2.47.86 6 6 0 0 1-.91-.05 2.28 2.28 0 0 0-.8.64 1.27 1.27 0 0 0-.27.78.74.74 0 0 0 .35.67 2.36 2.36 0 0 0 1.16.21h1.67a3.91 3.91 0 0 1 2.39.63 2.19 2.19 0 0 1 .82 1.86 2.66 2.66 0 0 1-1.22 2.33 6.27 6.27 0 0 1-3.5.82 4.83 4.83 0 0 1-2.79-.69 2.24 2.24 0 0 1-1-1.94 2.32 2.32 0 0 1 .61-1.63 3.22 3.22 0 0 1 1.66-.89 1.66 1.66 0 0 1-.69-.52 1.28 1.28 0 0 1-.26-.78 2.06 2.06 0 0 1 1.22-1.69 2.74 2.74 0 0 1-1.3-1.07 3.08 3.08 0 0 1-.46-1.69 3 3 0 0 1 .91-2.3 3.42 3.42 0 0 1 2.45-.86 4.61 4.61 0 0 1 1.46.18zm-7.73 11.17c0 1.32 1 2 2.92 2q3.76 0 3.76-2.4a1.36 1.36 0 0 0-.58-1.24 3.59 3.59 0 0 0-1.91-.39h-1.57c-1.72-.03-2.62.66-2.62 2.03zm.73-8.19a2.2 2.2 0 0 0 .67 1.72 2.54 2.54 0 0 0 1.79.61 2.6 2.6 0 0 0 1.84-.6 2.84 2.84 0 0 0 0-3.59 2.58 2.58 0 0 0-1.83-.62 2.27 2.27 0 0 0-2.45 2.48zm12.82 6.75a4.15 4.15 0 0 1-3.25-1.28 5.18 5.18 0 0 1-1.16-3.59 5.62 5.62 0 0 1 1.12-3.67 3.73 3.73 0 0 1 3-1.37 3.27 3.27 0 0 1 2.67 1.18 4.85 4.85 0 0 1 1 3.2v.7h-6.88a4.55 4.55 0 0 0 .92 3 3.23 3.23 0 0 0 2.58 1 8.79 8.79 0 0 0 1.44-.11 9.14 9.14 0 0 0 1.56-.49v.79a7.31 7.31 0 0 1-1.49.48 8.8 8.8 0 0 1-1.51.16zm-.26-9.14a2.88 2.88 0 0 0-2.21.91 4.32 4.32 0 0 0-1 2.63h5.91a4.16 4.16 0 0 0-.72-2.6 2.37 2.37 0 0 0-1.98-.94zm12.94 8.97V55a3 3 0 0 0-.61-2.09 2.43 2.43 0 0 0-1.88-.66 3.27 3.27 0 0 0-2.51.87 4.06 4.06 0 0 0-.79 2.8v5.28h-.87v-9.59h.74l.16 1.31h.06a3.59 3.59 0 0 1 3.31-1.49q3.25 0 3.25 3.49v6.25zM637.16 49c0-.56.19-.84.56-.84a.47.47 0 0 1 .42.22 1 1 0 0 1 .16.62 1 1 0 0 1-.16.62.46.46 0 0 1-.42.23c-.37-.04-.56-.32-.56-.85zm1 12.21h-.87v-9.6h.87zm7.05.13a4.13 4.13 0 0 1-3.21-1.28 5.14 5.14 0 0 1-1.17-3.59 5.63 5.63 0 0 1 1.13-3.67 3.73 3.73 0 0 1 3-1.37 3.26 3.26 0 0 1 2.66 1.18 4.86 4.86 0 0 1 1 3.2v.7h-6.88a4.54 4.54 0 0 0 .91 3 3.25 3.25 0 0 0 2.58 1 8.61 8.61 0 0 0 1.44-.11 9.21 9.21 0 0 0 1.57-.49v.79a7.72 7.72 0 0 1-1.49.48 8.93 8.93 0 0 1-1.54.16zM645 52.2a2.9 2.9 0 0 0-2.22.91 4.32 4.32 0 0 0-1 2.63h5.9a4.16 4.16 0 0 0-.72-2.6 2.35 2.35 0 0 0-1.96-.94zm10-.77a7.76 7.76 0 0 1 1.3.12l-.17.84a5.07 5.07 0 0 0-1.24-.15 2.4 2.4 0 0 0-2 1 4.27 4.27 0 0 0-.79 2.62v5.28h-.87v-9.53h.77l.09 1.73h.06a3.9 3.9 0 0 1 1.26-1.48 2.88 2.88 0 0 1 1.59-.43zm2.58-1.31c.43-.46.85-1 1.27-1.51a11.34 11.34 0 0 0 .86-1.23H661v.15a9.44 9.44 0 0 1-1.08 1.21c-.51.5-1.07 1-1.67 1.52h-.62zm1.53 11.05h-.87v-9.56h.87zm9 0l-.22-1.51h-.07a4.48 4.48 0 0 1-1.48 1.3 3.91 3.91 0 0 1-1.8.38 3.11 3.11 0 0 1-2.19-.72 2.57 2.57 0 0 1-.78-2 2.45 2.45 0 0 1 1.17-2.17 6.26 6.26 0 0 1 3.37-.82h1.81V55a3.23 3.23 0 0 0-.55-2.05 2.12 2.12 0 0 0-1.78-.7 6 6 0 0 0-2.75.74l-.33-.75a7.19 7.19 0 0 1 3.11-.74 3.1 3.1 0 0 1 2.35.81 3.6 3.6 0 0 1 .78 2.55v6.36zm-3.52-.62a3 3 0 0 0 3.3-3.3v-.94l-1.67.07a6.18 6.18 0 0 0-2.87.63 1.8 1.8 0 0 0-.86 1.65 1.83 1.83 0 0 0 .55 1.4 2.25 2.25 0 0 0 1.55.49zm15.5.62h-.91v-12H675v-.84h9.25v.84h-4.17zm9.72.17a4.15 4.15 0 0 1-3.25-1.28 5.18 5.18 0 0 1-1.16-3.59 5.62 5.62 0 0 1 1.12-3.67 3.73 3.73 0 0 1 3-1.37 3.27 3.27 0 0 1 2.67 1.18 4.85 4.85 0 0 1 1 3.2v.7h-6.88a4.55 4.55 0 0 0 .92 3 3.23 3.23 0 0 0 2.58 1 8.79 8.79 0 0 0 1.44-.11 9.49 9.49 0 0 0 1.57-.49v.79a7.58 7.58 0 0 1-1.5.48 8.8 8.8 0 0 1-1.51.16zm-.26-9.14a2.88 2.88 0 0 0-2.21.91 4.32 4.32 0 0 0-1 2.63h5.91a4.16 4.16 0 0 0-.72-2.6 2.37 2.37 0 0 0-1.98-.94zm7.15 8.97h-.87V47.49h.87zm7.06.17a4.15 4.15 0 0 1-3.25-1.28 5.14 5.14 0 0 1-1.16-3.59 5.62 5.62 0 0 1 1.12-3.67 3.73 3.73 0 0 1 3-1.37 3.27 3.27 0 0 1 2.67 1.18 4.85 4.85 0 0 1 1 3.2v.7h-6.88a4.55 4.55 0 0 0 .92 3 3.23 3.23 0 0 0 2.58 1 8.79 8.79 0 0 0 1.44-.11 9.14 9.14 0 0 0 1.56-.49v.79a7.51 7.51 0 0 1-1.49.48 8.8 8.8 0 0 1-1.51.16zm-.26-9.14a2.86 2.86 0 0 0-2.21.91 4.32 4.32 0 0 0-1 2.63h5.91a4.16 4.16 0 0 0-.72-2.6 2.37 2.37 0 0 0-1.98-.94zm18.21 8.97V54.9a3.15 3.15 0 0 0-.54-2 2.06 2.06 0 0 0-1.67-.64 2.72 2.72 0 0 0-2.17.81 3.8 3.8 0 0 0-.7 2.54v5.6h-.89v-6.57c0-1.61-.74-2.42-2.22-2.42a2.63 2.63 0 0 0-2.19.87 4.63 4.63 0 0 0-.68 2.8v5.28h-.87v-9.56h.72l.18 1.31h.06a2.76 2.76 0 0 1 1.12-1.1 3.36 3.36 0 0 1 1.61-.39 2.74 2.74 0 0 1 2.9 1.7 3.16 3.16 0 0 1 1.25-1.26 3.62 3.62 0 0 1 1.79-.44 3.08 3.08 0 0 1 2.34.83 3.83 3.83 0 0 1 .79 2.66v6.25zm9.76 0l-.22-1.51h-.07A4.48 4.48 0 0 1 729.7 61a3.91 3.91 0 0 1-1.8.38 3.11 3.11 0 0 1-2.19-.72 2.57 2.57 0 0 1-.78-2 2.45 2.45 0 0 1 1.17-2.17 6.28 6.28 0 0 1 3.37-.82h1.82V55a3.23 3.23 0 0 0-.56-2.05 2.12 2.12 0 0 0-1.78-.7 6 6 0 0 0-2.75.74l-.33-.75a7.19 7.19 0 0 1 3.11-.74 3.1 3.1 0 0 1 2.35.81 3.6 3.6 0 0 1 .78 2.55v6.36zm-3.47-.62a3 3 0 0 0 3.3-3.3v-.94l-1.67.07a6.18 6.18 0 0 0-2.87.63 1.8 1.8 0 0 0-.86 1.65 1.83 1.83 0 0 0 .55 1.4 2.25 2.25 0 0 0 1.55.49zm-.17-10.43c.43-.46.85-1 1.27-1.51a11.34 11.34 0 0 0 .86-1.23h1.23v.15a9.2 9.2 0 0 1-1.07 1.21c-.51.5-1.07 1-1.68 1.52h-.61zm9.9 10.45a6.75 6.75 0 0 0 1.44-.14v.7a4.63 4.63 0 0 1-1.46.21 2.39 2.39 0 0 1-1.87-.67 3.15 3.15 0 0 1-.6-2.13v-6.17h-1.41v-.51l1.41-.4.44-2.16h.45v2.31h2.8v.76h-2.8v6.05a2.8 2.8 0 0 0 .38 1.62 1.43 1.43 0 0 0 1.22.53zM741.11 49c0-.56.19-.84.56-.84a.47.47 0 0 1 .42.22 1.07 1.07 0 0 1 .16.62 1.11 1.11 0 0 1-.16.62.46.46 0 0 1-.42.23c-.37-.04-.56-.32-.56-.85zm1 12.21h-.87v-9.6h.87zm7.01.13a4.09 4.09 0 0 1-3.21-1.29 5.21 5.21 0 0 1-1.16-3.6 5.31 5.31 0 0 1 1.2-3.7 4.26 4.26 0 0 1 3.3-1.32 6.51 6.51 0 0 1 2.37.43l-.23.77a7.17 7.17 0 0 0-2.16-.41 3.24 3.24 0 0 0-2.66 1.09 4.76 4.76 0 0 0-.91 3.12 4.64 4.64 0 0 0 .91 3 3.1 3.1 0 0 0 2.53 1.09 6.25 6.25 0 0 0 2.42-.46v.81a5.62 5.62 0 0 1-2.4.47zm10.54-.17l-.22-1.51h-.07a4.58 4.58 0 0 1-1.48 1.3 3.91 3.91 0 0 1-1.8.38 3.11 3.11 0 0 1-2.19-.72 2.57 2.57 0 0 1-.78-2 2.47 2.47 0 0 1 1.16-2.17 6.31 6.31 0 0 1 3.37-.82h1.82V55a3.23 3.23 0 0 0-.55-2.05 2.14 2.14 0 0 0-1.79-.7 6 6 0 0 0-2.75.74l-.32-.75a7.15 7.15 0 0 1 3.11-.74 3.12 3.12 0 0 1 2.35.81 3.6 3.6 0 0 1 .78 2.55v6.36zm-3.52-.62a3 3 0 0 0 3.3-3.3v-.94l-1.67.07a6.15 6.15 0 0 0-2.87.63 2 2 0 0 0-.31 3.05 2.24 2.24 0 0 0 1.55.49zm-141.8 36.62l-4.79-11.87h-.07c0 .73.07 1.47.07 2.23v9.64h-.86V84.32h1.39l4.55 11.3 4.55-11.3h1.36v12.85h-.91v-9.74c0-.68 0-1.38.11-2.11h-.07l-4.81 11.85zm15.46 0l-.22-1.51h-.07A4.58 4.58 0 0 1 628 97a3.91 3.91 0 0 1-1.8.38 3.11 3.11 0 0 1-2.19-.72 2.57 2.57 0 0 1-.78-2 2.47 2.47 0 0 1 1.16-2.17 6.31 6.31 0 0 1 3.37-.82h1.82V91a3.23 3.23 0 0 0-.55-2 2.12 2.12 0 0 0-1.78-.7 6 6 0 0 0-2.76.74l-.32-.75a7.19 7.19 0 0 1 3.11-.74 3.12 3.12 0 0 1 2.35.81 3.6 3.6 0 0 1 .78 2.55v6.36zm-3.52-.62a3 3 0 0 0 3.3-3.3v-.94l-1.67.07A6.18 6.18 0 0 0 625 93a1.8 1.8 0 0 0-.86 1.65 1.83 1.83 0 0 0 .55 1.4 2.24 2.24 0 0 0 1.59.5zm11.07.79a4.09 4.09 0 0 1-3.21-1.29 5.21 5.21 0 0 1-1.16-3.6 5.31 5.31 0 0 1 1.2-3.7 4.25 4.25 0 0 1 3.3-1.32 6.51 6.51 0 0 1 2.37.43l-.23.77a7.17 7.17 0 0 0-2.16-.41 3.24 3.24 0 0 0-2.66 1.09 4.76 4.76 0 0 0-.91 3.12 4.64 4.64 0 0 0 .91 3 3.1 3.1 0 0 0 2.53 1.09 6.25 6.25 0 0 0 2.42-.46v.81a5.62 5.62 0 0 1-2.4.47zm11.4-.17V91a3 3 0 0 0-.61-2.09 2.43 2.43 0 0 0-1.88-.66 3.25 3.25 0 0 0-2.51.87 4.06 4.06 0 0 0-.79 2.8v5.28h-.88V83.49h.92v4.35l-.05 1.22h.05a3.16 3.16 0 0 1 1.36-1.24 4.68 4.68 0 0 1 2-.39c2.16 0 3.25 1.16 3.25 3.49v6.25zM652.58 85c0-.56.18-.84.55-.84a.49.49 0 0 1 .43.22 1.07 1.07 0 0 1 .15.62 1.12 1.12 0 0 1-.15.62.48.48 0 0 1-.43.23c-.37-.04-.55-.32-.55-.85zm1 12.21h-.87v-9.6h.87zm9.85-.04V91a3 3 0 0 0-.6-2.09 2.44 2.44 0 0 0-1.88-.66 3.24 3.24 0 0 0-2.51.87 4.05 4.05 0 0 0-.8 2.8v5.28h-.87v-9.59h.74l.17 1.31h.05a3.6 3.6 0 0 1 3.27-1.49q3.26 0 3.25 3.49v6.25zm7.82.17a4.15 4.15 0 0 1-3.25-1.28 5.14 5.14 0 0 1-1.17-3.59A5.63 5.63 0 0 1 668 88.8a3.73 3.73 0 0 1 3-1.37 3.28 3.28 0 0 1 2.67 1.18 4.85 4.85 0 0 1 1 3.2v.7h-6.88a4.55 4.55 0 0 0 .92 3 3.23 3.23 0 0 0 2.58 1 8.57 8.57 0 0 0 1.43-.11 8.94 8.94 0 0 0 1.57-.49v.79a7.51 7.51 0 0 1-1.49.48 8.8 8.8 0 0 1-1.55.16zM671 88.2a2.86 2.86 0 0 0-2.21.91 4.32 4.32 0 0 0-1 2.63h5.91a4.16 4.16 0 0 0-.72-2.6 2.37 2.37 0 0 0-1.98-.94zm11.81 8.97h-.87V83.49h.87zm7.06.17a4.15 4.15 0 0 1-3.25-1.28 5.18 5.18 0 0 1-1.16-3.59 5.62 5.62 0 0 1 1.12-3.67 3.73 3.73 0 0 1 3-1.37 3.26 3.26 0 0 1 2.66 1.18 4.85 4.85 0 0 1 1 3.2v.7h-6.88a4.55 4.55 0 0 0 .92 3 3.23 3.23 0 0 0 2.58 1 8.61 8.61 0 0 0 1.44-.11 9.49 9.49 0 0 0 1.57-.49v.79a7.58 7.58 0 0 1-1.5.48 8.72 8.72 0 0 1-1.5.16zm-.25-9.14a2.9 2.9 0 0 0-2.22.91 4.26 4.26 0 0 0-1 2.63h5.9a4.16 4.16 0 0 0-.72-2.6 2.35 2.35 0 0 0-1.96-.94zm12.07 8.97l-.22-1.51h-.07a4.48 4.48 0 0 1-1.48 1.3 3.86 3.86 0 0 1-1.8.38 3.1 3.1 0 0 1-2.18-.72 2.54 2.54 0 0 1-.79-2 2.45 2.45 0 0 1 1.17-2.17 6.28 6.28 0 0 1 3.37-.82h1.82V91a3.23 3.23 0 0 0-.56-2 2.12 2.12 0 0 0-1.78-.7 6 6 0 0 0-2.75.74l-.33-.75a7.2 7.2 0 0 1 3.12-.74 3.13 3.13 0 0 1 2.35.81 3.6 3.6 0 0 1 .77 2.55v6.36zm-3.51-.62a3 3 0 0 0 3.29-3.3v-.94l-1.67.07a6.18 6.18 0 0 0-2.87.63 2 2 0 0 0-.3 3 2.22 2.22 0 0 0 1.55.54zm11.01-9.12a7.66 7.66 0 0 1 1.3.12l-.17.84a5.07 5.07 0 0 0-1.24-.15 2.4 2.4 0 0 0-2 1 4.27 4.27 0 0 0-.78 2.62v5.28h-.87v-9.53h.74l.08 1.73h.07a4 4 0 0 1 1.25-1.48 2.92 2.92 0 0 1 1.62-.43zm9.9 9.74V91a3 3 0 0 0-.6-2.09 2.44 2.44 0 0 0-1.88-.66 3.24 3.24 0 0 0-2.51.87 4.05 4.05 0 0 0-.8 2.8v5.28h-.87v-9.59h.74l.17 1.31a3.6 3.6 0 0 1 3.31-1.49q3.25 0 3.26 3.49v6.25zM722.93 85c0-.56.18-.84.55-.84a.5.5 0 0 1 .43.22 1.07 1.07 0 0 1 .15.62 1.12 1.12 0 0 1-.15.62.49.49 0 0 1-.43.23c-.37-.04-.55-.32-.55-.85zm1 12.21h-.87v-9.6h.87zm9.85-.04V91a3 3 0 0 0-.61-2.09 2.43 2.43 0 0 0-1.88-.66 3.23 3.23 0 0 0-2.5.87 4 4 0 0 0-.8 2.8v5.28h-.87v-9.59h.74l.16 1.31h.06a3.59 3.59 0 0 1 3.31-1.49q3.25 0 3.25 3.49v6.25zm11.41-9.56v.61l-2 .12a3.38 3.38 0 0 1 .79 2.17 2.88 2.88 0 0 1-.92 2.23 3.46 3.46 0 0 1-2.46.86 6 6 0 0 1-.91 0 2.28 2.28 0 0 0-.8.64 1.27 1.27 0 0 0-.27.78.74.74 0 0 0 .35.67 2.36 2.36 0 0 0 1.16.21h1.67a3.91 3.91 0 0 1 2.39.63 2.19 2.19 0 0 1 .82 1.86 2.66 2.66 0 0 1-1.22 2.33 6.27 6.27 0 0 1-3.5.82 4.83 4.83 0 0 1-2.79-.69 2.24 2.24 0 0 1-1-1.94 2.32 2.32 0 0 1 .61-1.63 3.22 3.22 0 0 1 1.66-.89 1.66 1.66 0 0 1-.69-.52 1.28 1.28 0 0 1-.26-.78 2.06 2.06 0 0 1 1.22-1.69 2.74 2.74 0 0 1-1.3-1.07 3.08 3.08 0 0 1-.46-1.69 3 3 0 0 1 .91-2.3 3.42 3.42 0 0 1 2.45-.86 4.61 4.61 0 0 1 1.46.18zm-7.73 11.17c0 1.32 1 2 2.92 2q3.76 0 3.76-2.4a1.35 1.35 0 0 0-.59-1.24 3.52 3.52 0 0 0-1.9-.39h-1.57c-1.75-.03-2.62.66-2.62 2.03zm.72-8.19a2.21 2.21 0 0 0 .68 1.72 2.54 2.54 0 0 0 1.79.61 2.6 2.6 0 0 0 1.84-.6 2.84 2.84 0 0 0 0-3.59 2.58 2.58 0 0 0-1.83-.62 2.28 2.28 0 0 0-2.46 2.48z"/><path class="cls-1" d="M116.07 279a45 45 0 1 0 45 45 45 45 0 0 0-45-45zm33 44c-3.59 1.25-7.21 2.39-10.85 3.48-1.41.41-1.81 1-1.48 2.62.54 2.62.81 5.31 1.13 8a3.88 3.88 0 0 1-1 3.06 10.55 10.55 0 0 1-4.3 2.94 41.65 41.65 0 0 1-13.57 2.4 44.38 44.38 0 0 1-17.85-2.5 10.14 10.14 0 0 1-4.15-2.78 4.66 4.66 0 0 1-1.11-3.9c.39-2.6.78-5.2 1.21-7.79.17-1 0-1.67-1.1-1.94s-2.21-.77-3.33-1.13c-1.84-.59-3 .4-2.09 2 1.4 2.46 1.4 4.37-.05 6.69-.45.73 0 2.07 0 3.12.28 3.5.65 7 .87 10.5.15 2.32-1.64 1.22-2.5 1.52-3 0-2.9 0-2.59-3.11.39-3.85.55-7.72.81-11.57a2.3 2.3 0 0 0-.52-1.6c-1.27-1.7-1.23-3 .2-4.69 1-1.2.47-2.7.85-4 .14-.46-.6-.57-1-.72a24.38 24.38 0 0 1-2.52-.91 4.41 4.41 0 0 1-2.38-4.29 4.6 4.6 0 0 1 3-3.91c9.74-3.09 19.5-6.14 29.24-9.23 3-.95 5.82 0 8.66.87q13.1 4.15 26.2 8.28a4.59 4.59 0 0 1 3.21 4.24 4.19 4.19 0 0 1-2.95 4.28z"/><path class="cls-1" d="M146.85 317.72c-7-2.23-13.92-4.49-20.91-6.63-3-.9-5.84-2.32-9-2.4a8.74 8.74 0 0 0-3.28.51c-8.88 2.84-17.77 5.64-26.65 8.48-.58.19-1.54.12-1.53 1.06s.93.86 1.52 1.05l27.45 8.74a7.74 7.74 0 0 0 4.76 0q13.81-4.38 27.61-8.78c.58-.19 1.51-.1 1.47-1.08s-.9-.77-1.44-.95z"/><path class="cls-1" d="M133.31 329.43c-.11-1.16-.4-1.34-1.44-1-3.17 1.06-6.41 1.9-9.56 3a15.36 15.36 0 0 1-10.89 0c-3.1-1.12-6.28-2-9.41-3-1-.32-1.5-.45-1.59 1a51.93 51.93 0 0 1-.82 5.57c-.48 2.74-.15 3.5 2.38 4.56 4.73 2 9.73 2.23 15.75 2.42 1.44.19 3.87-.29 6.3-.5a24.48 24.48 0 0 0 8.06-2c2-.93 2.44-1.69 2.13-3.76s-.71-4.2-.91-6.29z"/><path class="cls-5" d="M536.37 20.84a38.33 38.33 0 1 0 38.32 38.33 38.33 38.33 0 0 0-38.32-38.33zm16.71 39.1c.89.76 1.71 1.58 2.53 2.41 1.83 1.86 1.4 3.33-1.16 4-1.13.3-2.25.58-3.39.83-.76.16-.95.5-.7 1.26.42 1.26.77 2.55 1.08 3.84.46 1.9-.67 3-2.56 2.61-1.6-.34-3.49-1.72-4.65-1s-1 2.89-1.45 4.42c-.61 2-2.1 2.41-3.61 1-.92-.88-1.81-1.8-2.65-2.76-.56-.65-1-.72-1.56 0-.79.93-1.66 1.8-2.53 2.65-1.68 1.62-3.15 1.25-3.79-1a66.77 66.77 0 0 1-.94-3.7c-.17-.77-.51-1-1.27-.69-1.31.43-2.65.8-4 1.11A1.91 1.91 0 0 1 520 72.5a14.52 14.52 0 0 1 .84-3c.83-1.73.15-2.32-1.5-2.54a18.29 18.29 0 0 1-2.89-.74c-1.8-.56-2.21-2.05-.93-3.44a39.47 39.47 0 0 1 2.83-2.78c.64-.57.72-1 0-1.57a35.72 35.72 0 0 1-2.87-2.77c-1.35-1.47-.9-2.88 1-3.53 1.57-.52 4-.26 4.53-1.51s-.68-3.1-1.06-4.71a2 2 0 0 1 2-2.63c1.33.39 2.79.74 4.19 1.24 1 .36 1.35 0 1.55-.93.24-1.19.56-2.37.91-3.53.62-2 2.1-2.44 3.6-1a22.14 22.14 0 0 1 2.41 2.53c.83 1.09 1.42.83 2.16-.07s1.35-1.47 2-2.17c1.86-1.85 3.32-1.44 4 1.12.31 1.12.59 2.25.83 3.38.16.78.52 1 1.27.72 1.32-.42 2.65-.8 4-1.12a1.92 1.92 0 0 1 2.47 2.43c-.29 1.29-.69 2.57-1.08 3.84-.24.79-.25 1.31.79 1.49a29.93 29.93 0 0 1 3.7.94c2 .6 2.4 2.08 1 3.62-.87.93-1.8 1.81-2.76 2.65-.53.52-.6.93.09 1.52z"/><path class="cls-6" d="M676.21 288a41 41 0 1 0 40.95 41 41 41 0 0 0-40.95-41zM669 331.08c2.14-2.32 4.33-4.58 6.44-6.92.8-.89 1.39-.85 2.14 0 .87 1 1.86 2 2.72 3 .57.68.94.61 1.48 0 1.21-1.41 2.46-2.77 3.73-4.11.49-.51.56-.87 0-1.38s-1-1.11-1.54-1.65a2 2 0 0 1-.52-2.25 1.59 1.59 0 0 1 1.76-1h7.62a1.63 1.63 0 0 1 1.76 1.8v8.59a1.76 1.76 0 0 1-1.06 1.7 1.48 1.48 0 0 1-1.84-.42l-.31-.33c-2.08-2.18-2.08-2.18-4.18.1l-4.78 5.19c-1.43 1.55-1.44 1.55-2.92-.06-.68-.73-1.41-1.42-2-2.22s-1.2-1-2-.06c-1.37 1.67-2.91 3.17-4.34 4.79-.75.85-1.33.93-2.13 0-2.43-2.74-2.4-2.22-.03-4.77zm27.66 12.28c-.26.6-1 .36-1.46.36h-32.83c-1.4 0-1.8-.48-1.79-2q.07-12.81 0-25.63c0-1.54.45-2 1.82-1.94 2.77.07 2.77 0 2.77 2.94 0 6.62.05 13.24 0 19.85 0 1.57.43 1.86 1.77 1.85 9.3-.07 18.61 0 27.92 0 .72 0 1.78-.33 2 .73a6.72 6.72 0 0 1-.21 3.84z"/></g></svg>