<svg xmlns="http://www.w3.org/2000/svg" viewBox="0 0 800 429.46"><defs><style>.cls-1{fill:#4252b2}.cls-3{fill:#00667f}.cls-4{fill:#00a3cc}.cls-5{fill:#0cf}</style></defs><g id="Objects"><path class="cls-1" d="M47.09 171.13h139.56v35.81H47.09z"/><path d="M0 171.13h47.09v35.81H0zm745.99 0H800v35.81h-54.01z" fill="#ccc"/><path class="cls-3" d="M186.65 171.13h139.74v35.81H186.65z"/><path class="cls-4" d="M326.39 171.13h140.2v35.81h-140.2z"/><path class="cls-5" d="M466.58 171.13h139.84v35.81H466.58z"/><path class="cls-1" d="M606.43 171.13h139.56v35.81H606.43z"/><path d="M123.48 189a6.62 6.62 0 1 1-6.61-6.61 6.61 6.61 0 0 1 6.61 6.61zM263 189a6.62 6.62 0 1 1-6.61-6.61A6.61 6.61 0 0 1 263 189zm139.79 0a6.62 6.62 0 1 1-6.62-6.61 6.62 6.62 0 0 1 6.62 6.61zm139.56 0a6.62 6.62 0 1 1-6.62-6.61 6.62 6.62 0 0 1 6.62 6.61zm140.48 0a6.62 6.62 0 1 1-6.62-6.61 6.62 6.62 0 0 1 6.62 6.61z" fill="#fff"/><path stroke-miterlimit="10" stroke-width="6" stroke="#4252b2" fill="#4252b2" d="M116.87 206.94v87.94"/><path stroke="#0cf" fill="none" stroke-miterlimit="10" stroke-width="6" d="M536.37 173.88V82.91"/><path fill="none" stroke-miterlimit="10" stroke-width="6" stroke="#4252b2" d="M676.21 206.94v95.97"/><path stroke="#00a3cc" fill="none" stroke-miterlimit="10" stroke-width="6" d="M396.5 206.94v155.55"/><path stroke="#00667f" fill="none" stroke-miterlimit="10" stroke-width="6" d="M256.43 171.13V62.66"/><path class="cls-1" d="M94.35 161.33H77.46v-2.52l6.76-6.8a47 47 0 0 0 4.08-4.47 11.2 11.2 0 0 0 1.48-2.6 7.38 7.38 0 0 0 .49-2.72A4.32 4.32 0 0 0 89 139a4.74 4.74 0 0 0-3.46-1.21 8.7 8.7 0 0 0-3 .53 11.85 11.85 0 0 0-3.19 1.92l-1.55-2a11.83 11.83 0 0 1 7.73-3 8.19 8.19 0 0 1 5.68 1.85 6.4 6.4 0 0 1 2.06 5 9.66 9.66 0 0 1-1.37 4.83 31.1 31.1 0 0 1-5.14 6l-5.62 5.5v.14h13.21zm20.72-12.89q0 6.66-2.1 9.95a7.1 7.1 0 0 1-6.42 3.29 7 7 0 0 1-6.31-3.37q-2.16-3.36-2.17-9.87 0-6.72 2.1-10a7.76 7.76 0 0 1 12.73.14q2.17 3.42 2.17 9.86zm-14 0q0 5.61 1.32 8.17a4.73 4.73 0 0 0 8.42 0c.88-1.73 1.31-4.44 1.31-8.13s-.43-6.39-1.31-8.11a4.74 4.74 0 0 0-8.42 0c-.92 1.63-1.39 4.33-1.39 8.07zm28.36 12.89h-2.84V143c0-1.52 0-3 .14-4.32-.25.24-.52.5-.83.77s-1.7 1.41-4.18 3.43l-1.55-2 6.8-5.25h2.46zm27.88-5.91h-3.81v5.91h-2.8v-5.91h-12.49v-2.55l12.19-17.38h3.1v17.28h3.81zm-6.61-2.65v-8.55c0-1.67.06-3.57.18-5.68h-.14a26.19 26.19 0 0 1-1.58 2.8l-8 11.43z"/><path class="cls-3" d="M233.93 241.93H217v-2.51l6.76-6.8a48.3 48.3 0 0 0 4.08-4.47 11.4 11.4 0 0 0 1.48-2.6 7.4 7.4 0 0 0 .49-2.73 4.3 4.3 0 0 0-1.25-3.26 4.77 4.77 0 0 0-3.46-1.2 8.7 8.7 0 0 0-3 .53 12.05 12.05 0 0 0-3.19 1.91l-1.55-2a11.86 11.86 0 0 1 7.73-3 8.15 8.15 0 0 1 5.68 1.86 6.38 6.38 0 0 1 2.06 5 9.7 9.7 0 0 1-1.37 4.84 31.34 31.34 0 0 1-5.13 6l-5.63 5.5v.14h13.22zm20.72-12.88q0 6.66-2.1 9.95a7.76 7.76 0 0 1-12.73-.08q-2.16-3.37-2.16-9.87 0-6.72 2.09-10a7.76 7.76 0 0 1 12.73.14q2.18 3.42 2.17 9.86zm-14 0q0 5.61 1.32 8.16a4.74 4.74 0 0 0 8.43 0q1.3-2.6 1.31-8.13t-1.31-8.12a4.75 4.75 0 0 0-8.43 0q-1.36 2.48-1.36 8.09zM269 241.93h-2.85v-18.31c0-1.53 0-3 .14-4.33-.25.25-.52.5-.83.77s-1.7 1.42-4.18 3.43l-1.55-2 6.8-5.26H269zm17.82-15.7a9.45 9.45 0 0 1 6.39 2 6.91 6.91 0 0 1 2.33 5.51A8 8 0 0 1 293 240a10.14 10.14 0 0 1-7 2.26 12.84 12.84 0 0 1-6.63-1.39v-2.81a10 10 0 0 0 3.06 1.24 15 15 0 0 0 3.6.45 7.22 7.22 0 0 0 4.81-1.46 5.24 5.24 0 0 0 1.71-4.22c0-3.58-2.2-5.38-6.59-5.38a26.19 26.19 0 0 0-4.46.51l-1.52-1 1-12h12.78v2.69h-10.31l-.65 7.72a20.39 20.39 0 0 1 4.02-.38z"/><path class="cls-4" d="M374 161.33h-16.91v-2.52l6.77-6.8a50 50 0 0 0 4.08-4.47 11.51 11.51 0 0 0 1.47-2.6 7.38 7.38 0 0 0 .49-2.72 4.32 4.32 0 0 0-1.24-3.26 4.82 4.82 0 0 0-3.47-1.21 8.78 8.78 0 0 0-3 .53 12 12 0 0 0-3.19 1.92l-1.55-2a11.85 11.85 0 0 1 7.74-3 8.21 8.21 0 0 1 5.68 1.85 6.39 6.39 0 0 1 2.05 5 9.56 9.56 0 0 1-1.37 4.83 30.61 30.61 0 0 1-5.13 6l-5.63 5.5v.14H374zm20.71-12.89q0 6.66-2.1 9.95a7.11 7.11 0 0 1-6.43 3.29 7 7 0 0 1-6.31-3.37q-2.16-3.36-2.16-9.87 0-6.72 2.09-10a7.77 7.77 0 0 1 12.74.15c1.46 2.29 2.17 5.56 2.17 9.85zm-14 0q0 5.61 1.32 8.17a4.74 4.74 0 0 0 8.43 0q1.3-2.59 1.31-8.13t-1.31-8.11a4.75 4.75 0 0 0-8.43 0c-.93 1.63-1.37 4.33-1.37 8.07zm28.36 12.89h-2.85V143c0-1.52 0-3 .14-4.32-.24.24-.52.5-.82.77s-1.7 1.41-4.19 3.43l-1.54-2 6.8-5.25h2.46zm10.07-10.99q0-7.58 2.95-11.33t8.7-3.75a11.71 11.71 0 0 1 3.13.33v2.52a9.77 9.77 0 0 0-3.09-.44 7.79 7.79 0 0 0-6.31 2.57q-2.17 2.58-2.39 8.1h.21a6.73 6.73 0 0 1 6.12-3 7.2 7.2 0 0 1 5.46 2.09 7.9 7.9 0 0 1 2 5.68 8.75 8.75 0 0 1-2.19 6.3 7.79 7.79 0 0 1-5.91 2.3 7.6 7.6 0 0 1-6.33-3q-2.35-3.03-2.35-8.37zm8.63 8.86a4.91 4.91 0 0 0 3.88-1.57 6.71 6.71 0 0 0 1.38-4.55 5.86 5.86 0 0 0-1.29-4 4.83 4.83 0 0 0-3.83-1.45 6.4 6.4 0 0 0-2.9.65 5.33 5.33 0 0 0-2.1 1.79 4.14 4.14 0 0 0-.78 2.37 8.15 8.15 0 0 0 .7 3.38 6 6 0 0 0 2 2.48 5 5 0 0 0 2.94.9z"/><path class="cls-5" d="M514 241.93h-16.88v-2.51l6.76-6.8a48.3 48.3 0 0 0 4.08-4.47 11.4 11.4 0 0 0 1.48-2.6 7.4 7.4 0 0 0 .49-2.73 4.34 4.34 0 0 0-1.25-3.26 4.77 4.77 0 0 0-3.46-1.2 8.7 8.7 0 0 0-3 .53 12.05 12.05 0 0 0-3.22 1.91l-1.55-2a11.86 11.86 0 0 1 7.73-3 8.15 8.15 0 0 1 5.68 1.86 6.38 6.38 0 0 1 2.06 5 9.7 9.7 0 0 1-1.37 4.84 31.34 31.34 0 0 1-5.13 6l-5.63 5.5v.14H514zm20.73-12.88q0 6.66-2.1 9.95a7.76 7.76 0 0 1-12.73-.08q-2.16-3.37-2.16-9.87 0-6.72 2.09-10a7.76 7.76 0 0 1 12.73.14q2.18 3.42 2.17 9.86zm-14 0q0 5.61 1.32 8.16a4.74 4.74 0 0 0 8.43 0q1.3-2.6 1.31-8.13t-1.31-8.12a4.75 4.75 0 0 0-8.43 0q-1.36 2.48-1.36 8.09zm28.36 12.88h-2.84v-18.31c0-1.53 0-3 .14-4.33-.25.25-.52.5-.83.77s-1.7 1.42-4.18 3.43l-1.55-2 6.8-5.26h2.46zm13.03 0l10.65-23h-14v-2.69h17.11v2.34l-10.52 23.36z"/><path class="cls-1" d="M609.45 137.93a8.39 8.39 0 0 0-6.69 2.82c-1.64 1.88-2.45 4.46-2.45 7.73s.78 6 2.36 7.79a8.38 8.38 0 0 0 6.74 2.75 23.18 23.18 0 0 0 6.14-1v2.62a19.08 19.08 0 0 1-6.59 1q-5.69 0-8.77-3.45t-3.08-9.79a15.44 15.44 0 0 1 1.48-7 10.61 10.61 0 0 1 4.29-4.6 13 13 0 0 1 6.6-1.62 16 16 0 0 1 7.07 1.47l-1.27 2.57a13.65 13.65 0 0 0-5.83-1.29zm14.01 4.13v12.5a5 5 0 0 0 1.07 3.51 4.33 4.33 0 0 0 3.36 1.16 5.49 5.49 0 0 0 4.42-1.65q1.4-1.65 1.4-5.39v-10.13h2.91v19.27h-2.41l-.42-2.59h-.16a5.73 5.73 0 0 1-2.48 2.18 8.27 8.27 0 0 1-3.63.76 7.39 7.39 0 0 1-5.27-1.67c-1.16-1.12-1.75-2.9-1.75-5.35v-12.6zm28.14-.35a11.41 11.41 0 0 1 2.3.21l-.4 2.71a9.74 9.74 0 0 0-2.11-.27 5.16 5.16 0 0 0-4 1.9 6.91 6.91 0 0 0-1.66 4.73v10.34h-2.92v-19.27h2.41l.33 3.57h.14a8.55 8.55 0 0 1 2.59-2.9 5.81 5.81 0 0 1 3.32-1.02zm18.33 14.36a4.82 4.82 0 0 1-2 4.15 9.45 9.45 0 0 1-5.63 1.46 12.19 12.19 0 0 1-6-1.22v-2.7a14.31 14.31 0 0 0 3 1.11 12.88 12.88 0 0 0 3.07.4 6.9 6.9 0 0 0 3.51-.73 2.51 2.51 0 0 0 .25-4.15 15.44 15.44 0 0 0-3.8-1.89 20.48 20.48 0 0 1-3.82-1.75 5.23 5.23 0 0 1-1.69-1.69 4.44 4.44 0 0 1-.55-2.27 4.32 4.32 0 0 1 1.91-3.72 8.93 8.93 0 0 1 5.26-1.36 15.44 15.44 0 0 1 6.08 1.26l-1 2.38a13.87 13.87 0 0 0-5.25-1.2 6.06 6.06 0 0 0-3.13.65 2 2 0 0 0-1.06 1.8 2.12 2.12 0 0 0 .4 1.31 3.85 3.85 0 0 0 1.27 1 29.49 29.49 0 0 0 3.38 1.43 12.5 12.5 0 0 1 4.63 2.51 4.43 4.43 0 0 1 1.17 3.22zm16.6 5.26l-.58-2.75h-.14a8.1 8.1 0 0 1-2.88 2.46 8.84 8.84 0 0 1-3.57.64 6.44 6.44 0 0 1-4.5-1.48 5.38 5.38 0 0 1-1.62-4.2q0-5.83 9.33-6.12l3.27-.1v-1.2a4.89 4.89 0 0 0-1-3.35 4 4 0 0 0-3.12-1.08 12.6 12.6 0 0 0-5.45 1.48l-.9-2.23a13.88 13.88 0 0 1 3.12-1.22 13.68 13.68 0 0 1 3.4-.44 7.35 7.35 0 0 1 5.11 1.53c1.1 1 1.66 2.66 1.66 4.91v13.15zm-6.59-2.06a5.92 5.92 0 0 0 4.27-1.49 5.54 5.54 0 0 0 1.56-4.19v-1.74l-2.92.12a10.7 10.7 0 0 0-5 1.09 3.25 3.25 0 0 0-1.53 3 3 3 0 0 0 1 2.4 4 4 0 0 0 2.62.81zm27.94 2.06v-12.47a5 5 0 0 0-1.07-3.51 4.32 4.32 0 0 0-3.35-1.16 5.52 5.52 0 0 0-4.43 1.63q-1.41 1.63-1.41 5.4v10.11h-2.92v-19.27h2.37l.48 2.64h.14a6 6 0 0 1 2.51-2.21 8.2 8.2 0 0 1 3.61-.78 7.29 7.29 0 0 1 5.23 1.68c1.18 1.12 1.76 2.91 1.76 5.37v12.57zm22.03-2.59h-.16a6.85 6.85 0 0 1-6 2.94 7.16 7.16 0 0 1-5.89-2.59q-2.1-2.58-2.1-7.34c0-3.18.71-5.65 2.11-7.4a7.11 7.11 0 0 1 5.88-2.64 7 7 0 0 1 6 2.85h.25l-.13-1.39-.07-1.36V134h2.92v27.36h-2.42zm-5.84.49a5.33 5.33 0 0 0 4.34-1.62c.89-1.09 1.34-2.83 1.34-5.25v-.61q0-4.09-1.36-5.85a5.19 5.19 0 0 0-4.35-1.75 4.48 4.48 0 0 0-3.93 2 9.91 9.91 0 0 0-1.36 5.63 9.52 9.52 0 0 0 1.35 5.57 4.57 4.57 0 0 0 3.97 1.88zm31.42-7.55q0 4.71-2.38 7.35a8.32 8.32 0 0 1-6.55 2.65 8.65 8.65 0 0 1-4.59-1.22 7.84 7.84 0 0 1-3.09-3.48 12.06 12.06 0 0 1-1.09-5.3q0-4.71 2.35-7.34a8.31 8.31 0 0 1 6.54-2.63 8.13 8.13 0 0 1 6.42 2.69 10.57 10.57 0 0 1 2.39 7.28zm-14.68 0a9.09 9.09 0 0 0 1.48 5.62 5.11 5.11 0 0 0 4.34 1.93 5.16 5.16 0 0 0 4.35-1.92 11.37 11.37 0 0 0 0-11.22 5.22 5.22 0 0 0-4.39-1.9 5.11 5.11 0 0 0-4.32 1.88 9 9 0 0 0-1.46 5.61z"/><path class="cls-4" d="M396.17 343.76A42.85 42.85 0 1 0 439 386.61a42.86 42.86 0 0 0-42.83-42.85zm28.19 49.93a2.62 2.62 0 0 1-2.51 2.73H402v8.87a3.37 3.37 0 0 1-.09.71h6.82a1.94 1.94 0 0 1 1.94 1.94v.84a1.94 1.94 0 0 1-1.94 2h-25.1a1.94 1.94 0 0 1-1.94-2v-.84a1.94 1.94 0 0 1 1.94-1.94h6.82a3.37 3.37 0 0 1-.09-.71v-8.87h-19.87a2.62 2.62 0 0 1-2.51-2.73v-24.22a2.62 2.62 0 0 1 2.51-2.72h51.36a2.62 2.62 0 0 1 2.51 2.72z"/><path class="cls-4" d="M393.42 390.2h5.5a3.05 3.05 0 0 1 2.47 1.27h15.36a2 2 0 0 0 2-1.94v-15.9a2 2 0 0 0-2-1.93h-41.16a2 2 0 0 0-2 1.93v15.9a2 2 0 0 0 2 1.94H391a3 3 0 0 1 2.42-1.27z"/><path class="cls-3" d="M256.43 0a35 35 0 1 0 35 35 35 35 0 0 0-35-35zm13.14 51.67a2.23 2.23 0 0 1-2.23 2.23h-21.82a2.23 2.23 0 0 1-2.23-2.23V17.92a2.23 2.23 0 0 1 2.23-2.23h21.82a2.23 2.23 0 0 1 2.23 2.23z"/><rect class="cls-3" x="246.87" y="19.27" width="19.11" height="25.72" rx="1.62" ry="1.62"/><path class="cls-3" d="M256.43 46.71a2.52 2.52 0 1 0 2.51 2.52 2.52 2.52 0 0 0-2.51-2.52z"/><path class="cls-1" d="M81.63 42.41h3.63a6.82 6.82 0 0 1 3.7.77 2.68 2.68 0 0 1 1.15 2.41 2.83 2.83 0 0 1-.64 1.89 3.14 3.14 0 0 1-1.86 1v.09c2 .33 2.93 1.36 2.93 3.08a3.28 3.28 0 0 1-1.17 2.68 4.91 4.91 0 0 1-3.25 1h-4.49zm1.5 5.5h2.46a4.06 4.06 0 0 0 2.28-.49 1.93 1.93 0 0 0 .69-1.68 1.7 1.7 0 0 0-.77-1.56 4.84 4.84 0 0 0-2.46-.48h-2.2zm0 1.27V54h2.68a3.81 3.81 0 0 0 2.34-.6 2.22 2.22 0 0 0 .79-1.89 2 2 0 0 0-.81-1.76 4.31 4.31 0 0 0-2.44-.56zM99 55.26l-.29-1.37h-.07a4.15 4.15 0 0 1-1.44 1.23 4.39 4.39 0 0 1-1.78.32 3.23 3.23 0 0 1-2.25-.74 2.69 2.69 0 0 1-.81-2.1q0-2.93 4.66-3.06h1.64v-.6a2.4 2.4 0 0 0-.49-1.67 2 2 0 0 0-1.56-.55 6.37 6.37 0 0 0-2.72.74l-.45-1.11a6.76 6.76 0 0 1 1.56-.66 6.56 6.56 0 0 1 1.7-.22 3.65 3.65 0 0 1 2.55.77 3.16 3.16 0 0 1 .83 2.45v6.57zm-3.29-1a3 3 0 0 0 2.14-.74 2.81 2.81 0 0 0 .77-2.1v-.87l-1.46.07a5.31 5.31 0 0 0-2.51.54 1.62 1.62 0 0 0-.76 1.49 1.54 1.54 0 0 0 .47 1.2 2 2 0 0 0 1.35.38zm11.23 1.18a4.1 4.1 0 0 1-3.24-1.29 5.26 5.26 0 0 1-1.15-3.64 5.46 5.46 0 0 1 1.17-3.74 4.17 4.17 0 0 1 3.28-1.32 6.5 6.5 0 0 1 1.39.15 4.65 4.65 0 0 1 1.09.35l-.45 1.24a7.21 7.21 0 0 0-1-.32 5 5 0 0 0-1-.12c-2 0-2.94 1.24-2.94 3.74a4.43 4.43 0 0 0 .72 2.72 2.47 2.47 0 0 0 2.12.95 6.37 6.37 0 0 0 2.47-.52v1.3a5.28 5.28 0 0 1-2.46.5zm11.31-.18V49a2.52 2.52 0 0 0-.54-1.76 2.19 2.19 0 0 0-1.68-.58 2.77 2.77 0 0 0-2.22.83 4.22 4.22 0 0 0-.69 2.71v5h-1.46V41.59h1.46v4.14a10.1 10.1 0 0 1-.07 1.23h.08a3 3 0 0 1 1.23-1.09 4 4 0 0 1 1.81-.4 3.7 3.7 0 0 1 2.65.84 3.54 3.54 0 0 1 .89 2.67v6.28zM122.58 43a1 1 0 0 1 .25-.74.87.87 0 0 1 .61-.23.85.85 0 0 1 .61.24 1.19 1.19 0 0 1 0 1.46.85.85 0 0 1-.61.24.84.84 0 0 1-.61-.24 1 1 0 0 1-.25-.73zm1.58 12.24h-1.45v-9.61h1.45zm4.56.02h-1.46V41.59h1.46zm4.55 0h-1.46V41.59h1.46zm7.16.18a4.47 4.47 0 0 1-3.37-1.3 5.06 5.06 0 0 1-1.23-3.62 5.62 5.62 0 0 1 1.14-3.7 3.84 3.84 0 0 1 3.08-1.37 3.65 3.65 0 0 1 2.87 1.19 4.61 4.61 0 0 1 1.08 3.15v.92h-6.63a3.76 3.76 0 0 0 .86 2.57 2.94 2.94 0 0 0 2.29.88 7.63 7.63 0 0 0 3.07-.65v1.3a6.72 6.72 0 0 1-1.46.48 8 8 0 0 1-1.7.15zm-.43-8.77a2.39 2.39 0 0 0-1.85.76 3.52 3.52 0 0 0-.82 2.09h5a3.14 3.14 0 0 0-.62-2.11 2.15 2.15 0 0 0-1.71-.74zm10.86-1.22a5.76 5.76 0 0 1 1.15.11l-.2 1.35a4.84 4.84 0 0 0-1.06-.13 2.59 2.59 0 0 0-2 .95 3.47 3.47 0 0 0-.83 2.36v5.17h-1.46v-9.63h1.21l.16 1.78h.07a4.28 4.28 0 0 1 1.3-1.41 2.88 2.88 0 0 1 1.66-.55zM40.32 98.46h-1.5V86.94h-4.07v-1.33h9.64v1.33h-4.07zm9.85.18a4.45 4.45 0 0 1-3.37-1.3 5.06 5.06 0 0 1-1.24-3.62A5.63 5.63 0 0 1 46.71 90a3.83 3.83 0 0 1 3.08-1.37 3.66 3.66 0 0 1 2.87 1.19A4.61 4.61 0 0 1 53.71 93v.92h-6.63a3.76 3.76 0 0 0 .85 2.57 3 3 0 0 0 2.29.88 7.68 7.68 0 0 0 3.08-.65V98a7 7 0 0 1-1.47.48 7.91 7.91 0 0 1-1.66.16zm-.4-8.76a2.4 2.4 0 0 0-1.85.75 3.46 3.46 0 0 0-.81 2.09h5a3.2 3.2 0 0 0-.62-2.11 2.15 2.15 0 0 0-1.72-.73zm10.28 8.76a4.1 4.1 0 0 1-3.24-1.29 5.26 5.26 0 0 1-1.15-3.64A5.46 5.46 0 0 1 56.83 90a4.17 4.17 0 0 1 3.31-1.32 6.5 6.5 0 0 1 1.39.15 4.65 4.65 0 0 1 1.09.35l-.45 1.24a7.21 7.21 0 0 0-1.05-.32 5 5 0 0 0-1-.12c-2 0-2.94 1.24-2.94 3.74a4.43 4.43 0 0 0 .72 2.72 2.48 2.48 0 0 0 2.12 1 6.37 6.37 0 0 0 2.47-.52v1.3a5.28 5.28 0 0 1-2.44.42zm11.31-.18v-6.23a2.52 2.52 0 0 0-.54-1.76 2.19 2.19 0 0 0-1.68-.58 2.79 2.79 0 0 0-2.21.82 4.11 4.11 0 0 0-.7 2.7v5h-1.46v-9.58H66l.24 1.32h.07A3 3 0 0 1 67.52 89a4.1 4.1 0 0 1 1.8-.39 3.67 3.67 0 0 1 2.62.84 3.57 3.57 0 0 1 .88 2.69v6.28zm4.33-12.24a1 1 0 0 1 .25-.74.87.87 0 0 1 .61-.23.85.85 0 0 1 .61.24 1.15 1.15 0 0 1 0 1.46.85.85 0 0 1-.61.24.84.84 0 0 1-.61-.24 1 1 0 0 1-.25-.73zm1.58 12.24h-1.45v-9.63h1.45zm6.95.18A4.1 4.1 0 0 1 81 97.35a5.26 5.26 0 0 1-1.15-3.64A5.46 5.46 0 0 1 81 90a4.17 4.17 0 0 1 3.31-1.32 6.5 6.5 0 0 1 1.39.15 4.65 4.65 0 0 1 1.09.35l-.45 1.24a7.21 7.21 0 0 0-1-.32 5 5 0 0 0-1-.12c-2 0-2.94 1.24-2.94 3.74a4.43 4.43 0 0 0 .72 2.72 2.48 2.48 0 0 0 2.12 1 6.37 6.37 0 0 0 2.47-.52v1.3a5.28 5.28 0 0 1-2.49.42zm13.03-5a5.29 5.29 0 0 1-1.18 3.67 4.18 4.18 0 0 1-3.28 1.33 4.32 4.32 0 0 1-2.3-.61A4 4 0 0 1 89 96.29a6 6 0 0 1-.55-2.65A5.27 5.27 0 0 1 89.58 90a4.14 4.14 0 0 1 3.27-1.32A4.05 4.05 0 0 1 96.06 90a5.3 5.3 0 0 1 1.19 3.64zm-7.34 0a4.59 4.59 0 0 0 .74 2.81 2.92 2.92 0 0 0 4.35 0 4.57 4.57 0 0 0 .74-2.81 4.49 4.49 0 0 0-.74-2.79 3 3 0 0 0-4.36 0 4.58 4.58 0 0 0-.73 2.79zm18.64 5a4.47 4.47 0 0 1-3.37-1.3 5.06 5.06 0 0 1-1.18-3.62 5.57 5.57 0 0 1 1.1-3.72 3.81 3.81 0 0 1 3.08-1.37 3.64 3.64 0 0 1 2.82 1.21 4.57 4.57 0 0 1 1.1 3.16v.92h-6.64a3.81 3.81 0 0 0 .86 2.57 2.94 2.94 0 0 0 2.29.88 7.63 7.63 0 0 0 3.07-.65V98a6.72 6.72 0 0 1-1.46.48 7.94 7.94 0 0 1-1.67.16zm-.39-8.76a2.4 2.4 0 0 0-1.85.75 3.46 3.46 0 0 0-.81 2.09h5a3.2 3.2 0 0 0-.61-2.11 2.17 2.17 0 0 0-1.73-.73zm13.02 8.58v-6.23a2.52 2.52 0 0 0-.54-1.76 2.22 2.22 0 0 0-1.68-.58 2.76 2.76 0 0 0-2.21.82 4.1 4.1 0 0 0-.71 2.7v5h-1.46v-9.58h1.19l.24 1.32h.07a3.06 3.06 0 0 1 1.25-1.15 4.11 4.11 0 0 1 1.81-.39 3.67 3.67 0 0 1 2.62.84 3.61 3.61 0 0 1 .87 2.69v6.28zM136 86.76a4.19 4.19 0 0 0-3.34 1.41 5.69 5.69 0 0 0-1.2 3.83 5.81 5.81 0 0 0 1.18 3.9 4.22 4.22 0 0 0 3.36 1.41 11.59 11.59 0 0 0 3.07-.48v1.31a9.55 9.55 0 0 1-3.3.5 5.61 5.61 0 0 1-4.38-1.72 7.11 7.11 0 0 1-1.54-4.9 7.82 7.82 0 0 1 .74-3.48 5.32 5.32 0 0 1 2.15-2.3 6.46 6.46 0 0 1 3.3-.81 7.87 7.87 0 0 1 3.53.74l-.57 1.28a6.82 6.82 0 0 0-3-.69zm5.54-.54a1 1 0 0 1 .25-.74.87.87 0 0 1 .61-.23.85.85 0 0 1 .61.24A1.19 1.19 0 0 1 143 87a.85.85 0 0 1-.61.24.84.84 0 0 1-.61-.24 1 1 0 0 1-.24-.78zm1.58 12.24h-1.46v-9.63h1.46zm7.17.18a4.47 4.47 0 0 1-3.38-1.3 5.06 5.06 0 0 1-1.23-3.62 5.57 5.57 0 0 1 1.15-3.7 3.81 3.81 0 0 1 3.08-1.37 3.64 3.64 0 0 1 2.86 1.19 4.57 4.57 0 0 1 1.06 3.16v.92h-6.64a3.81 3.81 0 0 0 .86 2.57 2.94 2.94 0 0 0 2.29.88 7.6 7.6 0 0 0 3.07-.65V98a6.72 6.72 0 0 1-1.46.48 7.91 7.91 0 0 1-1.66.16zm-.4-8.76a2.4 2.4 0 0 0-1.85.75 3.46 3.46 0 0 0-.81 2.09h5a3.2 3.2 0 0 0-.61-2.11 2.17 2.17 0 0 0-1.73-.73zm13.02 8.58v-6.23a2.52 2.52 0 0 0-.54-1.76 2.22 2.22 0 0 0-1.68-.58 2.77 2.77 0 0 0-2.21.82 4.1 4.1 0 0 0-.71 2.7v5h-1.46v-9.58h1.19l.24 1.32h.07a3 3 0 0 1 1.26-1.15 4.06 4.06 0 0 1 1.8-.39 3.67 3.67 0 0 1 2.62.84 3.61 3.61 0 0 1 .88 2.69v6.28zm8.3.18a4.12 4.12 0 0 1-3.21-1.29 5.31 5.31 0 0 1-1.14-3.64A5.46 5.46 0 0 1 168 90a4.19 4.19 0 0 1 3.32-1.32 6.64 6.64 0 0 1 1.39.15 5 5 0 0 1 1.09.35l-.45 1.24a7 7 0 0 0-1.06-.32 4.92 4.92 0 0 0-1-.12c-2 0-2.93 1.24-2.93 3.74a4.5 4.5 0 0 0 .71 2.72 2.49 2.49 0 0 0 2.13 1 6.45 6.45 0 0 0 2.47-.52v1.3a5.35 5.35 0 0 1-2.46.42zm4.6-12.42a1 1 0 0 1 .24-.74.9.9 0 0 1 .62-.23.87.87 0 0 1 .61.24 1.19 1.19 0 0 1 0 1.46.87.87 0 0 1-.61.24.86.86 0 0 1-.62-.24 1 1 0 0 1-.24-.73zm1.58 12.24h-1.46v-9.63h1.46zm9.02 0l-.29-1.37h-.07a4.15 4.15 0 0 1-1.44 1.23 4.44 4.44 0 0 1-1.79.32 3.22 3.22 0 0 1-2.24-.74 2.66 2.66 0 0 1-.82-2.1q0-2.92 4.67-3.06h1.64v-.6a2.45 2.45 0 0 0-.49-1.67 2 2 0 0 0-1.56-.54 6.38 6.38 0 0 0-2.73.73l-.45-1.11a7.13 7.13 0 0 1 1.56-.61 6.69 6.69 0 0 1 1.71-.22 3.68 3.68 0 0 1 2.55.77 3.19 3.19 0 0 1 .83 2.45v6.57zm-3.3-1a3 3 0 0 0 2.14-.74 2.78 2.78 0 0 0 .78-2.1v-.87l-1.46.07a5.28 5.28 0 0 0-2.51.54 1.63 1.63 0 0 0-.77 1.49 1.5 1.5 0 0 0 .48 1.2 2 2 0 0 0 1.34.38zm13.6-1.63a2.42 2.42 0 0 1-1 2.08 4.78 4.78 0 0 1-2.82.73 6 6 0 0 1-3-.61v-1.35a7.14 7.14 0 0 0 1.49.55 6 6 0 0 0 1.53.2 3.53 3.53 0 0 0 1.76-.36 1.19 1.19 0 0 0 .63-1.07 1.21 1.21 0 0 0-.49-1 7.57 7.57 0 0 0-1.9-.94 11 11 0 0 1-1.91-.87 2.61 2.61 0 0 1-.84-.85 2.34 2.34 0 0 1 .68-3 4.49 4.49 0 0 1 2.63-.68 7.58 7.58 0 0 1 3 .64l-.47 1.17a6.93 6.93 0 0 0-2.63-.59 3 3 0 0 0-1.56.32 1 1 0 0 0-.53.9 1.08 1.08 0 0 0 .2.66 1.89 1.89 0 0 0 .63.51 13.57 13.57 0 0 0 1.69.72 6.29 6.29 0 0 1 2.32 1.25 2.25 2.25 0 0 1 .59 1.59zm-105.8 21.6a2.42 2.42 0 0 1-1 2.08 4.77 4.77 0 0 1-2.81.73 6 6 0 0 1-3-.61v-1.35a7.14 7.14 0 0 0 1.49.55 6 6 0 0 0 1.53.2 3.53 3.53 0 0 0 1.76-.36 1.19 1.19 0 0 0 .61-1.11 1.23 1.23 0 0 0-.48-1 7.88 7.88 0 0 0-1.91-.94 11 11 0 0 1-1.91-.87 2.61 2.61 0 0 1-.84-.85 2.34 2.34 0 0 1 .68-3 4.49 4.49 0 0 1 2.63-.68 7.58 7.58 0 0 1 3 .64l-.52 1.18a6.93 6.93 0 0 0-2.63-.59 3 3 0 0 0-1.56.32 1 1 0 0 0-.53.9 1.14 1.14 0 0 0 .2.66 1.84 1.84 0 0 0 .64.51 12.59 12.59 0 0 0 1.68.72 6.2 6.2 0 0 1 2.32 1.25 2.25 2.25 0 0 1 .65 1.62zm10.69-2.19a5.34 5.34 0 0 1-1.19 3.68 4.18 4.18 0 0 1-3.28 1.32 4.29 4.29 0 0 1-2.29-.61 4 4 0 0 1-1.55-1.74 6.09 6.09 0 0 1-.54-2.65 5.27 5.27 0 0 1 1.18-3.67 4.13 4.13 0 0 1 3.26-1.32 4.09 4.09 0 0 1 3.22 1.35 5.3 5.3 0 0 1 1.19 3.64zm-7.34 0a4.59 4.59 0 0 0 .74 2.81 2.91 2.91 0 0 0 4.34 0 4.5 4.5 0 0 0 .75-2.81 4.42 4.42 0 0 0-.75-2.79 3 3 0 0 0-4.35 0 4.51 4.51 0 0 0-.73 2.79zm13.74 5a4.1 4.1 0 0 1-3.24-1.29 5.26 5.26 0 0 1-1.15-3.64 5.51 5.51 0 0 1 1.16-3.74 4.21 4.21 0 0 1 3.32-1.32 6.57 6.57 0 0 1 1.39.15 4.82 4.82 0 0 1 1.09.35l-.45 1.24a7.21 7.21 0 0 0-1-.32 5 5 0 0 0-1-.12c-2 0-2.94 1.24-2.94 3.74a4.43 4.43 0 0 0 .72 2.72 2.47 2.47 0 0 0 2.1.99 6.41 6.41 0 0 0 2.47-.52v1.3a5.31 5.31 0 0 1-2.47.46zm4.6-12.42a1 1 0 0 1 .25-.74.87.87 0 0 1 .61-.23.85.85 0 0 1 .61.24 1.19 1.19 0 0 1 0 1.46.85.85 0 0 1-.61.24.84.84 0 0 1-.61-.24 1 1 0 0 1-.25-.73zm1.58 12.24h-1.45v-9.63h1.45zm9.02 0l-.29-1.37h-.07a4.15 4.15 0 0 1-1.44 1.23 4.39 4.39 0 0 1-1.78.32 3.23 3.23 0 0 1-2.25-.74 2.69 2.69 0 0 1-.81-2.1q0-2.93 4.66-3.06h1.64v-.6a2.4 2.4 0 0 0-.49-1.67 2 2 0 0 0-1.56-.54 6.34 6.34 0 0 0-2.72.73l-.45-1.11a6.76 6.76 0 0 1 1.56-.61 6.56 6.56 0 0 1 1.7-.22 3.65 3.65 0 0 1 2.55.77 3.16 3.16 0 0 1 .83 2.45v6.57zm-3.29-1a3 3 0 0 0 2.14-.74 2.81 2.81 0 0 0 .77-2.1v-.87l-1.46.07a5.24 5.24 0 0 0-2.5.54 1.61 1.61 0 0 0-.77 1.49 1.5 1.5 0 0 0 .48 1.2 1.94 1.94 0 0 0 1.34.35zm8.84 1h-1.46v-13.67h1.46zm7.16.18a4.45 4.45 0 0 1-3.37-1.3 5.06 5.06 0 0 1-1.23-3.62 5.62 5.62 0 0 1 1.14-3.7 3.83 3.83 0 0 1 3.08-1.37 3.66 3.66 0 0 1 2.87 1.19 4.61 4.61 0 0 1 1 3.15v.92h-6.63a3.81 3.81 0 0 0 .85 2.57 3 3 0 0 0 2.38.92 7.64 7.64 0 0 0 3.08-.65v1.3a6.9 6.9 0 0 1-1.46.48 8 8 0 0 1-1.71.11zm-.39-8.76a2.38 2.38 0 0 0-1.85.75 3.46 3.46 0 0 0-.82 2.09h5a3.2 3.2 0 0 0-.62-2.11 2.15 2.15 0 0 0-1.71-.73zm12.63 5.95a2.42 2.42 0 0 1-1 2.08 4.74 4.74 0 0 1-2.81.73 6.06 6.06 0 0 1-3-.61v-1.35a7.14 7.14 0 0 0 1.49.55 6 6 0 0 0 1.53.2 3.5 3.5 0 0 0 1.76-.36 1.2 1.2 0 0 0 .62-1.11 1.24 1.24 0 0 0-.49-1 8 8 0 0 0-1.9-.94 10.32 10.32 0 0 1-1.91-.87 2.75 2.75 0 0 1-.85-.85 2.29 2.29 0 0 1-.28-1.14 2.18 2.18 0 0 1 1-1.86 4.51 4.51 0 0 1 2.63-.68 7.54 7.54 0 0 1 3 .64l-.52 1.18a6.88 6.88 0 0 0-2.62-.59 3 3 0 0 0-1.57.32 1 1 0 0 0-.53.9 1.14 1.14 0 0 0 .2.66 1.94 1.94 0 0 0 .64.51 12.3 12.3 0 0 0 1.69.72 6.23 6.23 0 0 1 2.31 1.25 2.25 2.25 0 0 1 .61 1.62z"/><path class="cls-4" d="M305.2 22.82a4.2 4.2 0 0 0-3.34 1.41 5.69 5.69 0 0 0-1.23 3.87 5.81 5.81 0 0 0 1.18 3.9 4.21 4.21 0 0 0 3.37 1.38 11.59 11.59 0 0 0 3.07-.48v1.3a9.53 9.53 0 0 1-3.29.5 5.59 5.59 0 0 1-4.39-1.7 7.11 7.11 0 0 1-1.57-4.92 7.76 7.76 0 0 1 .74-3.48 5.26 5.26 0 0 1 2.15-2.3 6.46 6.46 0 0 1 3.3-.81 7.81 7.81 0 0 1 3.53.74l-.63 1.28a6.78 6.78 0 0 0-2.89-.69zm5.51-.54a1 1 0 0 1 .25-.74.87.87 0 0 1 .61-.23.85.85 0 0 1 .61.24 1.15 1.15 0 0 1 0 1.46.85.85 0 0 1-.61.24.84.84 0 0 1-.57-.25 1 1 0 0 1-.29-.72zm1.58 12.24h-1.45v-9.63h1.45zm9.31-2.63a2.42 2.42 0 0 1-1 2.08 4.74 4.74 0 0 1-2.81.73 6.15 6.15 0 0 1-3-.61v-1.35a7.14 7.14 0 0 0 1.49.55 6 6 0 0 0 1.53.2 3.53 3.53 0 0 0 1.76-.36 1.22 1.22 0 0 0 .63-1.13 1.24 1.24 0 0 0-.49-1 8 8 0 0 0-1.9-.94 10.69 10.69 0 0 1-1.92-.88 2.59 2.59 0 0 1-.84-.84 2.29 2.29 0 0 1-.28-1.14 2.18 2.18 0 0 1 1-1.86 4.51 4.51 0 0 1 2.63-.68 7.54 7.54 0 0 1 3 .64l-.52 1.18a6.92 6.92 0 0 0-2.63-.6 3 3 0 0 0-1.56.33 1 1 0 0 0-.53.9 1.09 1.09 0 0 0 .2.65 1.74 1.74 0 0 0 .64.52 14.12 14.12 0 0 0 1.68.72 6.2 6.2 0 0 1 2.32 1.3 2.21 2.21 0 0 1 .6 1.59zm6.23 2.81a4.1 4.1 0 0 1-3.24-1.29 5.26 5.26 0 0 1-1.15-3.64A5.49 5.49 0 0 1 324.6 26a4.21 4.21 0 0 1 3.32-1.32 6.57 6.57 0 0 1 1.39.15 4.82 4.82 0 0 1 1.09.35l-.4 1.27a7.21 7.21 0 0 0-1.05-.32 5.08 5.08 0 0 0-1-.13Q325 26 325 29.75a4.43 4.43 0 0 0 .72 2.72 2.47 2.47 0 0 0 2.12 1 6.41 6.41 0 0 0 2.47-.52v1.3a5.31 5.31 0 0 1-2.48.45zm13.03-5a5.3 5.3 0 0 1-1.19 3.67 4.15 4.15 0 0 1-3.28 1.33 4.38 4.38 0 0 1-2.29-.61 4 4 0 0 1-1.55-1.74 6.12 6.12 0 0 1-.55-2.65 5.27 5.27 0 0 1 1.19-3.7 4.14 4.14 0 0 1 3.27-1.32 4.08 4.08 0 0 1 3.21 1.35 5.3 5.3 0 0 1 1.19 3.67zm-7.34 0a4.59 4.59 0 0 0 .74 2.81 2.91 2.91 0 0 0 4.34 0 4.5 4.5 0 0 0 .75-2.81 4.42 4.42 0 0 0-.75-2.79 3 3 0 0 0-4.35 0 4.51 4.51 0 0 0-.73 2.79zm20.29-6.88a4.2 4.2 0 0 0-3.34 1.41 5.69 5.69 0 0 0-1.23 3.87 5.76 5.76 0 0 0 1.19 3.9 4.18 4.18 0 0 0 3.37 1.38 11.52 11.52 0 0 0 3.06-.48v1.3a9.49 9.49 0 0 1-3.29.5 5.58 5.58 0 0 1-4.38-1.7 7.07 7.07 0 0 1-1.55-4.89 7.63 7.63 0 0 1 .75-3.48 5.24 5.24 0 0 1 2.14-2.3 6.51 6.51 0 0 1 3.3-.81 7.89 7.89 0 0 1 3.54.74l-.64 1.28a6.75 6.75 0 0 0-2.92-.72zm9.71 11.88a4.44 4.44 0 0 1-3.37-1.3 5 5 0 0 1-1.24-3.62 5.57 5.57 0 0 1 1.15-3.7 3.81 3.81 0 0 1 3.08-1.37A3.63 3.63 0 0 1 366 25.9a4.55 4.55 0 0 1 1.06 3.15V30h-6.64a3.81 3.81 0 0 0 .86 2.57 3 3 0 0 0 2.29.88 7.68 7.68 0 0 0 3.08-.65v1.3a7 7 0 0 1-1.47.48 7.91 7.91 0 0 1-1.66.12zm-.4-8.77a2.4 2.4 0 0 0-1.85.76 3.46 3.46 0 0 0-.81 2.09h5a3.2 3.2 0 0 0-.62-2.11 2.17 2.17 0 0 0-1.72-.74zm10.82-1.22a5.68 5.68 0 0 1 1.15.11l-.2 1.35a4.83 4.83 0 0 0-1.05-.13 2.57 2.57 0 0 0-2 .95 3.42 3.42 0 0 0-.83 2.36v5.17h-1.46v-9.63h1.2l.17 1.78h.08a4.36 4.36 0 0 1 1.29-1.45 2.9 2.9 0 0 1 1.65-.51zm6.06 8.78a6 6 0 0 0 .74-.05 5.41 5.41 0 0 0 .57-.12v1.11a2.45 2.45 0 0 1-.69.19 5.37 5.37 0 0 1-.84.08c-1.86 0-2.79-1-2.79-3V26h-1.38v-.7l1.38-.61.62-2.05h.84v2.23h2.79V26h-2.79v5.67a2 2 0 0 0 .41 1.34 1.46 1.46 0 0 0 1.14.48zm3.13-11.21a1 1 0 0 1 .24-.74.9.9 0 0 1 .62-.23.85.85 0 0 1 .6.24 1.15 1.15 0 0 1 0 1.46.85.85 0 0 1-.6.24.86.86 0 0 1-.62-.24 1 1 0 0 1-.24-.73zm1.58 12.24h-1.46v-9.63h1.46zm7.43-8.52h-2.45v8.5h-1.46V26h-1.72v-.66l1.72-.52v-.52c0-2.37 1-3.55 3.1-3.55a6.29 6.29 0 0 1 1.8.31l-.38 1.17a4.58 4.58 0 0 0-1.44-.28 1.41 1.41 0 0 0-1.22.55 3 3 0 0 0-.4 1.76v.63h2.45zm1.64-3.74a1 1 0 0 1 .24-.74.9.9 0 0 1 .62-.23.87.87 0 0 1 .61.24 1.19 1.19 0 0 1 0 1.46.87.87 0 0 1-.61.24.86.86 0 0 1-.64-.23 1 1 0 0 1-.22-.72zm1.58 12.24h-1.46v-9.61h1.46zm7.16.2a4.47 4.47 0 0 1-3.37-1.3 5.07 5.07 0 0 1-1.23-3.62 5.62 5.62 0 0 1 1.14-3.7 3.85 3.85 0 0 1 3.09-1.37A3.64 3.64 0 0 1 405 25.9a4.6 4.6 0 0 1 1.06 3.15V30h-6.64a3.76 3.76 0 0 0 .86 2.57 2.94 2.94 0 0 0 2.29.88 7.63 7.63 0 0 0 3.07-.65v1.3a6.72 6.72 0 0 1-1.46.48 8 8 0 0 1-1.66.12zm-.39-8.77a2.39 2.39 0 0 0-1.85.76 3.52 3.52 0 0 0-.82 2.09h5a3.2 3.2 0 0 0-.61-2.11 2.17 2.17 0 0 0-1.72-.74zm12.98 7.3H415a3.42 3.42 0 0 1-3 1.47 3.56 3.56 0 0 1-2.94-1.3 5.67 5.67 0 0 1-1.06-3.67 5.8 5.8 0 0 1 1.05-3.7 3.54 3.54 0 0 1 2.95-1.32 3.49 3.49 0 0 1 3 1.43h.12l-.06-.7v-4.59h1.46v13.67h-1.22zm-2.92.25a2.67 2.67 0 0 0 2.17-.82A4.08 4.08 0 0 0 415 30v-.31a4.86 4.86 0 0 0-.68-2.92 2.6 2.6 0 0 0-2.18-.88 2.24 2.24 0 0 0-2 1 5 5 0 0 0-.68 2.82 4.65 4.65 0 0 0 .68 2.78 2.28 2.28 0 0 0 2.05.99zm22.33 1.04h-1.71l-7-10.78h-.07c.09 1.26.14 2.42.14 3.48v7.3h-1.38V21.67h1.69l7 10.74h.07c0-.16 0-.66-.08-1.52s-.05-1.48 0-1.84v-7.38h1.4zm7.38.18a4.44 4.44 0 0 1-3.37-1.3 5.08 5.08 0 0 1-1.24-3.62 5.63 5.63 0 0 1 1.15-3.7 3.83 3.83 0 0 1 3.08-1.37 3.66 3.66 0 0 1 2.87 1.19 4.59 4.59 0 0 1 1.05 3.15V30h-6.64a3.81 3.81 0 0 0 .86 2.57 3 3 0 0 0 2.29.88 7.68 7.68 0 0 0 3.08-.65v1.3a7 7 0 0 1-1.47.48 7.91 7.91 0 0 1-1.66.12zm-.4-8.77a2.4 2.4 0 0 0-1.85.76 3.46 3.46 0 0 0-.81 2.09h5a3.2 3.2 0 0 0-.62-2.11 2.17 2.17 0 0 0-1.72-.74zm9.5 7.56a6 6 0 0 0 .75-.05 5.41 5.41 0 0 0 .57-.12v1.11a2.53 2.53 0 0 1-.7.19 5.37 5.37 0 0 1-.83.08c-1.87 0-2.8-1-2.8-3V26h-1.38v-.7l1.38-.61.62-2.05h.84v2.23h2.8V26h-2.8v5.67a1.94 1.94 0 0 0 .42 1.34 1.42 1.42 0 0 0 1.13.48zm11.15 1.03l-1.77-5.65c-.11-.35-.32-1.13-.62-2.36h-.07c-.24 1-.44 1.82-.62 2.38l-1.82 5.63h-1.68l-2.63-9.63h1.53q.93 3.63 1.42 5.53a21.14 21.14 0 0 1 .55 2.55h.07c.07-.33.17-.76.32-1.29s.26-.95.37-1.26l1.8-5.53h1.58l1.72 5.53a18.39 18.39 0 0 1 .67 2.54h.03a9.25 9.25 0 0 1 .19-1q.15-.66 1.83-7.09h1.51l-2.66 9.63zm14.45-4.82a5.3 5.3 0 0 1-1.19 3.67 4.15 4.15 0 0 1-3.28 1.33 4.38 4.38 0 0 1-2.29-.61 4 4 0 0 1-1.55-1.74 6.12 6.12 0 0 1-.54-2.65 5.32 5.32 0 0 1 1.17-3.7 4.17 4.17 0 0 1 3.27-1.32 4.09 4.09 0 0 1 3.22 1.35 5.3 5.3 0 0 1 1.19 3.67zm-7.34 0a4.52 4.52 0 0 0 .74 2.81 2.91 2.91 0 0 0 4.34 0 4.5 4.5 0 0 0 .75-2.81 4.42 4.42 0 0 0-.75-2.79 3 3 0 0 0-4.35 0 4.51 4.51 0 0 0-.73 2.79zm14.29-4.99a5.68 5.68 0 0 1 1.15.11l-.2 1.35a4.84 4.84 0 0 0-1.06-.13 2.57 2.57 0 0 0-2 .95 3.43 3.43 0 0 0-.84 2.36v5.17h-1.45v-9.63h1.2l.17 1.78h.07a4.16 4.16 0 0 1 1.29-1.45 2.9 2.9 0 0 1 1.67-.51zm4.39 4.88a17.88 17.88 0 0 1 1.16-1.41l3.11-3.29h1.73L490 29l4.17 5.53h-1.77L489 30l-1.1 1v3.6h-1.4V20.85h1.44v7.25c0 .32 0 .82-.07 1.49zM322.37 56.12l-1.6-4.12h-5.15L314 56.12h-1.51l5.08-12.9h1.26l5.05 12.9zm-2.06-5.43l-1.5-4c-.19-.51-.39-1.12-.6-1.86a14.92 14.92 0 0 1-.55 1.86l-1.51 4zm11.37 2.8a2.42 2.42 0 0 1-1 2.08 4.77 4.77 0 0 1-2.81.73 6.15 6.15 0 0 1-3-.61v-1.35a7.14 7.14 0 0 0 1.49.55 6 6 0 0 0 1.53.2 3.53 3.53 0 0 0 1.76-.36 1.27 1.27 0 0 0 .13-2.08 7.88 7.88 0 0 0-1.91-.94 10.17 10.17 0 0 1-1.91-.88 2.49 2.49 0 0 1-.84-.84 2.34 2.34 0 0 1 .68-3 4.49 4.49 0 0 1 2.63-.68 7.58 7.58 0 0 1 3 .64l-.43 1.18a7 7 0 0 0-2.63-.6 3 3 0 0 0-1.56.33 1 1 0 0 0-.53.9 1.14 1.14 0 0 0 .2.66 1.89 1.89 0 0 0 .63.51 15.34 15.34 0 0 0 1.69.72 6.29 6.29 0 0 1 2.32 1.25 2.21 2.21 0 0 1 .56 1.59zm8.59 0a2.42 2.42 0 0 1-1 2.08 4.72 4.72 0 0 1-2.81.73 6.18 6.18 0 0 1-3-.61v-1.35a7.36 7.36 0 0 0 1.49.55 6 6 0 0 0 1.54.2 3.56 3.56 0 0 0 1.76-.36 1.26 1.26 0 0 0 .12-2.08 7.76 7.76 0 0 0-1.9-.94 9.87 9.87 0 0 1-1.91-.88 2.62 2.62 0 0 1-.85-.84 2.29 2.29 0 0 1-.27-1.14 2.18 2.18 0 0 1 1-1.86 4.46 4.46 0 0 1 2.62-.68 7.54 7.54 0 0 1 3 .64l-.51 1.18a7 7 0 0 0-2.63-.6 3 3 0 0 0-1.57.33 1 1 0 0 0-.52.9 1.14 1.14 0 0 0 .19.66 2 2 0 0 0 .64.51 14.5 14.5 0 0 0 1.69.72 6.23 6.23 0 0 1 2.31 1.25 2.18 2.18 0 0 1 .61 1.59zM351 51.3a5.29 5.29 0 0 1-1.23 3.7 4.17 4.17 0 0 1-3.28 1.33 4.35 4.35 0 0 1-2.29-.61 3.93 3.93 0 0 1-1.55-1.72 6.12 6.12 0 0 1-.55-2.65 5.32 5.32 0 0 1 1.18-3.67 4.17 4.17 0 0 1 3.27-1.32 4.05 4.05 0 0 1 3.21 1.35A5.25 5.25 0 0 1 351 51.3zm-7.33 0a4.59 4.59 0 0 0 .73 2.81 2.92 2.92 0 0 0 4.35 0 4.57 4.57 0 0 0 .74-2.81 4.49 4.49 0 0 0-.74-2.79 3 3 0 0 0-4.36 0 4.58 4.58 0 0 0-.77 2.79zm13.69 5a4.12 4.12 0 0 1-3.24-1.3 5.31 5.31 0 0 1-1.12-3.63 5.44 5.44 0 0 1 1.16-3.74 4.19 4.19 0 0 1 3.32-1.32 6.64 6.64 0 0 1 1.39.15 5 5 0 0 1 1.09.35l-.45 1.24a7.35 7.35 0 0 0-1.06-.32 5 5 0 0 0-1-.13q-2.93 0-2.93 3.75a4.5 4.5 0 0 0 .71 2.72 2.49 2.49 0 0 0 2.13 1 6.45 6.45 0 0 0 2.47-.52v1.3a5.35 5.35 0 0 1-2.47.45zM362 43.88a1 1 0 0 1 .24-.74.9.9 0 0 1 .62-.23.87.87 0 0 1 .61.24 1.19 1.19 0 0 1 0 1.46.87.87 0 0 1-.61.24.86.86 0 0 1-.62-.24 1 1 0 0 1-.24-.73zm1.58 12.24h-1.46v-9.63h1.46zm8.98 0l-.29-1.37h-.07a4.15 4.15 0 0 1-1.44 1.25 4.44 4.44 0 0 1-1.79.32 3.22 3.22 0 0 1-2.24-.74 2.66 2.66 0 0 1-.82-2.1q0-2.93 4.67-3.06h1.63v-.6a2.5 2.5 0 0 0-.48-1.68 2 2 0 0 0-1.56-.54 6.41 6.41 0 0 0-2.73.74l-.44-1.18a7.13 7.13 0 0 1 1.56-.61 6.67 6.67 0 0 1 1.7-.22 3.7 3.7 0 0 1 2.56.76 3.22 3.22 0 0 1 .83 2.46v6.57zm-3.3-1a3 3 0 0 0 2.14-.74 2.78 2.78 0 0 0 .78-2.1v-.87l-1.46.07a5.28 5.28 0 0 0-2.51.54 1.63 1.63 0 0 0-.77 1.49 1.51 1.51 0 0 0 .48 1.2 2 2 0 0 0 1.34.38zm10.5-.03a6 6 0 0 0 .74-.05 5.41 5.41 0 0 0 .57-.12V56a2.45 2.45 0 0 1-.69.19 5.37 5.37 0 0 1-.84.08c-1.86 0-2.79-1-2.79-2.95v-5.7h-1.38v-.7l1.38-.61.62-2.05h.84v2.23H381v1.13h-2.79v5.67a2 2 0 0 0 .41 1.34 1.46 1.46 0 0 0 1.14.46zm7.31 1.21a4.44 4.44 0 0 1-3.37-1.3 5 5 0 0 1-1.24-3.62 5.63 5.63 0 0 1 1.15-3.7 3.81 3.81 0 0 1 3.08-1.37 3.66 3.66 0 0 1 2.87 1.19 4.59 4.59 0 0 1 1.05 3.15v.92H384a3.81 3.81 0 0 0 .86 2.57 3 3 0 0 0 2.29.88 7.68 7.68 0 0 0 3.08-.65v1.3a7 7 0 0 1-1.47.48 7.91 7.91 0 0 1-1.69.15zm-.4-8.77a2.4 2.4 0 0 0-1.85.76 3.46 3.46 0 0 0-.81 2.09h5a3.2 3.2 0 0 0-.62-2.11 2.17 2.17 0 0 0-1.72-.74zm18.88 8.59h-8.44v-1.26l3.38-3.4a24.47 24.47 0 0 0 2-2.23 5.79 5.79 0 0 0 .74-1.3 3.81 3.81 0 0 0 .24-1.36 2.17 2.17 0 0 0-.62-1.63 2.4 2.4 0 0 0-1.73-.61 4.27 4.27 0 0 0-1.52.27 5.59 5.59 0 0 0-1.59 1l-.78-1a6 6 0 0 1 3.87-1.47 4.13 4.13 0 0 1 2.9.87 3.22 3.22 0 0 1 1 2.5 4.76 4.76 0 0 1-.69 2.41 15.23 15.23 0 0 1-2.57 3l-2.81 2.75v.07h6.61zm6.37-4.93a13.46 13.46 0 0 1 .68-4.36 10.9 10.9 0 0 1 2-3.56h1.4a12.52 12.52 0 0 0-1.9 3.73 14 14 0 0 0-.64 4.17 13.39 13.39 0 0 0 .65 4.12A12.8 12.8 0 0 0 416 59h-1.41a10.4 10.4 0 0 1-2-3.49 13.3 13.3 0 0 1-.67-4.32zm11.87-6.77a4.19 4.19 0 0 0-3.34 1.41 5.69 5.69 0 0 0-1.23 3.87 5.76 5.76 0 0 0 1.18 3.89 4.2 4.2 0 0 0 3.37 1.41 11.59 11.59 0 0 0 3.07-.48v1.28a9.55 9.55 0 0 1-3.3.5 5.58 5.58 0 0 1-4.38-1.73 7.06 7.06 0 0 1-1.54-4.89 7.76 7.76 0 0 1 .74-3.48 5.26 5.26 0 0 1 2.15-2.3 6.46 6.46 0 0 1 3.3-.81 7.87 7.87 0 0 1 3.53.74l-.63 1.28a6.82 6.82 0 0 0-2.92-.69zm11.35 0a4.2 4.2 0 0 0-3.34 1.41 5.69 5.69 0 0 0-1.23 3.87 5.76 5.76 0 0 0 1.19 3.89 4.18 4.18 0 0 0 3.37 1.41 11.52 11.52 0 0 0 3.06-.48v1.28a9.49 9.49 0 0 1-3.29.5 5.58 5.58 0 0 1-4.38-1.73 7.07 7.07 0 0 1-1.52-4.89 7.63 7.63 0 0 1 .75-3.48 5.24 5.24 0 0 1 2.14-2.3 6.51 6.51 0 0 1 3.3-.81 7.89 7.89 0 0 1 3.54.74l-.64 1.28a6.75 6.75 0 0 0-2.95-.69zM451 56.12h-1.71l-7-10.78h-.07c.09 1.26.14 2.42.14 3.48v7.3H441V43.27h1.69l7 10.74h.07c0-.16 0-.66-.08-1.52s-.05-1.48 0-1.84v-7.38H451zm11.65 0l-1.6-4.12h-5.15l-1.59 4.09h-1.51l5.08-12.9h1.26l5.05 12.9zm-2.07-5.43l-1.49-4a17.92 17.92 0 0 1-.6-1.86 17.05 17.05 0 0 1-.56 1.86l-1.51 4zm12.94 5.43h-8.45v-1.26l3.39-3.4a22.51 22.51 0 0 0 2-2.23 5.42 5.42 0 0 0 .74-1.3 3.61 3.61 0 0 0 .25-1.36 2.14 2.14 0 0 0-.63-1.63 2.38 2.38 0 0 0-1.73-.61 4.21 4.21 0 0 0-1.51.27 5.76 5.76 0 0 0-1.6 1l-.77-1a5.93 5.93 0 0 1 3.87-1.47 4.1 4.1 0 0 1 2.83.92 3.19 3.19 0 0 1 1 2.5 4.84 4.84 0 0 1-.68 2.41 15.58 15.58 0 0 1-2.57 3l-2.81 2.75v.07h6.61zm5.57-4.93a13.38 13.38 0 0 1-.68 4.31 10.22 10.22 0 0 1-2 3.47H475a12.72 12.72 0 0 0 1.87-3.67 13.5 13.5 0 0 0 .65-4.13 13.65 13.65 0 0 0-.64-4.17 12.29 12.29 0 0 0-1.9-3.73h1.42a10.71 10.71 0 0 1 2 3.57 13.76 13.76 0 0 1 .69 4.35zm-172.5 48.13V86.47h1.49v12.85zm11.41 0v-6.23a2.55 2.55 0 0 0-.53-1.76 2.22 2.22 0 0 0-1.68-.58 2.76 2.76 0 0 0-2.22.82 4.11 4.11 0 0 0-.7 2.7v5h-1.46v-9.58h1.19l.23 1.32h.07a3 3 0 0 1 1.26-1.11 4.1 4.1 0 0 1 1.8-.39 3.65 3.65 0 0 1 2.62.84 3.57 3.57 0 0 1 .88 2.69v6.28zm8.78-8.5h-2.45v8.5h-1.46v-8.5h-1.72v-.66l1.72-.52v-.54q0-3.55 3.1-3.55a6.17 6.17 0 0 1 1.79.31l-.37 1.14a4.69 4.69 0 0 0-1.45-.28 1.43 1.43 0 0 0-1.22.55 3.12 3.12 0 0 0-.39 1.76v.63h2.45zm10.07 3.68a5.29 5.29 0 0 1-1.18 3.67 4.18 4.18 0 0 1-3.28 1.33 4.41 4.41 0 0 1-2.3-.61 3.91 3.91 0 0 1-1.54-1.74 6 6 0 0 1-.55-2.65 5.27 5.27 0 0 1 1.18-3.67 4.14 4.14 0 0 1 3.27-1.32 4.05 4.05 0 0 1 3.21 1.35 5.3 5.3 0 0 1 1.19 3.64zm-7.34 0a4.59 4.59 0 0 0 .74 2.81 2.92 2.92 0 0 0 4.35 0 4.57 4.57 0 0 0 .74-2.81 4.49 4.49 0 0 0-.74-2.79 3 3 0 0 0-4.36 0 4.58 4.58 0 0 0-.73 2.79zm14.29-4.99a5.79 5.79 0 0 1 1.16.11l-.21 1.38a4.83 4.83 0 0 0-1.05-.13 2.57 2.57 0 0 0-2 1 3.47 3.47 0 0 0-.83 2.36v5.17h-1.46v-9.71h1.2l.17 1.78h.07a4.36 4.36 0 0 1 1.29-1.47 2.93 2.93 0 0 1 1.66-.49zm15.2 9.81v-6.27a2.58 2.58 0 0 0-.5-1.72 1.88 1.88 0 0 0-1.53-.58 2.47 2.47 0 0 0-2 .78 3.77 3.77 0 0 0-.65 2.41v5.38h-1.46v-6.27a2.58 2.58 0 0 0-.49-1.72 1.9 1.9 0 0 0-1.54-.58 2.42 2.42 0 0 0-2 .82 4.51 4.51 0 0 0-.63 2.7v5h-1.46v-9.58h1.18l.24 1.32h.07a2.83 2.83 0 0 1 1.17-1.1 3.48 3.48 0 0 1 1.68-.4 2.86 2.86 0 0 1 2.95 1.64h.07a3.14 3.14 0 0 1 1.25-1.2 3.93 3.93 0 0 1 1.86-.44 3.26 3.26 0 0 1 2.45.84 3.78 3.78 0 0 1 .81 2.69v6.28zm10.42 0l-.29-1.32h-.07a4.22 4.22 0 0 1-1.43 1.23 4.48 4.48 0 0 1-1.79.32 3.23 3.23 0 0 1-2.25-.74 2.69 2.69 0 0 1-.81-2.1c0-2 1.55-3 4.67-3.06h1.63V93a2.44 2.44 0 0 0-.49-1.68 2 2 0 0 0-1.56-.54 6.37 6.37 0 0 0-2.72.74l-.45-1.11a6.76 6.76 0 0 1 1.56-.61 6.61 6.61 0 0 1 1.7-.22 3.7 3.7 0 0 1 2.55.76 3.18 3.18 0 0 1 .83 2.46v6.57zm-3.29-1a3 3 0 0 0 2.14-.74 2.78 2.78 0 0 0 .78-2.1v-.87l-1.46.07a5.28 5.28 0 0 0-2.51.54 1.61 1.61 0 0 0-.77 1.49 1.51 1.51 0 0 0 .48 1.2 2 2 0 0 0 1.34.38zm10.49-.03a6 6 0 0 0 .75-.05 5.41 5.41 0 0 0 .57-.12v1.11a2.53 2.53 0 0 1-.7.19 5.26 5.26 0 0 1-.83.08c-1.86 0-2.79-1-2.79-3v-5.68h-1.38v-.7l1.38-.61.61-2.05h.85v2.23h2.79v1.13h-2.79v5.67a1.94 1.94 0 0 0 .41 1.34 1.42 1.42 0 0 0 1.13.46zm3.12-11.21a1 1 0 0 1 .25-.74.87.87 0 0 1 .61-.23.85.85 0 0 1 .61.24 1.19 1.19 0 0 1 0 1.46.85.85 0 0 1-.61.24.84.84 0 0 1-.61-.24 1 1 0 0 1-.25-.73zm1.58 12.24h-1.45v-9.63h1.45zm6.95.18a4.1 4.1 0 0 1-3.27-1.29 5.26 5.26 0 0 1-1.15-3.64 5.46 5.46 0 0 1 1.17-3.74 4.17 4.17 0 0 1 3.31-1.32 6.5 6.5 0 0 1 1.39.15 4.65 4.65 0 0 1 1.09.35l-.45 1.24a7.21 7.21 0 0 0-1.05-.32 5.08 5.08 0 0 0-1-.13q-2.94 0-2.94 3.75a4.43 4.43 0 0 0 .72 2.72 2.47 2.47 0 0 0 2.12 1 6.37 6.37 0 0 0 2.47-.52V99a5.28 5.28 0 0 1-2.41.5zm10.93-2.81a2.42 2.42 0 0 1-1 2.08 4.77 4.77 0 0 1-2.81.73 6.15 6.15 0 0 1-3-.61v-1.35a7.14 7.14 0 0 0 1.49.55 6 6 0 0 0 1.53.2 3.53 3.53 0 0 0 1.76-.36 1.2 1.2 0 0 0 .61-1.11 1.23 1.23 0 0 0-.48-1 7.88 7.88 0 0 0-1.91-.94 10.17 10.17 0 0 1-1.91-.88 2.49 2.49 0 0 1-.84-.84 2.34 2.34 0 0 1 .68-3 4.49 4.49 0 0 1 2.63-.68 7.54 7.54 0 0 1 3 .64l-.52 1.18a7 7 0 0 0-2.63-.6 3 3 0 0 0-1.56.33 1 1 0 0 0-.53.9 1.14 1.14 0 0 0 .2.66 1.84 1.84 0 0 0 .64.51 12.59 12.59 0 0 0 1.68.72 6.2 6.2 0 0 1 2.32 1.25 2.21 2.21 0 0 1 .65 1.62zm11.22 2.63h-1.49V87.8h-4.07v-1.33h9.63v1.33h-4.07zm9.86.18a4.44 4.44 0 0 1-3.37-1.3 5 5 0 0 1-1.24-3.62 5.57 5.57 0 0 1 1.15-3.7 3.81 3.81 0 0 1 3.08-1.37 3.63 3.63 0 0 1 2.86 1.19 4.55 4.55 0 0 1 1.06 3.15v.92h-6.64a3.81 3.81 0 0 0 .86 2.57 3 3 0 0 0 2.29.88 7.68 7.68 0 0 0 3.08-.65v1.3a7 7 0 0 1-1.47.48 7.91 7.91 0 0 1-1.66.15zm-.4-8.77a2.4 2.4 0 0 0-1.85.76 3.46 3.46 0 0 0-.81 2.09h5a3.2 3.2 0 0 0-.61-2.11 2.17 2.17 0 0 0-1.73-.74zm10.28 8.77a4.1 4.1 0 0 1-3.24-1.29 5.26 5.26 0 0 1-1.15-3.64 5.46 5.46 0 0 1 1.17-3.74 4.17 4.17 0 0 1 3.31-1.32 6.5 6.5 0 0 1 1.39.15 4.82 4.82 0 0 1 1.09.35l-.45 1.24a7.21 7.21 0 0 0-1-.32 5.08 5.08 0 0 0-1-.13q-2.94 0-2.94 3.75a4.43 4.43 0 0 0 .72 2.72 2.47 2.47 0 0 0 2.12 1 6.41 6.41 0 0 0 2.47-.52V99a5.31 5.31 0 0 1-2.49.5zm11.31-.18v-6.23a2.51 2.51 0 0 0-.54-1.76 2.22 2.22 0 0 0-1.68-.58 2.77 2.77 0 0 0-2.22.83 4.22 4.22 0 0 0-.7 2.71v5h-1.45V85.65h1.45v4.14a8.42 8.42 0 0 1-.07 1.23h.09a3 3 0 0 1 1.23-1.09 3.92 3.92 0 0 1 1.81-.4 3.7 3.7 0 0 1 2.65.84 3.54 3.54 0 0 1 .89 2.67v6.28zm11.05 0v-6.23a2.51 2.51 0 0 0-.54-1.76 2.22 2.22 0 0 0-1.68-.58 2.73 2.73 0 0 0-2.21.82 4.1 4.1 0 0 0-.71 2.7v5h-1.46v-9.58h1.19l.24 1.32h.07a3 3 0 0 1 1.25-1.11 4.11 4.11 0 0 1 1.81-.39 3.67 3.67 0 0 1 2.62.84A3.61 3.61 0 0 1 454 93v6.28zm12.77-4.82a5.3 5.3 0 0 1-1.19 3.67 4.15 4.15 0 0 1-3.28 1.33 4.38 4.38 0 0 1-2.29-.61 3.93 3.93 0 0 1-1.53-1.74 6.12 6.12 0 0 1-.54-2.65 5.32 5.32 0 0 1 1.17-3.67 4.17 4.17 0 0 1 3.27-1.32 4.09 4.09 0 0 1 3.22 1.35 5.3 5.3 0 0 1 1.17 3.64zm-7.34 0a4.52 4.52 0 0 0 .74 2.81 2.91 2.91 0 0 0 4.34 0 4.5 4.5 0 0 0 .74-2.81 4.42 4.42 0 0 0-.74-2.79 3 3 0 0 0-4.35 0 4.51 4.51 0 0 0-.68 2.79zm11.35 4.82h-1.46V85.65h1.46zm11.41-4.82a5.25 5.25 0 0 1-1.19 3.67 4.14 4.14 0 0 1-3.27 1.33 4.39 4.39 0 0 1-2.3-.61 3.91 3.91 0 0 1-1.54-1.74 6 6 0 0 1-.55-2.65 5.27 5.27 0 0 1 1.14-3.67 4.14 4.14 0 0 1 3.27-1.32 4.05 4.05 0 0 1 3.21 1.35 5.3 5.3 0 0 1 1.23 3.64zm-7.34 0a4.59 4.59 0 0 0 .74 2.81 2.92 2.92 0 0 0 4.35 0 4.57 4.57 0 0 0 .74-2.81 4.49 4.49 0 0 0-.74-2.79 3 3 0 0 0-4.36 0 4.58 4.58 0 0 0-.73 2.79zm9.09.66v-1.33h4.32v1.33zm-157.1 16.13v.92l-1.78.21a3.38 3.38 0 0 1 .44.81 3.24 3.24 0 0 1 .19 1.12 2.85 2.85 0 0 1-1 2.26 3.9 3.9 0 0 1-2.65.84 4.14 4.14 0 0 1-.81-.07 1.44 1.44 0 0 0-.93 1.24.63.63 0 0 0 .32.58 2.34 2.34 0 0 0 1.12.19H322a3.82 3.82 0 0 1 2.41.66 2.3 2.3 0 0 1 .84 1.92 2.74 2.74 0 0 1-1.29 2.44 6.84 6.84 0 0 1-3.74.84 5.08 5.08 0 0 1-2.91-.71 2.26 2.26 0 0 1-1-2 2.23 2.23 0 0 1 .56-1.52 2.88 2.88 0 0 1 1.59-.87 1.56 1.56 0 0 1-.62-.52 1.37 1.37 0 0 1-.25-.82 1.52 1.52 0 0 1 .28-.92 2.91 2.91 0 0 1 .89-.77 2.55 2.55 0 0 1-1.22-1 3.14 3.14 0 0 1-.47-1.69 3.09 3.09 0 0 1 1-2.44 3.88 3.88 0 0 1 2.69-.86 4.76 4.76 0 0 1 1.36.18zm-7.68 11.25a1.31 1.31 0 0 0 .66 1.19 3.74 3.74 0 0 0 1.89.4 5.25 5.25 0 0 0 2.72-.55 1.68 1.68 0 0 0 .88-1.49 1.2 1.2 0 0 0-.48-1.09 3.79 3.79 0 0 0-1.82-.3h-1.75a2.3 2.3 0 0 0-1.55.48 1.68 1.68 0 0 0-.55 1.36zm.79-8.17a2 2 0 0 0 .57 1.53 2.26 2.26 0 0 0 1.59.52 1.86 1.86 0 0 0 2.14-2.07 1.91 1.91 0 0 0-2.16-2.17 2.15 2.15 0 0 0-1.59.55 2.23 2.23 0 0 0-.55 1.64zm8.74-5.69a1 1 0 0 1 .25-.74.9.9 0 0 1 .62-.23.85.85 0 0 1 .6.24 1.15 1.15 0 0 1 0 1.46.85.85 0 0 1-.6.24.86.86 0 0 1-.62-.24 1 1 0 0 1-.25-.73zm1.59 12.24h-1.46v-9.63h1.46zm7.2.18a4.45 4.45 0 0 1-3.37-1.3 5.06 5.06 0 0 1-1.24-3.62 5.63 5.63 0 0 1 1.15-3.7 3.83 3.83 0 0 1 3.08-1.37 3.66 3.66 0 0 1 2.87 1.19 4.61 4.61 0 0 1 1.05 3.15v.92h-6.63a3.81 3.81 0 0 0 .85 2.57 3 3 0 0 0 2.29.88 7.64 7.64 0 0 0 3.08-.65v1.3a6.9 6.9 0 0 1-1.46.48 8 8 0 0 1-1.67.15zm-.4-8.77a2.4 2.4 0 0 0-1.85.76 3.46 3.46 0 0 0-.81 2.09h5a3.2 3.2 0 0 0-.62-2.11 2.16 2.16 0 0 0-1.76-.74zm12.6 5.96a2.42 2.42 0 0 1-1 2.08 4.74 4.74 0 0 1-2.81.73 6.06 6.06 0 0 1-3-.61v-1.35a7.14 7.14 0 0 0 1.49.55 6 6 0 0 0 1.53.2 3.5 3.5 0 0 0 1.76-.36 1.21 1.21 0 0 0 .62-1.11 1.24 1.24 0 0 0-.49-1 8 8 0 0 0-1.9-.94 10 10 0 0 1-1.92-.88 2.69 2.69 0 0 1-.84-.84 2.29 2.29 0 0 1-.28-1.14 2.18 2.18 0 0 1 1-1.86 4.51 4.51 0 0 1 2.63-.68 7.54 7.54 0 0 1 3 .64l-.52 1.18a6.92 6.92 0 0 0-2.63-.6 3 3 0 0 0-1.56.33 1 1 0 0 0-.53.9 1.14 1.14 0 0 0 .2.66 1.84 1.84 0 0 0 .64.51 12.3 12.3 0 0 0 1.69.72 6.23 6.23 0 0 1 2.31 1.25 2.21 2.21 0 0 1 .61 1.62zm14.43 2.63h-7.16v-12.85h7.16v1.33H357v4.14h5.32v1.32H357v4.73h5.66zm8.85-2.63a2.42 2.42 0 0 1-1 2.08 4.72 4.72 0 0 1-2.81.73 6.06 6.06 0 0 1-3-.61v-1.35a7.36 7.36 0 0 0 1.49.55 6 6 0 0 0 1.54.2 3.56 3.56 0 0 0 1.76-.36 1.26 1.26 0 0 0 .12-2.08 7.76 7.76 0 0 0-1.9-.94 9.87 9.87 0 0 1-1.91-.88 2.62 2.62 0 0 1-.85-.84 2.29 2.29 0 0 1-.27-1.14 2.18 2.18 0 0 1 1-1.86 4.46 4.46 0 0 1 2.62-.68 7.54 7.54 0 0 1 3 .64l-.51 1.18a7 7 0 0 0-2.63-.6 3 3 0 0 0-1.57.33 1 1 0 0 0-.52.9 1.14 1.14 0 0 0 .19.66 2 2 0 0 0 .64.51 12.9 12.9 0 0 0 1.69.72 6.23 6.23 0 0 1 2.31 1.25 2.18 2.18 0 0 1 .61 1.59zm8.58 0a2.42 2.42 0 0 1-1 2.08 4.74 4.74 0 0 1-2.81.73 6.06 6.06 0 0 1-3-.61v-1.35a7.14 7.14 0 0 0 1.49.55 6 6 0 0 0 1.53.2 3.5 3.5 0 0 0 1.76-.36 1.21 1.21 0 0 0 .62-1.11 1.24 1.24 0 0 0-.49-1 8 8 0 0 0-1.9-.94 10 10 0 0 1-1.92-.88 2.69 2.69 0 0 1-.84-.84 2.29 2.29 0 0 1-.28-1.14 2.18 2.18 0 0 1 1-1.86 4.51 4.51 0 0 1 2.63-.68 7.54 7.54 0 0 1 3 .64l-.52 1.18a6.92 6.92 0 0 0-2.63-.6 3 3 0 0 0-1.56.33 1 1 0 0 0-.53.9 1.14 1.14 0 0 0 .2.66 1.94 1.94 0 0 0 .64.51 12.3 12.3 0 0 0 1.69.72 6.23 6.23 0 0 1 2.31 1.25 2.21 2.21 0 0 1 .61 1.62zm6.45 2.81a4.44 4.44 0 0 1-3.37-1.3 5 5 0 0 1-1.24-3.62 5.57 5.57 0 0 1 1.15-3.7 3.81 3.81 0 0 1 3.08-1.37 3.64 3.64 0 0 1 2.87 1.19 4.57 4.57 0 0 1 1.06 3.15v.92h-6.64a3.81 3.81 0 0 0 .86 2.57 2.94 2.94 0 0 0 2.29.88 7.6 7.6 0 0 0 3.07-.65v1.3a6.72 6.72 0 0 1-1.46.48 7.91 7.91 0 0 1-1.67.15zm-.4-8.77a2.4 2.4 0 0 0-1.85.76 3.46 3.46 0 0 0-.81 2.09h5a3.2 3.2 0 0 0-.61-2.11 2.17 2.17 0 0 0-1.73-.74zm13.02 8.59v-6.23a2.51 2.51 0 0 0-.54-1.76 2.22 2.22 0 0 0-1.68-.58 2.74 2.74 0 0 0-2.21.82 4.1 4.1 0 0 0-.71 2.7v5h-1.45v-9.63h1.18l.24 1.32h.04a3 3 0 0 1 1.26-1.11 4.1 4.1 0 0 1 1.8-.39 3.67 3.67 0 0 1 2.62.84 3.61 3.61 0 0 1 .88 2.69v6.28zm7.56-1.03a6 6 0 0 0 .75 0 5.41 5.41 0 0 0 .57-.12v1.11a2.53 2.53 0 0 1-.7.19 5.15 5.15 0 0 1-.83.08c-1.86 0-2.79-1-2.79-2.95v-5.73h-1.38v-.7l1.38-.61.61-2h.85v2.23h2.79v1.13h-2.79v5.67a2 2 0 0 0 .41 1.34 1.43 1.43 0 0 0 1.13.36zm3.12-11.21a1 1 0 0 1 .25-.74.88.88 0 0 1 .62-.23.85.85 0 0 1 .6.24 1.15 1.15 0 0 1 0 1.46.9.9 0 0 1-1.22 0 1 1 0 0 1-.25-.73zm1.59 12.24h-1.46v-9.63h1.46zm9.01 0l-.29-1.37h-.07a4.22 4.22 0 0 1-1.43 1.23 4.48 4.48 0 0 1-1.79.32 3.25 3.25 0 0 1-2.25-.74 2.69 2.69 0 0 1-.81-2.1q0-2.92 4.67-3.06h1.63v-.6a2.4 2.4 0 0 0-.49-1.67 2 2 0 0 0-1.56-.55 6.37 6.37 0 0 0-2.72.74l-.45-1.11a7.13 7.13 0 0 1 1.56-.61 6.61 6.61 0 0 1 1.7-.22 3.7 3.7 0 0 1 2.56.77 3.18 3.18 0 0 1 .83 2.45v6.57zm-3.29-1a3 3 0 0 0 2.14-.74 2.78 2.78 0 0 0 .78-2.1v-.87l-1.46.07a5.28 5.28 0 0 0-2.51.54 1.63 1.63 0 0 0-.77 1.49 1.51 1.51 0 0 0 .48 1.2 2 2 0 0 0 1.34.38zm8.88 1h-1.5v-13.67h1.5zm9.27-2.63a2.44 2.44 0 0 1-1 2.08 4.78 4.78 0 0 1-2.82.73 6.09 6.09 0 0 1-3-.61v-1.35a7.23 7.23 0 0 0 1.5.55 6 6 0 0 0 1.53.2 3.53 3.53 0 0 0 1.76-.36 1.26 1.26 0 0 0 .12-2.08 7.76 7.76 0 0 0-1.9-.94 9.87 9.87 0 0 1-1.91-.88 2.49 2.49 0 0 1-.84-.84 2.34 2.34 0 0 1 .68-3 4.48 4.48 0 0 1 2.62-.68 7.59 7.59 0 0 1 3.05.64l-.52 1.18a7 7 0 0 0-2.63-.6 3 3 0 0 0-1.57.33 1 1 0 0 0-.52.9 1.08 1.08 0 0 0 .2.66 1.89 1.89 0 0 0 .63.51 13.57 13.57 0 0 0 1.69.72 6.38 6.38 0 0 1 2.32 1.25 2.21 2.21 0 0 1 .61 1.59zm6.22-2.29a13.73 13.73 0 0 1 .68-4.36 10.92 10.92 0 0 1 2-3.56h1.42a12.29 12.29 0 0 0-1.9 3.73A13.65 13.65 0 0 0 443 116a13.5 13.5 0 0 0 .65 4.13 12.85 12.85 0 0 0 1.87 3.67h-1.4a10.24 10.24 0 0 1-2-3.49 13.3 13.3 0 0 1-.63-4.31zm6.37 4.92v-12.85h1.5v12.85zm8.98 0h-1.5V109.4h-4.07v-1.33h9.64v1.33h-4.07zm13.16 0h-7.16v-12.85H470v1.33h-5.67v4.14h5.33v1.32h-5.33v4.73H470zm5.69-4.92a13.38 13.38 0 0 1-.68 4.31 10.38 10.38 0 0 1-2 3.47h-1.4a12.72 12.72 0 0 0 1.87-3.67 13.5 13.5 0 0 0 .65-4.13 13.65 13.65 0 0 0-.64-4.17 12.29 12.29 0 0 0-1.9-3.73H473a10.88 10.88 0 0 1 2 3.57 13.76 13.76 0 0 1 .69 4.35z"/><path class="cls-5" d="M459.84 273.88h-1.49v-11.53h-4.07V261h9.63v1.32h-4.07zm9.85.17a4.43 4.43 0 0 1-3.37-1.3 5 5 0 0 1-1.23-3.61 5.59 5.59 0 0 1 1.14-3.7 3.81 3.81 0 0 1 3.08-1.37 3.61 3.61 0 0 1 2.87 1.19 4.57 4.57 0 0 1 1.05 3.14v.92h-6.63a3.81 3.81 0 0 0 .86 2.58 3 3 0 0 0 2.29.88 7.8 7.8 0 0 0 3.07-.65v1.3a8 8 0 0 1-1.46.48 8.83 8.83 0 0 1-1.67.14zm-.39-8.76a2.38 2.38 0 0 0-1.85.75 3.58 3.58 0 0 0-.82 2.1h5a3.23 3.23 0 0 0-.62-2.12 2.15 2.15 0 0 0-1.71-.73zm-1.08-2.54c.28-.37.58-.8.91-1.32a13.65 13.65 0 0 0 .76-1.35h1.78v.19a13.61 13.61 0 0 1-1.15 1.41 13.86 13.86 0 0 1-1.33 1.29h-1zm11.35 11.3a4.12 4.12 0 0 1-3.24-1.29 5.31 5.31 0 0 1-1.14-3.64 5.46 5.46 0 0 1 1.16-3.74 4.22 4.22 0 0 1 3.32-1.31 6.64 6.64 0 0 1 1.39.15 4.51 4.51 0 0 1 1.09.35l-.45 1.24a6.27 6.27 0 0 0-1.06-.32 4.37 4.37 0 0 0-1-.13q-2.92 0-2.93 3.74a4.53 4.53 0 0 0 .71 2.73 2.51 2.51 0 0 0 2.13.95 6.64 6.64 0 0 0 2.47-.52v1.29a5.35 5.35 0 0 1-2.45.5zm11.31-.17v-6.24a2.53 2.53 0 0 0-.53-1.75 2.18 2.18 0 0 0-1.68-.58 2.79 2.79 0 0 0-2.22.81 4.14 4.14 0 0 0-.7 2.7v5.06h-1.46v-9.64h1.19l.23 1.32h.08a2.92 2.92 0 0 1 1.25-1.1 4.1 4.1 0 0 1 1.8-.39 3.65 3.65 0 0 1 2.62.84 3.53 3.53 0 0 1 .88 2.68v6.29zm4.34-12.25a1 1 0 0 1 .24-.73.85.85 0 0 1 .62-.23.84.84 0 0 1 .6.23 1 1 0 0 1 .26.73 1 1 0 0 1-.26.74.85.85 0 0 1-.6.24.86.86 0 0 1-.62-.24 1 1 0 0 1-.24-.74zm1.58 12.25h-1.46v-9.64h1.46zm6.94.17a4.12 4.12 0 0 1-3.24-1.29 5.31 5.31 0 0 1-1.14-3.64 5.46 5.46 0 0 1 1.16-3.74 4.22 4.22 0 0 1 3.32-1.31 6.64 6.64 0 0 1 1.39.15 4.51 4.51 0 0 1 1.09.35l-.45 1.24a6.27 6.27 0 0 0-1.06-.32 4.37 4.37 0 0 0-1-.13q-2.93 0-2.93 3.74a4.53 4.53 0 0 0 .71 2.73 2.51 2.51 0 0 0 2.13.95 6.64 6.64 0 0 0 2.47-.52v1.29a5.35 5.35 0 0 1-2.45.5zm13.04-5a5.32 5.32 0 0 1-1.19 3.68 4.18 4.18 0 0 1-3.28 1.32 4.26 4.26 0 0 1-2.29-.61 3.93 3.93 0 0 1-1.55-1.74 6.09 6.09 0 0 1-.55-2.65 5.34 5.34 0 0 1 1.18-3.67 4.16 4.16 0 0 1 3.27-1.31 4 4 0 0 1 3.21 1.34 5.27 5.27 0 0 1 1.2 3.64zm-7.34 0a4.57 4.57 0 0 0 .73 2.81 2.93 2.93 0 0 0 4.35 0 4.54 4.54 0 0 0 .74-2.82 4.44 4.44 0 0 0-.74-2.79 2.59 2.59 0 0 0-2.19-.95 2.54 2.54 0 0 0-2.16.94 4.48 4.48 0 0 0-.73 2.81zm22.94-4.28a3.6 3.6 0 0 1-1.34 3 6 6 0 0 1-3.81 1.05h-1.51v5.06h-1.49V261h3.33c3.21 0 4.82 1.27 4.82 3.77zm-6.66 2.77h1.35a5.05 5.05 0 0 0 2.87-.64 2.38 2.38 0 0 0 .89-2.06 2.22 2.22 0 0 0-.84-1.9 4.38 4.38 0 0 0-2.6-.62h-1.67zm13.52-3.47a5.73 5.73 0 0 1 1.15.1l-.2 1.36a4.91 4.91 0 0 0-1.06-.14 2.57 2.57 0 0 0-2 .95 3.45 3.45 0 0 0-.84 2.37v5.17h-1.45v-9.64h1.2l.17 1.79h.07a4.17 4.17 0 0 1 1.29-1.45 2.9 2.9 0 0 1 1.67-.51zm11.27 4.98a5.32 5.32 0 0 1-1.19 3.68 4.18 4.18 0 0 1-3.28 1.32 4.29 4.29 0 0 1-2.29-.61 4 4 0 0 1-1.55-1.74 6.09 6.09 0 0 1-.54-2.65 5.34 5.34 0 0 1 1.17-3.67 4.16 4.16 0 0 1 3.27-1.31 4.08 4.08 0 0 1 3.22 1.34 5.32 5.32 0 0 1 1.19 3.64zm-7.34 0a4.57 4.57 0 0 0 .74 2.81 2.54 2.54 0 0 0 2.17 1 2.57 2.57 0 0 0 2.17-1 4.54 4.54 0 0 0 .75-2.82 4.44 4.44 0 0 0-.75-2.79 2.58 2.58 0 0 0-2.19-.95 2.55 2.55 0 0 0-2.16.94 4.48 4.48 0 0 0-.73 2.81zm14.24-3.67H555v8.5h-1.5v-8.5h-1.73v-.66l1.73-.53v-.54c0-2.36 1-3.55 3.1-3.55a6.53 6.53 0 0 1 1.79.31l-.38 1.17a4.84 4.84 0 0 0-1.44-.27 1.39 1.39 0 0 0-1.22.55 3.08 3.08 0 0 0-.39 1.76v.62h2.45zm5.82 8.67a4.43 4.43 0 0 1-3.37-1.3 5 5 0 0 1-1.23-3.61 5.54 5.54 0 0 1 1.15-3.7 3.78 3.78 0 0 1 3.08-1.37 3.61 3.61 0 0 1 2.86 1.19 4.57 4.57 0 0 1 1.06 3.14v.92h-6.64a3.86 3.86 0 0 0 .86 2.58 3 3 0 0 0 2.29.88 7.8 7.8 0 0 0 3.07-.65v1.3a8 8 0 0 1-1.46.48 8.83 8.83 0 0 1-1.67.14zm-.39-8.76a2.4 2.4 0 0 0-1.84.71 3.51 3.51 0 0 0-.81 2.1h5a3.23 3.23 0 0 0-.61-2.12 2.17 2.17 0 0 0-1.74-.69zm12.64 5.96a2.44 2.44 0 0 1-1 2.07 4.71 4.71 0 0 1-2.82.73 6.09 6.09 0 0 1-3-.61v-1.35a6.7 6.7 0 0 0 1.5.55 6 6 0 0 0 1.53.21 3.52 3.52 0 0 0 1.76-.37 1.25 1.25 0 0 0 .12-2.07 7.69 7.69 0 0 0-1.9-1 10 10 0 0 1-1.91-.87 2.51 2.51 0 0 1-.84-.85 2.33 2.33 0 0 1 .68-3 4.4 4.4 0 0 1 2.62-.68 7.75 7.75 0 0 1 3 .63l-.52 1.19a7 7 0 0 0-2.63-.6 3.15 3.15 0 0 0-1.57.32 1 1 0 0 0-.52.9 1 1 0 0 0 .2.66 2 2 0 0 0 .63.52 15.9 15.9 0 0 0 1.69.71 6.36 6.36 0 0 1 2.32 1.26 2.21 2.21 0 0 1 .66 1.65zm2.25-9.62a1 1 0 0 1 .24-.73.94.94 0 0 1 1.23 0 1 1 0 0 1 .25.73 1 1 0 0 1-.25.74.87.87 0 0 1-.61.24.86.86 0 0 1-.62-.24 1 1 0 0 1-.24-.74zm1.58 12.25h-1.46v-9.64h1.46zm11.41-4.83a5.32 5.32 0 0 1-1.19 3.68 4.18 4.18 0 0 1-3.28 1.32 4.29 4.29 0 0 1-2.29-.61 4 4 0 0 1-1.55-1.74 6.09 6.09 0 0 1-.54-2.65 5.34 5.34 0 0 1 1.17-3.67 4.16 4.16 0 0 1 3.27-1.31 4.08 4.08 0 0 1 3.22 1.34 5.32 5.32 0 0 1 1.19 3.64zm-7.34 0a4.57 4.57 0 0 0 .74 2.81 2.54 2.54 0 0 0 2.17 1 2.57 2.57 0 0 0 2.17-1 4.54 4.54 0 0 0 .75-2.82 4.44 4.44 0 0 0-.75-2.79 2.58 2.58 0 0 0-2.19-.95 2.55 2.55 0 0 0-2.16.94 4.48 4.48 0 0 0-.73 2.81zm16.49 4.83v-6.24a2.48 2.48 0 0 0-.54-1.75 2.18 2.18 0 0 0-1.68-.58 2.77 2.77 0 0 0-2.21.81 4.14 4.14 0 0 0-.71 2.7v5.06h-1.45v-9.64h1.18l.24 1.32h.07a3 3 0 0 1 1.26-1.1 4.1 4.1 0 0 1 1.8-.39 3.67 3.67 0 0 1 2.62.84 3.57 3.57 0 0 1 .88 2.68v6.29zm10.38 0l-.25-1.38h-.07a4 4 0 0 1-1.44 1.23 4.44 4.44 0 0 1-1.79.32 3.22 3.22 0 0 1-2.24-.74 2.66 2.66 0 0 1-.82-2.1q0-2.91 4.67-3.06h1.63v-.6a2.47 2.47 0 0 0-.48-1.67 2 2 0 0 0-1.56-.54 6.27 6.27 0 0 0-2.73.74l-.45-1.12a7 7 0 0 1 3.26-.83 3.7 3.7 0 0 1 2.56.77 3.21 3.21 0 0 1 .83 2.45v6.58zm-3.3-1a3 3 0 0 0 2.14-.75 2.77 2.77 0 0 0 .78-2.09v-.87l-1.46.06a5.28 5.28 0 0 0-2.51.54 1.64 1.64 0 0 0-.77 1.49 1.48 1.48 0 0 0 .48 1.2 2 2 0 0 0 1.39.39zm8.84 1h-1.46V260.2h1.46zm-139.54 21.77a4.41 4.41 0 0 1-3.37-1.3 5.05 5.05 0 0 1-1.24-3.61 5.59 5.59 0 0 1 1.15-3.7 3.8 3.8 0 0 1 3.08-1.37 3.63 3.63 0 0 1 2.87 1.19 4.57 4.57 0 0 1 1.05 3.14v.92h-6.63a3.8 3.8 0 0 0 .85 2.58 3 3 0 0 0 2.29.88 7.85 7.85 0 0 0 3.08-.65V295a8.27 8.27 0 0 1-1.46.48 8.83 8.83 0 0 1-1.67.17zm-.4-8.76a2.4 2.4 0 0 0-1.85.75 3.49 3.49 0 0 0-.81 2.1h5a3.23 3.23 0 0 0-.62-2.12 2.15 2.15 0 0 0-1.72-.73zm13.02 8.58v-6.23a2.48 2.48 0 0 0-.54-1.75 2.14 2.14 0 0 0-1.67-.58 2.79 2.79 0 0 0-2.22.81 4.14 4.14 0 0 0-.7 2.7v5.05h-1.46v-9.63h1.18l.24 1.32h.07a3 3 0 0 1 1.26-1.1 4.1 4.1 0 0 1 1.8-.39 3.67 3.67 0 0 1 2.62.84 3.54 3.54 0 0 1 .88 2.68v6.28zm9.35 0v-12.84h1.5v12.84zm11.39 0v-6.23a2.53 2.53 0 0 0-.53-1.75 2.18 2.18 0 0 0-1.68-.58 2.79 2.79 0 0 0-2.22.81 4.14 4.14 0 0 0-.7 2.7v5.05H503v-9.63h1.19l.23 1.32h.07a3 3 0 0 1 1.26-1.1 4.1 4.1 0 0 1 1.8-.39 3.65 3.65 0 0 1 2.62.84 3.54 3.54 0 0 1 .88 2.68v6.28zm10.67-2.62a2.41 2.41 0 0 1-1 2.07 4.69 4.69 0 0 1-2.81.73 6 6 0 0 1-3-.61v-1.35a7.14 7.14 0 0 0 1.49.55 6 6 0 0 0 1.53.21 3.42 3.42 0 0 0 1.76-.37 1.25 1.25 0 0 0 .13-2.07 7.88 7.88 0 0 0-1.9-.95 10.14 10.14 0 0 1-1.92-.87 2.71 2.71 0 0 1-.84-.85 2.25 2.25 0 0 1-.28-1.13 2.15 2.15 0 0 1 1-1.86 4.44 4.44 0 0 1 2.63-.68 7.7 7.7 0 0 1 3 .63l-.52 1.19a7 7 0 0 0-2.63-.6 3.08 3.08 0 0 0-1.56.32 1 1 0 0 0-.53.9 1.1 1.1 0 0 0 .2.66 2 2 0 0 0 .64.52 14.6 14.6 0 0 0 1.68.71 6.19 6.19 0 0 1 2.32 1.26 2.21 2.21 0 0 1 .61 1.59zm5.49 1.6a4.52 4.52 0 0 0 .74-.06 5.41 5.41 0 0 0 .57-.12v1.12a2.84 2.84 0 0 1-.69.19 5.25 5.25 0 0 1-.83.07c-1.87 0-2.8-1-2.8-2.94V287h-1.38v-.71l1.38-.6.62-2.06h.84v2.23H527V287h-2.79v5.66a2 2 0 0 0 .41 1.34 1.46 1.46 0 0 0 1.15.45zm9.16 1.02l-.29-1.37h-.07a4 4 0 0 1-1.43 1.23 4.48 4.48 0 0 1-1.79.32 3.23 3.23 0 0 1-2.25-.74 2.69 2.69 0 0 1-.81-2.1c0-1.94 1.55-3 4.67-3.06l1.63-.05v-.6a2.42 2.42 0 0 0-.49-1.67 2 2 0 0 0-1.56-.54 6.23 6.23 0 0 0-2.72.74l-.45-1.12a6.94 6.94 0 0 1 1.56-.61 7.08 7.08 0 0 1 1.7-.22 3.65 3.65 0 0 1 2.55.77 3.17 3.17 0 0 1 .83 2.45v6.57zm-3.29-1a3 3 0 0 0 2.14-.75 2.77 2.77 0 0 0 .78-2.09v-.87l-1.46.06a5.28 5.28 0 0 0-2.51.54 1.64 1.64 0 0 0-.77 1.49 1.48 1.48 0 0 0 .48 1.2 2 2 0 0 0 1.34.4zm8.84 1H539V281.8h1.46zm9.02 0l-.29-1.37h-.07a4 4 0 0 1-1.44 1.23 4.44 4.44 0 0 1-1.79.32 3.22 3.22 0 0 1-2.24-.74 2.66 2.66 0 0 1-.82-2.1q0-2.91 4.67-3.06l1.63-.05v-.6a2.47 2.47 0 0 0-.48-1.67 2 2 0 0 0-1.56-.54 6.27 6.27 0 0 0-2.73.74l-.45-1.12a7 7 0 0 1 3.26-.83 3.7 3.7 0 0 1 2.56.77 3.21 3.21 0 0 1 .83 2.45v6.57zm-3.3-1a3 3 0 0 0 2.14-.75 2.77 2.77 0 0 0 .78-2.09v-.87l-1.46.06a5.28 5.28 0 0 0-2.51.54 1.64 1.64 0 0 0-.77 1.49 1.48 1.48 0 0 0 .48 1.2 2 2 0 0 0 1.34.4zm11.23 1.18a4.09 4.09 0 0 1-3.23-1.29 5.26 5.26 0 0 1-1.15-3.64 5.51 5.51 0 0 1 1.16-3.74 4.22 4.22 0 0 1 3.32-1.31 6.57 6.57 0 0 1 1.39.15 4.36 4.36 0 0 1 1.09.35l-.45 1.24a6.16 6.16 0 0 0-1-.32 4.43 4.43 0 0 0-1-.13q-2.94 0-2.94 3.74a4.46 4.46 0 0 0 .72 2.73 2.48 2.48 0 0 0 2.12.95 6.64 6.64 0 0 0 2.47-.52v1.29a5.35 5.35 0 0 1-2.5.5zm4.57-12.42a.94.94 0 0 1 .25-.73.84.84 0 0 1 .61-.24.85.85 0 0 1 .61.24 1 1 0 0 1 .25.73 1 1 0 0 1-.25.74.85.85 0 0 1-.61.24.84.84 0 0 1-.61-.24 1 1 0 0 1-.25-.74zm1.58 12.24h-1.46v-9.63h1.46zm11.42-4.82a5.27 5.27 0 0 1-1.19 3.68 4.17 4.17 0 0 1-3.27 1.32 4.3 4.3 0 0 1-2.3-.61 4 4 0 0 1-1.55-1.74 6.09 6.09 0 0 1-.54-2.65 5.29 5.29 0 0 1 1.18-3.67 4.14 4.14 0 0 1 3.27-1.31 4.06 4.06 0 0 1 3.21 1.34 5.32 5.32 0 0 1 1.19 3.64zm-7.34 0a4.57 4.57 0 0 0 .74 2.81 2.55 2.55 0 0 0 2.17 1 2.59 2.59 0 0 0 2.18-1 4.58 4.58 0 0 0 .74-2.82 4.51 4.51 0 0 0-.74-2.79 2.61 2.61 0 0 0-2.2-.95 2.57 2.57 0 0 0-2.16.94 4.48 4.48 0 0 0-.71 2.81zm1.69-6.3c.28-.37.58-.81.91-1.32s.58-1 .77-1.35h1.77v.19a12.4 12.4 0 0 1-1.15 1.41 13.86 13.86 0 0 1-1.33 1.29h-1zm14.82 11.12v-6.23a2.48 2.48 0 0 0-.54-1.75 2.14 2.14 0 0 0-1.67-.58 2.79 2.79 0 0 0-2.22.81 4.14 4.14 0 0 0-.7 2.7v5.05h-1.46v-9.63h1.18l.24 1.32h.07a3 3 0 0 1 1.26-1.1 4.1 4.1 0 0 1 1.8-.39 3.67 3.67 0 0 1 2.62.84 3.54 3.54 0 0 1 .88 2.68v6.28zm7.6-9.63h1.57l2.11 5.49a21.22 21.22 0 0 1 .86 2.72h.07q.11-.45.48-1.53c.24-.73 1-2.95 2.38-6.68h1.57l-4.14 11a5.53 5.53 0 0 1-1.44 2.31 3.08 3.08 0 0 1-2 .68 5.79 5.79 0 0 1-1.31-.15v-1.17a5.05 5.05 0 0 0 1.08.11 2.24 2.24 0 0 0 2.14-1.69l.54-1.37zm-126.02 31.24l-4.35-11.4h-.07c.08.91.12 2 .12 3.22v8.18h-1.38v-12.85h2.25l4.07 10.6h.07l4.1-10.6h2.23v12.85h-1.49v-8.28c0-.95 0-2 .12-3.1h-.07L467 317.08zm16.25 0l-.29-1.38h-.07a4 4 0 0 1-1.43 1.23 4.48 4.48 0 0 1-1.79.32 3.23 3.23 0 0 1-2.25-.74 2.69 2.69 0 0 1-.81-2.1c0-1.94 1.55-3 4.67-3.06l1.63-.05v-.6a2.42 2.42 0 0 0-.49-1.67 2 2 0 0 0-1.56-.54 6.23 6.23 0 0 0-2.72.74l-.45-1.12a6.94 6.94 0 0 1 1.56-.61 7.08 7.08 0 0 1 1.7-.22 3.65 3.65 0 0 1 2.55.77 3.17 3.17 0 0 1 .83 2.45v6.58zm-3.29-1a3 3 0 0 0 2.14-.75 2.77 2.77 0 0 0 .78-2.09v-.87l-1.46.06a5.28 5.28 0 0 0-2.51.54 1.64 1.64 0 0 0-.77 1.49 1.48 1.48 0 0 0 .48 1.2 2 2 0 0 0 1.36.39zm13.99 1v-6.24a2.53 2.53 0 0 0-.53-1.75 2.18 2.18 0 0 0-1.68-.58 2.79 2.79 0 0 0-2.22.81 4.14 4.14 0 0 0-.7 2.7v5.06h-1.46v-9.64h1.19l.23 1.32h.07a3 3 0 0 1 1.26-1.1 4.1 4.1 0 0 1 1.8-.39 3.65 3.65 0 0 1 2.62.84 3.54 3.54 0 0 1 .88 2.68v6.29zm7.57-1.03a4.56 4.56 0 0 0 .73-.05 5.41 5.41 0 0 0 .57-.12V317a2.94 2.94 0 0 1-.7.19 5.25 5.25 0 0 1-.83.07c-1.86 0-2.8-1-2.8-2.94v-5.73h-1.38v-.71l1.38-.6.62-2.06h.84v2.23h2.8v1.14h-2.8v5.67a1.91 1.91 0 0 0 .42 1.33 1.43 1.43 0 0 0 1.15.46zm7.31 1.2a4.43 4.43 0 0 1-3.37-1.3 5 5 0 0 1-1.23-3.61 5.6 5.6 0 0 1 1.14-3.7 3.81 3.81 0 0 1 3.08-1.37 3.61 3.61 0 0 1 2.87 1.19 4.57 4.57 0 0 1 1.05 3.14v.92h-6.63a3.81 3.81 0 0 0 .86 2.58 3 3 0 0 0 2.28.88 7.82 7.82 0 0 0 3.08-.65v1.3a8 8 0 0 1-1.46.48 8.83 8.83 0 0 1-1.67.14zm-.39-8.76a2.38 2.38 0 0 0-1.85.75 3.58 3.58 0 0 0-.82 2.1h5a3.23 3.23 0 0 0-.62-2.12 2.15 2.15 0 0 0-1.71-.73zm13.01 8.59v-6.24a2.53 2.53 0 0 0-.53-1.75 2.18 2.18 0 0 0-1.68-.58 2.79 2.79 0 0 0-2.22.81 4.14 4.14 0 0 0-.7 2.7v5.06h-1.46v-9.64h1.19l.24 1.32h.07a2.92 2.92 0 0 1 1.25-1.1 4.1 4.1 0 0 1 1.8-.39 3.65 3.65 0 0 1 2.62.84 3.54 3.54 0 0 1 .88 2.68v6.29zm4.34-12.25a1 1 0 0 1 .24-.73.85.85 0 0 1 .62-.23.84.84 0 0 1 .6.23 1 1 0 0 1 .26.73 1 1 0 0 1-.26.74.85.85 0 0 1-.6.24.86.86 0 0 1-.62-.24 1 1 0 0 1-.24-.74zm1.58 12.25h-1.46v-9.64h1.46zm15.37 0v-6.27a2.59 2.59 0 0 0-.49-1.73 1.92 1.92 0 0 0-1.53-.57 2.46 2.46 0 0 0-2 .78 3.67 3.67 0 0 0-.65 2.41v5.38h-1.46v-6.27a2.59 2.59 0 0 0-.5-1.73 1.91 1.91 0 0 0-1.53-.57 2.37 2.37 0 0 0-2 .82 4.4 4.4 0 0 0-.64 2.69v5.06h-1.46v-9.64h1.19l.24 1.32h.07a2.86 2.86 0 0 1 1.16-1.1 3.59 3.59 0 0 1 1.68-.39 2.87 2.87 0 0 1 3 1.63h.07a3 3 0 0 1 1.25-1.19 3.76 3.76 0 0 1 1.86-.44 3.28 3.28 0 0 1 2.45.84 3.75 3.75 0 0 1 .81 2.68v6.29zm4.34-12.25a.94.94 0 0 1 .25-.73.83.83 0 0 1 .61-.23.84.84 0 0 1 .61.23 1 1 0 0 1 .25.73 1 1 0 0 1-.25.74.85.85 0 0 1-.61.24.84.84 0 0 1-.61-.24 1 1 0 0 1-.25-.74zm1.58 12.25H546v-9.64h1.45zm7.17.17a4.4 4.4 0 0 1-3.37-1.3 5 5 0 0 1-1.24-3.61 5.55 5.55 0 0 1 1.15-3.7 3.78 3.78 0 0 1 3.08-1.37 3.59 3.59 0 0 1 2.86 1.19 4.52 4.52 0 0 1 1.06 3.14v.92h-6.64a3.86 3.86 0 0 0 .86 2.58 3 3 0 0 0 2.29.88 7.85 7.85 0 0 0 3.08-.65v1.3a8.35 8.35 0 0 1-1.47.48 8.72 8.72 0 0 1-1.66.14zm-.4-8.76a2.4 2.4 0 0 0-1.85.75 3.51 3.51 0 0 0-.81 2.1h5a3.23 3.23 0 0 0-.61-2.12 2.17 2.17 0 0 0-1.73-.73zm13.02 8.59v-6.24a2.48 2.48 0 0 0-.54-1.75 2.17 2.17 0 0 0-1.68-.58 2.78 2.78 0 0 0-2.21.81 4.14 4.14 0 0 0-.7 2.7v5.06h-1.46v-9.64h1.18l.24 1.32h.07a3 3 0 0 1 1.26-1.1 4.1 4.1 0 0 1 1.8-.39 3.67 3.67 0 0 1 2.62.84 3.58 3.58 0 0 1 .88 2.68v6.29zm7.57-1.03a4.52 4.52 0 0 0 .74-.06 5.41 5.41 0 0 0 .57-.12V317a2.84 2.84 0 0 1-.69.19 5.27 5.27 0 0 1-.84.07q-2.79 0-2.79-2.94v-5.73h-1.38v-.71l1.38-.6.62-2.06h.84v2.23H576v1.14h-2.79v5.67a2 2 0 0 0 .41 1.33 1.46 1.46 0 0 0 1.15.46zm11.55-3.8a5.32 5.32 0 0 1-1.18 3.68 4.19 4.19 0 0 1-3.28 1.32 4.32 4.32 0 0 1-2.3-.61 4 4 0 0 1-1.56-1.74 6 6 0 0 1-.55-2.65 5.34 5.34 0 0 1 1.18-3.67 4.16 4.16 0 0 1 3.27-1.31 4 4 0 0 1 3.21 1.34 5.27 5.27 0 0 1 1.21 3.64zm-7.34 0a4.57 4.57 0 0 0 .74 2.81 2.55 2.55 0 0 0 2.17 1 2.59 2.59 0 0 0 2.18-1 4.6 4.6 0 0 0 .74-2.82 4.51 4.51 0 0 0-.74-2.79 2.6 2.6 0 0 0-2.19-.95 2.57 2.57 0 0 0-2.17.94 4.55 4.55 0 0 0-.71 2.81zm18.65 5a4.4 4.4 0 0 1-3.37-1.3 5 5 0 0 1-1.24-3.61 5.55 5.55 0 0 1 1.15-3.7 3.78 3.78 0 0 1 3.08-1.37 3.59 3.59 0 0 1 2.86 1.19 4.52 4.52 0 0 1 1.06 3.14v.92h-6.64a3.86 3.86 0 0 0 .86 2.58 3 3 0 0 0 2.29.88 7.77 7.77 0 0 0 3.07-.65v1.3a8 8 0 0 1-1.46.48 8.72 8.72 0 0 1-1.66.14zm-.4-8.76a2.4 2.4 0 0 0-1.85.75 3.51 3.51 0 0 0-.81 2.1h5a3.23 3.23 0 0 0-.61-2.12 2.17 2.17 0 0 0-1.73-.73zm13.02 8.59v-6.24a2.48 2.48 0 0 0-.54-1.75 2.18 2.18 0 0 0-1.68-.58 2.77 2.77 0 0 0-2.21.81 4.14 4.14 0 0 0-.71 2.7v5.06h-1.45v-9.64h1.18l.24 1.32h.07a3 3 0 0 1 1.26-1.1 4.1 4.1 0 0 1 1.8-.39 3.67 3.67 0 0 1 2.62.84 3.58 3.58 0 0 1 .88 2.68v6.29zm-155.84 16.25v5.34h-1.49v-12.84h3.52a5.6 5.6 0 0 1 3.5.9 3.29 3.29 0 0 1 1.13 2.73 3.41 3.41 0 0 1-2.59 3.44l3.49 5.77h-1.76l-3.12-5.34zm0-1.28h2a3.52 3.52 0 0 0 2.32-.63 2.36 2.36 0 0 0 .74-1.89 2.13 2.13 0 0 0-.75-1.83 4 4 0 0 0-2.41-.57h-1.95zm13.49 6.8a4.44 4.44 0 0 1-3.38-1.3 5 5 0 0 1-1.23-3.61 5.54 5.54 0 0 1 1.15-3.7 3.78 3.78 0 0 1 3.08-1.37 3.61 3.61 0 0 1 2.86 1.19 4.52 4.52 0 0 1 1.06 3.14v.92h-6.64a3.86 3.86 0 0 0 .86 2.58 3 3 0 0 0 2.29.88 7.77 7.77 0 0 0 3.07-.65v1.3a8 8 0 0 1-1.46.48 8.72 8.72 0 0 1-1.66.14zm-.4-8.76a2.4 2.4 0 0 0-1.85.75 3.49 3.49 0 0 0-.81 2.1h5a3.23 3.23 0 0 0-.61-2.12 2.17 2.17 0 0 0-1.73-.73zm12.98 7.29h-.08a3.42 3.42 0 0 1-3 1.47 3.58 3.58 0 0 1-2.94-1.29 5.7 5.7 0 0 1-1.05-3.68 5.82 5.82 0 0 1 1.05-3.7 3.59 3.59 0 0 1 2.94-1.31 3.47 3.47 0 0 1 3 1.42h.12l-.06-.69V325h1.46v13.67h-1.19zm-2.92.25a2.67 2.67 0 0 0 2.17-.81 4.13 4.13 0 0 0 .67-2.63v-.31a4.88 4.88 0 0 0-.68-2.92 2.58 2.58 0 0 0-2.17-.87 2.24 2.24 0 0 0-2 1 5 5 0 0 0-.68 2.81 4.78 4.78 0 0 0 .68 2.79 2.28 2.28 0 0 0 2.01.94zm11.44 1.22a4.43 4.43 0 0 1-3.37-1.3 5 5 0 0 1-1.23-3.61 5.54 5.54 0 0 1 1.15-3.7 3.78 3.78 0 0 1 3.08-1.37 3.61 3.61 0 0 1 2.86 1.19 4.57 4.57 0 0 1 1.06 3.14v.92h-6.64a3.86 3.86 0 0 0 .86 2.58 3 3 0 0 0 2.29.88 7.8 7.8 0 0 0 3.07-.65v1.3a8 8 0 0 1-1.46.48 8.83 8.83 0 0 1-1.67.14zm-.39-8.76a2.4 2.4 0 0 0-1.85.75 3.49 3.49 0 0 0-.81 2.1h5a3.23 3.23 0 0 0-.61-2.12 2.17 2.17 0 0 0-1.71-.73zm12.66 5.96a2.44 2.44 0 0 1-1 2.07 4.71 4.71 0 0 1-2.82.73 6.09 6.09 0 0 1-3-.61v-1.35a6.81 6.81 0 0 0 1.49.55 6.06 6.06 0 0 0 1.54.21 3.42 3.42 0 0 0 1.76-.37 1.19 1.19 0 0 0 .61-1.11 1.18 1.18 0 0 0-.49-1 7.69 7.69 0 0 0-1.9-.95 10 10 0 0 1-1.91-.87 2.65 2.65 0 0 1-.85-.85 2.25 2.25 0 0 1-.27-1.13 2.15 2.15 0 0 1 1-1.86 4.4 4.4 0 0 1 2.62-.68 7.75 7.75 0 0 1 3.05.63l-.52 1.19a7 7 0 0 0-2.63-.6 3.15 3.15 0 0 0-1.57.32 1 1 0 0 0-.52.9 1.09 1.09 0 0 0 .19.66 2.21 2.21 0 0 0 .64.52 15.9 15.9 0 0 0 1.69.71 6.36 6.36 0 0 1 2.32 1.26 2.21 2.21 0 0 1 .57 1.63zm13.6 1.33h-.08a3.42 3.42 0 0 1-3 1.47 3.58 3.58 0 0 1-2.94-1.29 5.7 5.7 0 0 1-1.05-3.68 5.82 5.82 0 0 1 1.05-3.7 3.59 3.59 0 0 1 2.94-1.31 3.5 3.5 0 0 1 3 1.42h.11l-.06-.69V325h1.46v13.67h-1.18zm-2.91.25a2.66 2.66 0 0 0 2.16-.81 4.13 4.13 0 0 0 .67-2.63v-.31a4.81 4.81 0 0 0-.68-2.92 2.58 2.58 0 0 0-2.17-.87 2.24 2.24 0 0 0-2 1 5 5 0 0 0-.68 2.81 4.78 4.78 0 0 0 .68 2.79 2.28 2.28 0 0 0 2.06.94zm11.46 1.22a4.44 4.44 0 0 1-3.38-1.3 5 5 0 0 1-1.23-3.61 5.54 5.54 0 0 1 1.15-3.7 3.78 3.78 0 0 1 3.08-1.37 3.59 3.59 0 0 1 2.86 1.19 4.52 4.52 0 0 1 1.1 3.14v.92h-6.64a3.86 3.86 0 0 0 .86 2.58 3 3 0 0 0 2.29.88 7.77 7.77 0 0 0 3.07-.65v1.3a8 8 0 0 1-1.46.48 8.72 8.72 0 0 1-1.7.14zm-.4-8.76a2.4 2.4 0 0 0-1.85.75 3.49 3.49 0 0 0-.81 2.1h5a3.23 3.23 0 0 0-.61-2.12 2.17 2.17 0 0 0-1.75-.73zm15.28 8.58h-1.5v-11.52h-4.07v-1.32h9.64v1.32h-4.07zm9.85.18a4.4 4.4 0 0 1-3.37-1.3 5 5 0 0 1-1.24-3.61 5.54 5.54 0 0 1 1.15-3.7 3.78 3.78 0 0 1 3.08-1.37 3.63 3.63 0 0 1 2.87 1.19 4.57 4.57 0 0 1 1.05 3.14v.92h-6.64a3.86 3.86 0 0 0 .86 2.58 3 3 0 0 0 2.29.88 7.85 7.85 0 0 0 3.08-.65v1.3a8.35 8.35 0 0 1-1.47.48 8.72 8.72 0 0 1-1.66.14zm-.4-8.76a2.4 2.4 0 0 0-1.85.75 3.49 3.49 0 0 0-.81 2.1h5a3.23 3.23 0 0 0-.62-2.12 2.17 2.17 0 0 0-1.72-.73zm7.89 8.58h-1.46V325h1.46zm7.16.18a4.41 4.41 0 0 1-3.37-1.3 5.05 5.05 0 0 1-1.24-3.61 5.59 5.59 0 0 1 1.15-3.7 3.8 3.8 0 0 1 3.08-1.37 3.63 3.63 0 0 1 2.87 1.19 4.57 4.57 0 0 1 1.05 3.14v.92h-6.63a3.85 3.85 0 0 0 .85 2.58 3 3 0 0 0 2.29.88 7.82 7.82 0 0 0 3.08-.65v1.3a8.35 8.35 0 0 1-1.47.48 8.72 8.72 0 0 1-1.66.14zm-.4-8.76a2.4 2.4 0 0 0-1.85.75 3.49 3.49 0 0 0-.81 2.1h5a3.23 3.23 0 0 0-.62-2.12 2.15 2.15 0 0 0-1.72-.73zm10.28 8.76a4.1 4.1 0 0 1-3.24-1.29 5.25 5.25 0 0 1-1.15-3.64 5.46 5.46 0 0 1 1.17-3.74 4.21 4.21 0 0 1 3.32-1.31 6.48 6.48 0 0 1 1.38.15 4.23 4.23 0 0 1 1.09.35l-.44 1.24a6.57 6.57 0 0 0-1.06-.32 4.43 4.43 0 0 0-1-.13q-2.94 0-2.94 3.74a4.46 4.46 0 0 0 .72 2.73 2.51 2.51 0 0 0 2.12.95 6.56 6.56 0 0 0 2.47-.52v1.29a5.28 5.28 0 0 1-2.44.5zm13.03-5a5.32 5.32 0 0 1-1.18 3.68 4.19 4.19 0 0 1-3.28 1.32 4.32 4.32 0 0 1-2.3-.61 4 4 0 0 1-1.54-1.74 6 6 0 0 1-.55-2.65 5.29 5.29 0 0 1 1.18-3.67 4.16 4.16 0 0 1 3.27-1.31 4 4 0 0 1 3.21 1.34 5.27 5.27 0 0 1 1.19 3.64zm-7.34 0a4.57 4.57 0 0 0 .74 2.81 2.55 2.55 0 0 0 2.17 1 2.59 2.59 0 0 0 2.18-1 4.58 4.58 0 0 0 .74-2.82 4.53 4.53 0 0 0-.74-2.79 2.6 2.6 0 0 0-2.19-.95 2.57 2.57 0 0 0-2.17.94 4.55 4.55 0 0 0-.73 2.81zm22.18 4.82v-6.26a2.66 2.66 0 0 0-.49-1.73 1.92 1.92 0 0 0-1.53-.57 2.49 2.49 0 0 0-2 .78 3.73 3.73 0 0 0-.65 2.41v5.37h-1.45v-6.26a2.61 2.61 0 0 0-.5-1.73 1.92 1.92 0 0 0-1.53-.57 2.37 2.37 0 0 0-2 .82 4.4 4.4 0 0 0-.64 2.69v5.05h-1.46V329h1.19l.23 1.32h.07a3 3 0 0 1 1.17-1.1 3.59 3.59 0 0 1 1.68-.39 2.87 2.87 0 0 1 3 1.63h.07a3 3 0 0 1 1.24-1.19 3.83 3.83 0 0 1 1.87-.44 3.24 3.24 0 0 1 2.44.84 3.71 3.71 0 0 1 .82 2.68v6.28zm5.83-9.67v6.25a2.51 2.51 0 0 0 .54 1.76 2.18 2.18 0 0 0 1.68.58 2.74 2.74 0 0 0 2.21-.83 4.14 4.14 0 0 0 .7-2.7V329H613v9.63h-1.21l-.21-1.29h-.08a2.86 2.86 0 0 1-1.24 1.09 4.22 4.22 0 0 1-1.81.38 3.73 3.73 0 0 1-2.64-.83 3.58 3.58 0 0 1-.87-2.68V329zm8.87 5.52v-1.34h4.32v1.34zm-115.34 25.76V354a2.48 2.48 0 0 0-.53-1.75 2.18 2.18 0 0 0-1.68-.58 2.79 2.79 0 0 0-2.22.81 4.2 4.2 0 0 0-.7 2.7v5.06h-1.46v-9.64h1.19l.24 1.32h.07a3 3 0 0 1 1.25-1.1 4.11 4.11 0 0 1 1.81-.39 3.62 3.62 0 0 1 2.61.84 3.54 3.54 0 0 1 .88 2.68v6.29zm4.34-12.28a1 1 0 0 1 .24-.73.85.85 0 0 1 .62-.23.84.84 0 0 1 .6.23 1 1 0 0 1 .26.73 1 1 0 0 1-.26.74.85.85 0 0 1-.6.24.86.86 0 0 1-.62-.24 1 1 0 0 1-.24-.74zm1.58 12.25h-1.46v-9.64h1.46zm6.94.2a4.12 4.12 0 0 1-3.24-1.29 5.31 5.31 0 0 1-1.14-3.64 5.41 5.41 0 0 1 1.16-3.73 4.19 4.19 0 0 1 3.32-1.32 6.64 6.64 0 0 1 1.39.15 4.51 4.51 0 0 1 1.09.35l-.45 1.24a6 6 0 0 0-1.06-.32 4.37 4.37 0 0 0-1-.13q-2.93 0-2.93 3.74a4.53 4.53 0 0 0 .71 2.73 2.51 2.51 0 0 0 2.13.95 6.64 6.64 0 0 0 2.47-.52V360a5.35 5.35 0 0 1-2.45.45zm10.65-.17l-.29-1.38h-.07a4 4 0 0 1-1.44 1.23 4.48 4.48 0 0 1-1.79.32 3.21 3.21 0 0 1-2.25-.74 2.69 2.69 0 0 1-.81-2.1q0-2.91 4.67-3.06l1.63-.05v-.6a2.42 2.42 0 0 0-.49-1.67 2 2 0 0 0-1.55-.54 6.23 6.23 0 0 0-2.73.74l-.45-1.12a7 7 0 0 1 3.26-.83 3.7 3.7 0 0 1 2.56.77 3.21 3.21 0 0 1 .83 2.45v6.58zm-3.3-1a3 3 0 0 0 2.14-.75 2.77 2.77 0 0 0 .78-2.09v-.87l-1.46.06a5.28 5.28 0 0 0-2.51.54 1.64 1.64 0 0 0-.77 1.49 1.48 1.48 0 0 0 .48 1.2 2 2 0 0 0 1.34.39zm11.23 1.17a4.12 4.12 0 0 1-3.24-1.29 5.31 5.31 0 0 1-1.14-3.64 5.41 5.41 0 0 1 1.16-3.73 4.19 4.19 0 0 1 3.32-1.32 6.57 6.57 0 0 1 1.39.15 4.51 4.51 0 0 1 1.09.35l-.45 1.24a6 6 0 0 0-1.06-.32 4.37 4.37 0 0 0-1-.13q-2.92 0-2.93 3.74a4.53 4.53 0 0 0 .71 2.73 2.51 2.51 0 0 0 2.13.95 6.64 6.64 0 0 0 2.47-.52V360a5.35 5.35 0 0 1-2.45.45zM536 348a.94.94 0 0 1 .25-.73.81.81 0 0 1 .61-.23.86.86 0 0 1 .61.23 1 1 0 0 1 .25.73 1 1 0 0 1-.25.74.87.87 0 0 1-.61.24.82.82 0 0 1-.61-.24 1 1 0 0 1-.25-.74zm1.58 12.25h-1.46v-9.64h1.46zm11.36-4.8a5.32 5.32 0 0 1-1.19 3.68 4.18 4.18 0 0 1-3.28 1.32 4.29 4.29 0 0 1-2.29-.61 4 4 0 0 1-1.55-1.74 6.09 6.09 0 0 1-.54-2.65 5.29 5.29 0 0 1 1.18-3.67 4.62 4.62 0 0 1 6.48 0 5.32 5.32 0 0 1 1.19 3.67zm-7.34 0a4.57 4.57 0 0 0 .74 2.81 2.54 2.54 0 0 0 2.17 1 2.57 2.57 0 0 0 2.17-1 4.52 4.52 0 0 0 .75-2.82 4.44 4.44 0 0 0-.75-2.79 3 3 0 0 0-4.35 0 4.48 4.48 0 0 0-.73 2.8zm16.49 4.83V354a2.48 2.48 0 0 0-.54-1.75 2.15 2.15 0 0 0-1.68-.58 2.78 2.78 0 0 0-2.21.81 4.14 4.14 0 0 0-.7 2.7v5.06h-1.46v-9.64h1.18l.24 1.32h.08a3 3 0 0 1 1.26-1.1 4.1 4.1 0 0 1 1.8-.39 3.67 3.67 0 0 1 2.62.84 3.58 3.58 0 0 1 .88 2.68v6.29zm8.52.17a4.43 4.43 0 0 1-3.37-1.3 5 5 0 0 1-1.23-3.61 5.55 5.55 0 0 1 1.15-3.7 3.78 3.78 0 0 1 3.08-1.37 3.61 3.61 0 0 1 2.86 1.19 4.57 4.57 0 0 1 1.06 3.14v.92h-6.64a3.81 3.81 0 0 0 .86 2.58 3 3 0 0 0 2.29.88 7.8 7.8 0 0 0 3.07-.65v1.3a8 8 0 0 1-1.46.48 8.83 8.83 0 0 1-1.67.14zm-.39-8.76a2.4 2.4 0 0 0-1.85.75 3.51 3.51 0 0 0-.81 2.1h5a3.23 3.23 0 0 0-.61-2.12 2.17 2.17 0 0 0-1.73-.73zm12.64 5.96a2.42 2.42 0 0 1-1 2.07 4.71 4.71 0 0 1-2.82.73 6.09 6.09 0 0 1-3-.61v-1.35a6.81 6.81 0 0 0 1.49.55 6.06 6.06 0 0 0 1.54.21 3.42 3.42 0 0 0 1.76-.37 1.25 1.25 0 0 0 .12-2.07 7.69 7.69 0 0 0-1.9-.95 10 10 0 0 1-1.91-.87 2.65 2.65 0 0 1-.85-.85A2.25 2.25 0 0 1 572 353a2.15 2.15 0 0 1 1-1.86 4.4 4.4 0 0 1 2.62-.68 7.75 7.75 0 0 1 3 .63l-.52 1.19a7 7 0 0 0-2.63-.6 3.15 3.15 0 0 0-1.57.32 1 1 0 0 0-.52.9 1.09 1.09 0 0 0 .19.66 2.21 2.21 0 0 0 .64.52 15 15 0 0 0 1.69.71 6.21 6.21 0 0 1 2.31 1.26 2.18 2.18 0 0 1 .65 1.6z"/><path class="cls-3" d="M186.58 261.38a4.21 4.21 0 0 0-3.35 1.41 5.68 5.68 0 0 0-1.23 3.86 5.79 5.79 0 0 0 1.19 3.9 4.2 4.2 0 0 0 3.37 1.38 11.3 11.3 0 0 0 3.07-.49v1.31a9.36 9.36 0 0 1-3.3.5 5.57 5.57 0 0 1-4.38-1.72 7.08 7.08 0 0 1-1.54-4.89 7.63 7.63 0 0 1 .74-3.48 5.32 5.32 0 0 1 2.14-2.31 6.51 6.51 0 0 1 3.3-.81 8 8 0 0 1 3.54.74l-.64 1.29a6.74 6.74 0 0 0-2.91-.69zm5.51-.54a1 1 0 0 1 .24-.74.9.9 0 0 1 .62-.23.85.85 0 0 1 .6.24.94.94 0 0 1 .26.73 1 1 0 0 1-.26.73.85.85 0 0 1-.6.24.86.86 0 0 1-.62-.24 1 1 0 0 1-.24-.73zm1.58 12.24h-1.46v-9.63h1.46zm9.33-2.63a2.42 2.42 0 0 1-1 2.08 4.73 4.73 0 0 1-2.81.72 6.19 6.19 0 0 1-3-.6v-1.36a7.38 7.38 0 0 0 1.49.56 6.45 6.45 0 0 0 1.54.2 3.49 3.49 0 0 0 1.75-.36 1.23 1.23 0 0 0 .62-1.12 1.2 1.2 0 0 0-.49-1 7.41 7.41 0 0 0-1.9-.94 10.52 10.52 0 0 1-1.91-.88 2.65 2.65 0 0 1-.85-.85 2.22 2.22 0 0 1-.27-1.13 2.19 2.19 0 0 1 .95-1.86 4.51 4.51 0 0 1 2.63-.68 7.7 7.7 0 0 1 3 .63l-.52 1.19a6.91 6.91 0 0 0-2.62-.6 3 3 0 0 0-1.57.33 1 1 0 0 0-.52.89 1.09 1.09 0 0 0 .19.66 2 2 0 0 0 .64.52 13.29 13.29 0 0 0 1.69.71 6.36 6.36 0 0 1 2.31 1.26 2.22 2.22 0 0 1 .65 1.63zm6.2 2.8A4.09 4.09 0 0 1 206 272a5.29 5.29 0 0 1-1.15-3.65 5.43 5.43 0 0 1 1.17-3.73 4.17 4.17 0 0 1 3.31-1.32 6.5 6.5 0 0 1 1.39.15 4.65 4.65 0 0 1 1.09.35l-.44 1.24a6.57 6.57 0 0 0-1.06-.32 4.43 4.43 0 0 0-1-.13q-2.94 0-2.94 3.75A4.43 4.43 0 0 0 207 271a2.51 2.51 0 0 0 2.12 1 6.37 6.37 0 0 0 2.47-.52v1.29a5.15 5.15 0 0 1-2.39.48zm13.03-5a5.32 5.32 0 0 1-1.18 3.68 4.21 4.21 0 0 1-3.28 1.32 4.41 4.41 0 0 1-2.3-.6 4.08 4.08 0 0 1-1.54-1.74 6 6 0 0 1-.55-2.66 5.29 5.29 0 0 1 1.18-3.67 4.17 4.17 0 0 1 3.27-1.31 4.05 4.05 0 0 1 3.21 1.35 5.23 5.23 0 0 1 1.19 3.63zm-7.34 0a4.62 4.62 0 0 0 .74 2.82 2.94 2.94 0 0 0 4.35 0 4.58 4.58 0 0 0 .74-2.82 4.53 4.53 0 0 0-.74-2.79 2.63 2.63 0 0 0-2.19-.95 2.57 2.57 0 0 0-2.17.94 4.57 4.57 0 0 0-.73 2.8zm20.3-6.87a4.22 4.22 0 0 0-3.35 1.41 5.73 5.73 0 0 0-1.22 3.86 5.79 5.79 0 0 0 1.18 3.9 4.2 4.2 0 0 0 3.37 1.38 11.24 11.24 0 0 0 3.07-.49v1.31a9.32 9.32 0 0 1-3.3.5 5.57 5.57 0 0 1-4.38-1.72 7.08 7.08 0 0 1-1.54-4.89 7.76 7.76 0 0 1 .74-3.48 5.38 5.38 0 0 1 2.14-2.31 6.52 6.52 0 0 1 3.31-.81 8 8 0 0 1 3.53.74l-.63 1.29a6.82 6.82 0 0 0-2.92-.69zm9.7 11.87a4.41 4.41 0 0 1-3.37-1.3 5 5 0 0 1-1.23-3.61 5.62 5.62 0 0 1 1.14-3.7 3.83 3.83 0 0 1 3.08-1.37 3.66 3.66 0 0 1 2.87 1.19 4.57 4.57 0 0 1 1.05 3.14v.93h-6.63a3.81 3.81 0 0 0 .85 2.57 3 3 0 0 0 2.29.88 7.82 7.82 0 0 0 3.08-.65v1.3a8.27 8.27 0 0 1-1.46.48 8.07 8.07 0 0 1-1.67.14zm-.39-8.76a2.34 2.34 0 0 0-1.85.76 3.46 3.46 0 0 0-.82 2.09h5a3.18 3.18 0 0 0-.62-2.11 2.15 2.15 0 0 0-1.71-.74zm10.81-1.22a5.79 5.79 0 0 1 1.16.11l-.21 1.35a4.76 4.76 0 0 0-1-.13 2.54 2.54 0 0 0-2 .95 3.47 3.47 0 0 0-.83 2.36v5.17h-1.46v-9.63h1.2l.17 1.78h.07a4.27 4.27 0 0 1 1.29-1.45 2.93 2.93 0 0 1 1.61-.51zm6.07 8.78a4.56 4.56 0 0 0 .75-.06 3.85 3.85 0 0 0 .57-.11V273a2.53 2.53 0 0 1-.7.19 5.25 5.25 0 0 1-.83.07c-1.87 0-2.8-1-2.8-2.94v-5.73H257v-.7l1.38-.61.62-2.06h.84v2.24h2.8v1.13h-2.8v5.67a1.91 1.91 0 0 0 .42 1.33 1.4 1.4 0 0 0 1.12.46zm3.12-11.21a1 1 0 0 1 .25-.74.85.85 0 0 1 .61-.23.87.87 0 0 1 .61.24.94.94 0 0 1 .25.73 1 1 0 0 1-.25.73.87.87 0 0 1-.61.24.82.82 0 0 1-.61-.24 1 1 0 0 1-.25-.73zm1.58 12.24h-1.46v-9.63h1.46zm7.44-8.5h-2.46v8.5h-1.45v-8.5h-1.73v-.66l1.73-.53v-.53q0-3.56 3.1-3.55a6.48 6.48 0 0 1 1.79.3l-.38 1.17a4.84 4.84 0 0 0-1.44-.27 1.39 1.39 0 0 0-1.22.55 3.09 3.09 0 0 0-.4 1.76v.63h2.46zm1.63-3.74a1 1 0 0 1 .25-.74.87.87 0 0 1 .61-.23.85.85 0 0 1 .61.24.94.94 0 0 1 .25.73 1 1 0 0 1-.25.73.85.85 0 0 1-.61.24.84.84 0 0 1-.61-.24 1 1 0 0 1-.25-.73zm1.58 12.24h-1.46v-9.63h1.46zm7.17.17a4.4 4.4 0 0 1-3.37-1.3 5 5 0 0 1-1.24-3.61 5.57 5.57 0 0 1 1.15-3.7 3.81 3.81 0 0 1 3.08-1.37 3.63 3.63 0 0 1 2.86 1.19 4.52 4.52 0 0 1 1.06 3.14v.93h-6.64a3.81 3.81 0 0 0 .86 2.57 2.94 2.94 0 0 0 2.34.9 7.85 7.85 0 0 0 3.08-.65v1.3a8.35 8.35 0 0 1-1.47.48 8 8 0 0 1-1.71.12zm-.4-8.76a2.37 2.37 0 0 0-1.85.76 3.46 3.46 0 0 0-.81 2.09h5a3.18 3.18 0 0 0-.61-2.11 2.17 2.17 0 0 0-1.73-.74zm12.98 7.3h-.08a3.41 3.41 0 0 1-3 1.46 3.58 3.58 0 0 1-2.94-1.29 5.67 5.67 0 0 1-1.05-3.67 5.8 5.8 0 0 1 1.05-3.7 3.57 3.57 0 0 1 2.94-1.32 3.53 3.53 0 0 1 3 1.42h.11l-.06-.69v-4.6h1.46v13.68h-1.18zm-2.92.24a2.67 2.67 0 0 0 2.17-.81 4.1 4.1 0 0 0 .67-2.62v-.31a4.77 4.77 0 0 0-.68-2.92 2.56 2.56 0 0 0-2.17-.88 2.24 2.24 0 0 0-2 1 5 5 0 0 0-.68 2.82 4.73 4.73 0 0 0 .68 2.78 2.28 2.28 0 0 0 2.01.91zm22.33 1.05h-1.71l-7-10.79h-.07c.09 1.27.14 2.43.14 3.49v7.3h-1.38v-12.85h1.69l7 10.74h.07c0-.16 0-.67-.07-1.53s-.06-1.47-.05-1.84v-7.37h1.4zm7.38.17a4.41 4.41 0 0 1-3.37-1.3 5 5 0 0 1-1.23-3.61 5.62 5.62 0 0 1 1.14-3.7 3.83 3.83 0 0 1 3.08-1.37 3.65 3.65 0 0 1 2.87 1.19 4.57 4.57 0 0 1 1.05 3.14v.93h-6.63a3.81 3.81 0 0 0 .85 2.57 3 3 0 0 0 2.29.88 7.82 7.82 0 0 0 3.08-.65v1.3a8.27 8.27 0 0 1-1.46.48 8.07 8.07 0 0 1-1.67.14zm-.39-8.76a2.36 2.36 0 0 0-1.85.76 3.46 3.46 0 0 0-.82 2.09h5a3.18 3.18 0 0 0-.62-2.11 2.15 2.15 0 0 0-1.71-.74zm5.61 4.43v-1.33h4.32v1.33zm-140.75 24.73a4.56 4.56 0 0 0 .75-.06 2.78 2.78 0 0 0 .57-.12v1.12a2.53 2.53 0 0 1-.7.19 5.25 5.25 0 0 1-.83.07c-1.86 0-2.8-1-2.8-2.94v-5.73h-1.38v-.7l1.38-.61.62-2.06h.84v2.24H189v1.13h-2.8v5.67a1.91 1.91 0 0 0 .42 1.33 1.4 1.4 0 0 0 1.12.47zm11.11 1.03l-1.77-5.68c-.11-.35-.32-1.13-.62-2.36h-.07c-.24 1-.44 1.82-.62 2.37l-1.77 5.67h-1.68l-2.63-9.63h1.53q.93 3.63 1.42 5.52a21.58 21.58 0 0 1 .55 2.56h.07c.07-.33.17-.76.32-1.29s.26-1 .37-1.27l1.77-5.52h1.58l1.72 5.52a19.15 19.15 0 0 1 .67 2.54h.07a9.18 9.18 0 0 1 .19-1c.1-.44.71-2.81 1.83-7.09h1.51l-2.66 9.63zm14.45-4.83a5.32 5.32 0 0 1-1.19 3.68 4.18 4.18 0 0 1-3.28 1.32 4.37 4.37 0 0 1-2.29-.6 4.1 4.1 0 0 1-1.55-1.74 6.13 6.13 0 0 1-.54-2.66 5.29 5.29 0 0 1 1.18-3.67 4.16 4.16 0 0 1 3.26-1.31 4.11 4.11 0 0 1 3.22 1.34 5.32 5.32 0 0 1 1.19 3.64zm-7.34 0a4.62 4.62 0 0 0 .74 2.82 2.93 2.93 0 0 0 4.34 0 4.52 4.52 0 0 0 .75-2.82 4.46 4.46 0 0 0-.75-2.79 2.61 2.61 0 0 0-2.19-.95 2.55 2.55 0 0 0-2.16.94 4.5 4.5 0 0 0-.69 2.8zm14.29-4.98a5.68 5.68 0 0 1 1.15.11l-.2 1.35a4.84 4.84 0 0 0-1.06-.13 2.54 2.54 0 0 0-2 .95 3.43 3.43 0 0 0-.84 2.36v5.17h-1.45v-9.63h1.2l.17 1.78h.07a4.07 4.07 0 0 1 1.29-1.45 2.9 2.9 0 0 1 1.67-.51zm4.39 4.88a17.88 17.88 0 0 1 1.16-1.41l3.11-3.29h1.73l-3.9 4.1 4.17 5.53h-1.77l-3.4-4.55-1.1.95v3.6h-1.44V281h1.44v7.25c0 .33 0 .82-.07 1.5zm20.98 4.93l-1.6-4.09h-5.15l-1.58 4.09h-1.51l5.08-12.9h1.26l5 12.9zm-2.06-5.43l-1.5-4c-.19-.51-.39-1.13-.59-1.86a17.74 17.74 0 0 1-.56 1.86l-1.51 4zm11.37 2.8a2.42 2.42 0 0 1-1 2.08 4.77 4.77 0 0 1-2.81.72 6.16 6.16 0 0 1-3-.6v-1.36a7.16 7.16 0 0 0 1.49.56 6.43 6.43 0 0 0 1.53.2 3.53 3.53 0 0 0 1.76-.36 1.26 1.26 0 0 0 .13-2.08 7.88 7.88 0 0 0-1.91-.94 10.86 10.86 0 0 1-1.91-.88 2.61 2.61 0 0 1-.84-.85 2.13 2.13 0 0 1-.28-1.13 2.18 2.18 0 0 1 1-1.86 4.51 4.51 0 0 1 2.63-.68 7.7 7.7 0 0 1 3 .63l-.52 1.19a7 7 0 0 0-2.63-.6 3 3 0 0 0-1.56.33 1 1 0 0 0-.53.89 1.1 1.1 0 0 0 .2.66 1.85 1.85 0 0 0 .64.52 13 13 0 0 0 1.68.71 6.34 6.34 0 0 1 2.32 1.26 2.21 2.21 0 0 1 .61 1.59zm8.59 0a2.44 2.44 0 0 1-1 2.08 4.78 4.78 0 0 1-2.82.72 6.14 6.14 0 0 1-3-.6v-1.36a7.16 7.16 0 0 0 1.49.56 6.43 6.43 0 0 0 1.53.2 3.53 3.53 0 0 0 1.76-.36 1.22 1.22 0 0 0 .61-1.12 1.2 1.2 0 0 0-.49-1 7.57 7.57 0 0 0-1.9-.94 10.86 10.86 0 0 1-1.91-.88 2.51 2.51 0 0 1-.84-.85 2.13 2.13 0 0 1-.28-1.13 2.18 2.18 0 0 1 1-1.86 4.49 4.49 0 0 1 2.63-.68 7.74 7.74 0 0 1 3 .63l-.52 1.19a7 7 0 0 0-2.63-.6 3 3 0 0 0-1.56.33 1 1 0 0 0-.53.89 1 1 0 0 0 .2.66 1.9 1.9 0 0 0 .63.52 14 14 0 0 0 1.69.71 6.42 6.42 0 0 1 2.32 1.26 2.21 2.21 0 0 1 .62 1.63zm10.69-2.2a5.32 5.32 0 0 1-1.19 3.68 4.18 4.18 0 0 1-3.28 1.32 4.37 4.37 0 0 1-2.29-.6 4 4 0 0 1-1.55-1.74 6.13 6.13 0 0 1-.54-2.66 5.34 5.34 0 0 1 1.17-3.67 4.2 4.2 0 0 1 3.27-1.31 4.11 4.11 0 0 1 3.22 1.34 5.32 5.32 0 0 1 1.19 3.64zm-7.34 0a4.56 4.56 0 0 0 .74 2.82 2.93 2.93 0 0 0 4.34 0 4.52 4.52 0 0 0 .74-2.82 4.46 4.46 0 0 0-.74-2.79 2.61 2.61 0 0 0-2.19-.95 2.54 2.54 0 0 0-2.16.94 4.5 4.5 0 0 0-.73 2.8zm13.74 5a4.12 4.12 0 0 1-3.24-1.28 5.34 5.34 0 0 1-1.14-3.65 5.48 5.48 0 0 1 1.16-3.73 4.19 4.19 0 0 1 3.32-1.32 6.57 6.57 0 0 1 1.39.15 5 5 0 0 1 1.09.35l-.45 1.24a7.21 7.21 0 0 0-1.05-.32 5.17 5.17 0 0 0-1-.13q-2.93 0-2.93 3.75a4.43 4.43 0 0 0 .72 2.72 2.48 2.48 0 0 0 2.12.95 6.45 6.45 0 0 0 2.47-.52v1.29a5.22 5.22 0 0 1-2.46.5zm4.6-12.41a1 1 0 0 1 .25-.74.87.87 0 0 1 .61-.23.85.85 0 0 1 .61.24.94.94 0 0 1 .25.73 1 1 0 0 1-.25.73.85.85 0 0 1-.61.24.84.84 0 0 1-.61-.24 1 1 0 0 1-.25-.73zm1.58 12.24h-1.46v-9.63h1.46zm9.02 0l-.29-1.37h-.07a4 4 0 0 1-1.44 1.22 4.28 4.28 0 0 1-1.79.32 3.21 3.21 0 0 1-2.24-.73 2.72 2.72 0 0 1-.81-2.1q0-2.92 4.66-3.06l1.64-.06v-.59a2.48 2.48 0 0 0-.49-1.68 2 2 0 0 0-1.56-.54 6.45 6.45 0 0 0-2.73.74l-.44-1.12a6.74 6.74 0 0 1 1.56-.6 6.56 6.56 0 0 1 1.7-.22 3.65 3.65 0 0 1 2.55.76 3.21 3.21 0 0 1 .83 2.45v6.58zm-3.3-1a2.94 2.94 0 0 0 2.14-.75 2.74 2.74 0 0 0 .78-2.09v-.87L294 290a5.31 5.31 0 0 0-2.51.54 1.64 1.64 0 0 0-.77 1.49 1.52 1.52 0 0 0 .48 1.21 2 2 0 0 0 1.31.41zm10.49-.03a4.44 4.44 0 0 0 .74-.06 2.75 2.75 0 0 0 .58-.12v1.12a2.53 2.53 0 0 1-.7.19 5.25 5.25 0 0 1-.83.07c-1.87 0-2.8-1-2.8-2.94v-5.73h-1.38v-.7l1.38-.61.62-2.06h.84v2.24h2.8v1.13h-2.8v5.67a2 2 0 0 0 .41 1.33 1.43 1.43 0 0 0 1.14.47zm7.32 1.2a4.41 4.41 0 0 1-3.37-1.3 5 5 0 0 1-1.24-3.61 5.63 5.63 0 0 1 1.15-3.7 3.83 3.83 0 0 1 3.08-1.37 3.66 3.66 0 0 1 2.87 1.19 4.58 4.58 0 0 1 1.05 3.14v.93h-6.63a3.81 3.81 0 0 0 .85 2.57 3 3 0 0 0 2.29.88 7.82 7.82 0 0 0 3.08-.65v1.3a8.27 8.27 0 0 1-1.46.48 8.07 8.07 0 0 1-1.67.14zm-.4-8.76a2.37 2.37 0 0 0-1.85.76 3.46 3.46 0 0 0-.81 2.09h5a3.2 3.2 0 0 0-.62-2.11 2.16 2.16 0 0 0-1.72-.74zm15.84 8.59h-1.42v-9.16c0-.76 0-1.48.07-2.16l-.41.39-2.1 1.71-.77-1 3.4-2.63h1.23zm-102.92 16.67a13.73 13.73 0 0 1 .68-4.36 10.9 10.9 0 0 1 2-3.56h1.43a12.07 12.07 0 0 0-1.9 3.73 13.65 13.65 0 0 0-.64 4.17 13.1 13.1 0 0 0 .65 4.12 12.9 12.9 0 0 0 1.87 3.68h-1.41a10.38 10.38 0 0 1-2-3.49 13 13 0 0 1-.68-4.29zm11.87-6.77a4.2 4.2 0 0 0-3.34 1.41 5.68 5.68 0 0 0-1.23 3.86 5.84 5.84 0 0 0 1.18 3.9 4.22 4.22 0 0 0 3.38 1.38 11.23 11.23 0 0 0 3.06-.49V316a9.28 9.28 0 0 1-3.29.51 5.55 5.55 0 0 1-4.38-1.73 7.08 7.08 0 0 1-1.55-4.89 7.63 7.63 0 0 1 .75-3.48 5.32 5.32 0 0 1 2.14-2.31 6.45 6.45 0 0 1 3.3-.8 8 8 0 0 1 3.53.73l-.63 1.29a6.75 6.75 0 0 0-2.92-.74zm11.36 0a4.22 4.22 0 0 0-3.35 1.41 5.73 5.73 0 0 0-1.22 3.86 5.79 5.79 0 0 0 1.18 3.9 4.2 4.2 0 0 0 3.37 1.38 11.24 11.24 0 0 0 3.07-.49V316a9.3 9.3 0 0 1-3.3.51 5.58 5.58 0 0 1-4.38-1.73 7.08 7.08 0 0 1-1.54-4.89 7.76 7.76 0 0 1 .74-3.48 5.34 5.34 0 0 1 2.15-2.31 6.45 6.45 0 0 1 3.3-.8 8 8 0 0 1 3.53.73l-.63 1.29a6.82 6.82 0 0 0-2.92-.74zm15.93 11.7h-1.71l-7-10.78h-.07c.09 1.26.14 2.42.14 3.48v7.3h-1.38v-12.85h1.69l7 10.74h.07c0-.16 0-.67-.07-1.53s-.06-1.47-.05-1.84v-7.37H262zm11.57 0l-1.6-4.09h-5.15l-1.58 4.09h-1.51l5.08-12.9h1.25l5.06 12.9zm-2.07-5.43l-1.49-4q-.28-.76-.6-1.86a17.51 17.51 0 0 1-.55 1.86l-1.51 4zm9.9 5.43H280v-9.16c0-.76 0-1.48.07-2.16l-.42.39-2.09 1.71-.77-1 3.4-2.63h1.23zm8.6-4.93a13.11 13.11 0 0 1-.68 4.31 10.36 10.36 0 0 1-2 3.47H286a12.47 12.47 0 0 0 1.87-3.67 13.21 13.21 0 0 0 .65-4.13 14 14 0 0 0-.63-4.17 12.32 12.32 0 0 0-1.91-3.73h1.43a10.88 10.88 0 0 1 2 3.57 13.76 13.76 0 0 1 .59 4.35z"/><path class="cls-1" d="M588.34 61.17V48.32h1.5v12.85zm11.4 0v-6.23a2.49 2.49 0 0 0-.54-1.76 2.18 2.18 0 0 0-1.68-.58 2.73 2.73 0 0 0-2.21.82 4.09 4.09 0 0 0-.71 2.69v5.06h-1.46v-9.64h1.19l.24 1.32h.07a3 3 0 0 1 1.25-1.1 4.11 4.11 0 0 1 1.81-.39 3.67 3.67 0 0 1 2.62.84 3.58 3.58 0 0 1 .87 2.68v6.29zm12.34-9.64v.93l-1.79.21a2.85 2.85 0 0 1 .44.8 3.06 3.06 0 0 1 .19 1.12 2.85 2.85 0 0 1-1 2.26 3.93 3.93 0 0 1-2.66.85 5.31 5.31 0 0 1-.81-.07 1.42 1.42 0 0 0-.93 1.23.63.63 0 0 0 .33.59 2.3 2.3 0 0 0 1.11.19h1.71a3.81 3.81 0 0 1 2.4.66 2.29 2.29 0 0 1 .84 1.91 2.74 2.74 0 0 1-1.28 2.44 6.87 6.87 0 0 1-3.75.84 5.11 5.11 0 0 1-2.91-.7 2.28 2.28 0 0 1-1-2 2.22 2.22 0 0 1 .56-1.52 2.81 2.81 0 0 1 1.58-.87 1.54 1.54 0 0 1-.62-.52 1.32 1.32 0 0 1-.25-.81 1.62 1.62 0 0 1 .28-.93 3 3 0 0 1 .89-.76 2.68 2.68 0 0 1-1.22-1 3.45 3.45 0 0 1 .48-4.12 3.85 3.85 0 0 1 2.69-.86 5.11 5.11 0 0 1 1.36.17zm-7.69 11.25a1.3 1.3 0 0 0 .66 1.19 3.63 3.63 0 0 0 1.89.41 5.32 5.32 0 0 0 2.72-.55 1.7 1.7 0 0 0 .89-1.49 1.18 1.18 0 0 0-.49-1.09 3.79 3.79 0 0 0-1.82-.3h-1.75a2.32 2.32 0 0 0-1.54.47 1.7 1.7 0 0 0-.56 1.36zm.79-8.16a2 2 0 0 0 .58 1.53 2.3 2.3 0 0 0 1.59.52 1.86 1.86 0 0 0 2.13-2.08 1.92 1.92 0 0 0-2.16-2.17 2.13 2.13 0 0 0-1.58.56 2.22 2.22 0 0 0-.56 1.64zm12.94 6.72a4.41 4.41 0 0 1-3.37-1.3 5 5 0 0 1-1.23-3.61 5.6 5.6 0 0 1 1.14-3.7 3.84 3.84 0 0 1 3.08-1.37 3.65 3.65 0 0 1 2.87 1.19 4.57 4.57 0 0 1 1 3.14v.92H615a3.83 3.83 0 0 0 .85 2.58 3 3 0 0 0 2.29.88 7.82 7.82 0 0 0 3.08-.65v1.3a8 8 0 0 1-1.46.48 8.83 8.83 0 0 1-1.64.14zm-.39-8.76a2.36 2.36 0 0 0-1.85.76 3.52 3.52 0 0 0-.82 2.09h5a3.23 3.23 0 0 0-.62-2.12 2.18 2.18 0 0 0-1.71-.73zm13.01 8.59v-6.23a2.54 2.54 0 0 0-.53-1.76 2.18 2.18 0 0 0-1.68-.58 2.76 2.76 0 0 0-2.22.82 4.09 4.09 0 0 0-.7 2.69v5.06h-1.46v-9.64h1.19l.24 1.32h.07a2.92 2.92 0 0 1 1.25-1.1 4.1 4.1 0 0 1 1.8-.39 3.65 3.65 0 0 1 2.62.84 3.54 3.54 0 0 1 .88 2.68v6.29zm4.34-12.25a1 1 0 0 1 .24-.73.9.9 0 0 1 .62-.23.88.88 0 0 1 .6.23 1.17 1.17 0 0 1 0 1.47.85.85 0 0 1-.6.24.86.86 0 0 1-.62-.24 1 1 0 0 1-.24-.74zm1.58 12.25h-1.46v-9.64h1.46zm7.16.17a4.41 4.41 0 0 1-3.37-1.3 5 5 0 0 1-1.23-3.61 5.6 5.6 0 0 1 1.14-3.7 3.83 3.83 0 0 1 3.08-1.37 3.65 3.65 0 0 1 2.87 1.19 4.57 4.57 0 0 1 1.05 3.14v.92h-6.63a3.83 3.83 0 0 0 .85 2.58 3 3 0 0 0 2.29.88 7.82 7.82 0 0 0 3.08-.65v1.3a8.27 8.27 0 0 1-1.46.48 8.83 8.83 0 0 1-1.67.14zm-.39-8.76a2.36 2.36 0 0 0-1.85.76 3.46 3.46 0 0 0-.82 2.09h5a3.23 3.23 0 0 0-.62-2.12 2.18 2.18 0 0 0-1.71-.73zm10.82-1.22a5.79 5.79 0 0 1 1.15.1l-.21 1.36a4.76 4.76 0 0 0-1.05-.13 2.54 2.54 0 0 0-2 1 3.47 3.47 0 0 0-.83 2.36v5.17h-1.46v-9.69h1.2l.17 1.79h.07a4.27 4.27 0 0 1 1.29-1.45 2.93 2.93 0 0 1 1.67-.51zm2.89-1.36c.28-.36.58-.8.91-1.32s.58-1 .77-1.34h1.77v.18a13.61 13.61 0 0 1-1.15 1.48 12.73 12.73 0 0 1-1.33 1.29h-1zm1.52 11.13h-1.46v-9.6h1.46zm9.01.04l-.29-1.37h-.07a4.07 4.07 0 0 1-1.43 1.2 4.31 4.31 0 0 1-1.79.32 3.18 3.18 0 0 1-2.25-.74 2.69 2.69 0 0 1-.81-2.1q0-2.91 4.67-3l1.63-.06v-.62a2.43 2.43 0 0 0-.49-1.68 2 2 0 0 0-1.56-.54 6.37 6.37 0 0 0-2.72.74l-.45-1.12a7.12 7.12 0 0 1 3.26-.82 3.65 3.65 0 0 1 2.55.76 3.17 3.17 0 0 1 .84 2.45v6.58zm-3.29-1a3 3 0 0 0 2.14-.75 2.75 2.75 0 0 0 .78-2.09v-.87l-1.46.06a5.28 5.28 0 0 0-2.51.54 1.64 1.64 0 0 0-.77 1.49 1.52 1.52 0 0 0 .48 1.21 2 2 0 0 0 1.34.38zm16.23 1h-1.49V49.65h-4.07v-1.33h9.63v1.33h-4.07zm9.85.17a4.43 4.43 0 0 1-3.37-1.3 5 5 0 0 1-1.23-3.61 5.55 5.55 0 0 1 1.15-3.7 3.81 3.81 0 0 1 3.08-1.37 3.64 3.64 0 0 1 2.91 1.19 4.52 4.52 0 0 1 1 3.14v.92h-6.64a3.84 3.84 0 0 0 .86 2.58 2.94 2.94 0 0 0 2.29.88 7.8 7.8 0 0 0 3.07-.65v1.3a8 8 0 0 1-1.46.48 8.75 8.75 0 0 1-1.66.14zm-.39-8.76a2.37 2.37 0 0 0-1.85.76 3.46 3.46 0 0 0-.81 2.09h5a3.23 3.23 0 0 0-.61-2.12 2.2 2.2 0 0 0-1.73-.73zm7.93 8.59h-1.46V47.49H698zm7.12.17a4.4 4.4 0 0 1-3.37-1.3 5 5 0 0 1-1.24-3.61 5.55 5.55 0 0 1 1.15-3.7 3.81 3.81 0 0 1 3.08-1.37 3.63 3.63 0 0 1 2.86 1.19 4.52 4.52 0 0 1 1.06 3.14v.92H702a3.84 3.84 0 0 0 .86 2.58 2.94 2.94 0 0 0 2.29.88 7.85 7.85 0 0 0 3.08-.65v1.3a8.35 8.35 0 0 1-1.47.48 8.72 8.72 0 0 1-1.64.14zm-.4-8.76a2.37 2.37 0 0 0-1.85.76 3.46 3.46 0 0 0-.81 2.09h5a3.23 3.23 0 0 0-.61-2.12 2.2 2.2 0 0 0-1.73-.73zm18.7 8.59V54.9a2.61 2.61 0 0 0-.49-1.73 1.92 1.92 0 0 0-1.53-.57 2.46 2.46 0 0 0-2 .78 3.73 3.73 0 0 0-.65 2.41v5.38h-1.46V54.9a2.61 2.61 0 0 0-.49-1.73 1.93 1.93 0 0 0-1.54-.57 2.39 2.39 0 0 0-2 .82 4.49 4.49 0 0 0-.64 2.69v5.06h-1.45v-9.64h1.18l.24 1.32h.07a2.93 2.93 0 0 1 1.16-1.1 3.63 3.63 0 0 1 1.69-.39 2.86 2.86 0 0 1 3 1.63h.07a3.06 3.06 0 0 1 1.25-1.19 3.87 3.87 0 0 1 1.86-.44 3.26 3.26 0 0 1 2.45.84 3.75 3.75 0 0 1 .81 2.68v6.29zm10.39 0l-.29-1.37h-.07A4 4 0 0 1 732 61a4.23 4.23 0 0 1-1.78.32 3.18 3.18 0 0 1-2.22-.72 2.69 2.69 0 0 1-.81-2.1q0-2.91 4.66-3l1.64-.06v-.64a2.43 2.43 0 0 0-.49-1.68 2 2 0 0 0-1.56-.54 6.37 6.37 0 0 0-2.72.74l-.45-1.12a6.32 6.32 0 0 1 1.56-.6 6.56 6.56 0 0 1 1.7-.22 3.65 3.65 0 0 1 2.55.76 3.17 3.17 0 0 1 .83 2.45v6.58zm-3.29-1a3 3 0 0 0 2.14-.75 2.79 2.79 0 0 0 .77-2.09v-.87l-1.45.06a5.28 5.28 0 0 0-2.51.54 1.62 1.62 0 0 0-.77 1.49 1.52 1.52 0 0 0 .48 1.21 2 2 0 0 0 1.34.38zM730.17 50a12.91 12.91 0 0 0 .91-1.32 12.11 12.11 0 0 0 .77-1.34h1.78v.18a13.61 13.61 0 0 1-1.15 1.48 13.8 13.8 0 0 1-1.33 1.29h-1zM741 60.14a4.56 4.56 0 0 0 .75-.06 5.41 5.41 0 0 0 .57-.12v1.12a2.53 2.53 0 0 1-.7.19 5.16 5.16 0 0 1-.83.07c-1.86 0-2.8-1-2.8-2.94v-5.73h-1.37V52l1.37-.61.62-2.06h.84v2.23h2.8v1.14h-2.8v5.67a1.91 1.91 0 0 0 .42 1.33 1.43 1.43 0 0 0 1.13.44zm3.13-11.22a1 1 0 0 1 .25-.73.87.87 0 0 1 .62-.19.89.89 0 0 1 .61.23 1.21 1.21 0 0 1 0 1.47.85.85 0 0 1-.61.24.84.84 0 0 1-.61-.24 1 1 0 0 1-.26-.78zm1.58 12.25h-1.46v-9.64h1.46zm6.95.17a4.12 4.12 0 0 1-3.24-1.28 5.29 5.29 0 0 1-1.15-3.65 5.48 5.48 0 0 1 1.16-3.73 4.21 4.21 0 0 1 3.32-1.32 6.5 6.5 0 0 1 1.39.15 4.82 4.82 0 0 1 1.09.35l-.45 1.24a6.16 6.16 0 0 0-1-.32 4.43 4.43 0 0 0-1-.13q-2.94 0-2.94 3.75a4.43 4.43 0 0 0 .72 2.72 2.5 2.5 0 0 0 2.12 1 6.41 6.41 0 0 0 2.47-.52v1.29a5.18 5.18 0 0 1-2.49.45zm10.64-.17l-.3-1.37h-.07a4 4 0 0 1-1.43 1.2 4.28 4.28 0 0 1-1.79.32 3.17 3.17 0 0 1-2.24-.74 2.69 2.69 0 0 1-.81-2.1q0-2.91 4.66-3l1.64-.06v-.62a2.48 2.48 0 0 0-.49-1.68 2 2 0 0 0-1.56-.54 6.45 6.45 0 0 0-2.73.74l-.44-1.12a6.32 6.32 0 0 1 1.56-.6 6.56 6.56 0 0 1 1.7-.22 3.65 3.65 0 0 1 2.55.76 3.21 3.21 0 0 1 .83 2.45v6.58zm-3.3-1a2.94 2.94 0 0 0 2.14-.75 2.75 2.75 0 0 0 .78-2.09v-.87l-1.46.06A5.31 5.31 0 0 0 759 57a1.64 1.64 0 0 0-.77 1.49 1.52 1.52 0 0 0 .48 1.21 2 2 0 0 0 1.29.44zm-148.72 44.2L606.92 93h-.07q.12 1.35.12 3.21v8.18h-1.38V91.52h2.25l4.07 10.6h.09l4.1-10.6h2.24v12.85h-1.5v-8.28c0-1 0-2 .12-3.1h-.07l-4.39 11.38zm16.26 0l-.29-1.37h-.07a4.07 4.07 0 0 1-1.43 1.22 4.31 4.31 0 0 1-1.79.32 3.22 3.22 0 0 1-2.25-.73 2.73 2.73 0 0 1-.81-2.11q0-2.91 4.67-3l1.63-.06V98a2.43 2.43 0 0 0-.49-1.68 2 2 0 0 0-1.56-.54 6.37 6.37 0 0 0-2.72.74L622 95.4a6.92 6.92 0 0 1 1.56-.6 6.61 6.61 0 0 1 1.7-.22 3.65 3.65 0 0 1 2.55.76 3.17 3.17 0 0 1 .84 2.45v6.58zm-3.29-1a3 3 0 0 0 2.14-.75 2.75 2.75 0 0 0 .78-2.09v-.87l-1.46.06a5.28 5.28 0 0 0-2.51.54 1.62 1.62 0 0 0-.77 1.49 1.52 1.52 0 0 0 .48 1.21 2 2 0 0 0 1.34.38zm11.23 1.17a4.15 4.15 0 0 1-3.24-1.28 5.34 5.34 0 0 1-1.15-3.65 5.43 5.43 0 0 1 1.17-3.73 4.19 4.19 0 0 1 3.32-1.32 6.64 6.64 0 0 1 1.39.15 5 5 0 0 1 1.09.35l-.45 1.24a6.27 6.27 0 0 0-1.06-.32 4.43 4.43 0 0 0-1-.13c-2 0-2.93 1.25-2.93 3.75a4.43 4.43 0 0 0 .71 2.72 2.51 2.51 0 0 0 2.13 1 6.45 6.45 0 0 0 2.47-.52v1.2a5.22 5.22 0 0 1-2.45.54zm11.31-.17v-6.23a2.55 2.55 0 0 0-.53-1.76 2.18 2.18 0 0 0-1.68-.58 2.74 2.74 0 0 0-2.22.82 4.19 4.19 0 0 0-.7 2.71v5h-1.46V90.69h1.46v4.14a8.56 8.56 0 0 1-.07 1.24h.09A2.88 2.88 0 0 1 642.9 95a4 4 0 0 1 1.82-.4 3.71 3.71 0 0 1 2.65.84 3.51 3.51 0 0 1 .88 2.66v6.29zm4.34-12.25a1 1 0 0 1 .24-.73.9.9 0 0 1 .62-.23.85.85 0 0 1 .6.24.93.93 0 0 1 .26.72 1 1 0 0 1-.26.74.85.85 0 0 1-.6.24.86.86 0 0 1-.62-.24 1 1 0 0 1-.24-.74zm1.58 12.25h-1.46v-9.64h1.46zm9.68 0v-6.23a2.55 2.55 0 0 0-.53-1.76 2.18 2.18 0 0 0-1.68-.58 2.76 2.76 0 0 0-2.22.82 4.09 4.09 0 0 0-.7 2.69v5.06h-1.46v-9.64h1.2l.23 1.32h.07a3 3 0 0 1 1.26-1.1 4.1 4.1 0 0 1 1.8-.39 3.65 3.65 0 0 1 2.62.84 3.54 3.54 0 0 1 .88 2.68v6.29zm8.53.17a4.4 4.4 0 0 1-3.37-1.3 5 5 0 0 1-1.24-3.61 5.55 5.55 0 0 1 1.15-3.7 3.81 3.81 0 0 1 3.08-1.37 3.66 3.66 0 0 1 2.87 1.19 4.57 4.57 0 0 1 1.05 3.14v.92h-6.64a3.84 3.84 0 0 0 .86 2.58 3 3 0 0 0 2.29.88 7.85 7.85 0 0 0 3.08-.65v1.3a8.35 8.35 0 0 1-1.47.48 8 8 0 0 1-1.66.14zm-.4-8.76a2.37 2.37 0 0 0-1.85.76 3.46 3.46 0 0 0-.81 2.09h5a3.23 3.23 0 0 0-.62-2.12 2.2 2.2 0 0 0-1.72-.73zm12.56 8.59h-1.46V90.69h1.46zm7.17.17a4.44 4.44 0 0 1-3.38-1.3 5 5 0 0 1-1.23-3.61 5.55 5.55 0 0 1 1.15-3.7 3.81 3.81 0 0 1 3.08-1.37 3.64 3.64 0 0 1 2.86 1.19 4.52 4.52 0 0 1 1.06 3.14v.92h-6.64a3.84 3.84 0 0 0 .86 2.58 2.94 2.94 0 0 0 2.29.88 7.8 7.8 0 0 0 3.07-.65v1.3a6.87 6.87 0 0 1-3.12.62zm-.4-8.76a2.37 2.37 0 0 0-1.85.76 3.46 3.46 0 0 0-.81 2.09h5a3.23 3.23 0 0 0-.61-2.12 2.2 2.2 0 0 0-1.73-.73zm12.35 8.59l-.29-1.37h-.07a4 4 0 0 1-1.44 1.22 4.28 4.28 0 0 1-1.79.32 3.21 3.21 0 0 1-2.24-.73 2.7 2.7 0 0 1-.82-2.11q0-2.91 4.67-3l1.64-.06V98a2.48 2.48 0 0 0-.49-1.68 2 2 0 0 0-1.56-.54 6.41 6.41 0 0 0-2.73.74l-.45-1.12a7.11 7.11 0 0 1 1.56-.6 6.69 6.69 0 0 1 1.71-.22 3.68 3.68 0 0 1 2.55.76 3.21 3.21 0 0 1 .83 2.45v6.58zm-3.3-1a3 3 0 0 0 2.14-.75 2.75 2.75 0 0 0 .78-2.09v-.87l-1.46.06a5.28 5.28 0 0 0-2.51.54 1.64 1.64 0 0 0-.77 1.49 1.52 1.52 0 0 0 .48 1.21 2 2 0 0 0 1.34.38zm11.78-8.81a5.73 5.73 0 0 1 1.15.1l-.2 1.36a4.84 4.84 0 0 0-1.06-.13 2.55 2.55 0 0 0-2 1 3.47 3.47 0 0 0-.83 2.36v5.17h-1.45v-9.69h1.2l.17 1.79h.07a4.07 4.07 0 0 1 1.27-1.45 2.9 2.9 0 0 1 1.68-.51zm9.54 9.81v-6.23a2.5 2.5 0 0 0-.53-1.76 2.18 2.18 0 0 0-1.69-.58 2.76 2.76 0 0 0-2.22.82 4.15 4.15 0 0 0-.7 2.69v5.06h-1.46v-9.64h1.19l.24 1.32h.07a3 3 0 0 1 1.25-1.1 4.11 4.11 0 0 1 1.81-.39 3.62 3.62 0 0 1 2.61.84 3.54 3.54 0 0 1 .88 2.68v6.29zm4.34-12.25a1 1 0 0 1 .24-.73.9.9 0 0 1 .62-.23.87.87 0 0 1 .61.24.93.93 0 0 1 .25.72 1 1 0 0 1-.25.74.87.87 0 0 1-.61.24.86.86 0 0 1-.62-.24 1 1 0 0 1-.24-.74zm1.58 12.25h-1.46v-9.64h1.46zm9.69 0v-6.23a2.51 2.51 0 0 0-.54-1.76 2.18 2.18 0 0 0-1.68-.58 2.73 2.73 0 0 0-2.21.82 4.09 4.09 0 0 0-.71 2.69v5.06h-1.46v-9.64h1.19l.24 1.32h.07A3 3 0 0 1 732 95a4.11 4.11 0 0 1 1.81-.39 3.67 3.67 0 0 1 2.62.84 3.58 3.58 0 0 1 .87 2.68v6.29zm12.34-9.64v.93l-1.79.21a3.12 3.12 0 0 1 .44.8 3.06 3.06 0 0 1 .19 1.12 2.85 2.85 0 0 1-1 2.26 3.93 3.93 0 0 1-2.66.85 5.31 5.31 0 0 1-.81-.07 1.42 1.42 0 0 0-.93 1.23.63.63 0 0 0 .33.59 2.3 2.3 0 0 0 1.11.19h1.71a3.81 3.81 0 0 1 2.4.66 2.29 2.29 0 0 1 .84 1.91 2.74 2.74 0 0 1-1.28 2.44 6.87 6.87 0 0 1-3.75.84 5.09 5.09 0 0 1-2.91-.7 2.28 2.28 0 0 1-1-2 2.22 2.22 0 0 1 .56-1.52 2.81 2.81 0 0 1 1.58-.87 1.54 1.54 0 0 1-.62-.52 1.32 1.32 0 0 1-.25-.81 1.62 1.62 0 0 1 .28-.93 3 3 0 0 1 .89-.76 2.68 2.68 0 0 1-1.22-1 3.45 3.45 0 0 1 .48-4.12 3.85 3.85 0 0 1 2.69-.86 5.11 5.11 0 0 1 1.36.17zM740.48 106a1.3 1.3 0 0 0 .66 1.19 3.63 3.63 0 0 0 1.89.41 5.32 5.32 0 0 0 2.72-.55 1.7 1.7 0 0 0 .89-1.49 1.19 1.19 0 0 0-.49-1.09 3.79 3.79 0 0 0-1.82-.3h-1.75a2.32 2.32 0 0 0-1.54.47 1.7 1.7 0 0 0-.56 1.36zm.79-8.16a2 2 0 0 0 .58 1.53 2.3 2.3 0 0 0 1.59.52 1.86 1.86 0 0 0 2.13-2.08 1.92 1.92 0 0 0-2.16-2.17 2.13 2.13 0 0 0-1.58.56 2.22 2.22 0 0 0-.56 1.62zM116.07 279a45 45 0 1 0 45 45 45 45 0 0 0-45-45zm33 44c-3.59 1.25-7.21 2.39-10.85 3.48-1.41.41-1.81 1-1.48 2.62.54 2.62.81 5.31 1.13 8a3.88 3.88 0 0 1-1 3.06 10.55 10.55 0 0 1-4.3 2.94 41.65 41.65 0 0 1-13.57 2.4 44.38 44.38 0 0 1-17.85-2.5 10.14 10.14 0 0 1-4.15-2.78 4.66 4.66 0 0 1-1.11-3.9c.39-2.6.78-5.2 1.21-7.79.17-1 0-1.67-1.1-1.94s-2.21-.77-3.33-1.13c-1.84-.59-3 .4-2.09 2 1.4 2.46 1.4 4.37-.05 6.69-.45.73 0 2.07 0 3.12.28 3.5.65 7 .87 10.5.15 2.32-1.64 1.22-2.5 1.52-3 0-2.9 0-2.59-3.11.39-3.85.55-7.72.81-11.57a2.3 2.3 0 0 0-.52-1.6c-1.27-1.7-1.23-3 .2-4.69 1-1.2.47-2.7.85-4 .14-.46-.6-.57-1-.72a24.38 24.38 0 0 1-2.52-.91 4.41 4.41 0 0 1-2.38-4.29 4.6 4.6 0 0 1 3-3.91c9.74-3.09 19.5-6.14 29.24-9.23 3-.95 5.82 0 8.66.87q13.1 4.15 26.2 8.28a4.59 4.59 0 0 1 3.21 4.24 4.19 4.19 0 0 1-2.95 4.28z"/><path class="cls-1" d="M146.85 317.72c-7-2.23-13.92-4.49-20.91-6.63-3-.9-5.84-2.32-9-2.4a8.74 8.74 0 0 0-3.28.51c-8.88 2.84-17.77 5.64-26.65 8.48-.58.19-1.54.12-1.53 1.06s.93.86 1.52 1.05l27.45 8.74a7.74 7.74 0 0 0 4.76 0q13.81-4.38 27.61-8.78c.58-.19 1.51-.1 1.47-1.08s-.9-.77-1.44-.95z"/><path class="cls-1" d="M133.31 329.43c-.11-1.16-.4-1.34-1.44-1-3.17 1.06-6.41 1.9-9.56 3a15.36 15.36 0 0 1-10.89 0c-3.1-1.12-6.28-2-9.41-3-1-.32-1.5-.45-1.59 1a51.93 51.93 0 0 1-.82 5.57c-.48 2.74-.15 3.5 2.38 4.56 4.73 2 9.73 2.23 15.75 2.42 1.44.19 3.87-.29 6.3-.5a24.48 24.48 0 0 0 8.06-2c2-.93 2.44-1.69 2.13-3.76s-.71-4.2-.91-6.29z"/><path class="cls-5" d="M536.37 20.84a38.33 38.33 0 1 0 38.32 38.33 38.33 38.33 0 0 0-38.32-38.33zm16.71 39.1c.89.76 1.71 1.58 2.53 2.41 1.83 1.86 1.4 3.33-1.16 4-1.13.3-2.25.58-3.39.83-.76.16-.95.5-.7 1.26.42 1.26.77 2.55 1.08 3.84.46 1.9-.67 3-2.56 2.61-1.6-.34-3.49-1.72-4.65-1s-1 2.89-1.45 4.42c-.61 2-2.1 2.41-3.61 1-.92-.88-1.81-1.8-2.65-2.76-.56-.65-1-.72-1.56 0-.79.93-1.66 1.8-2.53 2.65-1.68 1.62-3.15 1.25-3.79-1a66.77 66.77 0 0 1-.94-3.7c-.17-.77-.51-1-1.27-.69-1.31.43-2.65.8-4 1.11A1.91 1.91 0 0 1 520 72.5a14.52 14.52 0 0 1 .84-3c.83-1.73.15-2.32-1.5-2.54a18.29 18.29 0 0 1-2.89-.74c-1.8-.56-2.21-2.05-.93-3.44a39.47 39.47 0 0 1 2.83-2.78c.64-.57.72-1 0-1.57a35.72 35.72 0 0 1-2.87-2.77c-1.35-1.47-.9-2.88 1-3.53 1.57-.52 4-.26 4.53-1.51s-.68-3.1-1.06-4.71a2 2 0 0 1 2-2.63c1.33.39 2.79.74 4.19 1.24 1 .36 1.35 0 1.55-.93.24-1.19.56-2.37.91-3.53.62-2 2.1-2.44 3.6-1a22.14 22.14 0 0 1 2.41 2.53c.83 1.09 1.42.83 2.16-.07s1.35-1.47 2-2.17c1.86-1.85 3.32-1.44 4 1.12.31 1.12.59 2.25.83 3.38.16.78.52 1 1.27.72 1.32-.42 2.65-.8 4-1.12a1.92 1.92 0 0 1 2.47 2.43c-.29 1.29-.69 2.57-1.08 3.84-.24.79-.25 1.31.79 1.49a29.93 29.93 0 0 1 3.7.94c2 .6 2.4 2.08 1 3.62-.87.93-1.8 1.81-2.76 2.65-.53.52-.6.93.09 1.52z"/><path class="cls-1" d="M676.21 288a41 41 0 1 0 40.95 41 41 41 0 0 0-40.95-41zM669 331.08c2.14-2.32 4.33-4.58 6.44-6.92.8-.89 1.39-.85 2.14 0 .87 1 1.86 2 2.72 3 .57.68.94.61 1.48 0 1.21-1.41 2.46-2.77 3.73-4.11.49-.51.56-.87 0-1.38s-1-1.11-1.54-1.65a2 2 0 0 1-.52-2.25 1.59 1.59 0 0 1 1.76-1h7.62a1.63 1.63 0 0 1 1.76 1.8v8.59a1.76 1.76 0 0 1-1.06 1.7 1.48 1.48 0 0 1-1.84-.42l-.31-.33c-2.08-2.18-2.08-2.18-4.18.1l-4.78 5.19c-1.43 1.55-1.44 1.55-2.92-.06-.68-.73-1.41-1.42-2-2.22s-1.2-1-2-.06c-1.37 1.67-2.91 3.17-4.34 4.79-.75.85-1.33.93-2.13 0-2.43-2.74-2.4-2.22-.03-4.77zm27.66 12.28c-.26.6-1 .36-1.46.36h-32.83c-1.4 0-1.8-.48-1.79-2q.07-12.81 0-25.63c0-1.54.45-2 1.82-1.94 2.77.07 2.77 0 2.77 2.94 0 6.62.05 13.24 0 19.85 0 1.57.43 1.86 1.77 1.85 9.3-.07 18.61 0 27.92 0 .72 0 1.78-.33 2 .73a6.72 6.72 0 0 1-.21 3.84z"/></g></svg>