<svg id="Capa_1" data-name="Capa 1" xmlns="http://www.w3.org/2000/svg" viewBox="0 0 280 280"><defs><style>.cls-1{fill:#e44f26;}.cls-2{fill:#e8876c;}</style></defs><title>Mesa de trabajo 9</title><path class="cls-1" d="M135.91,269c-73.27-.2-130.33-58.49-130-132.86C6.11,66.85,65.14,9.09,135.8,9c72.93-.09,130.33,58.56,130.05,132.89C265.6,211.19,206.3,269.19,135.91,269Z"/><path class="cls-2" d="M135.18,254.21c-63.45-.09-114.92-52.14-114.8-116.07C20.51,74.91,72.75,23.68,137,23.83c63.33.16,114.57,52.34,114.37,116.49C251.13,203,198.85,254.31,135.18,254.21Z"/><path class="cls-1" d="M213.18,145,179.79,130.6c-3.6-1.56-7.16-3.2-10.79-4.69a2.52,2.52,0,0,1-1.92-2.79c.13-3.51,0-7,0-10.87,4.88,1.34,9.06,3.82,13.41,5.79,14.57,6.58,29,13.46,43.59,20,2.24,1,2.62,2.27,2.92,4.52.8,6.06-1.16,9.24-7.13,11.76-17.35,7.34-34.31,15.6-51.43,23.48a11.18,11.18,0,0,1-1.34.38c0-4.15,0-8.12,0-12.09,0-1.47,1.4-1.47,2.28-1.85,12.83-5.55,25.68-11,38.51-16.57A17.48,17.48,0,0,0,213.18,145Z"/><path class="cls-1" d="M111.23,178.45c-7.19-3.29-13.92-6.32-20.61-9.45-12.09-5.65-24.13-11.42-36.26-17-2.12-1-2.77-2.09-3.09-4.43-.81-5.88,1.39-8.7,6.87-11.08C75.22,129.08,92,120.9,108.88,113c.65-.3,1.34-.52,2.34-.9,0,4.11-.06,7.92,0,11.73,0,1.51-1.08,1.66-2,2.07q-17.86,7.92-35.74,15.8c-2.42,1.07-4.83,2.19-7.68,3.48,5,2.26,9.74,4.41,14.47,6.5,9.49,4.18,19,8.36,28.52,12.45,1.8.77,2.58,1.73,2.46,3.78C111.08,171.22,111.23,174.54,111.23,178.45Z"/><path class="cls-1" d="M126.64,183.71c-6.12,0-6.18,0-4.47-5.86q11.38-38.78,22.85-77.52c2.31-7.8,2.37-7.78,10.4-7.78a17.41,17.41,0,0,0,1.91,0c2.25-.22,2.35.72,1.78,2.65-5.75,19.4-11.4,38.82-17.1,58.23-2.58,8.79-5.36,17.52-7.74,26.36-.84,3.13-2.15,4.59-5.4,4A12.75,12.75,0,0,0,126.64,183.71Z"/></svg>