<svg id="Capa_1" data-name="Capa 1" xmlns="http://www.w3.org/2000/svg" viewBox="0 0 280 280"><defs><style>.cls-1{fill:#68e3f8;}.cls-2{fill:#002c44;}.cls-3{fill:#67e3f8;}.cls-4{fill:#67e2f7;}.cls-5{fill:#073950;}.cls-6{fill:#093b53;}.cls-7{fill:#06374e;}.cls-8{fill:#04324a;}.cls-9{fill:#07374f;}.cls-10{fill:#05344c;}.cls-11{fill:#083b52;}.cls-12{fill:#10485f;}</style></defs><title>Mesa de trabajo 12 copia 3</title><path class="cls-1" d="M143.57,13.25c65.75-1.38,125.55,53.48,125.24,126.4-.29,67.91-56.91,124-125.65,123.85C76,263.33,17.83,210.61,18,138.37,18.21,61.21,81,11.64,143.57,13.25Z"/><path class="cls-2" d="M253.48,137.88c.06,61.08-48.3,110.83-109.56,110.63-68.2-.23-110.73-55.31-110.63-108.77.13-62.65,48.32-111.79,110-111.8A109.71,109.71,0,0,1,253.48,137.88Z"/><path class="cls-3" d="M160.12,194.64c-6.78-2.71-11.25-10.87-16.89-10.71s-10.89,6.91-16.56,10.38a37.09,37.09,0,0,1-9.63,4c-10.53,2.81-17.84-1.48-20.93-12A43,43,0,0,1,95.73,164c1.34-5.63.66-8.71-5.64-10.5a44.39,44.39,0,0,1-19.81-12c-7.89-8.17-7.77-16.77.35-24.69a45.79,45.79,0,0,1,20.09-11.47c5.35-1.46,6.53-4.22,5.29-9.3a46.05,46.05,0,0,1-.19-22.35c3-11.9,10.57-16.39,22.32-12.84a51.61,51.61,0,0,1,20.61,12.25c3.33,3.15,5.38,2.8,8.54-.17a51.1,51.1,0,0,1,19.05-11.75c12.86-4.21,20.86.53,23.72,13.67,1.71,7.85.94,15.58-.57,23.19-.82,4.19.26,5.66,4.08,6.78a57.54,57.54,0,0,1,17.26,8.51c13.6,9.69,13.85,21.25.75,31.41-4.5,3.5-9.38,6.67-14.81,7.94-7.11,1.67-8,5.59-6.5,11.68.47,1.87,2.66,5-1.51,5.71-3.52.56-5.62-1-5.4-4.91.39-7-3.49-7-9.17-6.5-9.44.86-16,4.63-21.52,12.63-3.88,5.6-3.23,7.9,1.71,11.24C158.34,185.22,164,187.47,160.12,194.64Z"/><path class="cls-4" d="M185.33,214.86A20.54,20.54,0,0,1,165,194.37c-.05-11.46,9.62-21.12,20.95-20.93a20.84,20.84,0,0,1,20.29,20.73A20.35,20.35,0,0,1,185.33,214.86Z"/><path class="cls-2" d="M142.57,154.23c-5-1.29-11.4,2.52-15.06-2.68-4.87-7-11.9-14.1-11.61-22.42S122.32,113.25,128,107c4.48-5,11.71-1.81,17.68-2.12,4.08-.22,9.14-1.9,12.15,2,5.26,6.74,11.86,14.17,12.08,22.19.23,8.44-6.66,16.15-12.07,23C154.12,156.71,147.68,153,142.57,154.23Z"/><path class="cls-2" d="M106.42,129.38c-2.32,6.07-4.59,12.05-6.9,18-.69,1.81-2,1.21-3.32.78-7.9-2.71-15.41-6.11-21.28-12.33-4.25-4.5-4.12-9.08.21-13.4C81,116.62,88.37,113.57,96,110.92c1.27-.45,2.82-1.07,3.47.52C101.87,117.35,104.09,123.34,106.42,129.38Z"/><path class="cls-2" d="M183.64,85.77c-.22,15-8,19.88-21.52,12-5.41-3.16-8.76-9.86-13-15-.29-.36,0-1.38.28-2,2.41-5.18,20.82-15.28,26.17-13.93,7.31,1.84,7.31,8.3,8,14.11A42.82,42.82,0,0,1,183.64,85.77Z"/><path class="cls-2" d="M102.17,173.94c0-15.37,8.23-20.68,21.82-12.83,5.41,3.12,8.73,9.89,13,15,.9,1.09,0,2.07-.71,2.71-7.16,6.16-14.64,12.29-24.38,12.94-7.88.52-8.92-6.2-9.65-12.24A47.69,47.69,0,0,1,102.17,173.94Z"/><path class="cls-2" d="M188.41,110.52c9.3,3.46,17.92,6.61,23.88,14.14,2.53,3.2,2.26,6.52-.27,9.58-5.88,7.14-14,10.66-22.44,13.55-1.37.47-2.15.48-3.24-.92-6.33-8.09-6.63-26.19-.43-34.63C186.77,111.08,187.47,110,188.41,110.52Z"/><path class="cls-2" d="M102,82.81c0-.63.11-2.78.38-4.91,1.3-10.18,6.06-13.12,15.45-9.51a22.27,22.27,0,0,1,5.06,2.43c5,3.57,12.77,5.18,13.36,12.22.42,5.07-13.74,15.21-19.9,16C102.39,100.76,102.06,100.43,102,82.81Z"/><path class="cls-5" d="M110.48,137.42l8.87,15.37c-4.91-.71-10,.81-12-2.59C105.4,147,109.2,143.23,110.48,137.42Z"/><path class="cls-6" d="M119.21,106.18l-7.67,13.28C104,108.75,104.4,107.91,119.21,106.18Z"/><path class="cls-7" d="M166.75,152.09c2.95-5.05,5.18-8.89,7.69-13.18,3.31,3.34,5.83,7.93,4.24,11S171.72,152.43,166.75,152.09Z"/><path class="cls-8" d="M152.26,97.22H135.48c1.56-4,3.85-8.46,7.1-8.82C146.64,87.94,147.51,93.63,152.26,97.22Z"/><path class="cls-9" d="M166.75,106.59c4.74.22,9.5-1,11.55,2.52,1.9,3.19-1.83,6.65-2.94,12.25Z"/><path class="cls-10" d="M133.77,161.77h16.59c-1.58,4.1-3.76,8.47-7.29,8.74S138.34,165.49,133.77,161.77Z"/><path class="cls-11" d="M190.06,190.52c2.39,1.52,4.25,2.54,5.92,3.81a5,5,0,0,1,1.7,5.74c-.82,2.58-2.83,3.66-5.49,3.8-2.51.13-5-.21-6.52-2.26-1.29-1.74-.09-3,1.87-3.06,1.69-.06,3.07,2.2,5.11,1,.43-3.69-3-3.29-4.56-4.68-2.93-2.62-3.31-5.51-.75-8.31a5.17,5.17,0,0,1,6.59-1c1.23.66,2.64,1.44,2,2.9C194.94,190.92,192.05,188.33,190.06,190.52Z"/><path class="cls-12" d="M183.31,192.8c-.12,5.53.92,11.68-7.6,11-1.63-.13-3.32-1-3.43-2.73-.14-2.12,1.42-2.22,3.26-2,5.6.61,2.23-3.84,3.14-5.88,1.11-2.48-1.15-7.42,2.46-7.39C185.07,185.77,182.47,190.52,183.31,192.8Z"/><path class="cls-4" d="M142.35,143.38a14.15,14.15,0,0,1,.63-28.3,14.47,14.47,0,0,1,14.25,14.44C157.12,137.17,150.21,143.61,142.35,143.38Z"/></svg>