<svg id="Capa_1" data-name="Capa 1" xmlns="http://www.w3.org/2000/svg" viewBox="0 0 280 280"><defs><style>.cls-1{fill:#eeda4f;}.cls-2{fill:#323330;}.cls-3{fill:#fefefe;}.cls-4{fill:#eeda50;}</style></defs><title>Mesa de trabajo 12 copia 5</title><path class="cls-1" d="M269.94,140.63c1.76,69.83-59.3,130-131,129.37C69.69,269.4,9.51,210.55,10,139,10.48,69.53,69.74,9.17,141.87,10,210.83,10.81,272.2,69.44,269.94,140.63Z"/><path class="cls-2" d="M255.77,139.57c.06,63.8-51.85,115.83-115.57,115.83-63.36,0-115.54-51.89-115.59-115C24.56,76.62,76.46,24.6,140.18,24.59,203.54,24.58,255.72,76.48,255.77,139.57Z"/><path class="cls-1" d="M138.31,222.39c-19.59-10.62-39.15-21.28-58.79-31.81-3-1.63-4.27-3.84-4.66-7.22-3.47-29.59-7-59.17-10.8-88.72-.51-4-.1-6,4-7.4,24.07-7.87,48.06-16,72.07-24,2.52,2.74,2.58,6.08,2.34,9.5a8.16,8.16,0,0,1-1.26,2.2c-11.86,21.76-21.19,44.72-31.95,67-5.68,11.76-11.4,23.53-16.52,35.56-.83,1.95-3.07,4.05-1.31,6.09s4.69,1.13,7.12.75c3-.47,4.8-2.61,6.09-5.21,1.11-2.25,1.9-4.63,2.89-6.93,6-13.81,15.5-18.13,30-13.65a6.1,6.1,0,0,1,4.25,3.69c2.09,18,.87,36,.68,54.08C142.48,218.9,142.18,222.08,138.31,222.39Z"/><path class="cls-1" d="M138.31,222.39c2.65-2.06,1.87-5,1.87-7.67,0-18.22,0-36.43,0-54.65.3-.3.61-.59.91-.9,5.4-2.15,11-1,16.57-1.12,4.43-.08,7.29,2.09,9,6.17,1.93,4.64,3.78,9.31,5.69,13.95,1.48,3.62,3.64,6.35,7.89,6.41,2.42,0,5.38,1.18,7-1.31,1.39-2.13-.63-4.19-1.5-6.16-13.48-30.34-27.43-60.46-41-90.76-1.82-4.08-5.33-8.13-3-13.29-1.63-3.1-1.64-6.46-1.57-9.83C164.62,70.11,188,80,212.08,88c3.62,1.21,3.72,3.55,3.37,6.53q-5.2,44.06-10.35,88.11c-.47,4.07-1.83,7.06-5.87,9.24-17.95,9.68-35.66,19.79-53.54,29.6C143.54,222.65,141.18,225.54,138.31,222.39Z"/><path class="cls-3" d="M140.16,160.07c-.56,0-1.12,0-1.67-.13-16.56-2.6-28.27,1.7-32.1,20.14-2.35,11.31-12.15,5.1-19.37,6.8,1.33-7.36,5.08-13,7.82-18.89q21.06-45.57,42.48-91a28.52,28.52,0,0,1,2.76-4c4.41,10.74,2.3,21.95,2.41,33a13.61,13.61,0,0,1-.5,2.68c-4.25,9-8.12,18.18-12.53,27.12-2.24,4.55-2.5,7.3,3.81,7.17,3-.07,6.21.08,8.11,3.19,1.44,4.74,2.25,9.42-1.37,13.64Z"/><path class="cls-3" d="M140,159.82l.15-14.58.72-.94c3.73-2.34,8.13-.54,12.13-1.86-3.79-11.52-10.84-21.74-12.47-33.94q-.22-17.73-.46-35.46a5.77,5.77,0,0,1,1.66,0c8.7,22.94,19.93,44.76,29.73,67.22,5.91,13.53,12,27,18.46,40.27,2.84,5.83.63,6.23-4.48,6.41-7.91.29-13.18-.93-16.25-10-5.77-17.06-6.54-16.79-25-16.93C142.79,160,141.4,159.88,140,159.82Z"/><path class="cls-4" d="M140.16,145.24c-17-.68-17.1-.71-9.7-16.32,3-6.44,5.26-13.33,9.75-19,3.32,11.55,4.67,23.1,0,34.66Z"/><path class="cls-1" d="M140.25,144.54q0-17.32,0-34.66a3.67,3.67,0,0,1,.33-1.38c4.79,10.79,9.52,21.59,14.38,32.35,1.59,3.51.2,4.4-3.11,4.2C148,144.81,144.1,144.7,140.25,144.54Z"/></svg>