<svg id="Capa_1" data-name="Capa 1" xmlns="http://www.w3.org/2000/svg" viewBox="0 0 280 280"><defs><style>.cls-1{fill:#032695;}.cls-2{fill:#0365bf;}.cls-3{fill:#fefefe;}.cls-4{fill:#fdfdfe;}.cls-5{fill:#b7d2ec;}.cls-6{fill:#0c6ac2;}</style></defs><title>Mesa de trabajo 2</title><path class="cls-1" d="M145.51,271.08A129.67,129.67,0,0,1,15.43,140.81c.08-71.45,58-129.69,128.92-129.73,73,0,131.23,57.85,131.08,130.24A130,130,0,0,1,145.51,271.08Z"/><path class="cls-2" d="M144.45,255.78C82.82,257.31,29.9,205.21,30,140.92,30.07,77.48,81.2,26.27,145.51,25.82c61.62-.44,115.42,52.06,115.24,115.35C260.58,203.65,208.08,258.23,144.45,255.78Z"/><path class="cls-3" d="M145.86,184.43c8.64,0,17.28-.15,25.91.06,4.93.12,10.92-2,12.59,6,.51,2.46,3.91.73,6,.85,4.76.28,9.75.39,12.21,5.51,2.6,5.4.84,10.3-2.42,14.84a9.5,9.5,0,0,1-2.19,2.51c-13.22,8.81-25.63,19.49-39.95,25.89-23.37,10.46-50.61-8.08-51.16-33.78-.53-24.62-3.3-21.75,20.62-21.91C133.6,184.4,139.73,184.43,145.86,184.43Z"/><path class="cls-4" d="M164.14,42c7.33,9.82,6.15,19.88,1.6,30-5.31,11.77-14.45,20.34-24.1,28.45-2.77,2.33-5.65,4.54-8.28,7-15,14.15-16.38,26.23-4.9,43.56,2.8,4.23,5.66,8.43,7.44,13.38-11.85-9.23-23-19-27.3-34.08-2.07-7.24.7-13.67,5.37-19.37,7.5-9.16,17.41-15.56,26.27-23.18a172.67,172.67,0,0,0,13.4-12.53C162.36,65.93,165.5,54.73,164.14,42Z"/><path class="cls-4" d="M183.63,93.14c-8.18,5.73-16.9,10.77-23.79,18.21-7.71,8.32-8.35,14.37-2.38,24,1.32,2.12,2.84,4.13,4.24,6.2,8.52,12.62,4.92,24.88-11,32.54,6.59-10.72,2-18-3.93-25.84-11.46-15.13-9.2-29.64,5.56-41.65a84.6,84.6,0,0,1,29.3-15.42C183.47,90.59,183.92,91.49,183.63,93.14Z"/><path class="cls-5" d="M183.63,93.14l-2-2c1.77-2,4.2-1.74,6.69-2.67C187.89,92.05,185.61,92.42,183.63,93.14Z"/><path class="cls-6" d="M182.47,215.53c.48-4.07,1.4-8.1,1.31-12.12-.1-4.6,1.21-6.88,6.1-6,4.53.78,6.94,3.14,6.07,8C195,210.71,190.5,214.13,182.47,215.53Z"/></svg>