<svg xmlns="http://www.w3.org/2000/svg" viewBox="0 0 386 300.67"><g id="Capa_2" data-name="Capa 2"><g id="Capa_1-2" data-name="Capa 1"><path d="M297.27,0s-84.39,181.9-86.53,185.57a69.74,69.74,0,0,1-60.3,34.64c-2.14,0-18.27-2.16-23.8-4.16a69.8,69.8,0,0,1-46-65.61H0v7.87A150.06,150.06,0,0,0,150,300.67q3.57,0,7.11-.16A150.21,150.21,0,0,0,281.73,222.8C284.94,217,386,0,386,0Z" style="fill:#78e3fd"/><polygon points="246.64 0 234.45 26.14 209.02 80.66 120.19 80.66 157.7 0 246.64 0" style="fill:#78e3fd"/><path d="M80.66,150.44a69.8,69.8,0,0,0,46,65.61c5.53,2,21.66,4.16,23.8,4.16a69.74,69.74,0,0,0,60.3-34.64C212.83,182,293.9,7.26,297.17.23H246.53L234.45,26.14,209,80.66H120.19L157.59.23h-8.74A150.11,150.11,0,0,0,0,150.34v.1Z" style="fill:#555882"/></g></g></svg>