<svg id="Capa_1" data-name="Capa 1" xmlns="http://www.w3.org/2000/svg" viewBox="0 0 261.94 380.71"><defs><style>.cls-1{fill:#696665;}.cls-1,.cls-10,.cls-11,.cls-12,.cls-13,.cls-14,.cls-15,.cls-16,.cls-17,.cls-18,.cls-19,.cls-2,.cls-20,.cls-21,.cls-22,.cls-23,.cls-24,.cls-25,.cls-3,.cls-4,.cls-5,.cls-6,.cls-7,.cls-8,.cls-9{fill-rule:evenodd;}.cls-2{fill:#34312f;}.cls-3{fill:#8a8b8c;}.cls-4{fill:#afafb1;}.cls-5{fill:#367c83;}.cls-6{fill:#46aab4;}.cls-7{fill:#ababab;}.cls-8{fill:#959595;}.cls-9{fill:#cccbcb;}.cls-10{fill:#290f01;}.cls-11{fill:#05345e;}.cls-12{fill:#f0c17d;}.cls-13{fill:#042847;}.cls-14{fill:#ffdba7;}.cls-15{fill:#c6def2;}.cls-16{fill:#5e6c78;}.cls-17{fill:#084478;}.cls-18{fill:#d8ecfc;}.cls-19{fill:#e6e6e6;}.cls-20{fill:#12202b;}.cls-21{fill:#1e3345;}.cls-23{fill:#365a78;}.cls-24{fill:#406a8c;}.cls-25{fill:#2d4c66;}</style></defs><title>Job</title><polygon class="cls-1" points="75.98 159.44 77.2 185.31 75.9 221.28 69.06 217.33 69.14 155.48 75.98 159.44"/><polygon class="cls-2" points="75.98 159.44 82.69 155.54 82.6 217.38 75.9 221.28 75.98 159.44"/><polygon class="cls-3" points="131.81 191.8 133.02 217.68 131.72 286.74 124.88 282.79 124.96 187.85 131.81 191.8"/><polygon class="cls-4" points="131.81 191.8 138.51 187.91 138.43 282.84 131.72 286.74 131.81 191.8"/><polygon class="cls-3" points="33.77 184.14 34.98 210.02 33.69 279.08 26.84 275.13 26.93 180.19 33.77 184.14"/><polygon class="cls-4" points="33.77 184.14 40.47 180.25 40.39 275.18 33.69 279.08 33.77 184.14"/><polygon class="cls-3" points="89.59 216.5 90.8 242.38 89.51 311.44 82.66 307.49 82.75 212.56 89.59 216.5"/><polygon class="cls-4" points="89.59 216.5 96.29 212.61 96.21 307.55 89.51 311.44 89.59 216.5"/><polygon class="cls-5" points="82.71 218.79 77.27 215.63 77.25 211.43 82.7 214.6 82.71 218.79"/><path class="cls-3" d="M145.19,168.78a14.81,14.81,0,0,0,.13-2l-5.45-3.16a14.2,14.2,0,0,1-.19,2.31l-.06.36a19.92,19.92,0,0,1-.51,2.2l-.06.21a24.61,24.61,0,0,1-.88,2.39l0,0c-.36.8-.76,1.59-1.2,2.36a.25.25,0,0,1,0,.07,22.24,22.24,0,0,1-1.41,2.16l-.14.19a19.67,19.67,0,0,1-1.48,1.78l-.33.36c-.41.42-.84.81-1.27,1.19-.2.17-.39.35-.59.51a15.35,15.35,0,0,1-1.89,1.32l5.44,3.16a14.54,14.54,0,0,0,1.89-1.31c.21-.16.4-.35.6-.52s.59-.49.87-.77l.39-.41c.12-.13.23-.24.34-.37s.26-.26.38-.4c.28-.33.56-.66.82-1,.1-.13.18-.25.28-.37a2.43,2.43,0,0,1,.14-.2c.09-.11.17-.23.25-.35.21-.28.4-.58.59-.87s.36-.57.53-.86l0-.08,0-.07c.13-.23.27-.46.39-.7s.3-.58.44-.87l.36-.78s0,0,0-.05,0,0,0-.05c.13-.3.26-.6.37-.91s.24-.64.35-.95c.05-.16.09-.32.14-.48l.06-.2c0-.12.08-.24.11-.35.11-.39.21-.78.29-1.16s.08-.47.11-.7.05-.24.07-.36Z" transform="translate(0 0)"/><polygon class="cls-3" points="145.32 166.81 139.87 163.65 139.71 106.97 145.16 110.14 145.32 166.81"/><polygon class="cls-6" points="145.16 110.14 139.71 106.97 143.36 104.87 148.81 108.03 145.16 110.14"/><polygon class="cls-6" points="129.8 181.1 77.25 211.43 82.7 214.6 135.24 184.26 129.8 181.1"/><path class="cls-4" d="M148.81,108l-3.65,2.11.16,56.67c0,6.4-4.51,14.23-10.08,17.45L82.7,214.6v4.19l52.54-30.33c7.59-4.39,13.74-15,13.71-23.76Z" transform="translate(0 0)"/><path class="cls-3" d="M98.26,143.88a14.81,14.81,0,0,0,.13-2L93,138.75a15.31,15.31,0,0,1-.19,2.31l-.06.36a20.08,20.08,0,0,1-.51,2.21l-.06.2a21.55,21.55,0,0,1-.89,2.39l0,.05A23.53,23.53,0,0,1,90,148.62a.16.16,0,0,1,0,.07,22.24,22.24,0,0,1-1.41,2.16l-.14.19A21.48,21.48,0,0,1,87,152.82l-.33.36c-.41.42-.84.81-1.27,1.19-.2.17-.39.36-.59.52a15.35,15.35,0,0,1-1.9,1.31l5.44,3.17a15.79,15.79,0,0,0,1.9-1.32c.2-.16.39-.35.59-.52s.6-.49.88-.77c.14-.13.26-.28.39-.41s.23-.24.34-.37l.38-.4c.28-.33.55-.66.82-1l.27-.37L94,154l.26-.35c.21-.29.4-.59.59-.88s.35-.57.52-.86a.25.25,0,0,0,0-.07l0-.07.4-.71c.15-.29.3-.58.44-.87s.24-.52.35-.78l0-.05s0,0,0,0c.13-.3.25-.6.37-.9s.24-.64.35-1c0-.16.09-.32.14-.47l.06-.21c0-.12.08-.23.11-.35.11-.39.2-.78.28-1.16,0-.23.08-.46.12-.69s0-.25.06-.37A3.43,3.43,0,0,0,98.26,143.88Z" transform="translate(0 0)"/><polygon class="cls-3" points="98.39 141.91 92.95 138.75 92.79 82.08 98.23 85.24 98.39 141.91"/><polygon class="cls-6" points="98.23 85.24 92.79 82.08 96.44 79.97 101.88 83.13 98.23 85.24"/><polygon class="cls-6" points="82.87 156.2 30.33 186.54 35.77 189.7 88.31 159.37 82.87 156.2"/><path class="cls-4" d="M101.88,83.13l-3.65,2.11.16,56.67c0,6.4-4.5,14.24-10.08,17.46L35.77,189.7l0,4.19,52.54-30.33c7.59-4.38,13.74-15,13.71-23.76Z" transform="translate(0 0)"/><path class="cls-7" d="M143.47,189a2.19,2.19,0,0,1-.12.66s0,0,0,.07a2.44,2.44,0,0,1-.31.6l-.07.11a3.05,3.05,0,0,1-.52.57c-.12.11-.29.22-.44.33s-.25.2-.4.28l-51,29.62,0,8.15,50.95-29.61.08,0,.33-.24c.15-.11.31-.22.44-.33l0,0a3.24,3.24,0,0,0,.4-.43.36.36,0,0,0,.07-.1,1,1,0,0,0,.08-.11l.12-.17c.06-.12.12-.25.17-.37s0,0,0-.06a.64.64,0,0,0,0-.07c0-.08,0-.16.07-.23a2.45,2.45,0,0,0,0-.38v0h0Z" transform="translate(0 0)"/><path class="cls-8" d="M88.68,221.94l-.31.08a10.3,10.3,0,0,1-2.23.25h-.09A10.85,10.85,0,0,1,83.7,222l-.08,0a8.1,8.1,0,0,1-2.1-.8L22.44,187.07a3.22,3.22,0,0,1-1.9-2.66l0,8.16a3.21,3.21,0,0,0,1.89,2.66L81.5,229.34a6,6,0,0,0,.92.45c.25.1.52.18.79.26l.39.1.08,0,.19,0c.22,0,.43.09.65.12l.62.07.64,0h.66c.24,0,.48,0,.72-.05l.83-.11.35-.09.31-.08c.19,0,.38-.08.56-.14a6.92,6.92,0,0,0,1.41-.62l0-8.15A7.9,7.9,0,0,1,88.68,221.94Z" transform="translate(0 0)"/><path class="cls-9" d="M141.57,186.29c2.53,1.46,2.52,3.84,0,5.28l-51,29.62a10.07,10.07,0,0,1-9.12,0L22.44,187.07c-2.52-1.45-2.53-3.83,0-5.28l51-29.61a10.12,10.12,0,0,1,9.13,0Z" transform="translate(0 0)"/><path class="cls-7" d="M153.82,119.94l-.09,31.74a5.11,5.11,0,0,1-.1,1v0a3.67,3.67,0,0,1-.26.81h0a2,2,0,0,1-.27.42,2.3,2.3,0,0,1-.7.69l7.05-4.1a2.33,2.33,0,0,0,.71-.69s.07-.05.09-.09a3.07,3.07,0,0,0,.17-.31h0v0a1.33,1.33,0,0,0,.1-.24,1.35,1.35,0,0,0,.08-.24,1.55,1.55,0,0,0,.06-.23s0-.07,0-.09,0,0,0,0a.36.36,0,0,1,0-.1l0-.22c0-.07,0-.15,0-.22s0-.14,0-.21v-.24l.09-31.74Z" transform="translate(0 0)"/><path class="cls-9" d="M151,113.48h0a10,10,0,0,1,.77.93h0a10.68,10.68,0,0,1,.65,1l0,.06c.19.35.37.7.53,1.06h0a10.26,10.26,0,0,1,.41,1.13s0,0,0,0a9.65,9.65,0,0,1,.26,1.13h0a7,7,0,0,1,.09,1.1l7.05-4.1v-.2c0-.07,0-.15,0-.22s0-.15,0-.22l0-.22a.85.85,0,0,0,0-.23h0a1.55,1.55,0,0,0,0-.21c0-.08,0-.16,0-.24l-.06-.24a2.33,2.33,0,0,0-.07-.25,1.8,1.8,0,0,0,0-.19h0a.06.06,0,0,0,0,0,2.17,2.17,0,0,0-.07-.24l-.09-.23a2,2,0,0,0-.08-.22l-.09-.23-.07-.16h0a.17.17,0,0,1,0,0l-.1-.22-.12-.24a2.44,2.44,0,0,1-.14-.28,2.54,2.54,0,0,1-.16-.28.16.16,0,0,1,0-.06.21.21,0,0,1,0-.06c-.11-.19-.22-.37-.34-.54s-.18-.27-.28-.4h0l-.2-.26-.18-.22-.18-.21-.18-.2s0,0,0,0l0,0-.14-.15-.2-.19a1.8,1.8,0,0,0-.2-.19l-.2-.18-.1-.08,0,0-.08-.06-.2-.16-.2-.14-.2-.13-.19-.11,0,0L97.25,73.84l-.15-.08-.18-.1-.19-.08-.18-.08-.18-.07h-.06l-.13,0L96,73.32l-.19,0-.2,0-.14,0h-.06l-.22,0-.24,0-.26,0h0l-.3.08-.38.17-7,4.1a2.51,2.51,0,0,1,.68-.25h0a2.73,2.73,0,0,1,.76,0h0a3.33,3.33,0,0,1,.84.18h0a5.37,5.37,0,0,1,.93.42L149.25,112a6.83,6.83,0,0,1,.92.63s0,0,0,0A8.85,8.85,0,0,1,151,113.48Z" transform="translate(0 0)"/><path class="cls-8" d="M149.25,112l-59-34.1c-2.54-1.46-4.59-.27-4.6,2.62l-.09,31.74a10.07,10.07,0,0,0,4.57,7.9l59.05,34.1c2.54,1.46,4.59.27,4.6-2.62l.09-31.74A10.06,10.06,0,0,0,149.25,112Z" transform="translate(0 0)"/><polygon class="cls-1" points="177.06 217.48 178.27 243.36 176.97 279.32 170.13 275.37 170.21 213.52 177.06 217.48"/><polygon class="cls-2" points="177.06 217.48 183.76 213.58 183.68 275.42 176.97 279.32 177.06 217.48"/><polygon class="cls-3" points="232.88 249.84 234.09 275.72 232.79 344.78 225.95 340.83 226.04 245.89 232.88 249.84"/><polygon class="cls-4" points="232.88 249.84 239.58 245.95 239.5 340.88 232.79 344.78 232.88 249.84"/><polygon class="cls-3" points="134.84 242.18 136.06 268.06 134.76 337.12 127.92 333.17 128 238.23 134.84 242.18"/><polygon class="cls-4" points="134.84 242.18 141.54 238.29 141.46 333.22 134.76 337.12 134.84 242.18"/><polygon class="cls-3" points="190.66 274.55 191.88 300.43 190.58 369.48 183.74 365.53 183.82 270.6 190.66 274.55"/><polygon class="cls-4" points="190.66 274.55 197.37 270.65 197.28 365.59 190.58 369.48 190.66 274.55"/><polygon class="cls-5" points="183.78 276.83 178.34 273.67 178.32 269.47 183.77 272.64 183.78 276.83"/><path class="cls-3" d="M246.26,226.82a16.7,16.7,0,0,0,.13-2l-5.45-3.16a16.69,16.69,0,0,1-.18,2.31c0,.12,0,.24-.07.36a17.47,17.47,0,0,1-.51,2.2l-.06.21a24.61,24.61,0,0,1-.88,2.39.08.08,0,0,0,0,.05,26,26,0,0,1-1.2,2.35l0,.07a24.37,24.37,0,0,1-1.42,2.16,1.33,1.33,0,0,1-.14.19,21.38,21.38,0,0,1-1.47,1.78l-.34.36c-.41.42-.84.81-1.27,1.19-.2.17-.39.35-.59.51a14.06,14.06,0,0,1-1.9,1.32l5.45,3.16A14.54,14.54,0,0,0,238.2,241c.21-.16.4-.35.59-.52s.6-.49.89-.77c.13-.13.25-.28.38-.41s.23-.24.34-.37.26-.26.38-.4c.28-.32.56-.66.82-1,.1-.12.19-.25.28-.37A1.33,1.33,0,0,1,242,237l.26-.36c.2-.28.39-.58.59-.87l.52-.86,0-.08,0-.07c.13-.23.27-.46.4-.7s.29-.58.43-.87.25-.52.36-.78c0,0,0,0,0-.05a.08.08,0,0,0,0,0c.13-.3.26-.6.38-.91s.23-.63.34-1c.05-.16.09-.32.14-.48a1.52,1.52,0,0,0,.06-.2l.12-.35c.1-.39.19-.78.28-1.16s.08-.46.12-.69l.06-.37Z" transform="translate(0 0)"/><polygon class="cls-3" points="246.38 224.85 240.94 221.69 240.78 165.01 246.23 168.18 246.38 224.85"/><polygon class="cls-6" points="246.23 168.18 240.78 165.01 244.43 162.91 249.88 166.07 246.23 168.18"/><polygon class="cls-6" points="230.87 239.14 178.32 269.47 183.77 272.64 236.31 242.3 230.87 239.14"/><path class="cls-4" d="M249.88,166.07l-3.65,2.11.16,56.67c0,6.4-4.51,14.24-10.08,17.45l-52.54,30.34v4.19l52.54-30.33c7.59-4.38,13.74-15,13.72-23.76Z" transform="translate(0 0)"/><path class="cls-3" d="M199.33,201.92a13.13,13.13,0,0,0,.13-2L194,196.79a15.31,15.31,0,0,1-.19,2.31c0,.12,0,.24-.06.37a18.31,18.31,0,0,1-.51,2.2,1.18,1.18,0,0,1-.07.2,21.41,21.41,0,0,1-.87,2.39l0,.05a23.53,23.53,0,0,1-1.19,2.35.43.43,0,0,1,0,.07,23.68,23.68,0,0,1-1.41,2.17l-.14.18a21.48,21.48,0,0,1-1.48,1.78l-.33.36c-.41.43-.84.81-1.28,1.19-.19.17-.38.36-.58.52a15.35,15.35,0,0,1-1.9,1.31l5.45,3.17a16.52,16.52,0,0,0,1.89-1.32c.2-.16.39-.34.59-.52s.6-.49.88-.77l.39-.41.34-.36c.12-.14.25-.27.38-.41.28-.32.55-.66.82-1l.27-.37.14-.19.27-.35c.19-.29.39-.58.58-.88s.36-.57.52-.86a.25.25,0,0,0,0-.07l0-.07.4-.71c.15-.29.3-.58.44-.87s.24-.52.36-.78c0,0,0,0,0-.05l0,0c.13-.3.26-.6.37-.9s.24-.64.34-1c.06-.16.1-.32.15-.47l.06-.2c0-.13.08-.24.11-.36.11-.39.2-.78.28-1.16,0-.23.08-.46.12-.69s0-.24.06-.37A3.43,3.43,0,0,0,199.33,201.92Z" transform="translate(0 0)"/><polygon class="cls-3" points="199.46 199.95 194.02 196.79 193.86 140.12 199.3 143.28 199.46 199.95"/><polygon class="cls-6" points="199.3 143.28 193.86 140.12 197.51 138.01 202.95 141.18 199.3 143.28"/><polygon class="cls-6" points="183.94 214.24 131.4 244.58 136.85 247.74 189.39 217.41 183.94 214.24"/><path class="cls-4" d="M203,141.18l-3.65,2.1.16,56.67c0,6.4-4.5,14.24-10.07,17.46l-52.54,30.33v4.19L189.4,221.6c7.59-4.38,13.74-15,13.71-23.76Z" transform="translate(0 0)"/><path class="cls-7" d="M244.54,247a3.23,3.23,0,0,1-.11.67.14.14,0,0,0,0,.07,2.57,2.57,0,0,1-.31.59.44.44,0,0,1-.08.11,3.78,3.78,0,0,1-.5.57c-.13.11-.3.22-.46.33s-.24.2-.39.29l-50.95,29.61,0,8.15,50.95-29.6.08,0,.33-.24c.15-.11.31-.22.44-.33s0,0,0,0a2.34,2.34,0,0,0,.4-.44.36.36,0,0,0,.07-.1,1,1,0,0,0,.08-.11c0-.05.08-.11.11-.17a1.76,1.76,0,0,0,.17-.37.14.14,0,0,0,0-.06.64.64,0,0,0,0-.07c0-.08,0-.16.07-.23a2.45,2.45,0,0,0,0-.38v0h0Z" transform="translate(0 0)"/><path class="cls-8" d="M189.75,280l-.31.08a10.3,10.3,0,0,1-2.23.25h-.09a10.78,10.78,0,0,1-2.35-.26l-.08,0a8.1,8.1,0,0,1-2.1-.8l-59.08-34.12a3.22,3.22,0,0,1-1.9-2.65l0,8.15a3.2,3.2,0,0,0,1.9,2.66l59.07,34.11a8,8,0,0,0,.93.45c.25.1.52.18.79.26l.39.1.08,0,.2,0c.21.05.42.09.64.12l.62.07c.21,0,.43,0,.64,0h.66c.25,0,.49,0,.72-.05l.83-.11c.12,0,.23-.07.35-.09l.31-.08c.19-.05.39-.08.56-.14a6.69,6.69,0,0,0,1.41-.62l0-8.15A8,8,0,0,1,189.75,280Z" transform="translate(0 0)"/><path class="cls-9" d="M242.64,244.33c2.53,1.46,2.52,3.83,0,5.29l-50.95,29.61a10.09,10.09,0,0,1-9.13,0l-59.08-34.12c-2.51-1.44-2.53-3.83,0-5.28l51-29.61a10.12,10.12,0,0,1,9.13,0Z" transform="translate(0 0)"/><path class="cls-7" d="M254.89,178l-.09,31.75a5,5,0,0,1-.09,1v0a3.67,3.67,0,0,1-.26.81h0a2.48,2.48,0,0,1-.26.42,2.45,2.45,0,0,1-.71.69l7-4.1a2.33,2.33,0,0,0,.71-.69s.06-.05.09-.09a3.07,3.07,0,0,0,.17-.31h0v0a1.6,1.6,0,0,0,.1-.23,2.25,2.25,0,0,0,.08-.24l.06-.24a.37.37,0,0,0,0-.09s0,0,0,0,0-.07,0-.1l0-.22a1.64,1.64,0,0,0,0-.22c0-.07,0-.14,0-.21v-.22h0l.09-31.75Z" transform="translate(0 0)"/><path class="cls-9" d="M252.1,171.52s0,0,0,0a8.72,8.72,0,0,1,.77.92h0c.24.32.45.66.66,1a.33.33,0,0,0,0,.06,11.64,11.64,0,0,1,.53,1.06v0a9.42,9.42,0,0,1,.41,1.12s0,0,0,0a9.06,9.06,0,0,1,.26,1.12h0a7,7,0,0,1,.09,1.1l7.05-4.1v-.42c0-.07,0-.15,0-.22s0-.15,0-.22,0-.16,0-.23h0a2.07,2.07,0,0,0,0-.22c0-.07,0-.15,0-.23l-.06-.24-.06-.25-.06-.18v0a.08.08,0,0,0,0,0c0-.08-.05-.15-.07-.24a1.55,1.55,0,0,1-.08-.23l-.09-.22-.09-.22a.87.87,0,0,0-.07-.17h0l0-.05-.11-.22a2.56,2.56,0,0,0-.11-.24c-.05-.09-.09-.18-.14-.28s-.11-.18-.16-.28l0-.05a.43.43,0,0,0,0-.07c-.11-.18-.22-.37-.34-.54s-.18-.27-.28-.4h0c-.07-.09-.13-.18-.2-.26l-.18-.22-.18-.21c-.05-.07-.12-.13-.18-.2s0,0,0,0l0,0-.14-.15-.2-.19a1.8,1.8,0,0,0-.2-.19l-.2-.18-.1-.08h0l-.08-.07-.2-.16-.2-.14-.19-.13-.2-.11,0,0-59.06-34.1-.14-.08-.19-.09-.19-.09-.18-.08-.18-.06,0,0h0l-.14-.05-.18,0-.19,0-.2,0-.14,0H196l-.26,0h0a1.49,1.49,0,0,0-.3.09,1.84,1.84,0,0,0-.38.17l-7.05,4.1a2.23,2.23,0,0,1,.68-.26h0a2.76,2.76,0,0,1,.77,0h0a3.84,3.84,0,0,1,.84.18h0a5.65,5.65,0,0,1,.92.42l59,34.1a6.09,6.09,0,0,1,.92.64h0A8.85,8.85,0,0,1,252.1,171.52Z" transform="translate(0 0)"/><path class="cls-8" d="M250.32,170.08l-59-34.1c-2.54-1.46-4.59-.27-4.6,2.62l-.09,31.74a10.11,10.11,0,0,0,4.57,7.91l59,34.09c2.54,1.46,4.59.27,4.6-2.61l.09-31.75A10.06,10.06,0,0,0,250.32,170.08Z" transform="translate(0 0)"/><path class="cls-10" d="M220.14,61.47c-8.32-.56-14.28.62-17,4.41-12.18,16.69-2.9,49.37-12.77,62.89l16.83,1.8,23.59-44Z" transform="translate(0 0)"/><path class="cls-11" d="M226.54,131.51c12.67,7.31,19.61,15.18,15.49,17.57s-17.72-1.61-30.38-8.92S192,125,196.15,122.59,213.87,124.19,226.54,131.51Z" transform="translate(0 0)"/><path class="cls-12" d="M147.94,157.16l1.94,3.27s.39,3,.38,3.17-4.48,3.15-4.48,3.15-1.93-1.39-2.15-1.57C138.14,160.85,142.82,159.74,147.94,157.16Z" transform="translate(0 0)"/><path class="cls-13" d="M156.54,175.79c2-3.57,2.51-8.23,2.67-11,11.92,2,42,5.53,35.1,19.3C189.25,194.26,164.34,179.42,156.54,175.79Z" transform="translate(0 0)"/><path class="cls-12" d="M226.56,103.05c-1,3.9-5.58,12.56-2.42,23l-23.31,12,1.93-9.74c2.73-8.33,3.69-13.44,2.82-21.24Z" transform="translate(0 0)"/><path class="cls-14" d="M205.72,66.69c-8,11.69-4.53,19.74-5.65,29.29A24.84,24.84,0,0,0,202,108.1c1.62,4.2,3.59,6.24,6,7,4.69,1.49,24.38-6.92,25.89-13.35l5.83-24.88Z" transform="translate(0 0)"/><path class="cls-15" d="M224.28,123.21c.73,2.12-.47,4.92.42,6.6,2.26,4.22,7.17,6.35,11.32,9.45,10.74,8,.43,28.19-6.62,41.51a48.84,48.84,0,0,0-5.67,18.38c-.36,3.3-.74,5.87.49,9.09,17.89,46.8-38.26,75.43-47.57,42.2-2.65-9.46-1.18-23,7.79-43.34,3.09-7,1.18-12.21,1.25-15.71.07-3.14-2.5-8.48-4.4-16.25a26.37,26.37,0,0,1-3.4-16.76c.94-6.68,5.74-14.36,9.75-22.5,2.35-4.75,3.92-8.72,6.54-11.37,1.83-1.86,6.2-1.51,9.76-2.4-.45,3-.65,8.45.29,12C206.84,132.44,218.71,127.09,224.28,123.21Z" transform="translate(0 0)"/><path class="cls-12" d="M120,261.66c-3.2,21.29-2.65,42.55-4.66,64.66l8.7,10.37c8.11-32.79,17.24-50.18,18.5-69.34.73-11.13,1.37-18.31,2.11-23.76C146.6,224.49,122.43,245.55,120,261.66Z" transform="translate(0 0)"/><path class="cls-14" d="M141.33,250.25c-1.39,10.07.63,15.36-.49,22.85-3.21,21.3-2.66,42.56-4.67,64.67l8.7,10.37c8.12-32.79,17.24-50.19,18.5-69.35.67-10.1,1.25-16.94,1.91-22.19C171.26,209,143.5,229,141.33,250.25Z" transform="translate(0 0)"/><path class="cls-16" d="M228.28,214.69a74.67,74.67,0,0,1,1.58,10.42c.36,9.78-1.07,25.75-10.61,33.42-12.74,10.24-37.19,7.06-56,21.1-17-7.74-37.37-18.67-45.91-25.39,2.28-5.57,4.18-11.11,9.84-14.47,9.63-5.72,45.5-26.87,54.57-27.83,4.53-6.64,5-11.42,4.34-21.61C191.51,197.31,221.62,211.1,228.28,214.69Z" transform="translate(0 0)"/><path class="cls-11" d="M225.47,130.3c5.2,4,6.09,5.63,10.55,9,10.74,8,.43,27.73-5.38,41.64-3.45,8.26-6.34,15.56-5.56,20.28,1.51,9,6,21.58,5.57,32.24-4.08,4.48-21-6.91-30.74-13.78,3.08-7-1.38-27.24-3.28-35-2.15-21.72,17-43.48,26.47-53.47C224.32,129.89,224.63,131.18,225.47,130.3Z" transform="translate(0 0)"/><path class="cls-17" d="M227.33,146.43c-6,12.87,1,44.25,3.58,59.47l11.45,2.34c0-.74,2.34-2.38,2.37-3.16.77-15.86,2.8-39.34.25-53.49-1-5.85-4.86-10.5-9.2-10.38C232.59,141.3,228.65,143.63,227.33,146.43Z" transform="translate(0 0)"/><path class="cls-18" d="M224.86,123.19c-7.13,4.22-13.68,6-20.6,10.62l-.2,9.19c7.59-6.63,13.44-8.22,21.95-13.63Z" transform="translate(0 0)"/><path class="cls-10" d="M226.73,98.3c.43-5.53,3.41-6,4.72-5.62,2.07.57,2.34,2.62,1.65,5-.63,2.25-1.22,5.55-2.84,7.62-1.11,1.42-1.8-.57-2.85.09-5.83,7.79-9,23.32-11.89,28,21.2.94,28.45-17.38,29.3-46.29.47-15.81-7.65-30.56-28.35-27.48-4.57.38-11,2.57-13.46,9.44C197.92,83.29,222.39,86.77,226.73,98.3Z" transform="translate(0 0)"/><path class="cls-18" d="M205,120.64a50.27,50.27,0,0,0-.47,13.35c-2.39,1.49-4.74,3.64-7.22,5a118,118,0,0,1,3.21-16.88Z" transform="translate(0 0)"/><path class="cls-11" d="M183.7,208c4.45-10.12-.09-22.29-2.49-32.1a29.25,29.25,0,0,1-3.82-17.56c.94-6.67,5.25-14.41,9.26-22.55a52.81,52.81,0,0,1,8.43-12.3c1.23-1.24,3.45-1.32,5.87-1.45.75,0-3.2,12.74-6.85,24.75-9.79,32.22-1.62,32.87.86,68.88C190.2,212.94,187.71,211.74,183.7,208Z" transform="translate(0 0)"/><polygon class="cls-19" points="184.66 177.7 138.88 152.07 151.39 181.09 197.17 206.72 184.66 177.7"/><path class="cls-14" d="M199.45,188.66c-2.3-.43-3.54-4-5.41-5s-6.31-1.83-7.81-2.23l1.3,3.11c.62.58,1.72.68,2.18,1.19a4.35,4.35,0,0,1,1,1.54c-.88.78-2.87,1-3.85,1.09-3.23.45-3.66-.91-5.78-2.06a37.81,37.81,0,0,0-.07,5.55c.08,1.72,0,2.12,1.24,3.36A22.35,22.35,0,0,0,188.8,200l8.69-2.59,3.42,1.57Z" transform="translate(0 0)"/><path class="cls-17" d="M237.11,196c-13.13-3-24.46-5-38.54-7.87a96.2,96.2,0,0,0-.16,10c11.69,4.5,21.88,9.05,34.55,12.75,6.74,2,10.29-1.21,11.44-4.72C245.68,202.26,243.9,197.53,237.11,196Z" transform="translate(0 0)"/><path class="cls-14" d="M141.9,164.34c-1.43,2-1.49,2.57.4,3.65a11.73,11.73,0,0,0,4.1,1.26c1.93.33,1.7-.06,3.6-1.08l1.74-1.12c-1.67-2.22-1.68-2-5.18-.83Z" transform="translate(0 0)"/><path class="cls-14" d="M141.9,167.69a10.4,10.4,0,0,0,.34,2.54,8.38,8.38,0,0,0,2.27,2,4.63,4.63,0,0,0,2.64.28c.65-.06,1.09-.11,1.47-.18a19.06,19.06,0,0,0,4.14-1.66c-1.87-3.28-2.16-2.29-6-1.39Z" transform="translate(0 0)"/><path class="cls-14" d="M143.93,170.89a23.39,23.39,0,0,0,0,2.8,2.15,2.15,0,0,0,1,1.13,3.85,3.85,0,0,0,2.21.32c.54,0,.92-.06,1.24-.11a15.92,15.92,0,0,0,3.54-1.26c-1.47-2.82-1.75-2-5-1.36Z" transform="translate(0 0)"/><path class="cls-14" d="M140.35,162.51c-.08.6.52,1.1,1.4,1.73a11.15,11.15,0,0,0,2.79,1.73c1.66.48,4.1-.95,5.58-1.64-.25-2.48-1.84-2.18-4.74-1.62-.91-.78-2.32-2.19-3.61-1.76A1.86,1.86,0,0,0,140.35,162.51Z" transform="translate(0 0)"/><path class="cls-16" d="M148.4,261.9c12.54,7.24,19.41,15,15.34,17.4s-17.55-1.59-30.09-8.83-19.42-15-15.34-17.4S135.85,254.65,148.4,261.9Z" transform="translate(0 0)"/><path class="cls-14" d="M137.91,326.33c-1.24,7.32-6.8,31.51-9.58,37.05a54.38,54.38,0,0,1-5.67,9.47s6.28,3.61,7.08,3.81S141.86,375,141.86,375s7-17.53,7.14-18.57c1.26-11.85,7.51-9.92,1.7-19.61-2.58-4.31-1.17-9.67-.54-14.36Z" transform="translate(0 0)"/><path class="cls-11" d="M125.51,368.58c-2.42,4.31-4.83,5.09-4.93,7.65-.11,3.37,6.66,4.33,9,4.47,3.32.2,9.82-2,12.79-5,1.83-7,4.66-12.89,7.25-19.67l-1.89,17.19h1.58a151.88,151.88,0,0,1,4.66-18.4c.66-2,1.87-4,2.12-5.13,1.11-5-2.35-8.8-4.84-12.82-2.93,9.13-7.12,30.25-16.82,33.64C131.08,371.68,126.91,370.18,125.51,368.58Z" transform="translate(0 0)"/><path class="cls-12" d="M117.65,314c-1.24,7.32-6.81,31.51-9.59,37.05a54.38,54.38,0,0,1-5.67,9.47s6.29,3.61,7.08,3.81,12.13-1.64,12.13-1.64,7-17.52,7.13-18.57c1.26-11.84,7.51-9.91,1.7-19.6-2.58-4.31-1.17-9.67-.53-14.36Z" transform="translate(0 0)"/><path class="cls-13" d="M105.25,356.2c-2.43,4.31-4.84,5.09-4.93,7.65-.12,3.37,6.66,4.33,8.94,4.47,3.32.19,9.82-2,12.79-5,1.84-7,4.67-12.88,7.25-19.67l-1.89,17.2H129a154.07,154.07,0,0,1,4.66-18.39c.67-2,1.87-4,2.13-5.14,1.11-5-2.36-8.79-4.84-12.82-2.94,9.14-7.12,30.25-16.83,33.64C110.81,359.3,106.64,357.8,105.25,356.2Z" transform="translate(0 0)"/><path class="cls-20" d="M127.21,155.28a74.67,74.67,0,0,1,1.58,10.42c.36,9.78-1.07,25.75-10.61,33.42-12.74,10.24-37.19,7.06-56,21.1-17-7.74-37.19-12.79-45.72-19.51.59-7.2,1-11.28,1.92-13,1.16-2.12,3-3.58,5.61-5.15,9.62-5.72,47.62-29.12,56.69-30.08,4.53-6.64,5-11.43,4.34-21.61C90.44,137.9,120.55,151.69,127.21,155.28Z" transform="translate(0 0)"/><path class="cls-14" d="M39.77,213.69c-3.21,21.3-2.66,42.56-4.67,64.67l8.7,10.37c8.11-32.79,17.25-50.19,18.5-69.35C64.42,187,41.54,190.2,39.77,213.69Z" transform="translate(0 0)"/><path class="cls-21" d="M127.21,155.28a74.67,74.67,0,0,1,1.58,10.42c.36,9.78-1.07,25.75-10.61,33.42-12.5,10-36.26,7.18-54.93,20.32a2.71,2.71,0,0,1-.58.45l-.18.09-.32.24-.11-.05c-3.77,1.39-12.82-.88-22.45-5.43-.29-4.64.07-10,2.07-13.69C46,193,55.84,187.75,67.21,180.54c10.31-6.53,27-18.21,29.72-18.5,4.53-6.65-11.26-20.94-11.92-31.12C90.44,137.9,120.55,151.69,127.21,155.28Z" transform="translate(0 0)"/><path class="cls-22" d="M118.54,2.17c-8.31-.62-14.27.5-17.07,4.27-6,8.07-4.9,21.6-5.66,34.86C95,55.27,92.39,69,87.27,78l24.31-16.82L129,27.39Z" transform="translate(0 0)"/><path class="cls-11" d="M125.47,72.09c12.67,7.32,19.61,15.19,15.49,17.58s-17.72-1.61-30.38-8.92S91,65.56,95.08,63.18,112.8,64.78,125.47,72.09Z" transform="translate(0 0)"/><path class="cls-12" d="M125.49,43.64c-1,3.9-5.58,12.56-2.42,23l-23.31,12,1.93-9.74c2.73-8.33,3.7-13.44,2.82-21.24Z" transform="translate(0 0)"/><path class="cls-23" d="M123.21,63.8c.73,2.12-.47,4.92.42,6.6.14.26.29.51.44.75a1.16,1.16,0,0,0,.33-.26c5.2,4,6.09,5.63,10.55,9l.49.39h0c9.93,8.26-.15,27.56-5.87,41.25-3.45,8.26-6.34,15.56-5.55,20.28,1.5,9,6,21.58,5.56,32.24-4.55,5-40.41-16.72-47-25.44,4.45-10.12.41-28-1.24-38.1-2.14-6.4-4.5-13.25-3.82-18.06.94-6.67,4.12-7.79,8.51-15.42C88.72,72.4,91.4,66.71,94,64.06a3.57,3.57,0,0,1,.69-.52c.92-.69,2.17-1.1,4.84-.92h.35s0,0,.06,0c.93.09,2,.23,3.3.46-.46,3-1,8-.08,11.62C105.77,73,117.64,67.68,123.21,63.8Z" transform="translate(0 0)"/><path class="cls-24" d="M126.26,87c-6,12.87,1,44.25,3.58,59.47l11.45,2.34c0-.74,2.34-2.38,2.37-3.16.77-15.86,2.8-39.34.25-53.49-1-5.85-4.86-10.5-9.2-10.38C131.52,81.89,127.58,84.22,126.26,87Z" transform="translate(0 0)"/><path class="cls-14" d="M36.84,266.92C35.6,274.24,30,298.43,27.26,304a54.38,54.38,0,0,1-5.67,9.47s6.28,3.61,7.08,3.81,12.12-1.63,12.12-1.63,7-17.53,7.14-18.57c1.26-11.85,7.51-9.92,1.7-19.61-2.59-4.31-1.17-9.67-.54-14.36Z" transform="translate(0 0)"/><path class="cls-11" d="M24.45,309.17c-2.43,4.31-4.84,5.09-4.94,7.65-.11,3.37,6.66,4.33,9,4.47,3.31.2,9.82-2,12.78-5,1.84-7,4.67-12.89,7.26-19.67l-1.89,17.19h1.58a152.18,152.18,0,0,1,4.66-18.39c.66-2.05,1.87-4,2.12-5.13,1.11-5-2.35-8.8-4.84-12.82-2.93,9.13-7.12,30.24-16.82,33.64C30,312.27,25.84,310.77,24.45,309.17Z" transform="translate(0 0)"/><path class="cls-12" d="M17.33,254.54c-1.24,7.32-6.81,31.51-9.59,37a54.85,54.85,0,0,1-5.66,9.47s6.28,3.61,7.07,3.81,12.13-1.64,12.13-1.64,7-17.52,7.13-18.57c1.27-11.84,7.51-9.91,1.7-19.6-2.58-4.31-1.17-9.67-.53-14.36Z" transform="translate(0 0)"/><path class="cls-13" d="M4.93,296.79C2.5,301.1.09,301.88,0,304.44c-.12,3.37,6.66,4.33,8.94,4.47,3.32.19,9.82-2,12.79-5,1.84-7,4.67-12.88,7.25-19.67l-1.89,17.2h1.58a154.07,154.07,0,0,1,4.66-18.39c.67-2.05,1.87-4,2.13-5.14,1.11-5-2.36-8.79-4.84-12.82-2.94,9.14-7.12,30.25-16.82,33.64C10.49,299.89,6.32,298.39,4.93,296.79Z" transform="translate(0 0)"/><path class="cls-14" d="M104.08,7.27C96,18.89,100,22.09,98.83,31.63c-.64,5.05.72,12.81,1.83,15.76,1.58,4.22,2.91,7.53,5.35,8.32s9-2,14.88-5.47c5.12-3.08,9.74-6.68,10.59-9.64L138,17.74Z" transform="translate(0 0)"/><path class="cls-22" d="M140.11,12.6C144,21.94,146,34.38,145.9,44.86c-.09,8.45-1.35,21.19-4.79,28.65-2.46,5.33,5.45,14.57,15,11.76-7.38,16.52-27.8,12.64-29.26-8.37C125.37,55.54,137.87,22,140.11,12.6Z" transform="translate(0 0)"/><path class="cls-22" d="M125.2,102.8c-5.12-22.93,7.26-32.12,8.86-33.72,9.6-9.54,12.64-47.61,4.33-60C134,2.63,126.44-1.25,114.89.37c-4.57.34-13.73,2-13.53,9.33.48,17.68,29.51,20.34,15.57,50.87C102.58,92,125.23,102.92,125.2,102.8Z" transform="translate(0 0)"/><path class="cls-20" d="M16.62,199.65l-3.69,67.53a.77.77,0,0,0,.35.82c1.38,1,6.34,0,11.08-2.18,3.83-1.76,6.35-3.77,6.44-5a25.06,25.06,0,0,1,.38-2.75c3.47-20,8.3-30.5,9.34-42,.28-3.11-.88-10.26-1-13.8-.06-1.48-14.93-29.75-20-14.26C18.55,190.78,16.63,193.72,16.62,199.65Z" transform="translate(0 0)"/><path class="cls-21" d="M39.78,210.29l-6.06,69.19a.78.78,0,0,0,.24.85c1.24,1.16,6.29.86,11.28-.67,4-1.24,6.78-2.9,7-4.11.22-1,.43-1.57.74-2.68,6.13-21.68,9.41-35.74,9.95-42.47.32-4.09-.92-11.55-.09-17.51C64.75,199.36,43.25,184.84,39.78,210.29Z" transform="translate(0 0)"/><path class="cls-14" d="M91.51,173.57c-5.1,2.93-4.74,2.94-9.79,7.66-1.77,1.65-6.89,4.34-10.4,6.09-.37,1.43.3,2.2.22,5.24-4.79-4.13-4.9-6.74-5.3-10.33L66,176.79c-.24-3,.48-2.33,3.35-4.2a30.16,30.16,0,0,1,6-3.14c2.47-1,5.45-1.37,7.92-2.35l6.54-3.59L91.35,173l-.21.13Z" transform="translate(0 0)"/><path class="cls-24" d="M88.47,176.5c-2.1,0-5.08-5.65-5.35-9.73,3.57-1.24,38.3-29,52-30.37,5.27-.33,8-1.39,8.68,3.78-.05,4.9.43,7.13-2.42,9.78C125.57,164.67,107.49,168.06,88.47,176.5Z" transform="translate(0 0)"/><path class="cls-14" d="M57.23,157.83l-5.71,1c-6.49.73-8.4,1.73-11,5.28a82.08,82.08,0,0,0-8.39,14.32L38,182.38c3.25-2.6,5.59-6.83,8.58-9.72s8.68-.15,10.63-2.22l7.2-7.61Z" transform="translate(0 0)"/><path class="cls-25" d="M83.8,123.81c-6,7.43-26.37,29.43-30.14,33.05-1.07,3.26,5.83,9.51,8.39,9.21l20.87-17.63C83.85,145.84,86.53,136.6,83.8,123.81Z" transform="translate(0 0)"/></svg>