<svg id="Capa_1" data-name="Capa 1" xmlns="http://www.w3.org/2000/svg" viewBox="0 0 280 280"><defs><style>.cls-1{fill:#01559d;}.cls-2{fill:#36a0fa;}.cls-3{fill:#01559c;}.cls-4{fill:#fff;}</style></defs><title>Mesa de trabajo 11</title><path class="cls-1" d="M143.91,267.4c-73.27-.2-130.33-58.49-130-132.85C14.11,65.25,73.14,7.49,143.8,7.4,216.73,7.31,274.13,66,273.85,140.29,273.6,209.59,214.3,267.6,143.91,267.4Z"/><path class="cls-2" d="M143.18,252.62c-63.45-.1-114.92-52.15-114.8-116.07C28.51,73.31,80.75,22.08,145,22.24c63.33.15,114.57,52.34,114.37,116.48C259.13,201.44,206.85,252.71,143.18,252.62Z"/><path class="cls-3" d="M199.66,166.56c0-.16-.06-.33.07-.46C199.72,166.25,199.83,166.43,199.66,166.56Z"/><path class="cls-4" d="M66.35,176.08a92.43,92.43,0,0,1-5.22-11.68,82.2,82.2,0,0,1-4.65-22.47,83.31,83.31,0,0,1,.94-18.73A81.87,81.87,0,0,1,93.85,67.83a80.69,80.69,0,0,1,86.3-.7A81.71,81.71,0,0,1,207,94.27c.25.42.66.78-.13,1.22q-17,9.72-33.95,19.52c-.56.32-.78.26-1.13-.28a40.19,40.19,0,0,0-21.66-16.9,39.26,39.26,0,0,0-17.75-1.64,40.73,40.73,0,0,0-34.79,33.36,40.71,40.71,0,0,0,3.81,25.71,5.43,5.43,0,0,0,.32.51,2.12,2.12,0,0,1,.69.88A40.58,40.58,0,0,0,119.47,173a38.81,38.81,0,0,0,14.3,4.09A40.33,40.33,0,0,0,153,174.22a39.41,39.41,0,0,0,12.36-8.16A42.46,42.46,0,0,0,172,158c.15-.25.28-.52.61-.58l27,15c2.63,1.45,5.27,2.91,7.89,4.38.23.12.6.15.55.56a89.57,89.57,0,0,1-7.23,10.56,80.89,80.89,0,0,1-39.23,26.87,78.52,78.52,0,0,1-21.41,3.6A80.53,80.53,0,0,1,81.3,195.58a81.9,81.9,0,0,1-14.75-19.22A2.83,2.83,0,0,0,66.35,176.08Z"/><path class="cls-4" d="M189.77,125c0,1.72,0,3.45,0,5.16,0,.6.19.73.74.73,3.34,0,6.67,0,10,0,.74,0,.92.21.91.93,0,3.24,0,6.47,0,9.71,0,.78-.16,1-1,1-3.24-.05-6.49,0-9.74,0-.7,0-.93.15-.92.9,0,3.35,0,6.71,0,10.06,0,.62-.16.77-.77.77-3.33,0-6.66,0-10,0-.66,0-.89-.14-.88-.86,0-3.26,0-6.53.05-9.79,0-.93-.28-1.09-1.12-1.08-3.19.05-6.38,0-9.57,0-.69,0-.94-.12-.93-.89,0-3.3,0-6.59,0-9.89,0-.75.23-.9.93-.89,3.24,0,6.49,0,9.74,0,.8,0,1-.25.94-1,0-3.32,0-6.65,0-10,0-.63.18-.77.78-.77,3.39,0,6.78,0,10.17,0,.52,0,.7.11.69.67C189.74,121.55,189.77,123.27,189.77,125Z"/><path class="cls-4" d="M218.8,125c0-1.66,0-3.33,0-5,0-.68.2-.81.83-.8,3.33,0,6.67,0,10,0,.62,0,.77.17.77.78,0,3.35,0,6.71,0,10.06,0,.69.17.89.87.88,3.33,0,6.67,0,10,0,.6,0,.78.14.78.77q0,5.07,0,10.15c0,.65-.22.75-.8.74-3.27,0-6.55,0-9.83,0-.87,0-1,.26-1,1.08,0,3.26,0,6.53,0,9.8,0,.6-.07.86-.78.85-3.36,0-6.72,0-10.09,0-.57,0-.72-.16-.72-.73,0-3.38,0-6.77,0-10.15,0-.65-.17-.84-.83-.84-3.33,0-6.67,0-10,0-.64,0-.83-.13-.82-.8,0-3.36,0-6.71,0-10.07,0-.7.24-.79.85-.79,3.24,0,6.49,0,9.74,0,.93,0,1.11-.28,1.07-1.13C218.75,128.16,218.8,126.56,218.8,125Z"/></svg>