<svg id="Capa_1" data-name="Capa 1" xmlns="http://www.w3.org/2000/svg" viewBox="0 0 280 280"><defs><style>.cls-1{fill:#fec100;}.cls-2{fill:#863a00;}.cls-3{fill:#fefefe;}.cls-4{fill:#e9a000;}.cls-5{fill:#e69e04;}.cls-6{fill:#944a06;}.cls-7{fill:#eaa40a;}.cls-8{fill:#e49e0c;}.cls-9{fill:#9a5415;}</style></defs><title>Mesa de trabajo 12 copia 7</title><path class="cls-1" d="M140.32,270C67.88,270,9.55,212.17,10,140,10.49,61.79,75.46,8.83,141.43,10,212.43,11.29,270,68.55,270,140.29A129.3,129.3,0,0,1,140.32,270Z"/><path class="cls-2" d="M54.93,217.15c-29.9-34.55-37.58-74-21.75-116.39C49.2,57.85,81.39,33.27,127,27.3c30.54-4,58,4.27,82.58,22.6A36.88,36.88,0,0,1,213.6,54c-2.9,8.82-7.09,16.64-16,20.89-13.91,1-27.85.47-41.76.38-6.79,0-9.69,2.38-9.34,9.29.32,6.4.16,12.84,0,19.25-.08,3.32.16,6.78-2.61,9.38-5.82-.46-6.3-5.64-8.33-9.46-1.38-6.62-.79-13.35-.8-20,0-5.39-1.77-8.38-7.67-8.35-15.6.06-31.19,0-46.79,0-5.17,0-7.65,2.1-7.65,7.45,0,15.35.38,30.71-.12,46-.31,9.59,7.54,7.88,12.35,10.52,2.17,2.51,1,4.53-.93,6.45-11.41,3.76-11.41,3.76-11.44,16.77,0,4.47-.13,9-.15,13.42-2.51,13.73-9,26-14.29,38.7A4.08,4.08,0,0,1,54.93,217.15Z"/><path class="cls-3" d="M200.3,73l13.29-19c8.19,5.16,14.08,12.49,19.25,20.49.68,3.81-1,7-2.59,10.27q-9.28,19-17.52,38.53c-3,5.68-6.14,11.26-8.21,17.37-.72,2-1.55,3.92-2.4,5.86a260.26,260.26,0,0,1-13.29,28c-5.35,9.94-13.42,15.5-25.09,14.93-6.66-.32-13.43.83-19.93-1.52a15,15,0,0,1-7.57-5.2c-7.28-11-8.81-24.25-14.27-36-1.23-2.78-1.17-6-2.84-8.77,1.37,3.45-1.28,5.93-1.77,8.86C108,168.79,99.63,191,90.66,213.05c-2.71,5.45-5.49,10.86-8.24,16.29-1.34,2.64-2.23,5.8-5.72,6.64a77,77,0,0,1-21.77-18.83L70.65,177.3c2.2-11.51,5.86-22.43,12.76-32.06l2.08-5.31c2.54-15.29,9.06-28.5,21.35-38.15,6.6-5.18,24.67-3.33,30.14,2.26l6.37,9.59c7.08,7.13,6.1,17.46,10.22,25.77.61,1.85,1.13,3.74,1.92,5.53,1.2,2.43,1.94,5.13,3.88,7.24,3.59-1.35,3.53-4.94,5.21-7.27a60.78,60.78,0,0,0,3.47-7.51c8.45-19.08,16.41-38.37,26.1-56.87C195.68,77.61,196.75,74.28,200.3,73Z"/><path class="cls-2" d="M76.7,236l12.11-24c7.16-3.4,14.81-1.7,22.26-2,4.17-.19,8.36,0,12.53-.05,10.17-.18,10.75-1,11.19-11,.26-5.69-1.67-11.81,2.59-16.91l6.8,4.57c3.34,4.43,2.34,9.64,2.36,14.57,0,5.79,2.15,8.8,8.31,8.78,15.32,0,30.64-.06,46,0,5.72,0,7.91-2.57,7.87-8.15-.09-15.06-.32-30.15.11-45.2.18-6.3-3.73-8.71-7.8-11.54l2.07-5.33c7.64-3.29,5.66-11.09,7.88-16.91,6.5-16.48,14-32.48,21.9-48.32,28.94,36.44,28.44,96.84-.83,134.74-22.41,29-51.88,44.82-88.25,46.29C119.56,256.52,96.71,250.58,76.7,236Z"/><path class="cls-4" d="M137,104c-14.83-7.77-30.75-3.81-39,10.41-4.75,8.16-8.36,17-12.48,25.49-16.37-.74-15.2,3.09-15.21-15.37,0-14.86.17-29.73-.1-44.59-.09-5.21,1.11-7.53,6.92-7.42,17.91.33,35.83.24,53.74,0,4.64,0,6.58,1.35,6.39,6.21C136.89,87.21,137,95.63,137,104Z"/><path class="cls-4" d="M200.3,73q-15.6,32.89-31.21,65.78c-5.51,3.27-11.33,2.21-17.14,1.28l-8.61-26.45c1.82-11.12.75-22.33.69-33.49,0-5.92,1.83-7.72,7.65-7.56C167.88,73,184.09,72.9,200.3,73Z"/><path class="cls-5" d="M83.41,145.24A279.29,279.29,0,0,1,70.65,177.3c-.13-7.72.21-15.48-.53-23.14-.71-7.43,1.93-10.21,9.16-9A28.4,28.4,0,0,0,83.41,145.24Z"/><path class="cls-4" d="M201,145.08c8.51-1.46,10.8,2.14,10.43,10.54-.71,16.46-.42,33-.09,49.47.12,5.55-1.61,7.28-7.1,7.19-17.57-.28-35.15-.23-52.73,0-5.28.06-7.71-1.59-7.4-7.21.35-6.13.07-12.3.07-18.44,7.8,0,15.6-.28,23.38.05,8.66.37,14.39-3.84,18.16-11C191,165.56,195.92,155.28,201,145.08Z"/><path class="cls-4" d="M137.38,182c-.08,7.78-.37,15.57-.15,23.34.14,5.06-1.83,6.95-6.82,6.86-13.87-.22-27.74-.16-41.6-.22L116,145.14c2.53-2,5-1.87,7.56.05Q130.47,163.61,137.38,182Z"/><path class="cls-6" d="M152,140.07c5.54-2.75,11.42-.86,17.14-1.28a12.06,12.06,0,0,1-3,6.65c-4,2.62-8,2.77-12-.08C152.41,144,152.27,142,152,140.07Z"/><path class="cls-7" d="M154.08,145.36l12,.07a29.93,29.93,0,0,1-6.43,11.88A27.79,27.79,0,0,1,154.08,145.36Z"/><path class="cls-8" d="M210.94,122.84a81.41,81.41,0,0,0,.34,9c1,6.69-1.89,9-8.22,7.92A83.4,83.4,0,0,1,210.94,122.84Z"/><path class="cls-9" d="M123.57,145.19l-7.56-.05c1.1-2.41,2.19-4.81,3.42-7.53C122.81,139.46,122.81,142.53,123.57,145.19Z"/></svg>