<svg id="Capa_1" data-name="Capa 1" xmlns="http://www.w3.org/2000/svg" viewBox="0 0 280 280"><defs><style>.cls-1{fill:#00233a;}.cls-2{fill:#3c8ec5;}</style></defs><title>Mesa de trabajo 10</title><path class="cls-1" d="M142.05,268.11c-73.26-.21-130.32-58.5-130-132.86C12.26,66,71.29,8.2,142,8.11,214.88,8,272.27,66.66,272,141,271.75,210.3,212.45,268.3,142.05,268.11Z"/><path class="cls-2" d="M141.33,253.32c-63.45-.1-114.92-52.14-114.8-116.07C26.65,74,78.9,22.78,143.09,22.94c63.33.15,114.57,52.34,114.38,116.49C257.28,202.15,205,253.42,141.33,253.32Z"/><path class="cls-1" d="M212.81,141.59c-16.33-9.17-16.09-24.74-16.84-39.88-.22-4.45-.2-8.92-.45-13.38-.53-9.22-2.59-11.8-11.76-11.75-5.94,0-7.2-2.1-6.57-7.37a63.84,63.84,0,0,0,0-10.8c-.15-2.76.5-4.13,3.59-3.86,5.94.5,11.94.26,17.8,1.62,11.4,2.65,18,10,19.47,21.62,1.17,9.06.91,18.16,1.25,27.25a79.31,79.31,0,0,0,.87,10.23c1.57,9.32,6.08,13.88,15.42,15.22,2.71.38,3.35,1.33,3.28,3.81-.14,5-.18,10,0,14.93.09,2.6-.73,3.74-3.36,3.89-8.4.48-12.59,5.72-14.8,13.33-2.11,7.23-1.28,14.65-1.7,22-.27,4.62-.21,9.27-.63,13.88-1.53,16.9-9.12,24.54-25.82,26.2-15.33,1.52-15.33,1.52-15.33-13.73a21.22,21.22,0,0,0,0-3.09c-.48-3.4.56-4.72,4.31-4.78,11.69-.17,13.8-2.52,14.23-14.39.19-5.49.57-11,.67-16.46C196.7,162.34,199.27,149.71,212.81,141.59Z"/><path class="cls-1" d="M71,141.69c14.56,8.1,16,21.67,16.77,35.46.37,6.17.22,12.37.71,18.53.67,8.48,3.47,11.39,12,11.18,5.39-.13,7,1.71,6.14,6.65a11.41,11.41,0,0,0,0,1.55c-.11,4.43,1.47,10.4-.77,12.89-2.65,3-8.66.75-13.18.58-16.42-.6-25.56-9.11-27.05-25.53-.77-8.54-.8-17.15-1-25.73a52,52,0,0,0-1.26-10.71C61.5,159,57.09,154,49.07,153.2c-3.29-.31-4.45-1.51-4.08-4.77a69.27,69.27,0,0,0,.06-7.21c0-3.09-.77-6.51.3-9.18,1.17-2.91,5.15-1.35,7.77-2.42,5.81-2.37,8.73-6.89,10.19-12.64,2.1-8.25,1.2-16.74,1.83-25.11.38-5.13.16-10.28.9-15.41,1.6-11.12,8.31-17.3,18.62-20,6.14-1.64,12.49-1.65,18.81-1.91,2.48-.1,3.26.75,3.18,3.22-.16,5.14-.19,10.31,0,15.45.11,2.62-.9,3.36-3.24,3.11a12.82,12.82,0,0,0-2.05,0C91,76.84,88.69,79.2,88.23,89.77c-.32,7.37-.48,14.76-.9,22.13C86.64,124.05,83.32,134.91,71,141.69Z"/><path class="cls-1" d="M154.56,180c-.23,4.11-.44,8.21-.72,12.31-.84,12.59-7.63,20.8-18.73,26-2.32,1.08-3.73,1.17-4.57-1.56a13.92,13.92,0,0,0-1.51-3.25c-1.85-2.94-1.94-4.82,2-6.24,6.2-2.25,9-7.48,10.06-13.77.42-2.49-.09-3.62-3.05-3.71-9-.27-9-.42-9-9.52,0-4.28.12-8.57,0-12.85-.08-2.27.72-3,2.91-2.91,6.47.11,12.94.14,19.41,0,2.45-.06,3.28.71,3.17,3.2-.19,4.1,0,8.22,0,12.33Z"/><path class="cls-1" d="M154.44,105.15c0,13.89,0,14-12.52,13.85-4.2,0-9.78,1.94-12.21-1-2-2.44-.65-7.86-.66-12,0-12.55,0-12.55,12.22-12.55.17,0,.34,0,.51,0,4.05.27,9.27-1.72,11.83.8S154,102.15,154.44,105.15Z"/></svg>