<svg id="Capa_1" data-name="Capa 1" xmlns="http://www.w3.org/2000/svg" viewBox="0 0 280 280"><defs><style>.cls-1{fill:#fe5900;}.cls-2{fill:#febc98;}.cls-3{fill:#fefefe;}.cls-4{fill:#fe5901;}.cls-5{fill:#fe5a01;}.cls-6{fill:#fe5b03;}.cls-7{fill:#fe600b;}.cls-8{fill:#fedac6;}.cls-9{fill:#fef2ec;}.cls-10{fill:#fec5a6;}.cls-11{fill:#fed9c5;}.cls-12{fill:#fee9df;}.cls-13{fill:#feeee5;}.cls-14{fill:#fed5be;}.cls-15{fill:#fef5f1;}.cls-16{fill:#feb187;}.cls-17{fill:#feb68f;}.cls-18{fill:#feba95;}.cls-19{fill:#fed5bf;}</style></defs><title>Mesa de trabajo 12 copia 8</title><path class="cls-1" d="M10,140A129.44,129.44,0,0,1,140.06,10c72.56,0,130,57.86,129.94,130.92C270,211.66,211.93,269.43,140.35,270S10,211.91,10,140Z"/><path class="cls-2" d="M140.11,25.57c57.66-1.5,114.7,45.23,114.79,114,.09,64.91-50.12,115-115,114.91C74,254.35,24.76,203.21,25.09,139.33,25.45,70.06,82.92,23.93,140.11,25.57Z"/><path class="cls-3" d="M123.16,123.27C138.09,109.58,149.22,93,159.57,75.8c5.66-9.39,10.49-19.26,15.7-28.94,10.19,15.37,10,22-.42,36-6.72,9-13.22,18.11-19.35,27.63,13.77-8.86,23.66-22,35.91-32.61C199,92,197.46,99.43,185.62,109c-7.7,6.18-15,12.87-22.46,19.33-6.75-.37-13-3.61-20.08-2.75-5.81.7-9.28,2.62-9,9,.19,5.19-.19,10.4.18,15.58.15,2.18.45,4.7,3.53,4.51,2.46-.15,2.82-2.34,3-4.24.49-4.35-.22-8.78.57-13.1,1.06-5.76,3.81-9.17,10.27-6.11,3.24,2.65-1.31,7.64,3,10a32.41,32.41,0,0,1,.17,15c-.45,1.38-1.48,2.21-4.69,3.49,4.6-1.61,7.32-2.4,10-3.17a25.47,25.47,0,0,1,3.54-.89c3.35-.84,6.69-1.68,10.19-1.27q5.66.9,11.34,1.59c2.17.26,4.5.77,5,3.38s-.82,4.73-2.83,6.35a10.61,10.61,0,0,1-8.42,2.49c-5.58-1-8.74,1.42-10.67,6.27l-16.58,1.82c.19.73-2.94.28-.64,1.73s4.94-.13,7.13,1.31c7.74-.17,15.17,2.83,23.37,2.53-4.53,5.8-9.89,10.28-16.86,12.71-5,1.05-10,.34-14.11.67-1.85-1-.77,1.22-.51.15.06-.26.31-.22.8,0a6.55,6.55,0,0,1,2.51,1.94L167,201.7c-9,9.74-19.59,7.37-30.55,4.15,4.75,4.37,10.65,6.51,15.15,11.5-7,4.75-13.56,3.77-20.24-.07-.55,4.52,7,6,3.82,8.94-3.73,3.38-8.72-.91-13.17-1.82,1,6.66,1,6.66-14.18,3.19.5,2.44,1,4.66,1.74,8.47-8.27-5.8-14.67-11.42-19-19-3-5.24-2-9.75,4.54-11.33,17.52-4.23,23.73-20.79,20.66-38.42-.64-3.65-1.47-7.09,2.83-9.09,4.84-3.13,6-7.6,5.94-13.2C124.49,137.73,123.85,130.51,123.16,123.27Z"/><path class="cls-4" d="M168.34,174.43V164.1c5,1.42,9.74,2.81,14.53,1.93,3.48-.65,6.57-2.86,6-6.5-.53-3.45-4-1.16-6.11-1.24a28.06,28.06,0,0,1-9.44-2.15c-2.7-1.33-5.45-2.6-6.9-5.5-3.45-9.89-2.75-13.77,3.44-19C174,126,180,124,186.51,123c3.25-1.31,6.5-2.75,9.71.11,9.63.89,9.67.92,4.29,9.44-1.15,1.83-.76,3.68-.73,5.56.07,5.21.36,10.43.24,15.65-.4,17.54-9.43,24.64-26.78,21.24C171.63,174.68,170,174.61,168.34,174.43Z"/><path class="cls-1" d="M77.3,133.1c0,5.76-.32,11.53.1,17.25.42,5.9-2.21,7.91-7.68,7.65-3.28-.15-6.59.22-9.87.06-10-.49-15.72-6.25-16-16-.36-11.05,5-18.43,15.08-18.6,7.16-.11,9-2.66,8.16-9.12-.49-3.82-.77-7.89,5.45-7.47,3.5.24,4.9,1.42,4.84,4.91C77.2,118.86,77.3,126,77.3,133.1Z"/><path class="cls-4" d="M222.81,123c10.5.1,17.26,6.63,17.41,16.84.16,11-7.55,19.17-18.21,19.21-10.49,0-17.84-7.74-17.59-18.61C204.67,129.07,211.15,122.94,222.81,123Z"/><path class="cls-5" d="M153.16,158q-.12-9-.22-18c-1.52-2,.59-4.78-1.38-6.71-6-3.18-8.61-1.4-8.29,5.34.22,4.4-.17,8.82.11,13.21.26,4.21-.41,6.45-5.59,6.37-4.89-.07-6.1-1.74-5.88-6.25a165.11,165.11,0,0,0,0-20.63c-.41-5.18,2-6.84,6.38-7.38,8.77-1.09,17.61-2.65,24.92,4.42l1.14,3.32c2.51,2.86.89,6.26,1.22,9.4-1.24,3.49-.68,7,.09,10.46a11.87,11.87,0,0,1,.37,2.13c.18,2.17-1.32,3.25-2.82,4.34l-3.31.25C157.59,158.9,155.35,159.2,153.16,158Z"/><path class="cls-4" d="M123.16,123.27c3.87,3.65,4.52,8.35,4.33,13.32-.16,4.32-.89,8.71-.33,12.93.93,7-2.19,9.21-8.52,8.71-2.71,0-5.43.12-8.14.08-5.53-.07-10.67-1.05-11.72-7.68s1.83-11.06,8.48-12.83c1.59-.43,3.13-1,4.7-1.49,1.61-1.07,3.6-1.55,4.86-3.15-3-3.3-6.41-1.34-9.68-.78-2.28.4-5,2.12-5.57-1.93-.45-3,.52-4.93,3.83-6C111.3,122.42,117.23,123.33,123.16,123.27Z"/><path class="cls-6" d="M74.08,167.69c9.32-5,10.18-13.48,9.68-22.6-.28-5.2.08-10.43-.09-15.64-.12-3.79.42-6.27,5.24-6.13,4.17.12,6,1.48,6,5.75-.08,10.41.4,20.86-1.29,31.2C91.75,171.47,84.07,174.59,74.08,167.69Z"/><path class="cls-7" d="M94.84,113c.65,4.33-1.41,5.63-5.58,5.67S83.4,117.29,83.6,113c.17-3.58.15-6.31,5.07-6.24C93.19,106.82,95.39,108.28,94.84,113Z"/><path class="cls-8" d="M164.67,140.55c0-3-3.08-5.85-.37-9,1.85.32,3.7-1.88,5.56,0-3.45,6.32-4.14,12.81-1.19,19.52-.8,1.76-1.95,2.81-4,2h.08A26,26,0,0,1,164.67,140.55Z"/><path class="cls-9" d="M196.22,123.1l-9.71-.11c.89-2.61,3.38-3.29,5.49-4.26,1.58-.73,3.33-2.8,5-1.33C199.1,119.24,197.05,121.25,196.22,123.1Z"/><path class="cls-10" d="M153.45,197.29l-6.71-2,.08-.78h17.94C161.57,197.83,156.66,194.09,153.45,197.29Z"/><path class="cls-11" d="M158.25,179.29c-2.9.13-5.86.56-8.57-.92-.7-.39-2.43-.7-1-1.93.62-.54,2-.16,3.09-.19Z"/><path class="cls-12" d="M116.82,133.16c.7,4.62-2.57,3.14-4.86,3.15C112.82,134.1,114.3,132.83,116.82,133.16Z"/><path class="cls-8" d="M164.63,153.14l4-2,4.65,5-10.16,1.79Z"/><path class="cls-13" d="M153.16,158l6.69.23c-3.07,2.63-7,.66-10.6,3.3C149.85,158.06,151.57,158.11,153.16,158Z"/><path class="cls-14" d="M151.56,133.2c3,1.72,1.23,4.41,1.38,6.71-1,.32-2.18,1.15-2.93.86-1.63-.65-.33-1.69.25-2.32C151.69,136.9,151.61,135.07,151.56,133.2Z"/><path class="cls-15" d="M179.81,146.29c-.56-1.2-1.51-2.36-1.6-3.6-.44-5.57,2.19-10.32,7.55-10.53,7-.28,2.31,6,3.53,9.09C187.49,145.49,185,148.41,179.81,146.29Z"/><path class="cls-16" d="M179.81,146.29c3.95-.19,6.83-2.4,9.48-5,.15,2.8,1.76,6.22-1.88,7.77C184.42,150.3,181.68,149.06,179.81,146.29Z"/><path class="cls-17" d="M67.17,141.22c-1,3.18,2.17,8.71-4.66,8.29-5.26-.32-7.89-3.94-7.78-8.82s2.65-8.82,7.9-8.77C69.59,132,66,137.93,67.17,141.22Z"/><path class="cls-18" d="M215.93,141.93c0-5.3.91-9.79,6.09-9.91s6.75,4.46,6.64,8.67c-.1,3.94-.65,8.89-6.22,8.93C217.09,149.66,216.16,145.37,215.93,141.93Z"/><path class="cls-8" d="M164.67,140.55q0,6.28,0,12.59A15.79,15.79,0,0,1,164.67,140.55Z"/><path class="cls-19" d="M114.18,151.25c-2.2-.43-5-1-5-3.91,0-2.45,2.49-3.19,4.67-3.67,2.69-.59,4.14.35,4.23,3.2C118.15,149.44,117,151,114.18,151.25Z"/></svg>