<svg id="Capa_1" data-name="Capa 1" xmlns="http://www.w3.org/2000/svg" viewBox="0 0 280 280"><defs><style>.cls-1{fill:#a982fe;}.cls-2{fill:#d7b2fe;}.cls-3{fill:#8200a9;}.cls-4{fill:#d4acfb;}.cls-5{fill:#d1a5f8;}.cls-6{fill:#8201aa;}</style></defs><title>Mesa de trabajo 12 copia 4</title><path class="cls-1" d="M270,140.33c0,71.56-58.6,130.29-130.56,129.67C67.86,269.38,10.12,213.83,10,140.11,9.88,67,67.34,10.46,140.07,10,211.77,9.56,270,68.41,270,140.33Z"/><path class="cls-2" d="M253.46,140.19C255.22,202.7,200.68,254.8,138.77,254s-113.23-52-113-114.53C26,78.27,77.13,25.1,142.47,26.11,201.26,27,255.19,77,253.46,140.19Z"/><path class="cls-3" d="M216.58,129.18a19.58,19.58,0,0,0,0,3.34c2.56,14.13-1.8,24.21-16.45,28.38-5.61,1.6-6.07,6.06-5.27,10.64,1.45,8.36-1.83,13.87-9.4,17.16-4.67,2-6.26,5.45-5.86,10.59.49,6.37-.08,12.81.18,19.21.19,4.3-1.3,6.19-5.7,5.77-2.21-.21-4.48.18-6.68-.07-5.75-.66-8.47,1.55-7.53,7.47s-1.65,7.71-7.44,7.39c-8.34-.46-16.73-.33-25.09,0-4.8.17-7.62-1-6.81-6.39,1-6.48-1.51-8.77-8.28-8.56-13,.4-11.7,1.85-11.81-12.14a33.46,33.46,0,0,1,0-5.84c1.55-9.25-1-16.16-10.37-19.69-6.25-2.35-6.58-7.79-5.76-13.18,1.08-7.15-1.43-11.76-8.35-13.92-11.26-3.51-15.78-10.93-13.58-22.62a26.4,26.4,0,0,0,0-9.17c-2.62-15.28,1.57-26.47,17.73-31,5.19-1.46,4.61-6,4-9.66C82.47,76.59,86.36,70.09,96,66.27a53.94,53.94,0,0,0,12.31-7c9.19-6.95,18.13-10.22,28-1.11,4.25,3.93,8,.15,11.08-2.22,6.09-4.67,11.43-5.06,17.9-.32a131.22,131.22,0,0,0,20.84,12.29c7,3.34,10.19,8,8.72,15.63-1.56,8,1.34,13.42,9.26,15.82,10.42,3.16,14.43,10,12.6,20.69C216.15,123,216.58,126.12,216.58,129.18Z"/><path class="cls-2" d="M142.9,96.57c0-6.69.46-13.41-.13-20-.61-6.91,1.63-10.9,7.8-14.64s9.84-.24,14.24,2.22c4.87,2.72,9.43,6.11,14.52,8.23,7.72,3.22,9.75,8.6,8.95,16.44-.45,4.43-1,7.58-6.17,8-3.49.31-5.68,2.22-5.74,5.92a5,5,0,0,0,3.41,5.22c3.33,1.17,5.88,0,7.84-3,2.88-4.4,6.49-4.23,10.79-1.79,7.09,4,15.55,6.45,13.35,17.85-.87,4.56-1.38,7.07-6.39,4.64-3.32-1.62-6.39-2.06-8.94,1.21a4.71,4.71,0,0,0-.11,6.16c2.51,3.4,5.63,2.85,8.9,1.27,2-1,5.21-2.13,5.72.37.9,4.38,2.74,9.94-1.14,13.32-4.1,3.58-9.43,5.86-14.43,8.3-3.3,1.6-5.77-.41-7.88-3s-4.66-4-8-2.05a5.46,5.46,0,0,0-3,5.54c.41,3.72,2.81,4.68,6.3,5.24,5.15.82,8.07,12.12,3.93,16.14-3.09,3-6.63,6.41-11.33,6.59-9.46.38-18.95.18-28.42.38-3.5.08-4.13-1.71-4.12-4.66.08-14.21.12-28.41,0-42.62,0-4.45,2-5.6,5.63-3.93s6.8,2.75,9.61-1.06a4.78,4.78,0,0,0-.22-6.19c-2.6-3.24-5.69-2.54-9-1-4.16,2-6.15.71-6-4.13C143,113.29,142.9,104.93,142.9,96.57Z"/><path class="cls-2" d="M136.2,96.59c0,8.36,0,16.72,0,25.08,0,3.75-.5,6.28-5.13,3.76-3-1.6-5.94-1.58-8.23,1.33a4.82,4.82,0,0,0-.2,6.19c2.44,3.51,5.6,3.07,8.83,1.38,4.2-2.19,4.73.17,4.72,3.55,0,14.21-.11,28.43,0,42.64,0,3.76-1.5,4.79-5,4.7-8.92-.22-17.87.16-26.76-.39-8.51-.52-13.5-7-13.65-15.3-.09-5.38,1.94-7.79,7.23-7.59,3.2.13,5.47-1.15,6.11-4.41a5.59,5.59,0,0,0-3-6.34c-3-1.67-5.57-.79-7.39,1.66-4.24,5.67-9.1,4.68-13.84,1.26-5.1-3.68-13.73-3.63-12.75-13.86.64-6.71,2.32-8.61,8.43-5.83,3.68,1.66,7,2,9.26-2.24,1.07-2,.45-3.83-.76-5.45-2-2.64-4.73-2.82-7.5-1.65-3.07,1.31-7.8,3.37-8.52-.24-1-4.83-3.51-11.29,2-15.37,4-3,8.69-5,13.17-7.22s7.27.19,9.88,3.53a6.33,6.33,0,0,0,8.25,1.88,5,5,0,0,0,2.84-5.55c-.48-3.67-2.9-5.12-6.33-5.4-3.13-.25-7-.65-6.7-4.56C91.64,86.71,87.86,80,94.13,76c8.43-5.43,17.12-10.46,26-15.22,5.28-2.85,16,4.41,16.08,10.72C136.33,79.86,136.2,88.23,136.2,96.59Z"/><path class="cls-4" d="M139.54,207.46c8.88,0,17.76.08,26.64,0,3.81-.05,6.44.56,6.38,5.33s-3.28,4.22-6.29,4.22q-26.22,0-52.45,0c-2.95,0-6.11.76-6.22-4.21-.1-4.8,2.23-5.43,6.13-5.36C122.33,207.58,130.94,207.46,139.54,207.46Z"/><path class="cls-2" d="M140.07,200.24H113.32c-2.76,0-5.58.52-5.66-3.92-.07-4,1.92-4.49,5.15-4.47q27.16.1,54.34,0c3.14,0,5.39.33,5.34,4.38-.05,4.29-2.8,4-5.67,4C157.9,200.22,149,200.24,140.07,200.24Z"/><path class="cls-5" d="M139.82,232.06c-2.77,0-5.55-.08-8.33,0s-4-1.13-4-3.94,1.43-4,4.11-4c5.27,0,10.55,0,15.83,0,3.16,0,5.44.76,5.26,4.65s-3.08,3.16-5.42,3.26S142.32,232.07,139.82,232.06Z"/><path class="cls-6" d="M177.76,129.93c1.57,8.54.52,15-9.38,18.13-6.13,1.91-5.42,17.58.6,20.73,2.93,1.53,5.49,3.06,5,6.72a5.24,5.24,0,0,1-4.2,4.67c-3.82.79-5.72-1.58-8.24-4.16-8.52-8.72-4.8-19.3-4.93-29.13-.06-4.58,5.75-4.52,9-6.2,7.14-3.66,9.05-17.66,1.81-20.72-14.92-6.32-11.29-18.6-10.83-29.64.18-4.47,4.78-7.9,8.64-10.35a5,5,0,0,1,7.65,2.56c1.31,3.2.32,5.78-3,7.58-7,3.77-8,16.6-1,20.77C176.62,115.52,179.84,121.35,177.76,129.93Z"/><path class="cls-6" d="M122.5,100.58c2.38,8.77-1.22,14.77-9.59,18.16-7.57,3.07-4.5,9.69-5.2,15.11-.72,5.69,4,6.35,7.35,7.34,6.58,2,8.42,5.88,7.88,12.4-.65,7.85,1.06,15.9-4.85,22.84-2,2.35-3.43,4.08-6.57,3.9a5.06,5.06,0,0,1-4.82-3.92c-1-3.14.46-5.17,3-7,8-5.94,7-19.14-2.07-22.87-5.22-2.15-7.43-5.11-6.65-10.7a31,31,0,0,0,0-9.17c-1.11-6.75,2.11-10.73,7.38-14.31,8.48-5.78,8.73-15.8,1.07-22.83-3-2.78-3.1-6.14-.21-8.71s6-2,8.7,1.07C122.68,87.25,123.82,93.47,122.5,100.58Z"/></svg>