<svg id="Capa_1" data-name="Capa 1" xmlns="http://www.w3.org/2000/svg" viewBox="0 0 280 280"><defs><style>.cls-1{fill:#c8f791;}.cls-2{fill:#36a0fa;}.cls-3{fill:#8bc74b;}</style></defs><title>Mesa de trabajo 12</title><path class="cls-1" d="M139.81,19.71C72.15,19.55,17.09,73.54,17,140.18,16.83,207.55,71.08,262.4,138,262.5c67.09.11,122.2-53.93,122.39-120C260.55,74.87,206.55,19.88,139.81,19.71Z"/><path class="cls-2" d="M24.53,139.14c0,1.37,0,2.73.07,4.08,0-2.64,0-5.28,0-7.92C24.56,136.57,24.53,137.85,24.53,139.14Z"/><path class="cls-3" d="M83.44,233.64a8.34,8.34,0,0,0,1,0C84,233.42,83.67,233.39,83.44,233.64Z"/><path class="cls-3" d="M77.08,233.62c.34,0,.67,0,1,0C77.83,233.39,77.47,233.42,77.08,233.62Z"/><path class="cls-3" d="M136,191.23c8.44,4.24,17.62,5.48,26.95,5.78a20.18,20.18,0,0,1,8.51,0c2.32.19,4.64.34,6.82-.77-.1-.12-.26-.24-.28-.38s.17-.38.22-.37c1.69.28,3.46-.34,5.11.4,8.14-1,15.75-3.57,22.2-8.79,8.44-6.84,11.27-16,10-26.56-1.2-9.73-7.19-15.74-16.05-18.88a109.28,109.28,0,0,0-21.53-5.07c-1.72.22-3.49,1-5.09-.41a4.37,4.37,0,0,0-3.52-.73c-1.4.3-2.83,1-4.1-.3-5.2-1.08-10.43-2-15.57-3.29-3.49-.89-7.16-1.79-9.24-5.32-1.13-2.53-1.37-5,.16-7.52,2.78-5.82,8.56-6.81,13.8-8.67,2.05-1.19,4.17-.67,6.28-.29l11,0c1.8-.44,3.61-.92,5.31.34,9.22,2,15.56,7,17.49,16.75a2,2,0,0,0,2,1.53c4.48-1.23,9.06-.12,13.58-.6,2-1.57.22-4,1.35-5.82a29.49,29.49,0,0,0-6.52-14.87c-7.69-9.1-17.91-12-29-13.26a116.57,116.57,0,0,1-20.38,0,63.73,63.73,0,0,0-7.44,1.05C135.53,98.45,125.08,104,122,118a43.84,43.84,0,0,1,0,11.78c.91,6.76,4.81,11.5,10.4,14.86,7.35,4.43,15.6,5.9,24,6.76,1.4-.38,2.8-.86,4.11.27a6.48,6.48,0,0,0,4.53.83c2.08-.32,4.2-1.13,6.18.36a4.22,4.22,0,0,0,3.54.71c1.05-.24,2.14-1,3.07.25l8.79,2.3c4.88,1.26,9.19,3.23,10.59,8.76,1.11,1.42,1.11,1.47,0,2.74-1.67,7-6.73,10.19-13.17,11.88-2.06.54-4.35,0-6.25,1.31a58.76,58.76,0,0,1-20.32-.06c-.15-.09-.29-.27-.44-.28-12.1-.87-19.86-6.76-22-19.17-4.9-1-9.85-.24-14.77-.4-2.47,2.3-.22,5.5-1.52,8C120.25,179.64,126.77,186.6,136,191.23Z"/><path class="cls-3" d="M60.67,229.7c3.92,2.1,8,4.09,12.56,4.29A116,116,0,0,1,24.6,143.22c0,18.86,0,37.72.14,56.59a131,131,0,0,0,8.86,14.8c.4.25.8.5,1.21.73C43.39,220.21,52,225,60.67,229.7Z"/><path class="cls-3" d="M140,10C69.29,10.09,10.26,67.85,10,137.14a135.92,135.92,0,0,0,14.74,62.67c-.15-18.87-.16-37.73-.14-56.59,0-1.35-.07-2.71-.07-4.08s0-2.57.08-3.84A113.45,113.45,0,0,1,61.16,56a116.93,116.93,0,0,1,79.93-31.13,113.48,113.48,0,0,1,80.84,34.08,116.35,116.35,0,0,1,31.64,60.93,118.69,118.69,0,0,1,1.9,21.48,111.72,111.72,0,0,1-1.9,20.24C243.63,214.7,196,255.3,139.33,255.21A113.85,113.85,0,0,1,73.23,234c-4.6-.2-8.64-2.19-12.56-4.29C52,225,43.39,220.21,34.81,215.34c-.41-.23-.81-.48-1.21-.73a128.42,128.42,0,0,0,96.8,55c3.19.23,6.4.36,9.65.37q5.31,0,10.52-.41c39.29-3.15,74.21-24.31,96-54.9a130.62,130.62,0,0,0,7.18-11.25A123.45,123.45,0,0,0,270,142.89C270.27,68.56,212.88,9.91,140,10Z"/><path class="cls-3" d="M72.54,233.8h0a8.38,8.38,0,0,1,4.05-.38c.42-.2.8-.23,1,0-.32,0-.67,0-1,0a4,4,0,0,0-.92.64,13,13,0,0,0,9.66,0,4.41,4.41,0,0,0-.94-.63c-.37,0-.72,0-1,0,.25-.26.63-.23,1,0a8.61,8.61,0,0,1,4.08.37c13.66-2.91,21.32-11.72,21.67-24.89a6.17,6.17,0,0,1-.43-3.2q0-52.42,0-104.84a6.37,6.37,0,0,1,.37-2.67c-4.92-4.11-10.5-1.77-15.87-1.45-2.34,1.79-1.62,4.29-1.63,6.57q0,50-.06,99.9c0,1.89.83,4-.77,5.71a17.06,17.06,0,0,1-9,8.4c-2.93,1.54-5.9,1.18-8.88.18-3.74-1.75-7.45-3.55-11.21-5.24-7.89-3.54-14.84-8.69-22.93-11.87l-.38,0A119.47,119.47,0,0,0,72.54,233.8Z"/></svg>