<svg xmlns="http://www.w3.org/2000/svg" xmlns:xlink="http://www.w3.org/1999/xlink" viewBox="0 0 147.47 264.27">
  <defs>
    <radialGradient id="radial-gradient" cx="-698.54" cy="-2167.1" r="115.47" gradientTransform="rotate(180 -276.36 -1007.735)" gradientUnits="userSpaceOnUse">
      <stop offset=".34"/>
      <stop offset=".41" stop-color="#050505"/>
      <stop offset=".51" stop-color="#131313"/>
      <stop offset=".6" stop-color="#2b2b2b"/>
      <stop offset=".71" stop-color="#4c4c4c"/>
      <stop offset=".81" stop-color="#777"/>
      <stop offset=".92" stop-color="#aaa"/>
      <stop offset="1" stop-color="#d6d6d6"/>
    </radialGradient>
    <radialGradient id="radial-gradient-2" cx="-698.54" cy="-2167.1" r="115.47" xlink:href="#radial-gradient"/>
    <radialGradient id="radial-gradient-3" cx="-698.54" cy="-2167.1" r="115.47" xlink:href="#radial-gradient"/>
    <radialGradient id="radial-gradient-4" cx="-698.54" cy="-2167.1" r="115.47" xlink:href="#radial-gradient"/>
    <radialGradient id="radial-gradient-5" cx="-698.54" cy="-2167.1" r="115.47" xlink:href="#radial-gradient"/>
    <radialGradient id="radial-gradient-6" cx="-698.54" cy="-2167.1" r="115.47" xlink:href="#radial-gradient"/>
    <radialGradient id="radial-gradient-7" cx="-698.54" cy="-2167.1" r="115.47" xlink:href="#radial-gradient"/>
    <radialGradient id="radial-gradient-8" cx="191.01" cy="99.98" r="183.87" xlink:href="#radial-gradient"/>
    <radialGradient id="radial-gradient-9" cx="191.01" cy="99.98" r="183.87" xlink:href="#radial-gradient"/>
    <radialGradient id="radial-gradient-10" cx="191.01" cy="99.98" r="183.87" xlink:href="#radial-gradient"/>
    <radialGradient id="radial-gradient-11" cx="-470.57" cy="-2180.9" r="183.87" xlink:href="#radial-gradient"/>
    <radialGradient id="radial-gradient-12" cx="191.01" cy="99.98" r="183.87" xlink:href="#radial-gradient"/>
    <radialGradient id="radial-gradient-13" cx="19.93" cy="132.55" r="190.82" gradientTransform="translate(-22.3 -8.32)" xlink:href="#radial-gradient"/>
    <radialGradient id="radial-gradient-14" cx="19.93" cy="132.55" r="190.82" gradientTransform="translate(-22.3 -8.32)" xlink:href="#radial-gradient"/>
    <radialGradient id="radial-gradient-15" cx="19.93" cy="132.55" r="190.82" gradientTransform="translate(-22.3 -8.32)" xlink:href="#radial-gradient"/>
    <radialGradient id="radial-gradient-16" cx="-57.62" cy="115.86" r="190.82" gradientTransform="translate(-22.3 -8.32)" xlink:href="#radial-gradient"/>
    <radialGradient id="radial-gradient-17" cx="-57.62" cy="115.86" r="190.82" gradientTransform="translate(-22.3 -8.32)" xlink:href="#radial-gradient"/>
    <radialGradient id="radial-gradient-18" cx="-57.62" cy="115.86" r="190.82" gradientTransform="translate(-22.3 -8.32)" xlink:href="#radial-gradient"/>
    <radialGradient id="radial-gradient-19" cx="-57.62" cy="115.86" r="190.82" gradientTransform="translate(-22.3 -8.32)" xlink:href="#radial-gradient"/>
    <radialGradient id="radial-gradient-20" cx="-57.62" cy="115.86" r="190.82" gradientTransform="translate(-22.3 -8.32)" xlink:href="#radial-gradient"/>
    <radialGradient id="radial-gradient-21" cx="-57.62" cy="115.86" r="190.82" gradientTransform="translate(-22.3 -8.32)" xlink:href="#radial-gradient"/>
    <radialGradient id="radial-gradient-22" cx="-57.62" cy="115.86" r="190.82" gradientTransform="translate(-22.3 -8.32)" xlink:href="#radial-gradient"/>
    <radialGradient id="radial-gradient-23" cx="-57.62" cy="115.86" r="190.82" gradientTransform="translate(-22.3 -8.32)" xlink:href="#radial-gradient"/>
    <radialGradient id="radial-gradient-24" cx="-57.62" cy="115.86" r="190.82" gradientTransform="translate(-22.3 -8.32)" xlink:href="#radial-gradient"/>
  </defs>
  <g style="isolation:isolate">
    <g id="Layer_1" data-name="Layer 1">
      <g class="cls-2">
        <path d="M80.53 116.75a8.56 8.56 0 10-8.53-8.56 8.57 8.57 0 008.53 8.56zm0-11.87a3.32 3.32 0 11-3.32 3.31 3.32 3.32 0 013.32-3.31z" fill="url(#radial-gradient)"/>
        <path d="M80.53 123.36a15.17 15.17 0 10-15.17-15.17 15.19 15.19 0 0015.17 15.17zm0-27.71A12.55 12.55 0 1168 108.19a12.56 12.56 0 0112.53-12.54z" fill="url(#radial-gradient-2)"/>
        <path d="M55.39 106.48c0 .56-.06 1.14-.06 1.71v.07h2.32c0 .52 0 1 .07 1.56l-2.32.18c0 .57.1 1.15.17 1.71l2.31-.32c.07.52.16 1 .26 1.54l-2.27.48c.11.56.25 1.12.41 1.67l2.24-.63c.14.5.3 1 .47 1.48l-2.19.79c.19.53.41 1.07.64 1.59l2.13-.93c.21.48.44 1 .68 1.4l-2.07 1.08c.26.51.55 1 .85 1.5l2-1.22c.28.45.57.88.87 1.3l-1.9 1.32c.33.47.68.93 1.05 1.37l1.8-1.48c.33.41.68.8 1 1.18l-1.7 1.59c.39.42.8.83 1.22 1.22l1.63-1.71c.38.35.77.7 1.17 1l-1.47 1.82c.45.36.91.7 1.38 1l1.34-1.91c.43.3.86.59 1.3.86l-1.2 2c.48.29 1 .58 1.5.84l1.07-2.08c.46.24.93.47 1.41.68l-.93 2.14c.53.22 1.07.43 1.61.63l.77-2.2c.49.17 1 .33 1.49.47l-.62 2.24c.55.15 1.11.29 1.67.4l.47-2.27c.5.1 1 .18 1.54.25l-.31 2.31c.56.08 1.14.13 1.71.17L79 131c.5 0 1 .06 1.52.06v2.32c.57 0 1.15 0 1.71-.06l-.1-2.32c.52 0 1-.09 1.55-.16l.32 2.31c.57-.08 1.14-.18 1.7-.29l-.48-2.28c.51-.11 1-.24 1.52-.38l.63 2.25c.55-.16 1.1-.33 1.64-.53l-.79-2.19c.5-.18 1-.37 1.45-.58l.94 2.14c.52-.23 1-.48 1.55-.74l-1.08-2.07c.46-.24.91-.5 1.36-.77l1.21 2c.49-.3 1-.61 1.44-.94l-1.35-1.91c.42-.3.84-.61 1.24-.94l1.47 1.8c.45-.36.88-.74 1.3-1.13l-1.6-1.7c.38-.36.75-.73 1.1-1.11l1.71 1.6c.39-.42.77-.86 1.13-1.3l-1.81-1.47c.33-.41.64-.82.94-1.25l1.91 1.35c.33-.47.65-1 .94-1.44l-2-1.21c.27-.45.52-.9.76-1.37l2.08 1.08c.26-.51.51-1 .74-1.56l-2.14-.93c.2-.47.39-1 .57-1.45l2.2.78c.19-.54.36-1.09.51-1.64l-2.24-.63c.14-.5.27-1 .37-1.51l2.28.46c.11-.56.21-1.13.29-1.69l-2.31-.31c.07-.52.12-1 .16-1.56l2.32.16v-1.69h-2.26q0-.78-.06-1.56l2.32-.16c0-.57-.1-1.14-.17-1.71l-2.31.32c-.07-.52-.16-1-.26-1.54l2.27-.47c-.11-.56-.25-1.12-.4-1.67l-2.25.63c-.14-.51-.29-1-.47-1.49l2.19-.78c-.19-.54-.4-1.08-.63-1.6l-2.13.93c-.21-.48-.44-1-.68-1.41l2.07-1.07c-.26-.51-.55-1-.84-1.5l-2 1.22c-.27-.45-.56-.88-.87-1.3l1.91-1.35c-.33-.47-.68-.93-1-1.37l-1.81 1.47c-.33-.4-.67-.79-1-1.17L98.93 91c-.39-.41-.8-.82-1.22-1.21l-1.59 1.71c-.38-.36-.77-.7-1.18-1l1.48-1.81c-.45-.36-.91-.71-1.37-1l-1.35 1.82c-.43-.3-.86-.59-1.3-.87l1.21-2c-.49-.29-1-.58-1.5-.84L91 87.88c-.46-.24-.93-.46-1.41-.67l.93-2.14c-.52-.23-1.06-.44-1.6-.63l-.78 2.19c-.49-.17-1-.32-1.49-.46l.63-2.25c-.55-.15-1.12-.29-1.68-.4l-.46 2.27c-.51-.1-1-.19-1.54-.26l.31-2.3q-.85-.12-1.71-.18l-.16 2.33c-.51 0-1-.06-1.54-.06V83c-.57 0-1.15 0-1.72.06l.22 2.32c-.52 0-1 .09-1.55.16l-.32-2.31c-.56.08-1.13.18-1.69.29l.47 2.28c-.51.1-1 .23-1.51.37l-.63-2.24c-.55.15-1.1.33-1.64.52l.78 2.19c-.49.18-1 .37-1.45.58l-.93-2.14c-.52.23-1 .48-1.55.74L70 87.89c-.46.24-.91.49-1.36.76l-1.21-2c-.49.29-1 .61-1.44.94l1.35 1.91c-.42.3-.84.61-1.24.94l-1.47-1.81c-.45.36-.88.74-1.3 1.13l1.6 1.71c-.39.35-.75.72-1.11 1.1L62.11 91c-.39.41-.77.85-1.13 1.29l1.81 1.47c-.33.41-.64.82-.94 1.25l-1.91-1.35c-.33.47-.64 1-.94 1.44l2 1.21c-.27.45-.52.9-.76 1.36l-2.09-1.07c-.26.51-.51 1-.74 1.55l2.14.93c-.21.48-.4 1-.57 1.46l-2.2-.78c-.19.54-.37 1.09-.52 1.64l2.24.62c-.14.5-.26 1-.37 1.52l-2.28-.47c-.11.56-.21 1.13-.29 1.69l2.31.32c-.07.51-.12 1-.16 1.55zm25.14-17.23a18.94 18.94 0 11-18.94 18.94 19 19 0 0118.94-18.94z" fill="url(#radial-gradient-3)"/>
      </g>
      <g class="cls-2">
        <path d="M49.32 80.22a5.4 5.4 0 10-5.4-5.4 5.4 5.4 0 005.4 5.4z" fill="url(#radial-gradient-4)"/>
        <path d="M31.32 72.91c-.06.63-.1 1.27-.1 1.92h2.66a15.06 15.06 0 00.4 3.44l-2.6.59a18.73 18.73 0 00.53 1.85l2.52-.87A15.17 15.17 0 0036.22 83L34 84.39c.34.54.71 1.07 1.1 1.57l2.1-1.64a15.28 15.28 0 002.42 2.47l-1.72 2.06A14.27 14.27 0 0039.45 90l1.45-2.23a15.18 15.18 0 003.1 1.54l-.92 2.49a15 15 0 001.84.57l.64-2.58a14.93 14.93 0 003.43.46l-.06 2.66c.64 0 1.29 0 1.92-.06l-.22-2.65a15.79 15.79 0 003.37-.67l.81 2.53a16.08 16.08 0 001.79-.68L55.54 89a15.7 15.7 0 003-1.75l1.59 2.14a17.1 17.1 0 001.47-1.23l-1.81-2a15.76 15.76 0 002.27-2.62l2.19 1.51a17.08 17.08 0 001-1.64l-2.35-1.26a15.53 15.53 0 001.3-3.21l2.56.71a17 17 0 00.41-1.88l-2.62-.43a16.07 16.07 0 00.21-2.52v-.93l2.65-.16c0-.64-.11-1.28-.21-1.91l-2.63.44a14.89 14.89 0 00-1-3.32l2.46-1a18.23 18.23 0 00-.82-1.73l-2.34 1.27a14.72 14.72 0 00-2-2.83l2-1.76c-.43-.48-.88-.94-1.35-1.37l-1.8 2a15.13 15.13 0 00-2.79-2l1.32-2.32c-.55-.31-1.13-.6-1.71-.86l-1.07 2.44a15.44 15.44 0 00-3.3-1L52.7 57c-.62-.12-1.26-.2-1.9-.26l-.21 2.65h-1.27a14.29 14.29 0 00-2.19.16l-.38-2.63a15.23 15.23 0 00-1.88.37l.65 2.57a15.16 15.16 0 00-3.23 1.23l-1.22-2.37a18.16 18.16 0 00-1.65 1l1.46 2.23a15.77 15.77 0 00-2.67 2.21l-1.92-1.85a17.34 17.34 0 00-1.29 1.4l2.1 1.63a15.36 15.36 0 00-1.81 3l-2.41-1.13c-.27.58-.51 1.18-.72 1.78l2.52.87a15 15 0 00-.68 3.32zm18-11.3a13.21 13.21 0 11-13.21 13.21 13.22 13.22 0 0113.21-13.21z" fill="url(#radial-gradient-5)"/>
      </g>
      <g class="cls-2">
        <path d="M28 131.38a13.84 13.84 0 10-13.85-13.84A13.84 13.84 0 0028 131.38zm0-24.78a10.94 10.94 0 11-10.94 10.94A10.93 10.93 0 0128 106.6z" fill="url(#radial-gradient-6)"/>
        <path d="M11.13 117.58a16.63 16.63 0 00.18 2.45l-2.87.42c.06.37.13.74.2 1.11l2.83-.59a17.24 17.24 0 00.68 2.36l-2.72 1c.12.36.27.7.41 1l2.66-1.14a17.94 17.94 0 001.14 2.17l-2.47 1.52c.2.32.4.64.62 1l2.39-1.67a15.42 15.42 0 001.54 1.9l-2.11 2c.25.27.52.54.79.8l2-2.11a15.5 15.5 0 001.9 1.55l-1.68 2.38c.31.21.62.42.94.62l1.54-2.47a15.89 15.89 0 002.16 1.12l-1.16 2.67 1 .42 1-2.73a15.84 15.84 0 002.35.69l-.59 2.83c.36.08.74.15 1.11.2l.43-2.86a19.59 19.59 0 002.44.19v2.89H29l-.16-2.9a17.68 17.68 0 002.44-.3l.57 2.85c.37-.08.73-.16 1.1-.26l-.73-2.81a15.85 15.85 0 002.32-.79l1.13 2.67c.34-.14.69-.3 1-.46l-1.28-2.61a17.14 17.14 0 002.11-1.24l1.65 2.39c.31-.21.61-.43.91-.66l-1.79-2.3a16.74 16.74 0 001.83-1.64l2.09 2c.26-.26.52-.55.76-.83l-2.21-1.89a15.79 15.79 0 001.46-2l2.45 1.56c.2-.32.4-.64.58-1l-2.54-1.41a14.91 14.91 0 001-2.22l2.72 1c.13-.35.25-.71.36-1.07l-2.76-.87a17.16 17.16 0 00.56-2.38l2.86.45c.06-.37.1-.75.14-1.12l-2.89-.29a15.48 15.48 0 00.09-1.68v-.76l2.9-.13c0-.38 0-.76-.08-1.13l-2.89.3a17.47 17.47 0 00-.42-2.42l2.81-.71c-.09-.37-.2-.73-.31-1.08l-2.77.87a15.43 15.43 0 00-.9-2.28l2.61-1.27c-.16-.33-.34-.67-.52-1l-2.54 1.42a15.36 15.36 0 00-1.34-2l2.31-1.77c-.23-.29-.47-.59-.72-.87l-2.2 1.9a15 15 0 00-1.71-1.74l1.91-2.2c-.28-.24-.58-.48-.87-.71l-1.78 2.3a17.22 17.22 0 00-2-1.36l1.42-2.53c-.32-.18-.66-.36-1-.52l-1.28 2.61a15.13 15.13 0 00-2.28-.93l.88-2.76c-.35-.11-.71-.22-1.08-.31l-.72 2.8a16 16 0 00-2.41-.43l.3-2.88c-.37-.05-.74-.07-1.12-.09l-.14 2.89h-.84a14.35 14.35 0 00-1.61.08l-.28-2.89c-.37 0-.74.08-1.12.14l.45 2.86a17.44 17.44 0 00-2.4.56l-.85-2.78c-.36.11-.72.23-1.06.36l1 2.72a17.32 17.32 0 00-2.23 1l-1.39-2.54c-.33.18-.66.37-1 .56l1.54 2.47a14.08 14.08 0 00-2 1.45l-1.89-2.22c-.29.24-.56.49-.83.75l2 2.11a15.67 15.67 0 00-1.65 1.81l-2.29-1.79c-.23.29-.45.59-.67.9l2.39 1.67a15 15 0 00-1.2 2.08l-2.6-1.3c-.17.34-.33.68-.47 1l2.66 1.14a16.71 16.71 0 00-.8 2.32l-2.8-.74c-.1.36-.18.73-.26 1.1l2.84.57a16.44 16.44 0 00-.31 2.44l-2.9-.16V117.54zM28 101.78a15.77 15.77 0 11-15.77 15.76A15.78 15.78 0 0128 101.78z" fill="url(#radial-gradient-7)"/>
      </g>
      <g class="cls-2">
        <path d="M48.13 158.71a18.45 18.45 0 1018.44 18.45 18.47 18.47 0 00-18.44-18.45zm0 35.86a17.41 17.41 0 1117.4-17.41 17.43 17.43 0 01-17.4 17.41z" fill="url(#radial-gradient-8)"/>
        <path d="M48.13 161.42a15.75 15.75 0 1015.74 15.74 15.76 15.76 0 00-15.74-15.74zm0 30.45a14.71 14.71 0 1114.7-14.71 14.73 14.73 0 01-14.7 14.71z" fill="url(#radial-gradient-9)"/>
        <path d="M48.13 166.82a10.34 10.34 0 1010.34 10.34 10.36 10.36 0 00-10.34-10.34zm0 19.65a9.31 9.31 0 119.3-9.31 9.33 9.33 0 01-9.3 9.31z" fill="url(#radial-gradient-10)"/>
        <path d="M48.13 170.46a6.71 6.71 0 106.7 6.7 6.7 6.7 0 00-6.7-6.7z" fill="url(#radial-gradient-11)"/>
        <path d="M11.49 171.18a38.58 38.58 0 00-.48 6v.09h5.45a31.25 31.25 0 00.69 6.53l-5.33 1.12a36.42 36.42 0 001.72 5.77l5.09-2a31.38 31.38 0 003 5.82l-4.57 3a38.37 38.37 0 003.69 4.74l4-3.69a31.19 31.19 0 004.9 4.35l-3.19 4.44a37.42 37.42 0 005.15 3.1l2.43-4.89a30.77 30.77 0 006.14 2.3l-1.36 5.27a36.84 36.84 0 005.92 1l.49-5.43c.94.08 1.9.13 2.87.13a32.34 32.34 0 003.69-.22l.62 5.42a38 38 0 005.9-1.18l-1.5-5.25a31.56 31.56 0 006.08-2.45l2.58 4.85a37.09 37.09 0 005.06-3.23l-3.3-4.35a31.82 31.82 0 004.77-4.51l4.12 3.59a36.59 36.59 0 003.57-4.84l-4.65-2.87a31.22 31.22 0 002.86-5.9l5.13 1.85a36.56 36.56 0 001.57-5.8l-5.36-1a32.47 32.47 0 00.53-5.79v-.75l5.45-.13a37.32 37.32 0 00-.63-6l-5.36 1a31 31 0 00-1.86-6.27l5-2.09a35.92 35.92 0 00-2.75-5.34L75 160.48a31.63 31.63 0 00-4-5.18l4-3.77a37.09 37.09 0 00-4.49-4l-3.29 4.36a31.59 31.59 0 00-5.61-3.39l2.32-4.94a37.77 37.77 0 00-5.63-2.11l-1.49 5.25a31.17 31.17 0 00-6.46-1.12l.38-5.44c-.85-.06-1.71-.09-2.57-.09-1.14 0-2.3 0-3.43.16l.5 5.43a31 31 0 00-6.43 1.27l-1.61-5.21a38.46 38.46 0 00-5.58 2.24l2.39 4.89a31.79 31.79 0 00-5.53 3.52l-3.39-4.28a36.25 36.25 0 00-4.39 4.1l4 3.67a32 32 0 00-3.89 5.28l-4.71-2.77a36 36 0 00-2.62 5.41l5.09 2a31.89 31.89 0 00-1.73 6.32zm36.64 33.08a27.1 27.1 0 1127.09-27.1 27.13 27.13 0 01-27.09 27.1z" fill="url(#radial-gradient-12)"/>
      </g>
      <g class="cls-2">
        <path d="M105.54 181.86A14.15 14.15 0 10119.69 196a14.17 14.17 0 00-14.15-14.14zm0 19.62A5.48 5.48 0 11111 196a5.47 5.47 0 01-5.46 5.48z" fill="url(#radial-gradient-13)"/>
        <path d="M105.54 170.94A25.07 25.07 0 10130.61 196a25.09 25.09 0 00-25.07-25.06zm0 45.8A20.73 20.73 0 11126.27 196a20.75 20.75 0 01-20.73 20.74z" fill="url(#radial-gradient-14)"/>
        <path d="M147.08 198.84c.06-.94.1-1.89.1-2.83v-.11h-3.84c0-.87 0-1.72-.1-2.58l3.83-.27c-.06-.94-.16-1.89-.29-2.82l-3.81.53c-.12-.86-.26-1.71-.44-2.55l3.76-.78c-.19-.93-.42-1.86-.67-2.76l-3.71 1c-.24-.83-.49-1.65-.78-2.46l3.62-1.29c-.32-.89-.67-1.78-1.05-2.64l-3.53 1.54c-.34-.79-.72-1.56-1.12-2.32l3.42-1.78c-.43-.84-.9-1.67-1.4-2.48l-3.28 2c-.45-.74-.93-1.45-1.43-2.15l3.15-2.24c-.55-.76-1.13-1.52-1.72-2.25l-3 2.44c-.54-.67-1.11-1.31-1.7-1.94l2.81-2.64c-.64-.69-1.32-1.36-2-2l-2.63 2.83c-.63-.59-1.28-1.15-1.94-1.7l2.43-3c-.74-.6-1.5-1.17-2.27-1.72l-2.22 3.16c-.71-.5-1.42-1-2.16-1.42l2-3.29c-.81-.49-1.64-1-2.48-1.39l-1.77 3.42c-.76-.39-1.54-.77-2.33-1.11l1.53-3.53c-.87-.38-1.76-.73-2.65-1l-1.29 3.63q-1.2-.44-2.46-.78l1-3.71c-.91-.25-1.84-.47-2.76-.66l-.77 3.76c-.84-.18-1.69-.31-2.55-.43l.52-3.81c-.94-.12-1.89-.22-2.83-.28l-.25 3.84c-.83-.06-1.67-.1-2.51-.1h-.07v-3.84c-.94 0-1.9 0-2.84.1l.27 3.84c-.86.06-1.72.15-2.57.26l-.52-3.81c-.94.13-1.88.3-2.8.49l.78 3.76c-.84.18-1.68.39-2.5.62l-1-3.71c-.91.26-1.82.55-2.71.87l1.29 3.62c-.81.29-1.61.61-2.39 1l-1.54-3.53c-.87.37-1.73.79-2.57 1.22l1.79 3.42c-.77.4-1.52.82-2.25 1.27l-2-3.29c-.8.49-1.6 1-2.37 1.56l2.23 3.15c-.7.5-1.39 1-2 1.56l-2.44-3c-.73.6-1.45 1.23-2.14 1.88l2.64 2.81c-.63.59-1.23 1.2-1.82 1.83l-2.82-2.63c-.65.69-1.27 1.41-1.87 2.14l3 2.43c-.54.67-1 1.36-1.55 2.06L71.49 172c-.54.77-1.06 1.57-1.56 2.37l3.29 2c-.44.74-.86 1.49-1.25 2.26l-3.43-1.77c-.43.83-.84 1.7-1.22 2.57l3.53 1.57c-.34.78-.65 1.59-.94 2.4l-3.63-1.28c-.32.89-.6 1.8-.86 2.71l3.71 1c-.23.83-.44 1.66-.61 2.5l-3.76-.77c-.19.93-.35 1.87-.48 2.81l3.81.51c-.11.85-.2 1.7-.26 2.57l-3.83-.23c-.06.92-.09 1.86-.09 2.79v.05h3.83c0 .86 0 1.72.1 2.57l-3.84.27c.07.94.17 1.89.29 2.82l3.81-.52c.12.86.26 1.7.44 2.54l-3.76.78c.19.93.42 1.86.67 2.77l3.71-1c.23.83.49 1.65.78 2.45L66.31 210c.32.88.67 1.77 1 2.64l3.53-1.54c.35.79.72 1.56 1.12 2.32l-3.43 1.78c.44.84.91 1.67 1.4 2.47l3.29-2c.45.73.93 1.44 1.42 2.14l-3.15 2.24c.55.76 1.13 1.53 1.72 2.26l3-2.44c.54.67 1.11 1.31 1.7 1.94l-2.82 2.64c.65.68 1.32 1.36 2 2l2.64-2.82c.62.59 1.27 1.16 1.94 1.7l-2.44 3c.74.6 1.5 1.17 2.27 1.72l2.23-3.15c.7.49 1.41 1 2.15 1.42l-2 3.29c.8.49 1.64 1 2.48 1.39l1.77-3.42c.76.4 1.54.77 2.33 1.11L89 234.22c.86.37 1.75.72 2.65 1l1.28-3.63q1.22.44 2.46.78l-1 3.71c.91.25 1.84.48 2.76.67l.78-3.76c.83.17 1.68.31 2.54.42l-.52 3.81c.94.13 1.89.23 2.83.29l.26-3.84c.84.06 1.69.1 2.55.1v3.83c.94 0 1.9 0 2.84-.09l-.27-3.84c.87-.06 1.72-.15 2.57-.26l.52 3.81c.94-.13 1.88-.29 2.8-.49l-.78-3.75c.85-.18 1.68-.39 2.51-.63l1 3.71c.9-.25 1.82-.54 2.71-.86l-1.29-3.62c.81-.29 1.6-.61 2.39-1l1.54 3.53c.86-.38 1.72-.79 2.56-1.22l-1.78-3.43q1.16-.59 2.25-1.26l2 3.29c.8-.49 1.6-1 2.37-1.56l-2.23-3.15c.7-.5 1.39-1 2.06-1.56l2.43 3c.73-.59 1.45-1.22 2.14-1.87l-2.63-2.82c.62-.58 1.23-1.19 1.82-1.82l2.82 2.63c.64-.68 1.27-1.41 1.87-2.14l-3-2.43c.54-.67 1.06-1.36 1.56-2.06l3.15 2.23c.54-.77 1.07-1.57 1.56-2.38l-3.29-2c.45-.73.87-1.49 1.26-2.25l3.43 1.77c.43-.84.84-1.7 1.22-2.56l-3.53-1.54c.34-.79.66-1.59.95-2.4l3.62 1.29c.32-.89.61-1.81.86-2.71l-3.7-1c.23-.83.44-1.66.62-2.51l3.76.78c.19-.92.35-1.86.47-2.8l-3.81-.52c.12-.85.21-1.7.27-2.57zm-41.54 28.46a31.3 31.3 0 1131.3-31.3 31.33 31.33 0 01-31.3 31.3z" fill="url(#radial-gradient-15)"/>
      </g>
      <g class="cls-2">
        <circle cx="79.56" cy="234.47" r="8.92" fill="url(#radial-gradient-16)"/>
        <path d="M109.3 237.63a30.35 30.35 0 00.17-3.18h-4.39a26 26 0 00-.66-5.68l4.29-1a29.48 29.48 0 00-.88-3.05l-4.15 1.44a25.25 25.25 0 00-2.47-5.16l3.73-2.33a29.25 29.25 0 00-1.81-2.59l-3.47 2.71a25.32 25.32 0 00-4-4.08l2.78-3.42a30.9 30.9 0 00-2.56-1.86l-2.41 3.68a25.4 25.4 0 00-5.1-2.57l1.52-4.12a28.89 28.89 0 00-3-.94l-1.06 4.26a25.24 25.24 0 00-5.67-.75l.09-4.4a30.41 30.41 0 00-3.16.1l.36 4.38a25.38 25.38 0 00-5.6 1.11L70.47 206a28.61 28.61 0 00-3 1.13l1.77 4a25.54 25.54 0 00-4.89 2.87l-2.63-3.53a31.24 31.24 0 00-2.44 2l3 3.23a25.29 25.29 0 00-3.74 4.32l-3.63-2.49a30 30 0 00-1.65 2.7l3.86 2.09a25.3 25.3 0 00-2.12 5.34l-4.24-1.17a29.32 29.32 0 00-.68 3.09l4.33.72a26 26 0 00-.34 4.17c0 .52 0 1 .05 1.54l-4.39.26c.07 1 .19 2.11.36 3.15l4.33-.73a25.53 25.53 0 001.57 5.5l-4.06 1.67a30.1 30.1 0 001.36 2.87l3.87-2.1a25.39 25.39 0 003.28 4.68l-3.31 2.91a29.59 29.59 0 002.22 2.26l3-3.24a26.09 26.09 0 004.62 3.38l-2.19 3.82a31.16 31.16 0 002.83 1.42l1.77-4a25.26 25.26 0 005.46 1.69l-.84 4.3a30.34 30.34 0 003.14.42l.36-4.38c.69.06 1.39.1 2.09.1a25.64 25.64 0 003.63-.27l.61 4.35a29.46 29.46 0 003.11-.61l-1.07-4.26a25.23 25.23 0 005.34-2l2 3.91a30 30 0 002.74-1.59l-2.41-3.68a26.1 26.1 0 004.4-3.65l3.17 3.06a29.43 29.43 0 002.07-2.4l-3.47-2.7a25.76 25.76 0 003-4.87l4 1.86a29.64 29.64 0 001.19-2.94l-4.16-1.43a25.26 25.26 0 001.25-5.58zM79.56 256.3a21.83 21.83 0 1121.84-21.83 21.86 21.86 0 01-21.84 21.83z" fill="url(#radial-gradient-17)"/>
      </g>
      <g class="cls-2">
        <path d="M114.81 141a22.87 22.87 0 1022.88 22.87A22.87 22.87 0 00114.81 141zm0 40.94a18.07 18.07 0 1118.08-18.08 18.07 18.07 0 01-18.08 18.08z" fill="url(#radial-gradient-18)"/>
        <path d="M142.68 163.81a28.49 28.49 0 00-.3-4.05l4.73-.7c-.08-.61-.2-1.23-.32-1.83l-4.69 1a28.81 28.81 0 00-1.1-3.93l4.5-1.64c-.21-.59-.45-1.16-.69-1.72l-4.4 1.89a28.5 28.5 0 00-1.88-3.59l4.08-2.52c-.32-.52-.66-1.05-1-1.55l-3.94 2.75a25.52 25.52 0 00-2.56-3.13l3.5-3.3c-.42-.45-.86-.89-1.31-1.32l-3.3 3.49a25.6 25.6 0 00-3.13-2.57l2.77-3.93c-.5-.35-1-.7-1.56-1l-2.53 4.09a26.57 26.57 0 00-3.58-1.89l1.91-4.41c-.57-.24-1.16-.48-1.73-.69l-1.66 4.5a28.43 28.43 0 00-3.89-1.12l1-4.69c-.61-.13-1.23-.25-1.84-.33l-.71 4.73a29.76 29.76 0 00-4-.31v-4.78H113.19l.26 4.78a26.58 26.58 0 00-4 .51l-.94-4.71c-.61.13-1.21.26-1.82.42l1.21 4.64a29.24 29.24 0 00-3.83 1.3l-1.87-4.41c-.57.24-1.14.5-1.69.77l2.12 4.31a27.51 27.51 0 00-3.63 2.06l-2.73-4c-.5.35-1 .72-1.5 1.1l3 3.79a28.77 28.77 0 00-3 2.71l-3.46-3.32c-.43.43-.84.9-1.24 1.37l3.64 3.13a25.64 25.64 0 00-2.45 3.29l-4.06-2.57c-.33.53-.65 1.06-1 1.61l4.2 2.32a26.09 26.09 0 00-1.7 3.68l-4.49-1.69c-.22.58-.42 1.17-.61 1.77l4.58 1.43a28.6 28.6 0 00-.93 3.94l-4.73-.75c-.09.61-.17 1.23-.24 1.85l4.78.47a25.66 25.66 0 00-.15 2.79v1.26l-4.8.22c0 .62.08 1.24.14 1.85l4.77-.48a28.11 28.11 0 00.7 4l-4.64 1.16c.14.61.32 1.21.5 1.79l4.58-1.44a26.15 26.15 0 001.58 3.79l-4.32 2.09c.28.55.57 1.11.86 1.65l4.2-2.34a25.24 25.24 0 002.22 3.38l-3.81 2.93c.38.49.77 1 1.18 1.44L93.7 182a27.68 27.68 0 002.86 2.87l-3.15 3.63c.47.4 1 .8 1.44 1.18l2.94-3.81a27.26 27.26 0 003.38 2.26l-2.36 4.17c.54.3 1.09.6 1.65.87l2.11-4.31a26.91 26.91 0 003.76 1.53l-1.46 4.61c.59.18 1.19.36 1.79.51l1.19-4.63a26.21 26.21 0 004 .71l-.51 4.77q.93.1 1.86.15l.23-4.79h1.4a23.28 23.28 0 002.65-.14l.46 4.78c.61-.06 1.23-.14 1.85-.23l-.73-4.73a27.77 27.77 0 004-.92l1.4 4.6c.59-.19 1.18-.39 1.76-.61l-1.71-4.47a27.89 27.89 0 003.68-1.69l2.31 4.21c.53-.29 1.08-.62 1.59-.94l-2.54-4.07a24.64 24.64 0 003.26-2.4l3.12 3.67c.47-.4.93-.82 1.38-1.24L134 184a24.88 24.88 0 002.72-3l3.79 3c.38-.48.75-1 1.11-1.48l-4-2.76a24 24 0 002.07-3.48l4.3 2.15c.28-.55.55-1.13.79-1.69l-4.41-1.9a26.63 26.63 0 001.32-3.83l4.64 1.22c.16-.59.3-1.2.42-1.81l-4.69-1a28.1 28.1 0 00.52-4l4.79.27c0-.61.05-1.23.05-1.83v-.1zm-27.86 26.11a26.06 26.06 0 1126.05-26 26.09 26.09 0 01-26.05 26z" fill="url(#radial-gradient-19)"/>
      </g>
      <g class="cls-2">
        <path d="M65.56 97.91A32.6 32.6 0 1033 65.31a32.64 32.64 0 0032.56 32.6zm0-63.36a30.76 30.76 0 11-30.77 30.76 30.8 30.8 0 0130.77-30.76z" fill="url(#radial-gradient-20)"/>
        <path d="M65.56 93.13a27.82 27.82 0 10-27.83-27.82 27.85 27.85 0 0027.83 27.82zm0-53.81a26 26 0 11-26 26 26 26 0 0126-26z" fill="url(#radial-gradient-21)"/>
        <path d="M65.56 83.58a18.27 18.27 0 10-18.28-18.27 18.3 18.3 0 0018.28 18.27zm0-34.71a16.44 16.44 0 11-16.44 16.44 16.46 16.46 0 0116.44-16.44z" fill="url(#radial-gradient-22)"/>
        <path d="M65.56 77.15a11.85 11.85 0 10-11.85-11.84 11.84 11.84 0 0011.85 11.84z" fill="url(#radial-gradient-23)"/>
        <path d="M130.28 75.88a66.59 66.59 0 00.85-10.57v-.16h-9.62a55.41 55.41 0 00-1.23-11.53l9.43-2a65.5 65.5 0 00-3.05-10.18l-9 3.5a56 56 0 00-5.32-10.29l8.08-5.29a66.77 66.77 0 00-6.49-8.36l-7.12 6.51a56.46 56.46 0 00-8.66-7.68l5.63-7.83a65.51 65.51 0 00-9.1-5.47l-4.29 8.64a55.57 55.57 0 00-10.84-4.07L82 1.8A66 66 0 0071.48 0l-.86 9.59c-1.67-.15-3.36-.24-5.06-.24a56.4 56.4 0 00-6.56.39L57.93.18a64.48 64.48 0 00-10.42 2.07l2.65 9.27a55.6 55.6 0 00-10.74 4.33L34.9 7.33A66 66 0 0026 13l5.83 7.68a57.09 57.09 0 00-8.45 7.92l-7.29-6.33a66.42 66.42 0 00-6.3 8.54L18 35.93a55.71 55.71 0 00-5.05 10.42l-9.1-3.26a64.67 64.67 0 00-2.78 10.25l9.48 1.75a56.47 56.47 0 00-1 10.22v1.33L0 66.87a65.31 65.31 0 001.1 10.55l9.47-1.77a56.21 56.21 0 003.31 11.1L5 90.44a65.75 65.75 0 004.86 9.44L18 94.79a56.28 56.28 0 007.11 9.14l-7 6.68a66.27 66.27 0 007.93 7l5.84-7.61a56.64 56.64 0 009.92 6l-4.11 8.72a66 66 0 0010 3.73l2.63-9.28a55.82 55.82 0 0011.41 2l-.73 9.56c1.5.1 3 .15 4.53.15 2 0 4.07-.09 6.07-.28l-.85-9.6a56.18 56.18 0 0011.36-2.26L85 128a64.91 64.91 0 009.81-4l-4.31-8.64a55.78 55.78 0 009.77-6.22l6 7.57a67.18 67.18 0 007.75-7.24l-7.13-6.5a55.66 55.66 0 006.88-9.32l8.32 4.9a66.44 66.44 0 004.63-9.55l-9-3.48a55 55 0 003-11.17zM65.56 17.43a47.88 47.88 0 11-47.88 47.88 47.93 47.93 0 0147.88-47.88z" fill="url(#radial-gradient-24)"/>
      </g>
    </g>
  </g>
</svg>
