<svg id="Capa_1" data-name="Capa 1" xmlns="http://www.w3.org/2000/svg" viewBox="0 0 280 280"><defs><style>.cls-1{fill:#4284f3;}.cls-2{fill:#d2e6fc;}.cls-3{fill:#4285f3;}.cls-4{fill:#fefefe;}.cls-5{fill:#4385f3;}.cls-6{fill:#c8dffb;}.cls-7{fill:#cae0fb;}.cls-8{fill:#4586f3;}</style></defs><title>Mesa de trabajo 12 copia 6</title><path class="cls-1" d="M139.93,270A129.5,129.5,0,0,1,10,139.68C10.14,68.18,68.51,10,140.05,10S269.92,68.3,270,139.79A129.55,129.55,0,0,1,139.93,270Z"/><path class="cls-2" d="M48.8,208.6c-28.54-34.3-30.71-90.15-5.12-130.21,27.38-42.86,78.26-62,128.23-48.26,44.89,12.35,79.41,56.23,82.19,101.3,3.49,56.4-32.74,97.08-58.9,107.82,0-10.57-.26-20.79.11-31,.2-5.57-1.11-7.85-7.28-7.8q-50.59.42-101.2,0c-5.81,0-8,1.69-7.61,7.6.42,7.24.19,14.52,0,21.78,0,2,1.2,5.42-1.81,5.54s-4.66-2.48-4.59-5.86a150.73,150.73,0,0,0-.11-15.91c-.84-9.95-7.14-14.79-15.55-12.62C53,202.09,51.4,205.84,48.8,208.6Z"/><path class="cls-3" d="M137.25,194.15c-16.69,0-33.4-.33-50.08.16-7.07.2-7.79-3-7-8.56C82.22,171,90,159.83,102.34,152c5.09-3.21,6.42-5.51,2.58-10.81-2.24-3.11-8.34-7.61-3.66-10.87,3.08-2.16,5.34,5.14,7.29,8.41,3.06,5.13,5.94,6.46,12,4.44a51.38,51.38,0,0,1,33.64-.11c7,2.45,9.94.2,13.16-5.29,1.77-3,3.88-9.67,7-7.47,4.21,2.95-1.45,7.2-3.56,10-4.11,5.47-2.74,7.92,2.63,11.31,12.67,8,20.08,19.7,21.8,34.82.63,5.45-.75,8-7,7.83C171.2,193.88,154.22,194.15,137.25,194.15Z"/><path class="cls-4" d="M137,132.46c-1.85-16.81-14.84-18.94-25.77-23.84C99,103.15,90.68,93.91,90,80c-.73-14.36,7.42-24,19.09-31,21.88-13.22,55.69-7.36,68.86,11.2,10.79,15.19,6.54,36.16-11.79,47.23a12.89,12.89,0,0,1-3.74,1.84C150,111.85,140.09,117.22,137,132.46Z"/><path class="cls-5" d="M200.68,166.36c0-10.86-.14-21.72,0-32.57.16-9.62,3.95-14.54,11-15,7.68-.46,12.69,4.17,12.89,14,.46,22.82.42,45.66.07,68.48-.14,8.94-5.29,13.56-12.78,13.21-6.93-.33-10.95-5-11.17-13.9C200.48,189.2,200.69,177.78,200.68,166.36Z"/><path class="cls-6" d="M169.36,168.26c-.43,2.94-1.7,5.52-5,5.59a5,5,0,0,1-5.35-5.2,4.9,4.9,0,0,1,4.55-5.12C166.92,163.16,168.63,165.13,169.36,168.26Z"/><path class="cls-7" d="M116.52,168.91c-1.3,3-2.81,5.42-6.14,4.68-3.07-.68-4.56-2.93-4-6.14.52-2.9,2.5-4.28,5.29-3.87A5.25,5.25,0,0,1,116.52,168.91Z"/><path class="cls-8" d="M160.18,78.12c-.61,5.11-4.1,5.36-7,4.9-9.6-1.54-13.16,2.21-11.6,11.71.5,3,.12,6.75-4,7-5.05.24-5-4-4.4-7.18,1.84-10.21-3-12.7-12-11.44-3.06.42-6.76.09-6.94-4-.2-4.51,3.43-5.09,7-5.11a33.46,33.46,0,0,1,5,0c5.77.88,7-1.91,7-7.14,0-3.89-2.77-10.77,3.74-10.91,7.22-.15,4.85,7.12,4.49,11.16-.68,7.75,4,6.9,8.82,6.88C154.3,73.93,158.84,73.2,160.18,78.12Z"/></svg>