<svg id="Capa_1" data-name="Capa 1" xmlns="http://www.w3.org/2000/svg" viewBox="0 0 280 280"><defs><style>.cls-1{fill:#fec100;}.cls-2{fill:#863a00;}.cls-3{fill:#fefefe;}.cls-4{fill:#fefefd;}</style></defs><title>Mesa de trabajo 1</title><path class="cls-1" d="M140.53,268.34c-71.62,0-129.82-58.29-129.81-130S69.16,8.23,140.51,8.34C212.37,8.45,270.63,66.46,270.72,138A129.9,129.9,0,0,1,140.53,268.34Z"/><path class="cls-2" d="M26.61,139.2C25.59,81.85,71,24.73,140.92,24.87,211,25,255.44,81.84,255,139.58c-.44,63-51.21,113.94-114.09,114.06A113.91,113.91,0,0,1,26.61,139.2Z"/><path class="cls-3" d="M97,160.46c16.55,25.68,43.49,31,68.18,13,4.79-3.51,7.92-4,11.77.44,1.79,2.06,3.87,3.86,5.8,5.79,15.56,15.46,15.56,15.47-3.65,27.5-34.38,21.53-79.72,13.92-105.59-17.76-2.71-3.32-5.24-6.79-7.84-10.18C42.87,133.56,59.9,91.26,91.92,69.7c28-18.87,69.21-16.92,95.18,4.28,5.19,4.24,7.45,7.87,1,12.7A31.14,31.14,0,0,0,184.8,90c-4.36,4.45-8,10.39-13.25,13-6.46,3.18-10.42-4.82-15.85-7.19a46.62,46.62,0,0,0-52.56,10.76C89.14,121.63,86.86,141.75,97,160.46Z"/><path class="cls-4" d="M192.63,106.14c5.68,0,11.14,0,9.88,8.52-.53,3.66-.85,8.1,5.44,8s5.26-4,4.63-8c-.72-4.61-.44-8.73,5.63-9.32s7.41,3,6.87,8c-.74,6.79,2,9.13,8.79,7.9,3.74-.68,7.73-1,8.14,5.17.39,5.92-2.13,7.46-7.39,7.45-4.12,0-9.37-.54-8.65,6.22.69,6.46,5.75,3.43,9.12,3.68,3.81.29,8.08-.85,8.15,5.35.06,4.92-1.76,7.42-6.85,6.73-7.33-1-10,2.39-8.93,9.33.88,5.42-1.37,7.6-6.75,8.08-5.71.51-5-3.64-5.75-6.77-.94-3.71,1.26-9.52-5.86-9-6.29.45-4,5.52-4.3,9-.3,3.91.5,7.68-5.63,8-6.8.29-6.88-4-6.42-8.29.78-7.28-2.87-8.51-8.92-7.95-3.68.34-7.8,1.36-8.1-5.07s3.23-6.65,7.9-7c2.81-.24,7.56,2.36,7.66-3.91.11-6.74-4.59-6.12-8.85-5.93s-8,.46-8.18-5.34c-.1-3.42.46-7.08,4.51-6.64,15.33,1.66,10.74-9.69,11.8-17.41A5.68,5.68,0,0,0,192.63,106.14Z"/><path class="cls-2" d="M209.35,134.73c3.65-.28,4.27,1.87,4.39,5,.18,4.56-2.74,4.67-5.94,4.74-4.15.08-3.63-3-3.71-5.55C204,135.23,206.27,134.46,209.35,134.73Z"/></svg>