<svg id="Capa_1" data-name="Capa 1" xmlns="http://www.w3.org/2000/svg" viewBox="0 0 280 280"><defs><style>.cls-1{fill:#eeda4f;}.cls-2{fill:#323330;}</style></defs><title>Mesa de trabajo 3</title><path class="cls-1" d="M271.86,142.86c0,71-58.87,129.72-129.94,129.63-71.7-.09-130.09-58.61-130.06-130.34,0-71,58.74-129.6,129.94-129.66C213.3,12.44,271.89,71.16,271.86,142.86Z"/><path class="cls-2" d="M26.7,142C26.83,78.53,78.83,27.23,142.79,27.48,205.89,27.73,257.16,79.58,257,143S204.88,257.78,140.94,257.53C77.85,257.28,26.56,205.42,26.7,142Z"/><path class="cls-1" d="M187.51,216a37.67,37.67,0,0,1-28.86-14.91c-3.05-4-3.28-6.73,1.93-8.74a21.62,21.62,0,0,0,5-3c3.84-2.89,6.77-3.46,10,1.32,4.34,6.33,11.1,8,18.53,7.08,4.51-.54,8.13-2.51,9.33-7.09s-1.09-8.16-5.23-10.25c-6.69-3.39-13.61-6.34-20.22-9.87-12.51-6.67-17.76-16.92-16-30.28a24.36,24.36,0,0,1,19.28-20.66c12.84-2.71,24.93-1.63,34.19,9.46,3.15,3.78,3.76,6.45-1.39,8.79a43.57,43.57,0,0,0-7.06,4.45c-2.47,1.76-4.34,1.91-6-1.09a10.41,10.41,0,0,0-7.48-4.9c-4.8-.9-9.16.15-11.1,5.09-1.77,4.48,0,8.49,4.07,10.71,6.58,3.59,13.59,6.39,20.19,9.95,9.77,5.28,17,12.49,17.35,24.59C224.68,205.06,212.63,216,187.51,216Z"/><path class="cls-1" d="M145.27,139.57c0,16.12.3,32.25-.09,48.36-.35,14.36-7.66,23.46-20,26.24-15,3.39-30.27-2.3-36.82-13.37-1.79-3-1.86-4.92,1.4-6.68a59.94,59.94,0,0,0,7.76-4.89c3.23-2.48,5.19-1.72,7.33,1.55,3.31,5.07,7.94,7.87,14.23,5.65s6.19-7.82,6.3-13.17c.38-19.18,1-38.36,1-57.55,0-5.49,1.6-7.59,7.05-6.91a38.45,38.45,0,0,0,7.51,0c4.27-.32,6,1.08,5.52,5.72-.52,5-.12,10-.12,15Z"/></svg>