<svg id="Capa_1" data-name="Capa 1" xmlns="http://www.w3.org/2000/svg" viewBox="0 0 280 280"><defs><style>.cls-1{fill:#fb1221;}.cls-2{fill:#fd9fa5;}.cls-3{fill:#fb1726;}.cls-4{fill:#fb1927;}.cls-5{fill:#fb1827;}.cls-6{fill:#fb1a29;}.cls-7{fill:#fb1826;}.cls-8{fill:#fb1725;}.cls-9{fill:#fb1b29;}.cls-10{fill:#fb1524;}</style></defs><title>Mesa de trabajo 4</title><path class="cls-1" d="M13.42,140.46C13.42,68.41,71,11.07,143.24,11.08A129.78,129.78,0,0,1,273.42,141.39c-.18,71.5-58.64,129.71-130.25,129.69C71,271.06,13.41,213.09,13.42,140.46Z"/><path class="cls-2" d="M256.91,146.91c-1.43,54.92-50.05,104.7-103.4,107.6-14.89.81-29.41-.09-43.7-4.56-3.56-1.12-6-2.57-6.53-6.48-4-31.49-2-62.11,16.63-89.08,22.88-33.23,65.63-45.27,105.86-31a238.58,238.58,0,0,1,22.31,9.45C254.91,136.06,259.18,140.18,256.91,146.91Z"/><path class="cls-2" d="M255.68,126.2c-14.67-10.15-28.68-18.69-43.86-25-33.86-14.07-68-19.4-102.62-2.4-23.15,11.39-42.17,28-58.34,47.9-6,7.31-11.17,15.22-17.71,24.21C23.66,132.2,31.3,98.43,55.27,68.49,83.88,32.75,133,18.3,176.71,31.88,219,45,251.79,83.57,255.68,126.2Z"/><path class="cls-3" d="M108.15,225.12c14,3,14,3,15.71,19.27C109.26,242.79,107,240,108.15,225.12Z"/><path class="cls-4" d="M113.4,179.69c9.62,5.6,9.62,5.6,6.45,19.92C108.59,194.84,108.16,193.59,113.4,179.69Z"/><path class="cls-5" d="M134.17,161.76c-4.67-5.09-8.88-9.43-1.8-14.92,1.91-1.48,2.86-2.78,5.23-.22C144.34,153.93,137.08,156.91,134.17,161.76Z"/><path class="cls-6" d="M206,131.41c-2.35-1.73-8.41,1.27-7.69-5.46.41-3.93,3.17-4.22,6.05-3.4s7.73-.21,7.09,5.67C211.07,131.81,209.16,132.13,206,131.41Z"/><path class="cls-7" d="M163,138.2c-2.76-1.86-3.86-4.52-3.43-7,.75-4.38,5.23-4.68,8.39-5.18,3.92-.63,4.12,3.9,4,5.93C171.48,136.91,165.69,135.06,163,138.2Z"/><path class="cls-8" d="M46.55,143.65c-3-3.13-8.62-4.56-8.49-8.58.11-3.75,4.57-7.9,8.18-8.36,3.22-.4,7.77,3.71,7.92,7.19C54.33,137.88,49.44,140.17,46.55,143.65Z"/><path class="cls-5" d="M102,95.61a11,11,0,0,1-8.28,5.73c-3.75.37-5.67-4-5.91-6.82-.33-4,4.39-4.91,7.18-5.56C99.22,88,99.59,92.83,102,95.61Z"/><path class="cls-9" d="M207.11,95c-2.46-2.33-9-.4-8.67-7.22.12-2.29.32-5.21,3.51-3.84,3.61,1.56,9.6.52,9.48,7.14C211.39,93.44,211.07,95.65,207.11,95Z"/><path class="cls-10" d="M147.7,83.33c-5.17,2-7.44-.62-7.47-4.24,0-4.35,4.36-2.86,6.85-3.4,3.6-.79,5.87,1.22,6.15,4.86C153.67,86.38,148.84,82.23,147.7,83.33Z"/></svg>