<svg id="Capa_1" data-name="Capa 1" xmlns="http://www.w3.org/2000/svg" viewBox="0 0 280 280"><defs><style>.cls-1{fill:#fb1221;}.cls-2{fill:#fd9fa5;}.cls-3{fill:#fb1423;}.cls-4{fill:#fb1726;}</style></defs><title>Mesa de trabajo 5</title><path class="cls-1" d="M140,270.69C68.6,270.78,10.09,212.84,10,142,9.91,68.83,66.9,10.74,138.81,10.69c72.95-.06,131.52,58,131.19,130.1C269.67,212.42,211.44,270.59,140,270.69Z"/><path class="cls-2" d="M253.76,140.9c0,63.2-51.25,114.61-114.12,114.49-63.22-.13-114-51.63-113.9-115.61C25.79,76.42,76.63,26,140.34,26,205,26.12,255.56,80.38,253.76,140.9Z"/><path class="cls-1" d="M139.58,87.78c20.88,1.91,40.54,3.73,60.21,5.5,2.77.24,4.75,1.38,5.71,4.07.28.79.69,1.53,1,2.31,3.91,10.4,11.73,21.24,10.62,31.08s-13.44,16.89-20.79,25.18c-16.45,18.55-33.44,36.6-50,55.07-4.43,4.94-7.26,6.08-12.42.26Q101.73,175,68.53,139.68c-5.89-6.29-7.8-11.6-1.81-18.62,2.32-2.72,3.83-6.13,5.69-9.24C83.77,92.88,83.78,93,105.93,91.32,117.57,90.42,129.16,88.9,139.58,87.78Z"/><path class="cls-3" d="M198.86,174.8c1.71,12.73,10.09,18.5,24.17,21.34-14.59,1.71-21.87,8.15-24.32,20.72-2.82-11.7-9.28-19.28-22.53-20.35C193.91,188.26,193.91,188.26,198.86,174.8Z"/><path class="cls-4" d="M70.7,69.29c5,9.61,5,9.61,13.81,13-6.1,2.82-11.92,5.52-12.85,13.32-2.27-6.78-6.22-11.32-13.4-13C64.88,80.56,69.59,77.05,70.7,69.29Z"/><path class="cls-4" d="M219.19,162.83c2.27,6.72,6.36,10.81,13.29,12.7-7.23,1.52-10.89,6.24-13.19,14.21-2-8-5.63-12.38-12.72-14.21C213.29,173.52,217.8,169.92,219.19,162.83Z"/><path class="cls-2" d="M140,205.13c-11.68-20.56-22.71-40-33.81-59.56,3.27-2.61,6.7-1.36,9.84-1.38,17.51-.15,35-.05,52.53-.09,3.75,0,6.16.21,3.39,5C161.39,167.27,151.09,185.59,140,205.13Z"/><path class="cls-2" d="M171.19,136.59H108.93c10.52-9.59,19.94-18.23,29.41-26.79,2.15-2,3.49.15,4.84,1.37C152.05,119.17,160.88,127.22,171.19,136.59Z"/><path class="cls-2" d="M148.22,106.62c14.84-1.74,28.07-3.3,41.31-4.84,4.49-.52,5.5,1.31,3.58,5.26-4.5,9.21-8.93,18.44-13.57,28Z"/><path class="cls-2" d="M132,106.39c-10.15,9.27-19,17.27-27.72,25.34-2.42,2.23-3.64,1.72-4.56-1.35-2.78-9.28-5.72-18.52-9-29Z"/><path class="cls-2" d="M112.83,177.4,78,139.31c14.85,1,18.44,3.28,25.35,15.64,3.87,6.91,7.81,13.79,11.72,20.69Z"/><path class="cls-2" d="M165.68,174.32c5.54-9.68,10.35-19.9,16.89-28.85,4-5.38,12.1-4.45,19.14-5.85l-33.33,36.5Z"/><path class="cls-2" d="M84.41,106.25c3.12,9.61,6.06,18.66,9,27.65-1.08.45-1.61.91-2,.8C68.43,128.54,68.43,128.53,84.41,106.25Z"/><path class="cls-2" d="M187.54,135l13.39-28.28c4,6,5.39,12.54,8.16,18.45,1.61,3.42-.85,3.81-2.85,4.42C200.53,131.35,194.77,132.93,187.54,135Z"/><path class="cls-2" d="M164.17,97.22c-21.43,3.93-30.36,3.85-44.63-.08C134,93.81,148.5,94.51,164.17,97.22Z"/></svg>