<svg id="Capa_1" data-name="Capa 1" xmlns="http://www.w3.org/2000/svg" viewBox="0 0 280 280"><defs><style>.cls-1{fill:#feda04;}.cls-2{fill:#403700;}.cls-3{fill:#433a00;}.cls-4{fill:#fdd904;}</style></defs><title>Mesa de trabajo 6</title><path class="cls-1" d="M161.69,267.17l-17.3.83-24.08-.83A129.08,129.08,0,0,1,11.83,158.69q-.4-8.66-.83-17.3.4-12,.83-24.08A129.08,129.08,0,0,1,120.31,8.83L144.39,8l17.3.83A129.08,129.08,0,0,1,270.17,117.31q.4,12,.83,24.08-.4,8.66-.83,17.3A129.08,129.08,0,0,1,161.69,267.17Z"/><path class="cls-2" d="M252.69,114a147.44,147.44,0,0,0-56.53-11.4c-7.62-.06-13.6-4.8-19.62-9.12-34-24.43-69.29-30.95-106.91-7.5C64.17,89.39,57.09,90.2,50,92.45c6.83,14.57,18.45,22.08,33.85,24.48,12.13,1.89,23.28,5.7,27,18.93,2.21,8,6.18,2.21,8.62,1.56,35.69-9.46,61.05,6.81,66.36,43.81,1.68,11.71,11.18,17.86,16,27.28,10.28,20.28,9.54,23.69-10.39,33.37-59.47,28.9-131.28,1.67-156.85-59.45A115.24,115.24,0,0,1,102.55,29.25c62.55-22,131.08,13,149.34,76.27C252.47,107.54,252.32,109.77,252.69,114Z"/><path class="cls-3" d="M212.42,180.45c-2.94-10.52-5.7-19-7.61-27.61-1.64-7.44,7.38-18.2,15.11-19.3,4.82-.69,4.21,2.51,4.24,5.23C224.28,152.88,220.72,166,212.42,180.45Z"/><path class="cls-4" d="M138.71,199.38c-16.17.24-29-12-29.36-27.87a28.41,28.41,0,0,1,28.19-29A28.89,28.89,0,0,1,167,170.34C167.44,185.81,154.43,199.15,138.71,199.38Z"/><path class="cls-2" d="M103.67,87.19A7.91,7.91,0,0,1,109,89c1.25,1,2,4.77,1.09,6-.12.18-.22.28-.42.18a1,1,0,0,1-.18-.13c-2.93-2.55-6.58-3.74-10-5.34v0l.76-.53A9,9,0,0,1,102,88.09c.1,0,.11,0,.1,0s0,0-.08,0a.58.58,0,0,1-.5.14,3.59,3.59,0,0,1,1.52-1c0,.13.1.26-.13.24a.17.17,0,0,0,.21,0A1.76,1.76,0,0,1,103.67,87.19Z"/><path class="cls-2" d="M151.6,178.39a7.71,7.71,0,0,1-1.09-.6A3.27,3.27,0,0,1,149.1,175q0-3.37,0-6.76c0-1.71,0-3.43,0-5.14,0-.24.07-.3.3-.29,1,0,1.94,0,2.91,0,.24,0,.3.07.3.3,0,3.89,0,7.78,0,11.67a2.46,2.46,0,0,0,.09.81,1.48,1.48,0,0,0,1.16.93,6.58,6.58,0,0,0,1.71.17h8.7c.34,0,.34,0,.34.34,0,.59,0,1.17,0,1.75,0,.18-.06.25-.25.25-3.07,0-6.15,0-9.22,0a12.53,12.53,0,0,1-2.86-.37,2.41,2.41,0,0,0-.37-.07C151.82,178.46,151.69,178.45,151.6,178.39Z"/><path class="cls-2" d="M126,177.75a.2.2,0,0,0-.16.11,7.86,7.86,0,0,1-2.32,1,1.31,1.31,0,0,0-.59.1c-2.65.16-5.3,0-8,.08h-3c-.21,0-.27-.06-.27-.27,0-.6,0-1.2,0-1.8,0-.21.05-.28.27-.28h8.51c.57,0,1.14,0,1.72-.07a1.67,1.67,0,0,0,.43-.1h0c.07,0,.17,0,.21-.1h0a1,1,0,0,0,.32-.22,1.41,1.41,0,0,0,.51-1.25,10.44,10.44,0,0,1,0-1.48,1.22,1.22,0,0,0-.54-1.06l-.14-.11a2.34,2.34,0,0,0-1.15-.32.51.51,0,0,0-.36-.06h-4a10.68,10.68,0,0,1-1.87-.19c-.42-.06-.82-.21-1.25-.28a5,5,0,0,1-1.53-.75c-.05,0-.12-.05-.15-.11a3,3,0,0,1-.85-1.06s0-.09-.05-.14,0-.2-.06-.28a18.76,18.76,0,0,1,0-3.18c.09-.13,0-.28.05-.43a.25.25,0,0,1,.06-.15l.32-.63c0-.06,0-.13.11-.16s.19-.26.34-.33.25-.22.39-.32a3.64,3.64,0,0,1,1.26-.63c.11,0,.23,0,.33-.11h0a6.21,6.21,0,0,1,1.87-.26.56.56,0,0,0,.25-.05l.72,0h9.59c.24,0,.3.06.3.29,0,.57,0,1.13,0,1.7,0,.35,0,.35-.34.35h-9.39a7.58,7.58,0,0,0-1.42.13,1.17,1.17,0,0,0-.93.73.53.53,0,0,0-.08.32c0,.65,0,1.3,0,1.95a.52.52,0,0,0,.09.38,1.5,1.5,0,0,0,.57.75.54.54,0,0,1,.16.1h0a.38.38,0,0,0,.21.12l.33.09c1.34.14,2.68.06,4,.07a13.21,13.21,0,0,1,3.71.36,3,3,0,0,1,.32.11,8.93,8.93,0,0,1,1.32.64c.06,0,.12,0,.16.11a3.35,3.35,0,0,1,.88,1,1.86,1.86,0,0,1,.25.88v2.72c0,.18-.05.35-.07.52s-.06.22-.1.32a2.72,2.72,0,0,1-.85,1.18Z"/><path class="cls-2" d="M148,181.15l-1-.84c-.1-.07-.21-.11-.26-.22l-.22-.22c-.51-.47-1-.94-1.54-1.4-.15-.14-.17-.2.05-.3a2.82,2.82,0,0,0,1.61-1.65,5,5,0,0,0,.24-1.58v-7.13a10.8,10.8,0,0,0-.1-2,1,1,0,0,0-.09-.33,3.9,3.9,0,0,0-.48-.9.46.46,0,0,0-.16-.15,1.05,1.05,0,0,1-.42-.39,3,3,0,0,0-1.06-.63c-.1-.06-.23,0-.32-.12a.44.44,0,0,0-.27-.09c-.12-.06-.26,0-.37-.11h0c-.14-.05-.3,0-.43-.1a5.75,5.75,0,0,0-1.49-.2c-2.35,0-4.71,0-7.06,0a6.11,6.11,0,0,0-1.85.29c-.08.11-.22.08-.33.11a9.2,9.2,0,0,0-1.47.64l-.1,0a3.2,3.2,0,0,0-1.4,2.78v5.86c0,1,0,2,0,3a3,3,0,0,0,.91,2,6.15,6.15,0,0,0,1,.75c.15,0,.25.14.4.12s.4,0,.54.22h0c.1,0,.23,0,.32.1a4.38,4.38,0,0,0,1.47.3,63.08,63.08,0,0,0,7-.12.53.53,0,0,1,.42.16l1.49,1.35a.74.74,0,0,1,.21.18l.44.44a.24.24,0,0,1,.15.11.83.83,0,0,0,.72.27h3.3c.08,0,.18,0,.25-.06S148,181.25,148,181.15Zm-4.51-5a1.64,1.64,0,0,1-.74,1.38.23.23,0,0,1-.34,0c-.72-.66-1.45-1.31-2.16-2a.74.74,0,0,0-.55-.22h-3.52c-.07,0-.21,0-.1.15l2.73,2.45a.37.37,0,0,1-.28.06h-2.86a3.15,3.15,0,0,1-1.72-.43,1.52,1.52,0,0,1-.64-.75c-.06-.09,0-.23-.1-.32a2.17,2.17,0,0,1-.09-.67v-7.52a1.57,1.57,0,0,1,1-1.56c.1-.06.23,0,.32-.12a3,3,0,0,1,1.11-.18h5.47c.3,0,.59.08.89.1.06,0,.15,0,.21.07a.49.49,0,0,0,.28.13,1.66,1.66,0,0,1,.94.86c.12.12,0,.29.11.43Z"/></svg>