<svg id="Capa_1" data-name="Capa 1" xmlns="http://www.w3.org/2000/svg" viewBox="0 0 280 280"><defs><style>.cls-1{fill:#fe5900;}.cls-2{fill:#febc98;}</style></defs><title>Mesa de trabajo 7</title><path class="cls-1" d="M140.05,267.73c-73.26-.21-130.32-58.5-130-132.86.26-69.3,59.29-127,130-127.14C212.88,7.64,270.27,66.28,270,140.62,269.75,209.92,210.45,267.92,140.05,267.73Z"/><path class="cls-2" d="M139.33,252.94c-63.45-.1-114.92-52.14-114.8-116.07C24.65,73.64,76.9,22.4,141.09,22.56c63.33.15,114.57,52.34,114.38,116.49C255.28,201.77,203,253,139.33,252.94Z"/><path class="cls-1" d="M151.58,146.3c5.3,0,10.61,0,15.91,0,13.3-.11,21.33-7.28,22.56-20.56a109,109,0,0,0,.17-15.86c-.24-4.46,1.54-5.53,5.8-5.69,17.62-.64,25.69,5.14,29.62,22.37a77.33,77.33,0,0,1-.22,36.36C222,176.74,213.19,183.35,199,183.38c-15.62,0-31.25,0-46.88.06-2.51,0-6.55-1-6.3,3.17.2,3.3,3.85,2.43,6.19,2.46,8.93.1,17.87.3,26.79,0,5.26-.22,6.49,1.81,6.58,6.76.4,21.38-4.26,26.44-25.77,29.34a92,92,0,0,1-37.22-2.26c-11.86-3.27-16.37-9.58-16.38-21.78,0-11.69-.14-23.39.28-35.07.37-10.4,6.6-16.68,16.93-18.55C132.64,145.76,142.12,146.53,151.58,146.3Z"/><path class="cls-1" d="M108,98.8c8.09,0,16.19.09,24.28,0,2.55,0,6.79,1.13,6.84-2.59.06-4.56-4.52-2.94-7.21-3-8.65-.22-17.31-.28-25.95,0-4.65.15-6.2-1.36-6.34-6.14-.56-20.06-1.24-27.09,32.64-30.8,10.31-1.13,20.63.27,30.59,3.16C174.6,62.77,179,69,179,81.35c0,11.41.15,22.83-.23,34.23-.36,11-6.43,17.42-17.22,19.13-14.42,2.3-28.95.84-43.43,1.12-14.23.29-22.22,7.54-23.29,21.68-.14,1.94.15,3.93-.16,5.83-.76,4.74,2.76,12.34-1.92,13.7-7.34,2.13-16,2.76-23.12-3.08a28.66,28.66,0,0,1-9.59-15.32,79.32,79.32,0,0,1-.4-39.61c3.44-13.73,12.26-20.18,26.6-20.22C93.52,98.79,100.77,98.8,108,98.8Z"/><path class="cls-2" d="M176.34,205.79c-.48,4.37-2.4,7.47-7.28,7.45-4.66,0-7.37-2.57-7.49-7.18-.13-4.36,2.66-6.67,6.76-7C173,198.72,175.6,201.23,176.34,205.79Z"/><path class="cls-2" d="M125.2,75.48c0,5-2.58,7.67-7,7.78s-7.59-2.39-7.72-6.91,2.43-7.27,7.11-7.41S124.65,71.29,125.2,75.48Z"/></svg>