<svg id="Capa_1" data-name="Capa 1" xmlns="http://www.w3.org/2000/svg" viewBox="0 0 280 280"><defs><style>.cls-1{fill:#feda04;}.cls-2{fill:#403700;}.cls-3{fill:#fdda04;}.cls-4{fill:#fdfdfd;}.cls-5{fill:#635501;}.cls-6{fill:#4b4000;}.cls-7{fill:#544900;}</style></defs><title>Mesa de trabajo 8</title><path class="cls-1" d="M139.79,12A129.57,129.57,0,0,1,270,142.12C270,214.3,212,272,139.56,272,68.13,272,9.89,213.47,10,141.88S68.24,12,139.79,12Z"/><path class="cls-2" d="M254.19,142.11c0,64.12-50.31,114.1-114.82,114.07C76,256.15,26,205.54,26,141.47c0-63.83,50.6-113.7,115.26-113.65C204.09,27.87,254.19,78.59,254.19,142.11Z"/><path class="cls-1" d="M145.42,130.43c-2.55,5.87-5,11.78-7.67,17.59-6.95,15.17-24.82,18-35.38,4.83-18.15-22.55-23.72-48.73-18.88-77,1.94-11.33,9.25-19.19,21-21.15,16.25-2.72,32.4-3.7,44,11.58,1.73,2.28,3.38.85,5.18.61,21.05-2.77,30,3.4,35.76,24.09,6.51,23.18,3,46.42.94,69.67-9.85,1.62-22.43-8.73-25.06-20.63a43.79,43.79,0,0,1-.61-5c-.56-5.31-3.27-7.36-8.55-5.84-2.6.75-5.09,2.48-8,1.21-1.71-2.47.72-4.74.35-7.14a51.69,51.69,0,0,0,1.5-18.9c-.16,4.28,1,9.29-.66,14.16C148,122.51,148.7,127.13,145.42,130.43Z"/><path class="cls-3" d="M189,172.24c-.58,10.66-2.55,21-7.07,30.74-7.57,16.34-20.91,25-38.21,27.59-8.61,1.3-13.38-3.83-11.09-10.82.88-2.7,2-4,5.42-3.17,12.22,3,22.61-4.28,23.94-17.13,1.38-13.34.54-26.72-1.13-40C170.06,164.2,180.58,166,189,172.24Z"/><path class="cls-4" d="M189,172.24c-9.82-3.29-20.55-4.61-28.14-12.81-5.44-6.84-9.37-14.55-12.76-22.56-.39-2.12-1.39-4.31.66-6.17,2.43-1.3,4.75-2.93,7.32-3.82,6.84-2.34,9.56-.41,10.12,6.76,1.08,13.75,9.54,23.24,24.1,27,9.82,5.23,18.83,1.66,27.76-2.75.07,7.42-4.91,12.66-14,14C199.13,172.59,194.05,172.16,189,172.24Z"/><path class="cls-5" d="M148.8,130.7c-1.35,1.94-.78,4.08-.66,6.17-2.5-1.47-.53-4.83-2.72-6.44q1.44-6.09,2.89-12.17c1.87,1.33.24,3.73,1.6,5.22Z"/><path class="cls-6" d="M149.91,123.48c-1.87-1.33-1.17-3.45-1.6-5.22.17-7,.5-14-.71-21C152.87,105.74,151.9,114.57,149.91,123.48Z"/><path class="cls-7" d="M171.55,89.5c1.23.49,3,.86,3,1.26a2.16,2.16,0,0,1-2.61,2.32,3.41,3.41,0,0,1-2.36-1.8C169.08,89.42,171.15,90.64,171.55,89.5Z"/></svg>