<?xml version="1.0" encoding="utf-8"?>
<!-- Generator: Adobe Illustrator 22.0.1, SVG Export Plug-In . SVG Version: 6.00 Build 0)  -->
<svg version="1.1" id="Capa_1" xmlns="http://www.w3.org/2000/svg" xmlns:xlink="http://www.w3.org/1999/xlink" x="0px" y="0px"
	 viewBox="0 0 1366 404" enable-background="new 0 0 1366 404" xml:space="preserve">
<path d="M395.6,191.6c4.5-4.5,6-11.1,4.1-17.2c-1.9-6.1-7-10.5-13.1-11.5l-54.9-8.3c-2.3-0.4-4.4-1.9-5.4-4.1l-24.5-51.5
	c-2.8-5.8-8.3-9.4-14.6-9.4c-6.2,0-11.8,3.6-14.6,9.4l-24.5,51.5c-1,2.2-3.1,3.7-5.4,4.1l-54.9,8.3c-6.2,0.9-11.2,5.3-13.1,11.5
	c-1.9,6.1-0.3,12.7,4.1,17.2l39.7,40.1c1.7,1.7,2.5,4.2,2.1,6.6l-9.4,56.6c-0.8,5,0.4,9.8,3.5,13.6c4.8,6,13.3,7.8,20,4.1l49.1-26.7
	c2.1-1.1,4.6-1.1,6.7,0l49.1,26.7c2.4,1.3,4.9,2,7.6,2c4.8,0,9.3-2.2,12.5-6c3.1-3.8,4.4-8.7,3.5-13.6l-9.4-56.6
	c-0.4-2.4,0.4-4.9,2.1-6.6L395.6,191.6z"/>
<path d="M659.7,191.6c4.5-4.5,6-11.1,4.1-17.2c-1.9-6.1-7-10.5-13.1-11.5l-54.9-8.3c-2.3-0.4-4.4-1.9-5.4-4.1l-24.5-51.5
	c-2.8-5.8-8.3-9.4-14.6-9.4c-6.2,0-11.8,3.6-14.6,9.4l-24.5,51.5c-1,2.2-3.1,3.7-5.4,4.1l-54.9,8.3c-6.2,0.9-11.2,5.3-13.1,11.5
	c-1.9,6.1-0.3,12.7,4.1,17.2l39.7,40.1c1.7,1.7,2.5,4.2,2.1,6.6l-9.4,56.6c-0.8,5,0.4,9.8,3.5,13.6c4.8,6,13.3,7.8,20,4.1l49.1-26.7
	c2.1-1.1,4.6-1.1,6.7,0l49.1,26.7c2.4,1.3,4.9,2,7.6,2c4.8,0,9.3-2.2,12.5-6c3.1-3.8,4.4-8.7,3.5-13.6l-9.4-56.6
	c-0.4-2.4,0.4-4.9,2.1-6.6L659.7,191.6z"/>
<path d="M923.9,191.6c4.5-4.5,6-11.1,4.1-17.2c-1.9-6.1-7-10.5-13.1-11.5l-54.9-8.3c-2.3-0.4-4.4-1.9-5.4-4.1L830,99.1
	c-2.8-5.8-8.3-9.4-14.6-9.4c-6.2,0-11.8,3.6-14.6,9.4l-24.5,51.5c-1,2.2-3.1,3.7-5.4,4.1l-54.9,8.3c-6.2,0.9-11.2,5.3-13.1,11.5
	c-1.9,6.1-0.3,12.7,4.1,17.2l39.7,40.1c1.7,1.7,2.5,4.2,2.1,6.6l-9.4,56.6c-0.8,5,0.4,9.8,3.5,13.6c4.8,6,13.3,7.8,20,4.1l49.1-26.7
	c2.1-1.1,4.6-1.1,6.7,0l49.1,26.7c2.4,1.3,4.9,2,7.6,2c4.8,0,9.3-2.2,12.5-6c3.1-3.8,4.4-8.7,3.5-13.6l-9.4-56.6
	c-0.4-2.4,0.4-4.9,2.1-6.6L923.9,191.6z"/>
<path d="M1188,191.6c4.5-4.5,6-11.1,4.1-17.2c-1.9-6.1-7-10.5-13.1-11.5l-54.9-8.3c-2.3-0.4-4.4-1.9-5.4-4.1l-24.5-51.5
	c-2.8-5.8-8.3-9.4-14.6-9.4c-6.2,0-11.8,3.6-14.6,9.4l-24.5,51.5c-1,2.2-3.1,3.7-5.4,4.1l-54.9,8.3c-6.2,0.9-11.2,5.3-13.1,11.5
	c-1.9,6.1-0.3,12.7,4.1,17.2l39.7,40.1c1.7,1.7,2.5,4.2,2.1,6.6l-9.4,56.6c-0.8,5,0.4,9.8,3.5,13.6c4.8,6,13.3,7.8,20,4.1l49.1-26.7
	c2.1-1.1,4.6-1.1,6.7,0l49.1,26.7c2.4,1.3,4.9,2,7.6,2c4.8,0,9.3-2.2,12.5-6c3.1-3.8,4.4-8.7,3.5-13.6l-9.4-56.6
	c-0.4-2.4,0.4-4.9,2.1-6.6L1188,191.6z"/>
</svg>
