<?xml version="1.0" encoding="utf-8"?>
<!-- Generator: Adobe Illustrator 22.0.1, SVG Export Plug-In . SVG Version: 6.00 Build 0)  -->
<svg version="1.1" xmlns="http://www.w3.org/2000/svg" xmlns:xlink="http://www.w3.org/1999/xlink" x="0px" y="0px"
	 viewBox="0 0 800 441.5" enable-background="new 0 0 800 441.5" xml:space="preserve">
<g id="Background">
</g>
<g id="Objects">
	<rect x="47.1" y="175.5" fill="#99FFCC" width="139.6" height="35.8"/>
	<rect y="175.5" fill="#CCCCCC" width="47.1" height="35.8"/>
	<rect x="746" y="175.5" fill="#CCCCCC" width="54" height="35.8"/>
	<rect x="186.6" y="175.5" fill="#006699" width="139.7" height="35.8"/>
	<rect x="326.4" y="175.5" fill="#FFCC00" width="140.2" height="35.8"/>
	<rect x="466.6" y="175.5" fill="#003366" width="139.8" height="35.8"/>
	<rect x="606.4" y="175.5" fill="#00CCFF" width="139.6" height="35.8"/>
	<path fill="#FFFFFF" d="M123.5,193.4c0,3.7-3,6.6-6.6,6.6c-3.7,0-6.6-3-6.6-6.6s3-6.6,6.6-6.6C120.5,186.8,123.5,189.8,123.5,193.4
		z"/>
	<path fill="#FFFFFF" d="M263,193.4c0,3.7-3,6.6-6.6,6.6c-3.7,0-6.6-3-6.6-6.6s3-6.6,6.6-6.6C260.1,186.8,263,189.8,263,193.4z"/>
	<path fill="#FFFFFF" d="M402.8,193.4c0,3.7-3,6.6-6.6,6.6c-3.7,0-6.6-3-6.6-6.6s3-6.6,6.6-6.6C399.8,186.8,402.8,189.8,402.8,193.4
		z"/>
	<path fill="#FFFFFF" d="M542.3,193.4c0,3.7-3,6.6-6.6,6.6s-6.6-3-6.6-6.6s3-6.6,6.6-6.6S542.3,189.8,542.3,193.4z"/>
	<path fill="#FFFFFF" d="M682.8,193.4c0,3.7-3,6.6-6.6,6.6s-6.6-3-6.6-6.6s3-6.6,6.6-6.6S682.8,189.8,682.8,193.4z"/>
	<line fill="none" stroke="#99FFCC" stroke-width="6" stroke-miterlimit="10" x1="116.9" y1="211.3" x2="116.9" y2="299.3"/>
	<line fill="none" stroke="#003366" stroke-width="6" stroke-miterlimit="10" x1="536.4" y1="178.3" x2="536.4" y2="87.3"/>
	<line fill="none" stroke="#00DBE7" stroke-width="6" stroke-miterlimit="10" x1="676.2" y1="211.3" x2="676.2" y2="307.3"/>
	<line fill="none" stroke="#FFCC00" stroke-width="6" stroke-miterlimit="10" x1="396.5" y1="211.3" x2="396.5" y2="366.9"/>
	<line fill="none" stroke="#00649F" stroke-width="6" stroke-miterlimit="10" x1="256.4" y1="175.5" x2="256.4" y2="67"/>
	<g>
		<text transform="matrix(1 0 0 1 68.9546 165.7006)" fill="#99FFCC" font-family="'Roboto Slab'" class="gtitulo" font-size="45px">2014</text>
	</g>
	<g>
		<text transform="matrix(1 0 0 1 209.1958 266.9921)" fill="#006699" font-family="'Roboto Slab'" class="gtitulo" font-size="45px">2015</text>
	</g>
	<g>
		<text transform="matrix(1 0 0 1 348.3677 159.7006)" fill="#FFCC00" font-family="'Roboto Slab'" class="gtitulo" font-size="45px">2016</text>
	</g>
	<text transform="matrix(1 0 0 1 488.335 266.9921)" fill="#003366" font-family="'Roboto Slab'" class="gtitulo" font-size="45px">2017</text>
	<g>
		<text transform="matrix(1 0 0 1 628.7256 159.7001)" fill="#00CCFF" font-family="'Roboto Slab'" class="gtitulo" font-size="45px">2018</text>
	</g>
	<g>
		<g>
			<path fill="#FFCC00" d="M396.2,348.1c-23.7,0-42.8,19.2-42.8,42.8c0,23.7,19.2,42.8,42.8,42.8c23.7,0,42.8-19.2,42.8-42.8
				C439,367.3,419.8,348.1,396.2,348.1z M424.4,398.1c0,1.5-1.1,2.7-2.5,2.7H402v8.9c0,0.2,0,0.5-0.1,0.7h6.8c1.1,0,1.9,0.9,1.9,1.9
				v0.8c0,1.1-0.9,1.9-1.9,1.9h-25.1c-1.1,0-1.9-0.9-1.9-1.9v-0.8c0-1.1,0.9-1.9,1.9-1.9h6.8c-0.1-0.2-0.1-0.5-0.1-0.7v-8.9h-19.9
				c-1.4,0-2.5-1.2-2.5-2.7v-24.2c0-1.5,1.1-2.7,2.5-2.7h51.4c1.4,0,2.5,1.2,2.5,2.7V398.1z"/>
		</g>
		<g>
			<path fill="#FFCC00" d="M393.4,394.6h5.5c1,0,1.9,0.5,2.5,1.3h15.4c1.1,0,2-0.9,2-1.9V378c0-1.1-0.9-1.9-2-1.9h-41.2
				c-1.1,0-2,0.9-2,1.9v15.9c0,1.1,0.9,1.9,2,1.9h15.4C391.5,395.1,392.4,394.6,393.4,394.6z"/>
		</g>
	</g>
	<g>
		<path fill="#006699" d="M256.4,4.4c-19.3,0-35,15.7-35,35c0,19.3,15.7,35,35,35c19.3,0,35-15.7,35-35
			C291.5,20.1,275.8,4.4,256.4,4.4z M269.6,56c0,1.2-1,2.2-2.2,2.2h-21.8c-1.2,0-2.2-1-2.2-2.2V22.3c0-1.2,1-2.2,2.2-2.2h21.8
			c1.2,0,2.2,1,2.2,2.2V56z"/>
		<path fill="#006699" d="M264.4,23.6h-15.9c-0.9,0-1.6,0.7-1.6,1.6v22.5c0,0.9,0.7,1.6,1.6,1.6h15.9c0.9,0,1.6-0.7,1.6-1.6V25.3
			C266,24.4,265.3,23.6,264.4,23.6z"/>
		<path fill="#006699" d="M256.4,51.1c-1.4,0-2.5,1.1-2.5,2.5c0,1.4,1.1,2.5,2.5,2.5c1.4,0,2.5-1.1,2.5-2.5
			C258.9,52.2,257.8,51.1,256.4,51.1z"/>
	</g>
	<rect x="53.9" y="46" fill="none" width="126" height="99.6"/>
	<text transform="matrix(1 0 0 1 81.5163 58.1168)"><tspan x="0" y="0" fill="#CCCCCC" font-family="'Open Sans'" class="gparrafo" font-size="16px">- Bachiller</tspan><tspan x="-7.9" y="36" fill="#CCCCCC" font-family="'Open Sans'" class="gparrafo" font-size="16px">- Tecnico en </tspan><tspan x="-24.4" y="54" fill="#CCCCCC" font-family="'Open Sans'" class="gparrafo" font-size="16px">Ciencias sociales</tspan></text>
	<rect x="300" y="21.9" fill="none" width="189.6" height="90.3"/>
	<text transform="matrix(1 0 0 1 306.3315 34.0245)"><tspan x="0" y="0" fill="#CCCCCC" font-family="'Open Sans'" class="gparrafo" font-size="16px">- Cisco Certified Network </tspan><tspan x="16.4" y="18" fill="#CCCCCC" font-family="'Open Sans'" class="gparrafo" font-size="16px">Associate 2 (CCNA2)</tspan><tspan x="-5.7" y="54" fill="#CCCCCC" font-family="'Open Sans'" class="gparrafo" font-size="16px">- Informatics Technologies </tspan><tspan x="36.1" y="72" fill="#CCCCCC" font-family="'Open Sans'" class="gparrafo" font-size="16px">Essentials (ITE)</tspan></text>
	<rect x="461.3" y="287.8" fill="none" width="150.4" height="92.7"/>
	<text transform="matrix(1 0 0 1 462.1196 300.0038)"><tspan x="0" y="0" fill="#CCCCCC" font-family="'Open Sans'" class="gparrafo" font-size="16px">- Técnico Profesional </tspan><tspan x="19" y="18" fill="#CCCCCC" font-family="'Open Sans'" class="gparrafo" font-size="16px">en Instalación y </tspan><tspan x="8.4" y="36" fill="#CCCCCC" font-family="'Open Sans'" class="gparrafo" font-size="16px">Mantenimiento en </tspan><tspan x="1.4" y="54" fill="#CCCCCC" font-family="'Open Sans'" class="gparrafo" font-size="16px">Redes de Telecomu</tspan><tspan x="142.2" y="54" fill="#CCCCCC" font-family="'Open Sans'" class="gparrafo" font-size="16px">-</tspan><tspan x="36.7" y="72" fill="#CCCCCC" font-family="'Open Sans'" class="gparrafo" font-size="16px">nicaciones</tspan></text>
	<rect x="190.8" y="282.3" fill="none" width="136.3" height="151.5"/>
	<text transform="matrix(1 0 0 1 202.8966 294.4198)"><tspan x="0" y="0" fill="#CCCCCC" font-family="'Open Sans'" class="gparrafo" font-size="16px">- Cisco Certified </tspan><tspan x="-10.2" y="18" fill="#CCCCCC" font-family="'Open Sans'" class="gparrafo" font-size="16px">Network Associate </tspan><tspan x="20.5" y="36" fill="#CCCCCC" font-family="'Open Sans'" class="gparrafo" font-size="16px">1 (CCNA1</tspan><tspan x="88.3" y="36" fill="#CCCCCC" font-family="'Open Sans'" class="gparrafo" font-size="12px">)</tspan></text>
	<rect x="578" y="51.9" fill="none" width="196.4" height="65.4"/>
	<text transform="matrix(1 0 0 1 585.3912 65.5424)"><tspan x="0" y="0" fill="#CCCCCC" font-family="'Open Sans'" class="gparrafo" font-size="18px">- Ingeniería Telemática</tspan><tspan x="16.2" y="36" fill="#CCCCCC" font-family="'Open Sans'" class="gparrafo" font-size="18px">- Machine learning</tspan></text>
	<g>
		<path fill="#99FFCC" d="M116.1,283.3c-24.9,0-45,20.1-45,45s20.1,45,45,45c24.8,0,45-20.1,45-45S140.9,283.3,116.1,283.3z
			 M149.1,327.3c-3.6,1.2-7.2,2.4-10.9,3.5c-1.4,0.4-1.8,1-1.5,2.6c0.5,2.6,0.8,5.3,1.1,8c0.1,1.2-0.3,2.2-1,3.1
			c-1.2,1.4-2.6,2.3-4.3,2.9c-4.4,1.7-8.9,2.3-13.6,2.5c-6.1,0.3-12.1-0.3-17.9-2.5c-1.6-0.6-3-1.5-4.2-2.8c-1-1.1-1.3-2.4-1.1-3.9
			c0.4-2.6,0.8-5.2,1.2-7.8c0.2-1,0-1.7-1.1-1.9c-1.1-0.3-2.2-0.8-3.3-1.1c-1.8-0.6-3,0.4-2.1,2c1.4,2.5,1.4,4.4,0,6.7
			c-0.4,0.7-0.1,2.1,0,3.1c0.3,3.5,0.6,7,0.9,10.5c0.2,2.3-1.6,1.2-2.5,1.5c-3,0-2.9,0-2.6-3.1c0.4-3.8,0.5-7.7,0.8-11.6
			c0-0.6-0.1-1.1-0.5-1.6c-1.3-1.7-1.2-3,0.2-4.7c1-1.2,0.5-2.7,0.8-4c0.1-0.5-0.6-0.6-1-0.7c-0.8-0.3-1.7-0.5-2.5-0.9
			c-1.6-0.8-2.5-2.5-2.4-4.3c0.1-1.7,1.4-3.4,2.9-3.9c9.7-3.1,19.5-6.1,29.2-9.2c3-1,5.8,0,8.7,0.9c8.7,2.8,17.5,5.5,26.2,8.3
			c1.9,0.6,3.1,2.3,3.2,4.2C152.1,325,151.1,326.6,149.1,327.3z"/>
		<path fill="#99FFCC" d="M146.8,322.1c-7-2.2-13.9-4.5-20.9-6.6c-3-0.9-5.8-2.3-9-2.4c-1.1-0.1-2.2,0.2-3.3,0.5
			c-8.9,2.8-17.8,5.6-26.6,8.5c-0.6,0.2-1.5,0.1-1.5,1.1c0,0.9,0.9,0.9,1.5,1c9.1,2.9,18.3,5.8,27.4,8.7c1.6,0.5,3.2,0.5,4.8,0
			c9.2-2.9,18.4-5.8,27.6-8.8c0.6-0.2,1.5-0.1,1.5-1.1C148.2,322.2,147.4,322.3,146.8,322.1z"/>
		<path fill="#99FFCC" d="M133.3,333.8c-0.1-1.2-0.4-1.3-1.4-1c-3.2,1.1-6.4,1.9-9.6,3c-3.7,1.3-7.2,1.3-10.9,0
			c-3.1-1.1-6.3-2-9.4-3c-1-0.3-1.5-0.4-1.6,1c-0.1,1.9-0.5,3.7-0.8,5.5c-0.5,2.7-0.1,3.5,2.4,4.6c4.7,2,9.7,2.2,15.7,2.4
			c1.4,0.2,3.9-0.3,6.3-0.5c2.8-0.2,5.5-0.9,8.1-2c2-0.9,2.4-1.7,2.1-3.8C133.9,338,133.5,335.9,133.3,333.8z"/>
	</g>
	<path fill="#003366" d="M536.4,25.2c-21.2,0-38.3,17.2-38.3,38.3c0,21.2,17.2,38.3,38.3,38.3c21.2,0,38.3-17.2,38.3-38.3
		C574.7,42.4,557.5,25.2,536.4,25.2z M553.1,64.3c0.9,0.8,1.7,1.6,2.5,2.4c1.8,1.9,1.4,3.3-1.2,4c-1.1,0.3-2.3,0.6-3.4,0.8
		c-0.8,0.2-1,0.5-0.7,1.3c0.4,1.3,0.8,2.5,1.1,3.8c0.5,1.9-0.7,3-2.6,2.6c-1.6-0.3-3.5-1.7-4.7-1c-1,0.6-1,2.9-1.5,4.4
		c-0.6,2-2.1,2.4-3.6,1c-0.9-0.9-1.8-1.8-2.6-2.8c-0.6-0.6-1-0.7-1.6,0c-0.8,0.9-1.7,1.8-2.5,2.6c-1.7,1.6-3.1,1.2-3.8-1
		c-0.4-1.2-0.7-2.5-0.9-3.7c-0.2-0.8-0.5-0.9-1.3-0.7c-1.3,0.4-2.7,0.8-4,1.1c-1.7,0.4-2.8-0.8-2.5-2.4c0.2-1,0.4-2.1,0.8-3
		c0.8-1.7,0.1-2.3-1.5-2.5c-1-0.1-1.9-0.4-2.9-0.7c-1.8-0.6-2.2-2-0.9-3.4c0.9-1,1.9-1.9,2.9-2.8c0.6-0.6,0.7-1,0-1.6
		c-1-0.9-2-1.8-2.9-2.8c-1.3-1.5-0.9-2.9,1-3.5c1.6-0.5,4-0.3,4.5-1.5c0.5-1.2-0.7-3.1-1.1-4.7c-0.3-1.4,0.6-2.7,2-2.6
		c1.3,0.4,2.8,0.7,4.2,1.2c1,0.4,1.4,0,1.5-0.9c0.2-1.2,0.6-2.4,0.9-3.5c0.6-2,2.1-2.4,3.6-1c0.8,0.8,1.7,1.6,2.4,2.5
		c0.8,1.1,1.4,0.8,2.2-0.1c0.6-0.8,1.3-1.5,2.1-2.2c1.9-1.8,3.3-1.4,4,1.1c0.3,1.1,0.6,2.3,0.8,3.4c0.2,0.8,0.5,1,1.3,0.7
		c1.3-0.4,2.7-0.8,4-1.1c1.7-0.4,2.8,0.8,2.5,2.4c-0.3,1.3-0.7,2.6-1.1,3.8c-0.2,0.8-0.3,1.3,0.8,1.5c1.3,0.2,2.5,0.6,3.7,0.9
		c2,0.6,2.4,2.1,1,3.6c-0.9,0.9-1.8,1.8-2.8,2.7C552.5,63.3,552.4,63.7,553.1,64.3z"/>
	<path fill="#00CCFF" d="M676.2,292.3c-22.6,0-41,18.3-41,41c0,22.6,18.3,41,41,41c22.6,0,41-18.3,41-41
		C717.2,310.7,698.8,292.3,676.2,292.3z M669,335.5c2.1-2.3,4.3-4.6,6.4-6.9c0.8-0.9,1.4-0.9,2.1,0c0.9,1,1.9,2,2.7,3
		c0.6,0.7,0.9,0.6,1.5,0c1.2-1.4,2.5-2.8,3.7-4.1c0.5-0.5,0.6-0.9,0-1.4c-0.5-0.5-1-1.1-1.5-1.6c-0.6-0.6-0.9-1.4-0.5-2.3
		c0.3-0.8,1-1.1,1.8-1c1.2,0,2.5,0,3.7,0c1.3,0,2.6,0,3.9,0c1.1,0,1.7,0.6,1.8,1.8c0,2.9,0,5.7,0,8.6c0,0.8-0.4,1.4-1.1,1.7
		c-0.7,0.3-1.3,0.1-1.8-0.4c-0.1-0.1-0.2-0.2-0.3-0.3c-2.1-2.2-2.1-2.2-4.2,0.1c-1.6,1.7-3.2,3.5-4.8,5.2c-1.4,1.6-1.4,1.6-2.9-0.1
		c-0.7-0.7-1.4-1.4-2-2.2c-0.7-0.9-1.2-1-2-0.1c-1.4,1.7-2.9,3.2-4.3,4.8c-0.8,0.9-1.3,0.9-2.1,0C666.6,337.5,666.6,338,669,335.5z
		 M696.6,347.7c-0.3,0.6-1,0.4-1.5,0.4c-5.5,0-11,0-16.6,0c-5.4,0-10.8,0-16.3,0c-1.4,0-1.8-0.5-1.8-2c0.1-8.5,0.1-17.1,0-25.6
		c0-1.5,0.5-2,1.8-1.9c2.8,0.1,2.8,0,2.8,2.9c0,6.6,0.1,13.2,0,19.8c0,1.6,0.4,1.9,1.8,1.8c9.3-0.1,18.6,0,27.9,0
		c0.7,0,1.8-0.3,2,0.7C697,345.2,697.2,346.5,696.6,347.7z"/>
</g>
</svg>
